<?xml version="1.0" encoding="UTF-8"?>
<svg width="469px" height="467px" viewBox="0 0 469 467" version="1.1" xmlns="http://www.w3.org/2000/svg" xmlns:xlink="http://www.w3.org/1999/xlink">
    <!-- Generator: Sketch 43.2 (39069) - http://www.bohemiancoding.com/sketch -->
    <title>femdomopoly-logo</title>
    <desc>Created with Sketch.</desc>
    <defs></defs>
    <g id="Page-1" stroke="none" stroke-width="1" fill="none" fill-rule="evenodd">
        <g id="board-color" transform="translate(-265.000000, -251.000000)">
            <g id="femdomopoly-logo" transform="translate(265.000000, 251.000000)">
                <g id="mistress" opacity="0.813009511">
                    <path d="M157.623145,35.5463977 C155.808452,36.8357192 150.943714,38.800795 152.77257,47.1247984 C153.742043,53.0874276 153.289219,64.506691 145.509075,65.277078 C145.123665,69.2775282 148.062486,69.0133293 148.829152,70.825641 C149.332017,72.014536 148.803093,73.4890672 148.491895,74.6864598 L151.865978,78.6197016 C151.865978,78.6197016 151.451299,85.4069867 153.399309,87.0203767 C157.492095,90.4095773 173.097515,83.5877223 173.097515,83.5877223 L187.311984,74.2550122 C187.311984,74.2550122 223.276339,8.28118751 157.623145,35.5463977" id="Fill-3" fill="#FBD4AB"></path>
                    <path d="M217.827481,6.19473081 C217.772153,6.19511706 217.718713,6.1960827 217.664329,6.19955901 C179.68776,8.71099354 141.941946,24.0088435 143.864464,40.3659997 C144.480818,45.6088414 146.528532,51.103908 148.5094,55.4371175 C148.546411,57.5128556 148.061297,60.0621432 145.673492,60.9924401 C143.843692,61.705275 141.635469,60.9236866 140.736431,60.8087755 C141.974237,62.0973245 143.636919,63.4472882 145.467286,63.2891164 C148.179129,63.0546592 150.619996,61.7624408 152.029452,60.1251029 C153.587142,63.1832824 152.82803,63.6276696 152.82803,63.6276696 L159.344309,38.8789153 C159.344309,38.8789153 164.314983,46.2658623 166.872927,49.6904053 C183.734281,72.2626088 177.066746,134.793543 135.179428,109.817478 C147.777291,134.395893 143.487929,126.627132 135.999911,127.430737 C135.196989,133.821338 194.891531,175.751518 214.182232,132.443757 C250.154707,150.983065 251.367398,110.180365 251.599853,96.1936598 C251.988284,72.8118644 221.718215,81.0929934 232.630546,50.2645744 C239.033714,32.1748683 224.853612,6.1503114 217.827481,6.19473081" id="Fill-1" fill="#FFFF9B"></path>
                    <path d="M157.169094,75.9329842 C156.867149,76.2178478 147.989691,77.3990177 151.295228,80.7951709 C152.855373,82.3977458 156.826172,76.5511864 157.169094,75.9329842" id="Fill-5" fill="#AA0000"></path>
                    <path d="M157.340631,75.8022366 C157.340631,75.8022366 152.806541,77.2902867 149.511012,74.7732515 C147.603035,73.3159087 146.57389,78.1311654 150.452915,78.23333 C154.331752,78.3353015 157.354794,75.8818053 157.340631,75.8022366" id="Fill-7" fill="#800000"></path>
                    <path d="M183.801827,73.1140129 L176.66655,77.555374 L169.219509,96.2775738 C161.44012,94.5952371 147.835206,96.3909399 136.460609,96.1794649 L139.219661,106.872954 L129.929978,122.483864 C129.929978,122.483864 133.070663,134.458177 143.736,136.340787 C142.290477,141.275204 137.42064,147.304462 134.277312,149.372282 C128.804717,152.972185 101.545792,160.704638 89.6233882,176.669551 L127.433783,202.560657 C133.195294,207.068261 137.466905,207.716398 143.725426,204.199346 L181.973537,182.04681 C180.247218,166.510061 161.510744,160.218921 159.915286,150.530469 C157.772588,137.518867 183.699479,121.340547 195.59167,106.745489 L195.020636,91.9148157 L179.766447,95.0065995 L183.801827,73.1140129 Z" id="Fill-9" fill="#FBD4AB"></path>
                    <path d="M48.083071,90.3002283 C45.1155467,90.3122022 42.2377185,90.5061026 39.4986832,91.0167326 C39.4986832,91.0167326 44.4038318,93.1647005 50.0359909,92.8668974 C52.7922101,92.7210859 54.5400564,94.1438587 57.5791487,94.8495479 C53.4457641,97.7887606 49.8056136,99.7669691 49.8056136,99.7669691 L50.2184044,108.561239 L54.0139652,116.594778 C53.7739574,114.257738 53.9582592,112.184124 52.3584587,109.012772 L53.5341384,104.47813 C53.1740322,106.725945 53.9678898,109.130387 54.0090556,111.378202 C57.5759386,113.501063 59.3653283,113.97693 61.6290688,115.583947 C60.4652856,113.839616 60.0322896,111.968593 56.5619007,110.617471 C56.7633864,108.020867 57.4768008,105.557715 56.144389,102.569061 L65.0310998,99.4625997 C63.4295998,102.459558 62.6276223,105.456322 62.9486399,108.45328 C64.4938675,105.794682 65.3245477,102.843882 68.6538777,100.915307 L73.138871,111.415089 C75.4279152,116.773807 76.3448924,126.498953 77.1903017,128.593811 C79.3084512,133.84206 91.0440987,151.592248 96.0914393,154.731348 C101.137836,157.870062 125.264384,118.610453 141.935583,112.104362 C158.606592,105.598465 137.040064,95.9743245 136.450903,96.1794262 C134.856201,96.7346688 127.876523,103.211018 126.379071,108.15876 C124.903334,113.034659 109.010697,124.244379 97.2404934,136.002582 C94.4995697,130.249496 91.2008308,120.757842 89.1719997,119.308804 C81.9355081,114.139737 74.0637793,103.77611 68.4380406,91.438717 C61.5714745,91.1293262 54.6114356,90.2739629 48.083071,90.3002283" id="Fill-11" fill="#FBD4AB"></path>
                    <path d="M70.7268393,105.768803 L73.1405138,111.417407 C75.429558,116.776125 76.3448358,126.498953 77.1904339,128.593811 C79.3085834,133.841867 91.1088121,151.485834 96.0913826,154.731348 C101.252779,158.093317 122.447304,122.452732 138.569751,114.880575 C137.130648,114.128728 131.936017,115.471739 129.915495,116.727264 C122.852164,121.124398 97.9770777,152.53278 95.8273929,152.218754 C93.6777081,151.904535 83.5433718,137.456834 80.4723666,127.092049 C78.7173446,121.168432 72.6824028,108.08711 70.7268393,105.768803" id="Fill-13" fill="#D6A786"></path>
                    <path d="M195.020561,91.9148157 C192.925638,95.7333395 188.524109,98.2395596 193.331442,105.979931 C198.376705,109.34499 226.21856,144.109548 226.21856,144.109548 C226.21856,144.109548 216.447351,149.692295 212.382136,153.31151 C209.468807,155.905217 205.454954,164.405933 203.700121,167.770992 C201.945288,171.136245 188.87855,190.178458 188.87855,190.178458 C189.000537,196.517107 193.031951,203.91062 196.201339,208.891774 C205.228542,213.035332 210.855225,214.141375 210.589158,213.198139 C206.790576,210.059425 203.149859,208.946622 199.924388,206.910282 C201.118573,206.968027 205.775405,207.293255 207.603883,207.487155 C214.73425,203.724445 212.262604,205.260584 213.855795,204.045617 C211.841127,203.715561 208.937051,203.970297 206.235404,204.626352 C202.570894,203.765195 200.163829,203.683695 199.137328,202.96835 C198.940941,199.503057 198.539669,195.723158 198.438831,192.146044 C201.042473,192.703218 202.941197,193.617679 205.854526,194.847903 C205.588271,198.018676 205.358271,199.701978 207.412217,202.076871 L208.481772,194.187406 C205.025546,189.765744 205.014782,189.592315 200.433106,185.62431 C198.490383,183.94178 219.924538,164.795665 229.602274,160.565972 C234.42698,158.632376 240.240986,146.251143 240.240986,146.251143 C240.240986,146.251143 207.964556,102.684783 205.332401,98.4222586 C202.700057,94.1597338 195.020561,91.9148157 195.020561,91.9148157" id="Fill-15" fill="#F2AD7A"></path>
                    <path d="M120.826637,157.490314 C113.824111,156.017714 93.8309468,169.179184 87.9448061,175.619418 C71.5013414,197.749939 69.4619356,218.192907 64.8762938,245.158383 C63.9661146,250.570791 58.9931745,267.926225 58.9931745,267.926225 C46.5458122,285.640877 39.0638365,285.971319 35.7161896,295.503337 C31.1426332,308.525368 23.9609034,341.045587 19.9738651,367.861003 C18.8578569,375.366144 14.4891852,392.536175 14.4891852,392.536175 C14.4891852,392.536175 10.1622459,405.478252 9.50415985,411.984343 C9.74794438,425.379304 3.43428386,434.161793 6.54437774,434.305094 L15.3674516,434.711628 C15.3674516,434.711435 20.8117209,409.199246 23.2246402,407.628923 C25.6375594,406.058408 27.6729997,400.882388 27.6729997,400.882388 L26.1158756,393.208453 L32.6517936,370.398702 C35.3496631,360.983527 67.346052,320.922245 70.2646684,308.369321 C74.0030125,292.291428 70.5824758,290.876766 72.8516924,278.808014 C74.0464443,272.453914 86.2709827,255.521044 89.3217827,253.833686 C92.4330096,252.112917 104.007959,241.65601 114.705021,232.363084 C120.663862,227.186485 129.100204,210.960463 131.296909,204.851636 C137.312212,201.698244 138.509419,195.542487 138.509419,189.236284 C138.509419,179.428865 132.095487,159.860186 120.826637,157.490314" id="Fill-19" fill="#FBD4AB"></path>
                    <path d="M118.336881,161.749131 C115.1082,161.742371 108.683316,163.682148 102.527143,167.251923 C143.735226,164.532296 141.176338,216.350043 96.9701399,198.499043 C102.097168,203.016303 109.562716,205.287873 118.725502,205.19073 C107.612628,237.141415 74.7058711,248.130775 67.5743711,281.620689 C60.1992754,316.254113 41.2375221,338.93891 31.6436284,364.22456 C29.1141987,370.891333 24.2732535,386.838479 24.2732535,386.838479 L23.8126877,393.434181 C23.8126877,393.434181 28.7261451,401.443386 20.8952044,407.25383 C14.7922825,411.782099 10.3818786,427.620128 8.72637201,434.40722 L15.3674705,434.711589 C15.3674705,434.711589 20.8094738,409.197276 23.222393,407.62676 C25.6353123,406.056438 27.6752846,400.883895 27.6752846,400.883895 L26.1158945,393.208415 L32.6512459,370.398278 C35.3491155,360.982909 67.3475816,320.919889 70.2661979,308.366772 C74.0045421,292.288878 70.58325,290.877307 72.8526555,278.808748 C74.0474074,272.454648 86.2700574,255.521585 89.3208574,253.834227 C92.4320843,252.113458 104.007412,241.656744 114.704473,232.363818 C120.663315,227.187219 129.100601,210.961003 131.297494,204.851983 C137.312797,201.698592 138.509437,195.542449 138.509437,189.236245 C138.509437,179.449684 133.852794,164.809242 122.636251,162.392054 C122.674962,162.411173 122.666087,162.418898 122.564305,162.377376 C122.588476,162.382397 122.612269,162.386839 122.636251,162.392054 C122.465356,162.307077 120.969981,161.754539 118.336881,161.749131" id="Fill-21" fill="#F8BE92"></path>
                    <path d="M139.610962,154.584609 C128.87198,157.210762 137.583453,180.347671 137.583453,190.502333 C137.583453,196.56114 136.311845,201.745657 140.250542,204.824888 C140.87445,210.431968 146.151601,221.68012 149.859732,227.211109 C159.037624,247.571226 174.952732,243.732037 184.500928,275.668238 C185.614292,284.778271 182.323862,300.3465 185.139564,305.976757 C191.498356,318.692294 209.913435,348.721936 211.62918,357.388355 C213.210663,365.376896 214.449036,372.059699 216.293565,378.736321 C216.658581,380.057509 216.953728,381.40979 217.304393,382.770183 C217.304393,382.76999 209.982359,388.28997 211.843695,390.51094 C216.622514,390.636473 219.135137,391.605009 222.425945,394.009451 C225.413863,396.192375 227.110158,422.145281 227.683458,425.366268 L234.744523,424.956837 C233.572431,419.826588 233.099024,413.186853 233.277283,402.786918 C233.372267,397.24299 230.142641,392.133986 227.539566,386.578278 C218.984825,350.137563 224.39907,308.72149 220.679043,298.990164 C214.480193,282.77457 208.840859,284.214145 203.453051,273.235213 C199.013944,264.189684 200.504787,247.484318 196.487158,227.753219 C189.958793,195.692065 190.774744,187.47293 184.228252,178.207042 C169.754135,157.720619 143.334388,153.674011 139.610962,154.584609" id="Fill-29" fill="#FBD4AB"></path>
                    <path d="M130.060368,122.929719 C130.738848,125.079039 134.274573,134.671892 143.735906,136.342062 C142.290383,141.276285 137.421679,147.303805 134.278161,149.371625 C130.013537,152.176807 112.21991,157.087662 99.0625325,166.852206 C116.817071,183.866576 160.003377,178.408204 179.642478,174.596246 C174.145901,164.178544 161.229098,158.502903 159.916136,150.529813 C158.717985,143.253528 166.295889,134.987463 175.290424,126.561295 C167.565985,127.902568 160.645224,126.749595 154.791563,124.544268 C146.547831,126.738586 138.304099,124.336848 130.060368,122.929719" id="Fill-31" fill="#D8516F"></path>
                    <path d="M226.210346,411.449784 C226.938111,417.86607 227.425681,423.918504 227.683439,425.367542 L230.816759,425.186002 C229.650144,421.574898 227.931566,416.358514 226.210346,411.449784 M146.057354,162.416639 C143.827792,162.402154 142.0486,162.716566 141.134266,163.466675 C130.395284,166.09302 137.583434,180.347594 137.583434,190.502449 C137.583434,196.561063 136.312582,201.743455 140.251279,204.822686 C140.873109,210.429767 146.14705,221.67985 149.857824,227.210839 C159.035717,247.570956 174.954224,243.731767 184.50242,275.667967 C185.615784,284.778001 182.324976,300.346616 185.140678,305.976872 C191.49947,318.69241 209.912094,348.721859 211.627839,357.388278 C213.209511,365.376818 214.447317,372.059428 216.292035,378.736051 C216.657051,380.057239 216.953709,381.409906 217.304563,382.770105 C217.304563,382.770105 209.982529,388.288347 211.843865,390.509318 C215.139016,390.595839 217.358947,391.085418 219.497302,392.168093 C219.378147,387.887414 219.660454,383.054776 219.660454,383.054776 C219.660454,383.054776 217.057568,355.294386 214.885978,351.51893 C212.714578,347.74328 193.20615,282.559542 189.041797,274.009192 C185.127271,265.97237 160.871182,231.137514 158.93167,205.588245 C164.91336,206.151405 174.383945,205.080318 180.140546,200.278194 C171.696651,203.959984 163.483321,204.233646 156.806533,202.486418 C137.626677,197.467026 131.125882,175.769691 168.254964,170.273466 C167.723019,166.712961 154.020101,162.467818 146.057354,162.416639" id="Fill-33" fill="#F8BE92"></path>
                    <path d="M15.2952604,389.301998 C14.748964,391.493227 14.4132174,392.597339 13.873719,394.434178 C15.6502681,393.466414 21.8085183,391.470051 23.467235,392.678452 C19.4637681,394.536149 17.8171367,396.634097 16.3559402,400.697314 C13.5664863,408.454101 12.2559792,418.778715 9.65724747,426.933153 C8.6048763,428.328887 7.79289065,429.489586 6.49994513,430.029764 C3.41439966,430.075729 0.523919578,428.975673 0.165890557,429.229829 C-0.306194124,429.565099 0.286366567,432.363908 1.22166074,433.420896 C3.01633786,435.448932 14.6503927,435.60382 17.7905112,434.902959 C18.555666,426.866717 20.0861646,415.766693 23.2368577,410.478081 C25.2383079,417.923545 21.7180669,429.93011 20.5497517,436.502831 C20.7342424,436.576992 21.9981075,437.466925 24.4219791,436.124879 C24.9184233,420.229685 31.0846046,401.856853 30.9142764,401.330387 C29.5828088,397.214253 27.7756687,394.824875 26.2166562,393.188889 L27.5834358,388.087031 C24.3234078,385.007221 19.129721,387.213321 15.2952604,389.301998" id="Fill-39" fill="#BC4E6A"></path>
                    <path d="M154.830576,59.677954 C155.14083,58.4880933 158.320414,50.0010901 160.492004,49.4460406 C162.663593,48.8907981 165.534246,61.785172 165.533113,62.5333492 C165.531413,63.6616021 156.420179,62.0671386 154.830576,59.677954" id="Fill-42" fill="#E29A68"></path>
                    <path d="M195.020561,91.9148157 C192.925638,95.7331464 188.524109,98.2395596 193.331442,105.979931 C198.376705,109.34499 226.219882,144.111479 226.219882,144.111479 C226.219882,144.111479 216.446596,149.693646 212.381192,153.313055 C209.468051,155.906762 205.455709,164.405547 203.700876,167.770606 C201.946043,171.135859 188.87855,190.178458 188.87855,190.178458 C189.000537,196.517107 193.031574,203.909848 196.200961,208.891001 C196.41812,208.990655 196.630747,209.084322 196.843941,209.1805 C195.596693,205.397512 191.10509,195.154397 191.434794,191.614943 C198.114037,179.14236 206.270905,167.08056 214.883052,155.745694 C220.014612,149.536827 232.421375,143.169981 240.240986,146.251143 C236.616508,141.356317 207.796494,102.412473 205.332401,98.4222586 C202.700057,94.1597338 195.020561,91.9148157 195.020561,91.9148157" id="Fill-44" fill="#E29A68"></path>
                    <path d="M195.020561,91.9148157 C192.925638,95.7331464 188.524109,98.2395596 193.331442,105.979931 C198.376705,109.34499 226.21856,144.109548 226.21856,144.109548 C226.21856,144.109548 216.447351,149.692295 212.382136,153.31151 C209.468807,155.905217 205.454954,164.405933 203.700121,167.770992 C201.945288,171.136245 188.87855,190.178458 188.87855,190.178458 C189.000537,196.517107 193.031951,203.91062 196.201339,208.891774 C205.228542,213.035332 210.855225,214.141375 210.589158,213.198139 C206.790576,210.059425 203.149859,208.946622 199.924388,206.910282 C201.118573,206.968027 205.775405,207.293255 207.603883,207.487155 C214.73425,203.724445 212.262604,205.260584 213.855795,204.045617 C211.841127,203.715561 208.937051,203.970297 206.235404,204.626352 C202.570894,203.765195 200.163829,203.683695 199.137328,202.96835 C198.940941,199.503057 198.539669,195.723158 198.438831,192.146044 C201.042473,192.703218 202.941197,193.617679 205.854526,194.847903 C205.588271,198.018676 205.358271,199.701978 207.412217,202.076871 L208.481772,194.187406 C205.025546,189.765744 205.014782,189.592315 200.433106,185.62431 C198.490383,183.94178 219.924538,164.795665 229.602274,160.565972 C234.42698,158.632376 240.240986,146.251143 240.240986,146.251143 C240.240986,146.251143 207.964556,102.684783 205.332401,98.4222586 C202.700057,94.1597338 195.020561,91.9148157 195.020561,91.9148157" id="Fill-46" fill="#D8516F"></path>
                    <path d="M130.117943,123.106392 C130.909157,125.528988 134.488881,134.7099 143.735887,136.342023 C144.393218,133.959791 144.324482,132.002247 143.988169,129.06767 C138.894186,136.435111 131.93377,126.915067 130.117943,123.106392" id="Fill-52" fill="#550000"></path>
                    <path d="M219.410967,377.504339 C218.304023,377.519983 217.207653,377.809868 216.244034,378.559397 C216.415306,379.016337 216.656069,381.49185 216.786176,382.505192 C214.643289,383.507526 211.28148,387.734708 210.106744,390.607485 C210.145455,398.65744 217.382324,416.131454 214.449357,431.251626 C214.337756,431.194654 217.482595,431.791805 217.923522,431.026053 C216.689493,425.278761 215.696793,407.380252 218.791969,403.04318 C222.266324,405.930441 222.265946,427.919399 222.265946,427.919592 C222.265946,427.919592 227.915478,429.472919 234.430058,428.140337 C241.031123,426.79018 239.830329,421.500601 239.262128,421.588861 C236.634127,421.996361 235.284531,423.535203 233.9406,423.257292 C232.645955,422.989617 228.563933,398.382425 228.129615,395.495357 C227.74836,392.959782 223.077932,384.530137 220.068297,382.927176 C221.999501,382.819218 225.176443,382.479313 227.201308,385.098706 C226.845545,382.920224 226.211252,380.373061 226.130998,379.897387 C225.787131,379.445081 222.730666,377.455864 219.410967,377.504339" id="Fill-54" fill="#BC4E6A"></path>
                    <path d="M24.3431598,386.609584 C24.2309925,388.687446 23.6926271,391.034336 24.0104346,393.203741 C25.3165984,396.191815 26.9131888,396.303829 27.3286234,400.672381 C26.7290758,403.615263 25.4823946,405.47914 24.2058776,408.30518 C26.0713674,407.40308 26.9469901,407.466039 28.1024646,407.502154 C26.2777629,412.436571 23.3672664,428.807439 22.5511264,436.812395 C22.9924311,436.784971 23.5625206,436.60092 24.4220924,436.12486 C24.9183478,420.229666 31.0845291,401.856834 30.9142009,401.330368 C29.5829221,397.214234 27.7755931,394.824856 26.2165807,393.18887 L27.5837379,388.087012 C26.625406,387.181435 25.5577393,386.744001 24.3431598,386.609584" id="Fill-56" fill="#8C3850"></path>
                    <path d="M21.734892,409.427871 C17.5142661,409.633745 9.67614974,430.610712 8.40661962,435.147092 C12.1036092,435.404532 16.1318133,435.273205 17.7905301,434.902979 C18.5526636,426.897443 20.0769306,415.854393 23.2032642,410.541832 C22.7934947,409.743635 22.2970504,409.400446 21.734892,409.427871" id="Fill-58" fill="#7F3147"></path>
                    <path d="M220.212321,401.703394 C219.706624,401.741054 219.233406,402.165935 218.811174,403.062821 C222.264945,406.019608 222.266078,427.919534 222.266078,427.919534 C222.266078,427.919534 226.161343,428.990234 231.210383,428.591812 C230.305114,424.99075 224.224474,401.405398 220.212321,401.703394" id="Fill-60" fill="#74344A"></path>
                    <path d="M219.594476,377.503161 C218.629534,377.404666 216.77934,377.947355 216.243996,378.559378 C216.398273,379.02076 216.656032,381.491831 216.786138,382.505173 C214.643251,383.507506 211.281442,387.734689 210.106706,390.607465 C210.145417,398.65742 217.382287,416.131435 214.449319,431.2518 C214.387759,431.220127 215.322109,431.388728 216.243996,431.416152 L215.519441,411.965088 L214.214221,398.773683 C215.852166,398.357879 217.489922,398.719801 219.127867,399.558748 C215.261493,393.958813 214.377373,388.511449 218.686373,383.329442 C218.98813,383.013678 219.434911,383.069492 219.434911,383.069492 L219.594476,377.503161 Z" id="Fill-62" fill="#7E3A50"></path>
                    <path d="M135.331118,159.840719 C122.324241,159.824689 110.937181,161.774122 102.528975,164.453771 C97.4810677,167.623578 91.5524395,170.846882 88.1643822,175.383648 C90.4417187,175.124277 94.5545204,173.703436 97.4961745,173.64569 C105.101836,173.496596 112.860076,175.508215 120.10582,178.576824 C126.866828,184.5325 131.235689,194.089818 131.221338,205.061218 C134.410364,207.771767 137.896804,207.394782 140.384123,205.743346 C140.556151,193.153341 146.726298,185.100103 151.333278,180.952683 C159.500154,178.16411 169.658661,175.865695 177.408592,177.035857 C180.987749,177.576422 184.367687,180.142704 186.236953,181.436854 C183.664469,175.972881 178.380331,171.179448 174.738103,167.890287 C164.438349,163.539696 154.473585,161.248041 145.177294,160.330105 C141.801699,159.996766 138.514479,159.844581 135.331118,159.840719" id="Fill-64" fill="#D8516F"></path>
                    <path d="M137.199478,174.626529 C136.210555,180.494332 132.244288,189.883629 129.821361,194.545542 C130.809717,198.61996 131.103921,199.970889 131.22062,205.063091 C134.409646,207.773641 137.898352,207.396655 140.385672,205.745219 C140.758619,199.856944 141.516598,197.02511 142.906982,192.964211 C140.550713,188.04003 138.053951,179.821089 137.199478,174.626529" id="Fill-66" fill="#BC4E6A"></path>
                    <path d="M129.92877,122.482512 C130.459959,124.782472 134.274592,134.671969 143.735925,136.341946 C142.290401,141.276362 137.421509,147.303689 134.27818,149.371509 C131.9982,150.87134 125.851846,152.971992 118.613655,156.095448 C121.856877,156.919332 134.058378,160.07871 136.35101,165.159131 C138.553568,163.588423 139.279068,162.802006 143.759907,159.883458 L145.453746,167.500034 C147.449909,165.694096 155.882664,158.822414 166.984207,160.516531 C163.439606,157.226791 160.505506,154.108549 159.916155,150.529697 C158.718004,143.253412 166.295907,134.98754 175.290442,126.561372 C167.566004,127.902452 160.645243,126.749479 154.791393,124.544345 C146.54785,126.73847 138.172501,123.889642 129.92877,122.482512" id="Fill-74" fill="#D8516F"></path>
                    <path d="M195.021486,91.9140625 C192.926752,95.7325863 188.525034,98.2388064 193.332367,105.979177 C198.37763,109.344237 226.220807,144.110726 226.220807,144.110726 C226.220807,144.110726 224.309431,145.203443 221.830231,146.731278 L220.630758,146.996249 L219.771753,148.021951 C217.084269,149.735768 214.176794,151.714556 212.382117,153.312302 C209.468977,155.906009 205.456635,164.404793 203.701801,167.770046 C201.946968,171.135106 188.879475,190.177705 188.879475,190.177705 C189.001462,196.516354 193.031366,203.911026 196.200754,208.891986 C196.417912,208.99164 196.630539,209.087818 196.843733,209.183996 C195.596485,205.401007 191.107526,195.154996 191.437041,191.615735 C197.694996,179.929762 205.599015,168.870489 213.260383,157.900827 C214.265924,156.460866 227.387989,156.562258 228.768743,155.790712 C232.74294,152.812681 236.443706,149.433909 240.240778,146.250969 C236.616301,141.356143 207.797419,102.41172 205.333326,98.4215054 C202.700982,94.1589806 195.021486,91.9140625 195.021486,91.9140625" id="Fill-76" fill="#9D354F"></path>
                    <path d="M228.071439,0.419163541 C228.015544,0.419936053 227.96267,0.420515436 227.908286,0.424184865 C200.034707,2.26739704 171.351031,10.8480673 159.319669,21.8308618 C157.457201,22.6418056 142.470778,29.9374032 143.014431,37.166951 C143.591507,44.8395342 144.169717,51.0368137 149.074865,50.446615 C153.980014,49.8564163 152.5394,43.659523 152.5394,43.659523 C151.906996,44.6707404 151.663778,45.9471224 150.519256,46.6089715 C150.519256,46.6089715 146.766938,47.1993633 146.766938,44.2483698 C146.766938,41.2975694 146.190239,39.5277458 148.787082,37.166951 C150.053591,36.0155228 152.13303,35.0902473 154.012493,34.4283982 C154.810883,41.454003 153.550983,38.707725 156.692801,44.9125365 C155.78621,39.1447733 156.150282,36.8413375 156.819509,35.1941501 C157.830903,32.7053115 161.327729,31.1009985 163.076708,30.8263707 C170.40384,31.0656561 165.338938,41.1772508 194.410479,40.6316646 C194.937137,41.9936022 194.063591,47.3882424 192.515153,49.0136063 C190.939712,50.6673601 190.877775,48.2138639 189.659985,46.7217582 C188.16612,48.5317524 189.002843,50.818193 189.655264,51.6637067 C194.389707,55.8095822 200.213533,51.5924425 202.150402,46.5796161 C208.212536,56.1913959 191.17009,76.6084857 191.200303,66.9704405 C192.608437,63.5014781 195.528564,66.9704405 195.528564,66.9704405 C195.528564,66.9704405 196.3972,62.2492371 194.088895,62.2492371 C191.78059,62.2492371 184.854919,62.8405946 185.720533,68.4474823 C186.370122,72.6557381 187.67062,77.5304781 189.98629,79.7004626 C188.676916,83.6539828 185.947322,93.5073656 187.740678,102.677655 C188.895775,108.58447 188.169142,114.195414 186.579538,118.32777 C183.559141,120.497755 180.1522,121.658067 176.502796,121.64532 C169.452495,121.620793 168.212612,110.81529 170.331894,104.454238 C171.609733,100.619299 175.449103,100.184375 179.981683,99.9686508 L183.700388,107.104145 L185.048662,99.6693027 C178.489518,92.1052574 162.949812,103.248155 156.277367,111.339439 C153.544752,115.315362 151.682661,139.759747 155.816801,146.698251 C163.307841,159.271647 175.167741,157.229899 195.259854,158.299827 C201.23097,158.617716 208.210836,154.433215 214.559053,147.979268 C220.590596,149.085698 227.001317,150.015801 231.48801,150.015801 C238.52075,150.015801 243.314675,140.616462 245.873563,133.771818 C252.808865,133.984838 257.963085,133.051451 260.158468,128.933 C266.556537,116.93049 270.365316,98.0928 270.37438,88.1268237 C270.389865,70.8658292 244.692029,68.5778436 242.226803,55.8400964 C241.436533,51.7571806 247.427288,44.2464385 250.628778,38.6490141 C260.051965,22.1736637 235.548693,0.599544951 228.244222,0.419163541 C228.18625,0.417811646 228.127333,0.418584158 228.071439,0.419163541" id="Fill-78" fill="#F2F27E"></path>
                    <path d="M48.0839963,90.2994944 C45.116472,90.3114683 42.2386438,90.5053687 39.4996084,91.0159987 C39.4996084,91.0159987 44.4047571,93.1639667 50.0369162,92.8661635 C52.7931354,92.720352 54.5409817,94.1429317 57.580074,94.848814 C53.4466894,97.7880267 49.8065388,99.7660421 49.8065388,99.7660421 L50.2193297,108.560505 L54.0148905,116.594044 C53.7748827,114.257004 53.9593734,112.18339 52.359384,109.011845 L53.5350637,104.477396 C53.1749575,106.725211 53.9688151,109.129653 54.0099808,111.377468 C57.5768638,113.500329 59.3662536,113.976196 61.6299941,115.583213 C60.4662109,113.838882 60.0332149,111.96786 56.562826,110.616737 C56.7643117,108.020133 57.4777261,105.556981 56.1453143,102.568327 L65.0320251,99.4618658 C63.4307139,102.458824 62.6285476,105.455589 62.9495652,108.452546 C64.4947928,105.793949 65.325473,102.843148 68.654803,100.914573 L73.1365861,111.416673 C75.4256303,116.775391 76.3458177,126.498219 77.191227,128.593077 C79.3093765,133.841133 91.045024,151.591321 96.0923646,154.730614 C98.9650943,156.517433 108.022511,144.563978 118.366642,132.73509 C115.085464,129.997889 111.217014,127.5442 108.309161,125.844868 C104.578748,129.083043 100.728047,132.518208 97.2391527,136.003393 C94.498229,130.2505 91.2017561,120.757108 89.172925,119.307877 C81.9364333,114.139003 74.0647046,103.775376 68.4389658,91.4379831 C61.5723997,91.1285923 54.6123609,90.273229 48.0839963,90.2994944" id="Fill-81" fill="#D8516F"></path>
                    <path d="M70.7277834,105.768031 C71.5008693,107.667057 72.3368369,109.533831 73.141458,111.416634 C73.4991093,112.253843 73.8199381,113.199397 74.1154631,114.204048 C74.4109881,115.208699 74.678188,116.274186 74.9215949,117.354736 C75.1162826,118.219176 75.2968078,119.090569 75.4639258,119.950761 C75.7145083,121.241241 75.93771,122.501786 76.1403287,123.65109 C76.4445401,125.374949 76.7066415,126.851025 76.9513702,127.812802 C76.9785623,127.919602 77.006132,128.01829 77.0329464,128.11215 C77.0869529,128.301416 77.1379381,128.461132 77.1911892,128.593039 C77.4559343,129.249094 77.8702358,130.099822 78.4052022,131.090954 C78.4059575,131.092306 78.4046357,131.094624 78.4052022,131.095975 C78.5385189,131.3426 78.6801443,131.598108 78.8274347,131.861534 C78.82819,131.862693 78.8268682,131.865011 78.8274347,131.866362 C82.8288245,139.011707 91.8888848,151.992602 96.0923268,154.730575 C98.9650565,156.517394 108.109903,144.615311 118.453845,132.78623 C117.650168,132.115884 116.721105,131.407684 115.869654,130.778087 C106.862278,140.848932 97.1371446,152.409179 95.828337,152.217982 C93.6786522,151.903763 83.544316,137.456062 80.4733107,127.091276 C78.7182887,121.167659 72.683347,108.086337 70.7277834,105.768031" id="Fill-83" fill="#B2324E"></path>
                    <path d="M156.331767,55.7356546 C155.54112,57.5655409 154.953658,59.2019132 154.829783,59.6764283 C156.383508,62.011344 165.118396,63.5888122 165.515891,62.6061778 L156.331767,55.7356546 Z" id="Fill-85" fill="#FFFFFF"></path>
                    <path d="M156.331767,55.7356546 C154.727246,57.426682 154.703075,59.1592319 154.829783,59.6764283 C155.235209,60.2855535 156.131414,60.8413755 157.238736,61.3155043 C158.194613,60.8533494 158.870072,59.7063631 158.870072,58.3660559 C158.870072,58.0900762 158.837781,57.8262635 158.783775,57.5711416 L156.331767,55.7356546 Z" id="Fill-87" fill="#46523F"></path>
                    <path d="M156.274173,58.5722198 L158.252963,60.4247021 C158.427634,60.1730566 158.572092,59.8858755 158.676328,59.5751327 L156.274173,58.5722198 Z" id="Fill-89" fill="#B4BFAC"></path>
                    <path d="M154.978602,50.9507963 C154.9888,53.1534194 155.082083,54.2534756 156.043814,55.3529524 C153.87298,53.7581027 153.003778,52.1605491 152.780954,51.3631242 C152.950149,55.10459 161.969232,61.2280947 164.815337,62.6012337 C163.49671,62.622864 159.708136,62.3049756 154.81545,59.666656 C153.337258,59.3435531 151.341473,61.6099084 151.341473,61.6099084 C153.404294,60.610665 153.430354,60.5007752 154.407569,60.5007752 C154.471961,60.5007752 154.566378,60.5179636 154.681189,60.5500228 C154.303333,60.831217 153.59294,61.3966953 153.375969,61.8406962 C154.413234,61.3416539 154.554859,61.0977334 155.592879,60.8787264 C155.607608,60.8847134 155.624792,60.891666 155.640843,60.8984254 C155.120417,61.2093613 154.877765,61.8945789 154.877765,61.8945789 C155.538306,61.4442047 156.032295,61.2618921 156.399011,61.2124513 C160.540704,63.8922933 167.241852,63.7949569 169.342817,62.7356507 C167.0009,62.9998496 162.609002,59.7941204 160.611895,58.444543 C159.890927,57.7817282 159.165994,57.1279905 159.292323,54.5872005 C159.196774,54.8307347 158.31813,55.8064166 159.186765,57.4582391 C157.658533,55.6957544 157.60226,55.5899203 156.90754,52.3641059 C156.645439,53.8199036 156.777623,55.4340661 157.94405,56.8201447 C156.314791,55.3645401 155.628002,53.299424 154.978602,50.9507963" id="Fill-91" fill="#000000"></path>
                    <path d="M163.481433,45.4543391 C161.361017,46.777458 159.073484,47.5459137 156.634128,47.8639952 L155.669565,49.0810869 L156.173373,47.9178779 C155.792495,47.9584348 155.405197,47.9866314 155.016955,48.0063305 L155.036216,49.3313806 L154.522776,48.0258364 C154.112629,48.0374241 153.69795,48.0410935 153.279872,48.0308577 L154.609073,49.7091387 C157.651376,49.6407714 160.537702,49.1768784 162.924751,47.4812159 C162.924751,47.4812159 169.381925,49.1878866 171.086906,49.9103779 C169.648747,48.5380114 164.172754,45.5317834 163.481433,45.4543391" id="Fill-93" fill="#2E0E14"></path>
                    <path d="M186.841486,60.359985 C186.841486,60.359985 189.5386,55.7115908 191.336676,56.0690705 C193.134752,56.4267433 192.235714,57.8570481 192.235714,57.8570481 C192.235714,57.8570481 190.337745,56.1712351 186.841486,60.359985" id="Fill-95" fill="#E29A68"></path>
                    <path d="M187.64065,62.45436 C187.64065,62.45436 190.687295,64.6509961 188.889219,64.9572969 C187.091143,65.2637908 187.840436,66.1832724 188.639581,66.2854371 C189.438726,66.3876017 192.535413,62.9140042 192.235733,61.1772055 C191.936054,59.4405999 190.038085,57.448293 187.64065,62.45436" id="Fill-97" fill="#E29A68"></path>
                    <path d="M225.834046,2.00075122 C225.778151,2.00152373 225.725277,2.00210311 225.670893,2.00577254 C198.171017,3.82426436 169.883891,12.1994466 157.576455,22.9707661 C160.921836,23.1258477 163.318138,23.8989385 162.451579,25.6944481 C162.203262,26.2089407 164.594277,25.5320276 168.526365,24.1681587 C169.408219,27.2535692 172.361014,33.2028726 182.029119,33.2028726 C195.080373,33.2028726 199.975324,37.3696059 197.936107,41.123625 C195.896701,44.8778372 203.646066,39.0428656 203.646066,39.0428656 C203.646066,39.0428656 204.790399,32.1960971 195.48882,30.7001288 C184.178427,28.9200694 175.271699,21.7762703 188.507065,16.7331228 C195.03222,18.3163849 200.01158,19.183529 203.842831,19.5010311 L218.972201,28.2267404 C218.972201,28.2267404 223.765182,27.8184682 226.961762,26.5924926 C230.158153,25.366517 218.574139,26.5905613 218.574139,24.1386102 C218.574139,22.5982224 217.470594,18.1557026 216.649922,15.0646914 C217.987054,11.9748389 217.830511,7.97805811 221.184389,5.2545692 C225.262823,5.67153222 244.840553,26.1117974 244.024979,32.7857164 C243.209217,39.4598286 234.23602,54.8895848 231.788922,59.4779163 C229.341824,64.0662477 250.550889,69.0725077 254.221631,77.8322075 C262.727086,91.1487589 262.833399,94.3421278 257.921075,130.514587 C264.319144,118.512078 268.127923,99.6743877 268.136987,89.7084114 C268.152472,72.4474169 242.454637,70.1594313 239.989411,57.4216841 C239.199141,53.3387682 245.190084,45.8280262 248.391385,40.2306018 C257.814573,23.7552514 233.311301,2.18113263 226.006829,2.00075122 C225.948857,1.99939932 225.889941,2.00017184 225.834046,2.00075122" id="Fill-99" fill="#FFFF9B"></path>
                    <path d="M211.918417,86.4134172 C201.437948,81.3739392 198.626967,86.7824845 194.992104,98.7264763 C190.432143,107.191849 195.069148,119.438665 184.506914,120.265639 C181.964832,121.682425 179.188786,122.430409 176.259783,122.420173 C169.209482,122.395453 167.969599,111.590143 170.088881,105.229091 C171.36672,101.394151 175.205902,100.959227 179.738481,100.743504 L183.457375,107.878998 L184.805649,100.444155 C178.246505,92.8801101 162.706799,104.023008 156.034354,112.114292 C153.301739,116.090215 151.439648,140.5346 155.573599,147.473104 C163.064828,160.046499 174.924728,158.004752 195.016841,159.074487 C200.987957,159.392568 207.967823,155.208067 214.31604,148.753928 C220.347583,149.86055 226.758304,150.790654 231.244808,150.790654 C238.277737,150.790654 243.071662,141.391315 245.63055,134.546671 C252.565852,134.759691 257.720072,133.826304 259.915455,129.707852 C261.721462,126.320004 263.318997,122.387148 264.68521,118.263482 C264.805497,111.115435 265.001695,103.957151 265.318558,98.3191697 C266.31749,80.5425238 239.145806,81.5661014 244.939607,83.4052579 C250.733408,85.2440281 256.928103,95.8689566 253.33214,98.5252371 C249.735987,101.181517 238.817802,104.896332 234.350559,102.611822 C232.752269,101.794505 229.337019,97.7150657 231.552041,93.4166192 C223.034878,89.9532575 209.67507,109.098987 224.960039,113.033387 C209.956055,118.019369 192.252124,99.4941595 211.918417,86.4134172" id="Fill-102" fill="#FFFF9B"></path>
                    <path d="M89.7763625,119.920111 C93.0142969,128.400741 96.4905397,140.253383 96.4905397,140.253383 L97.2407766,136.00206 C94.7578001,130.787801 91.8146353,122.504934 89.7763625,119.920111" id="Fill-104" fill="#9D354F"></path>
                    <path d="M193.936239,203.281371 C192.99849,204.756675 195.705235,207.830304 197.42249,207.938842 C199.947576,208.098559 214.331241,194.800355 214.587489,194.767716 C218.4008,194.28509 212.564889,186.23301 210.894654,189.810897 C210.807979,189.996493 197.155856,198.216593 193.936239,203.281371" id="Fill-110" fill="#2B2B2B"></path>
                    <path d="M200.32853,185.456733 C198.207925,186.033992 196.188347,187.664957 198.485889,192.155566 C201.064604,192.713705 202.961063,193.6272 205.856264,194.849699 C205.590008,198.020665 205.357176,199.703581 207.410933,202.078667 L208.481055,194.18727 C205.024828,189.765608 205.015764,189.5916 200.434088,185.623595 C200.38348,185.579755 200.34798,185.523748 200.32853,185.456733" id="Fill-112" fill="#D8516F"></path>
                </g>
                <g id="logo" transform="translate(245.498087, 242.707720) rotate(-45.000000) translate(-245.498087, -242.707720) translate(-16.001913, 185.207720)">
                    <rect id="bg" fill="#D8516F" x="-2.55795385e-13" y="3.41060513e-13" width="523" height="115" rx="5"></rect>
                    <path d="M29.2686086,39.1414154 L52.437554,39.1414154 L52.437554,47.8059662 L38.0601125,47.8059662 L38.0601125,56.2800873 L52.437554,56.2800873 L52.437554,64.8176849 L38.0601125,64.8176849 L38.0601125,85.8284271 L29.2686086,85.8284271 L29.2686086,39.1414154 Z M59.2165683,39.1414154 L84.7024081,39.1414154 L84.7024081,47.8377045 L68.0398105,47.8377045 L68.0398105,56.2800873 L84.7024081,56.2800873 L84.7024081,64.8176849 L68.0398105,64.8176849 L68.0398105,77.1003998 L84.7024081,77.1003998 L84.7024081,85.8284271 L59.2165683,85.8284271 L59.2165683,39.1414154 Z M96.3373795,39.1414154 L105.033669,39.1414154 L115.824684,71.704892 L126.774391,39.1414154 L135.343727,39.1414154 L143.214821,85.8284271 L134.645485,85.8284271 L129.630837,56.3435638 L119.696755,85.8284271 L111.857399,85.8284271 L102.05027,56.3435638 L96.9404069,85.8284271 L88.2758561,85.8284271 L96.3373795,39.1414154 Z M149.200378,39.1414154 L159.737488,39.1414154 C166.529514,39.1414154 171.57585,39.9824714 174.876648,41.6646088 C178.177446,43.3467461 180.896331,46.0815006 183.033386,49.8689545 C185.170441,53.6564083 186.238952,58.0785646 186.238952,63.135556 C186.238952,66.7325792 185.641221,70.0386171 184.44574,73.0537689 C183.250258,76.0689207 181.599884,78.5709302 179.494568,80.5598724 C177.389251,82.5488147 175.109407,83.9241264 172.654968,84.685849 C170.200529,85.4475716 165.947642,85.8284271 159.896179,85.8284271 L149.200378,85.8284271 L149.200378,39.1414154 Z M158.055359,47.7107513 L158.055359,77.1321381 L162.181335,77.1321381 C166.243856,77.1321381 169.190197,76.6666479 171.020447,75.7356537 C172.850697,74.8046594 174.347671,73.2389199 175.511413,71.0383881 C176.675156,68.8378562 177.257019,66.12955 177.257019,62.9133881 C177.257019,57.9621914 175.871128,54.1218978 173.099304,51.392392 C170.602547,48.9379526 166.592984,47.7107513 161.070495,47.7107513 L158.055359,47.7107513 Z M215.583885,37.967099 C222.18548,37.967099 227.861286,40.3580256 232.611473,45.1399506 C237.361659,49.9218755 239.736717,55.7510815 239.736717,62.6277435 C239.736717,69.4409286 237.393397,75.2066587 232.706688,79.9251068 C228.019978,84.6435549 222.333593,87.0027435 215.647361,87.0027435 C208.643746,87.0027435 202.825119,84.580079 198.191307,79.7346771 C193.557494,74.8892753 191.240623,69.1341245 191.240623,62.4690521 C191.240623,58.0045116 192.319714,53.8997349 194.477928,50.154599 C196.636142,46.4094631 199.603641,43.4419635 203.380516,41.2520111 C207.15739,39.0620588 211.225139,37.967099 215.583885,37.967099 Z M215.48867,46.6633881 C211.172242,46.6633881 207.543535,48.1656517 204.602439,51.170224 C201.661344,54.1747963 200.190818,57.9939313 200.190818,62.6277435 C200.190818,67.7905298 202.0422,71.8741478 205.745018,74.8787201 C208.622636,77.2273646 211.923384,78.4016693 215.647361,78.4016693 C219.857994,78.4016693 223.444384,76.878247 226.406639,73.8313568 C229.368893,70.7844666 230.849998,67.0288075 230.849998,62.564267 C230.849998,58.1208854 229.358314,54.3599367 226.3749,51.281308 C223.391487,48.2026793 219.76278,46.6633881 215.48867,46.6633881 Z M251.466903,39.1414154 L260.163192,39.1414154 L270.954208,71.704892 L281.903915,39.1414154 L290.473251,39.1414154 L298.344344,85.8284271 L289.775009,85.8284271 L284.76036,56.3435638 L274.826278,85.8284271 L266.986923,85.8284271 L257.179794,56.3435638 L252.06993,85.8284271 L243.40538,85.8284271 L251.466903,39.1414154 Z M326.356269,37.967099 C332.957864,37.967099 338.63367,40.3580256 343.383857,45.1399506 C348.134043,49.9218755 350.509101,55.7510815 350.509101,62.6277435 C350.509101,69.4409286 348.165781,75.2066587 343.479072,79.9251068 C338.792362,84.6435549 333.105977,87.0027435 326.419746,87.0027435 C319.41613,87.0027435 313.597503,84.580079 308.963691,79.7346771 C304.329879,74.8892753 302.013007,69.1341245 302.013007,62.4690521 C302.013007,58.0045116 303.092098,53.8997349 305.250312,50.154599 C307.408526,46.4094631 310.376025,43.4419635 314.1529,41.2520111 C317.929774,39.0620588 321.997523,37.967099 326.356269,37.967099 Z M326.261054,46.6633881 C321.944626,46.6633881 318.315919,48.1656517 315.374824,51.170224 C312.433728,54.1747963 310.963203,57.9939313 310.963203,62.6277435 C310.963203,67.7905298 312.814584,71.8741478 316.517402,74.8787201 C319.39502,77.2273646 322.695769,78.4016693 326.419746,78.4016693 C330.630379,78.4016693 334.216768,76.878247 337.179023,73.8313568 C340.141277,70.7844666 341.622382,67.0288075 341.622382,62.564267 C341.622382,58.1208854 340.130698,54.3599367 337.147285,51.281308 C334.163871,48.2026793 330.535164,46.6633881 326.261054,46.6633881 Z M357.700713,39.1414154 L367.126983,39.1414154 C372.226292,39.1414154 375.902606,39.6121952 378.156035,40.5537689 C380.409464,41.4953426 382.18679,43.0187649 383.488067,45.1240814 C384.789343,47.2293979 385.439971,49.7525661 385.439971,52.6936615 C385.439971,55.9521413 384.588335,58.6604476 382.885039,60.8186615 C381.181743,62.9768754 378.870161,64.479139 375.950225,65.3254974 C374.236349,65.8121535 371.115449,66.0554779 366.587432,66.0554779 L366.587432,85.8284271 L357.700713,85.8284271 L357.700713,39.1414154 Z M366.587432,57.3909271 L369.412139,57.3909271 C371.63383,57.3909271 373.17841,57.2322373 374.045928,56.9148529 C374.913445,56.5974685 375.595811,56.0737921 376.093047,55.343808 C376.590283,54.6138239 376.838897,53.7304505 376.838897,52.6936615 C376.838897,50.8951499 376.140661,49.5833141 374.74417,48.7581146 C373.72854,48.1445048 371.845421,47.8377045 369.094756,47.8377045 L366.587432,47.8377045 L366.587432,57.3909271 Z M415.038809,37.967099 C421.640405,37.967099 427.316211,40.3580256 432.066397,45.1399506 C436.816584,49.9218755 439.191641,55.7510815 439.191641,62.6277435 C439.191641,69.4409286 436.848322,75.2066587 432.161612,79.9251068 C427.474902,84.6435549 421.788517,87.0027435 415.102286,87.0027435 C408.09867,87.0027435 402.280043,84.580079 397.646231,79.7346771 C393.012419,74.8892753 390.695548,69.1341245 390.695548,62.4690521 C390.695548,58.0045116 391.774638,53.8997349 393.932852,50.154599 C396.091066,46.4094631 399.058566,43.4419635 402.83544,41.2520111 C406.612315,39.0620588 410.680064,37.967099 415.038809,37.967099 Z M414.943595,46.6633881 C410.627167,46.6633881 406.998459,48.1656517 404.057364,51.170224 C401.116269,54.1747963 399.645743,57.9939313 399.645743,62.6277435 C399.645743,67.7905298 401.497124,71.8741478 405.199942,74.8787201 C408.077561,77.2273646 411.378309,78.4016693 415.102286,78.4016693 C419.312919,78.4016693 422.899309,76.878247 425.861563,73.8313568 C428.823818,70.7844666 430.304923,67.0288075 430.304923,62.564267 C430.304923,58.1208854 428.813238,54.3599367 425.829825,51.281308 C422.846412,48.2026793 419.217704,46.6633881 414.943595,46.6633881 Z M446.414992,39.1414154 L455.30171,39.1414154 L455.30171,77.354306 L468.250929,77.354306 L468.250929,85.8284271 L446.414992,85.8284271 L446.414992,39.1414154 Z M470.523108,39.1414154 L480.07633,39.1414154 L488.772619,55.8992279 L497.405432,39.1414154 L506.831701,39.1414154 L493.18424,65.611142 L493.18424,85.8284271 L484.234045,85.8284271 L484.234045,65.611142 L470.523108,39.1414154 Z" id="FEMDOMOPOLY-Copy-2" fill="#B1425B"></path>
                    <path d="M26.4401815,36.3129883 L49.6091268,36.3129883 L49.6091268,44.9775391 L35.2316854,44.9775391 L35.2316854,53.4516602 L49.6091268,53.4516602 L49.6091268,61.9892578 L35.2316854,61.9892578 L35.2316854,83 L26.4401815,83 L26.4401815,36.3129883 Z M56.3881412,36.3129883 L81.873981,36.3129883 L81.873981,45.0092773 L65.2113834,45.0092773 L65.2113834,53.4516602 L81.873981,53.4516602 L81.873981,61.9892578 L65.2113834,61.9892578 L65.2113834,74.2719727 L81.873981,74.2719727 L81.873981,83 L56.3881412,83 L56.3881412,36.3129883 Z M93.5089524,36.3129883 L102.205241,36.3129883 L112.996257,68.8764648 L123.945964,36.3129883 L132.5153,36.3129883 L140.386394,83 L131.817058,83 L126.802409,53.5151367 L116.868327,83 L109.028972,83 L99.221843,53.5151367 L94.1119797,83 L85.447429,83 L93.5089524,36.3129883 Z M146.371951,36.3129883 L156.909061,36.3129883 C163.701087,36.3129883 168.747423,37.1540443 172.048221,38.8361816 C175.349018,40.518319 178.067904,43.2530735 180.204959,47.0405273 C182.342014,50.8279812 183.410525,55.2501375 183.410525,60.3071289 C183.410525,63.9041521 182.812794,67.21019 181.617312,70.2253418 C180.421831,73.2404936 178.771457,75.7425031 176.666141,77.7314453 C174.560824,79.7203875 172.28098,81.0956993 169.826541,81.8574219 C167.372102,82.6191444 163.119214,83 157.067752,83 L146.371951,83 L146.371951,36.3129883 Z M155.226932,44.8823242 L155.226932,74.3037109 L159.352908,74.3037109 C163.415428,74.3037109 166.361769,73.8382208 168.192019,72.9072266 C170.02227,71.9762323 171.519243,70.4104928 172.682986,68.2099609 C173.846729,66.0094291 174.428592,63.3011229 174.428592,60.0849609 C174.428592,55.1337643 173.042701,51.2934707 170.270877,48.5639648 C167.77412,46.1095255 163.764557,44.8823242 158.242068,44.8823242 L155.226932,44.8823242 Z M212.755458,35.1386719 C219.357053,35.1386719 225.032859,37.5295985 229.783046,42.3115234 C234.533232,47.0934484 236.90829,52.9226544 236.90829,59.7993164 C236.90829,66.6125015 234.56497,72.3782316 229.87826,77.0966797 C225.191551,81.8151278 219.505166,84.1743164 212.818934,84.1743164 C205.815318,84.1743164 199.996692,81.7516518 195.36288,76.90625 C190.729067,72.0608482 188.412196,66.3056974 188.412196,59.640625 C188.412196,55.1760844 189.491287,51.0713078 191.649501,47.3261719 C193.807715,43.581036 196.775214,40.6135363 200.552089,38.423584 C204.328963,36.2336316 208.396712,35.1386719 212.755458,35.1386719 Z M212.660243,43.8349609 C208.343815,43.8349609 204.715108,45.3372246 201.774012,48.3417969 C198.832917,51.3463692 197.362391,55.1655042 197.362391,59.7993164 C197.362391,64.9621026 199.213772,69.0457207 202.91659,72.050293 C205.794209,74.3989375 209.094957,75.5732422 212.818934,75.5732422 C217.029567,75.5732422 220.615957,74.0498199 223.578212,71.0029297 C226.540466,67.9560395 228.021571,64.2003804 228.021571,59.7358398 C228.021571,55.2924583 226.529887,51.5315095 223.546473,48.4528809 C220.56306,45.3742522 216.934353,43.8349609 212.660243,43.8349609 Z M248.638476,36.3129883 L257.334765,36.3129883 L268.125781,68.8764648 L279.075488,36.3129883 L287.644824,36.3129883 L295.515917,83 L286.946581,83 L281.931933,53.5151367 L271.997851,83 L264.158495,83 L254.351367,53.5151367 L249.241503,83 L240.576952,83 L248.638476,36.3129883 Z M323.527842,35.1386719 C330.129437,35.1386719 335.805243,37.5295985 340.55543,42.3115234 C345.305616,47.0934484 347.680674,52.9226544 347.680674,59.7993164 C347.680674,66.6125015 345.337354,72.3782316 340.650645,77.0966797 C335.963935,81.8151278 330.27755,84.1743164 323.591318,84.1743164 C316.587703,84.1743164 310.769076,81.7516518 306.135264,76.90625 C301.501451,72.0608482 299.18458,66.3056974 299.18458,59.640625 C299.18458,55.1760844 300.263671,51.0713078 302.421885,47.3261719 C304.580099,43.581036 307.547598,40.6135363 311.324473,38.423584 C315.101347,36.2336316 319.169096,35.1386719 323.527842,35.1386719 Z M323.432627,43.8349609 C319.116199,43.8349609 315.487492,45.3372246 312.546397,48.3417969 C309.605301,51.3463692 308.134775,55.1655042 308.134775,59.7993164 C308.134775,64.9621026 309.986157,69.0457207 313.688975,72.050293 C316.566593,74.3989375 319.867341,75.5732422 323.591318,75.5732422 C327.801951,75.5732422 331.388341,74.0498199 334.350596,71.0029297 C337.31285,67.9560395 338.793955,64.2003804 338.793955,59.7358398 C338.793955,55.2924583 337.302271,51.5315095 334.318857,48.4528809 C331.335444,45.3742522 327.706737,43.8349609 323.432627,43.8349609 Z M354.872286,36.3129883 L364.298555,36.3129883 C369.397865,36.3129883 373.074179,36.7837681 375.327608,37.7253418 C377.581037,38.6669155 379.358363,40.1903378 380.659639,42.2956543 C381.960915,44.4009708 382.611544,46.9241389 382.611544,49.8652344 C382.611544,53.1237142 381.759908,55.8320205 380.056612,57.9902344 C378.353316,60.1484483 376.041734,61.6507119 373.121798,62.4970703 C371.407922,62.9837264 368.287022,63.2270508 363.759005,63.2270508 L363.759005,83 L354.872286,83 L354.872286,36.3129883 Z M363.759005,54.5625 L366.583712,54.5625 C368.805402,54.5625 370.349983,54.4038102 371.217501,54.0864258 C372.085018,53.7690414 372.767384,53.245365 373.26462,52.5153809 C373.761855,51.7853967 374.010469,50.9020234 374.010469,49.8652344 C374.010469,48.0667228 373.312234,46.7548869 371.915743,45.9296875 C370.900113,45.3160777 369.016994,45.0092773 366.266329,45.0092773 L363.759005,45.0092773 L363.759005,54.5625 Z M412.210382,35.1386719 C418.811978,35.1386719 424.487784,37.5295985 429.23797,42.3115234 C433.988157,47.0934484 436.363214,52.9226544 436.363214,59.7993164 C436.363214,66.6125015 434.019895,72.3782316 429.333185,77.0966797 C424.646475,81.8151278 418.96009,84.1743164 412.273859,84.1743164 C405.270243,84.1743164 399.451616,81.7516518 394.817804,76.90625 C390.183992,72.0608482 387.867121,66.3056974 387.867121,59.640625 C387.867121,55.1760844 388.946211,51.0713078 391.104425,47.3261719 C393.262639,43.581036 396.230139,40.6135363 400.007013,38.423584 C403.783887,36.2336316 407.851636,35.1386719 412.210382,35.1386719 Z M412.115167,43.8349609 C407.79874,43.8349609 404.170032,45.3372246 401.228937,48.3417969 C398.287842,51.3463692 396.817316,55.1655042 396.817316,59.7993164 C396.817316,64.9621026 398.668697,69.0457207 402.371515,72.050293 C405.249134,74.3989375 408.549882,75.5732422 412.273859,75.5732422 C416.484492,75.5732422 420.070882,74.0498199 423.033136,71.0029297 C425.995391,67.9560395 427.476496,64.2003804 427.476496,59.7358398 C427.476496,55.2924583 425.984811,51.5315095 423.001398,48.4528809 C420.017985,45.3742522 416.389277,43.8349609 412.115167,43.8349609 Z M443.586565,36.3129883 L452.473283,36.3129883 L452.473283,74.5258789 L465.422502,74.5258789 L465.422502,83 L443.586565,83 L443.586565,36.3129883 Z M467.69468,36.3129883 L477.247903,36.3129883 L485.944192,53.0708008 L494.577005,36.3129883 L504.003274,36.3129883 L490.355813,62.7827148 L490.355813,83 L481.405618,83 L481.405618,62.7827148 L467.69468,36.3129883 Z" id="FEMDOMOPOLY-Copy" fill="#FFFFFF"></path>
                </g>
            </g>
        </g>
    </g>
</svg>