<?xml version="1.0" encoding="UTF-8"?>
<svg width="96px" height="116px" viewBox="0 0 96 116" version="1.1" xmlns="http://www.w3.org/2000/svg" xmlns:xlink="http://www.w3.org/1999/xlink">
    <!-- Generator: Sketch 43.2 (39069) - http://www.bohemiancoding.com/sketch -->
    <title>player</title>
    <desc>Created with Sketch.</desc>
    <defs>
        <path d="M10.8106731,81.3820725 C4.06493476,72.7693332 0,61.6454939 0,49.5 C0,22.1619049 20.5949015,0 46,0 C71.4050985,0 92,22.1619049 92,49.5 C92,59.8061548 89.0730416,69.3766667 84.0648354,77.3014777 L76.0669725,94.7240762 C71.6870613,104.265305 59.6255613,112 49.1429761,112 L44.947377,112 C34.4575756,112 22.1811358,104.371871 17.5337253,94.9753291 L10.8106731,81.3820725 Z" id="path-1"></path>
    </defs>
    <g id="Page-1" stroke="none" stroke-width="1" fill="none" fill-rule="evenodd">
        <g id="player" transform="translate(2.000000, 2.000000)">
            <g id="Combined-Shape">
                <use fill="#434552" fill-rule="evenodd" xlink:href="#path-1"></use>
                <path stroke-opacity="0.199784873" stroke="#FFFFFF" stroke-width="2" d="M9.95971059,81.917188 L16.6373658,95.4186571 C21.4543899,105.158139 34.0794949,113 44.947377,113 L49.1429761,113 C60.0189184,113 72.4339122,105.035328 76.9757901,95.1412698 L84.9459569,77.7790047 C90.1666816,69.4938834 93,59.7223528 93,49.5 C93,21.6253387 71.9744327,-1 46,-1 C20.0255673,-1 -1,21.6253387 -1,49.5 C-1,61.5190867 2.92181336,72.8932899 9.95971059,81.917188 Z"></path>
            </g>
            <path d="M27,57.0235131 C35.6279297,55.6167806 40,51.6049552 40,47.1201159 C40,42.6352767 34.4130859,38.6410354 27,37.2167187 C19.5869141,35.792402 14,41.6506207 14,47.1201159 C14,52.5896112 18.3720703,58.4302457 27,57.0235131 Z" id="Oval" fill="#FFFFFF"></path>
            <path d="M27,54.3566254 C33.3050255,53.3286285 36.5,50.3969099 36.5,47.1195274 C36.5,43.8421449 32.4172551,40.9232762 27,39.8824294 C21.5827449,38.8415826 17.5,43.1225885 17.5,47.1195274 C17.5,51.1164662 20.6949745,55.3846222 27,54.3566254 Z" id="Oval-Copy" fill="#C3D0DF"></path>
            <path d="M65,57.0235131 C56.3720703,55.6167806 52,51.6049552 52,47.1201159 C52,42.6352767 57.5869141,38.6410354 65,37.2167187 C72.4130859,35.792402 78,41.6506207 78,47.1201159 C78,52.5896112 73.6279297,58.4302457 65,57.0235131 Z" id="Oval" fill="#FFFFFF"></path>
            <path d="M65,54.3566254 C71.3050255,53.3286285 74.5,50.3969099 74.5,47.1195274 C74.5,43.8421449 70.4172551,40.9232762 65,39.8824294 C59.5827449,38.8415826 55.5,43.1225885 55.5,47.1195274 C55.5,51.1164662 58.6949745,55.3846222 65,54.3566254 Z" id="Oval-Copy-2" fill="#C3D0DF" transform="translate(65.000000, 47.117930) scale(-1, 1) translate(-65.000000, -47.117930) "></path>
            <g id="zipper" transform="translate(29.000000, 86.000000)">
                <path d="M32.9253541,2.71551297 C33.0716871,1.61801547 34.0829445,0.728317957 35.1846477,0.728317957 L34.4626459,0.728317957 C35.5640863,0.728317957 36.5751874,1.61487279 36.7219395,2.71551297 L37.1253541,5.74112294 C37.2716871,6.83862044 36.496155,7.72831796 35.3909339,7.72831796 L34.2563597,7.72831796 C33.1521329,7.72831796 32.3751874,6.84176312 32.5219395,5.74112294 L32.9253541,2.71551297 Z M33.7692927,3.71691672 L33.5084746,5.67305252 C33.4360031,6.21658888 33.8218298,6.66962058 34.3722835,6.66962058 L35.275047,6.66962058 C35.8192109,6.66962058 36.2122411,6.22344186 36.1388559,5.67305252 L35.8780378,3.71691672 C35.8055663,3.17338037 35.293966,2.72034866 34.7373874,2.72034866 L34.9099431,2.72034866 C34.3483058,2.72034866 33.842678,3.16652738 33.7692927,3.71691672 Z" id="Combined-Shape" fill="#FFFFFF" transform="translate(34.823662, 4.228318) rotate(-30.000000) translate(-34.823662, -4.228318) "></path>
                <path d="M0.5,2 L34.8656806,2" id="Line" stroke="#FFFFFF" stroke-width="2" stroke-linecap="square" stroke-dasharray="1,3,1,3"></path>
            </g>
            <circle id="Oval-2" fill="#494949" cx="26.5" cy="47.5" r="2.5"></circle>
            <circle id="Oval-2-Copy" fill="#494949" cx="65.5" cy="47.5" r="2.5"></circle>
        </g>
    </g>
</svg>