<?xml version="1.0" encoding="UTF-8"?>
<svg width="1422px" height="1007px" viewBox="0 0 1422 1007" version="1.1" xmlns="http://www.w3.org/2000/svg" xmlns:xlink="http://www.w3.org/1999/xlink">
    <!-- Generator: Sketch 46.1 (44463) - http://www.bohemiancoding.com/sketch -->
    <title>thefemdomist-logo</title>
    <desc>Created with Sketch.</desc>
    <defs>
        <circle id="path-1" cx="711" cy="383" r="383"></circle>
    </defs>
    <g id="Page-1" stroke="none" stroke-width="1" fill="none" fill-rule="evenodd">
        <g id="Artboard" transform="translate(-127.000000, -297.000000)">
            <g id="thefemdomist-logo" transform="translate(127.000000, 297.000000)">
                <path d="M2.8,866 C1.4,866 0,867.4 0,869 L0,899.2 C0,900.8 1.4,902 2.8,902 L36,902 L36,1001.2 C36,1002.6 37.4,1004 39,1004 L74.4,1004 C76,1004 77.2,1002.6 77.2,1001.2 L77.2,902 L107,902 C108.4,902 110,900.8 110.2,899.2 L113.2,868.8 C113.4,867.4 112.2,866 110.4,866 L2.8,866 Z M121.4,859 C119.8,859 118.4,860.4 118.4,862 L118.4,1001 C118.4,1002.6 119.8,1004 121.4,1004 L156.6,1004 C158.2,1004 159.6,1002.6 159.6,1001 L159.6,936.8 C159.6,936.8 161.4,925.6 172.8,925.6 C179,925.6 182.6,930.2 182.6,938.2 L182.6,1001 C182.4,1002.6 183.8,1004 185.4,1004 L220.6,1004 C222.2,1004 223.6,1002.6 223.6,1001 L223.6,928 C223.6,904.8 209.4,891.2 185.4,891.2 C174.6,891.2 165,895.4 159.6,902.4 L159.6,862 C159.6,860.4 158.2,859 156.6,859 L121.4,859 Z M324.8,968 L333.4,992.8 C333.8,994.2 333.4,995 332,995.8 C321.4,1002.8 306,1007 290.6,1007 C255.2,1007 231.6,983.8 231.6,949.2 C231.6,914.4 254.8,891.2 289.6,891.2 C322.8,891.2 342.4,912.6 342.4,949 C342.4,952 342.2,955 341.6,958 C341.4,959.6 340.4,960.4 338.6,960.4 L274.4,960.4 C274.4,960.4 274.4,973 291.2,973 C301.4,973 312.8,970.6 321.8,966.4 C323.2,965.8 324.4,966.6 324.8,968 Z M274.2,939.4 L302.6,939.4 C302.6,930.6 297.2,924.8 289.2,924.8 C280.2,924.8 274.2,930.6 274.2,939.4 Z M378.4,866 C376.8,866 375.6,867.4 375.6,868.8 L375.6,1001 C375.6,1002.4 376.8,1004 378.4,1004 L413.8,1004 C415.4,1004 416.8,1002.6 416.8,1001.2 L416.8,953.4 L453.4,953.4 C455.2,953.4 456.6,952 456.8,950.8 L459.6,922.8 C459.8,921.6 458.8,920.2 457,920.2 L416.8,920.2 L416.8,902 L467.6,902 C469.4,902 470.6,900.8 470.6,899 L470.6,868.8 C470.6,867.4 469.4,866 467.6,866 L378.4,866 Z M567,968 L575.6,992.8 C576,994.2 575.6,995 574.2,995.8 C563.6,1002.8 548.2,1007 532.8,1007 C497.4,1007 473.8,983.8 473.8,949.2 C473.8,914.4 497,891.2 531.8,891.2 C565,891.2 584.6,912.6 584.6,949 C584.6,952 584.4,955 583.8,958 C583.6,959.6 582.6,960.4 580.8,960.4 L516.6,960.4 C516.6,960.4 516.6,973 533.4,973 C543.6,973 555,970.6 564,966.4 C565.4,965.8 566.6,966.6 567,968 Z M516.4,939.4 L544.8,939.4 C544.8,930.6 539.4,924.8 531.4,924.8 C522.4,924.8 516.4,930.6 516.4,939.4 Z M622.2,896 C621.6,894.6 620.4,894 619,894 L596.6,894 C594.8,894 593.8,895 593.8,896.8 L593.8,1001.2 C593.8,1003 594.8,1004 596.6,1004 L632.2,1004 C634,1004 635,1003 635,1001.2 L635,939.8 C635,939.8 636.8,928.6 648.2,928.6 C654.2,928.6 658,932.6 658,941.2 L658,1001.2 C658,1003 659,1004 660.8,1004 L696.4,1004 C698.2,1004 699.2,1003 699.2,1001.2 L699.2,939.8 C699,939.8 700.8,928.6 712.2,928.6 C718.2,928.6 721.6,933.2 722,941.2 L722,1001.2 C722,1003 723,1004 724.8,1004 L760.4,1004 C762.2,1004 763.2,1003 763.2,1001.2 L763.2,935.2 C763.2,907.6 747.4,891.2 720.6,891.2 C706.6,891.2 693.8,897 686,907 C681.6,897 670.6,891.2 656.2,891.2 C642.8,891.2 631.2,895.4 624.8,902.4 L622.2,896 Z M851.4,859 L886.6,859 C888.2,859 889.6,860.4 889.6,861.8 L889.6,1001 C889.6,1002.6 888.2,1004 886.6,1004 L864,1004 C862.6,1004 861.6,1002.8 860.8,1001 L857.8,993.8 C850.2,1001.8 837.4,1007 824,1007 C792.4,1007 771.2,983.8 771.2,949 C771.2,914.4 792.4,891.2 824,891.2 C833.4,891.2 842.4,894 848.4,898.8 L848.4,861.8 C848.4,860.4 849.8,859 851.4,859 Z M848.4,961.8 L848.4,936.6 C846,930 839.6,925.6 832.6,925.6 C821.6,925.6 814.2,934.8 814.2,948.8 C814.2,963.2 821.6,972.8 832.6,972.8 C839.6,972.8 846,968.4 848.4,961.8 Z M957.6,891.2 C992.8,891.2 1016.4,914.4 1016.4,949 C1016.4,983.8 992.8,1007 957.6,1007 C922.4,1007 898.8,983.8 898.8,949.2 C898.8,914.4 922.4,891.2 957.6,891.2 Z M957.6,927.2 C945.8,927.2 937.8,936 937.8,949.2 C937.8,962.2 945.8,971 957.6,971 C969.4,971 977.4,962.2 977.4,949 C977.4,936 969.4,927.2 957.6,927.2 Z M1054,896 C1053.4,894.6 1052.2,894 1050.8,894 L1028.4,894 C1026.6,894 1025.6,895 1025.6,896.8 L1025.6,1001.2 C1025.6,1003 1026.6,1004 1028.4,1004 L1064,1004 C1065.8,1004 1066.8,1003 1066.8,1001.2 L1066.8,939.8 C1066.8,939.8 1068.6,928.6 1080,928.6 C1086,928.6 1089.8,932.6 1089.8,941.2 L1089.8,1001.2 C1089.8,1003 1090.8,1004 1092.6,1004 L1128.2,1004 C1130,1004 1131,1003 1131,1001.2 L1131,939.8 C1130.8,939.8 1132.6,928.6 1144,928.6 C1150,928.6 1153.4,933.2 1153.8,941.2 L1153.8,1001.2 C1153.8,1003 1154.8,1004 1156.6,1004 L1192.2,1004 C1194,1004 1195,1003 1195,1001.2 L1195,935.2 C1195,907.6 1179.2,891.2 1152.4,891.2 C1138.4,891.2 1125.6,897 1117.8,907 C1113.4,897 1102.4,891.2 1088,891.2 C1074.6,891.2 1063,895.4 1056.6,902.4 L1054,896 Z M1227,850 C1213.8,850 1205,858.2 1205,870.6 C1205,882.4 1213.8,890.4 1227,890.4 C1240.2,890.4 1249,882.4 1249,870.6 C1249,858.2 1240.2,850 1227,850 Z M1209.6,894 C1208,894 1206.6,895.4 1206.6,896.8 L1206.6,1001 C1206.6,1002.6 1208,1004 1209.6,1004 L1244.8,1004 C1246.4,1004 1247.8,1002.6 1247.8,1001 L1247.8,896.8 C1247.8,895.4 1246.4,894 1244.8,894 L1209.6,894 Z M1258,992.4 C1257.6,993.6 1258.2,994.6 1259.2,995.6 C1270.4,1002.4 1286.6,1007 1299.6,1007 C1326.2,1007 1343.8,992.6 1343.8,971.2 C1343.8,933.2 1300,937 1300,926.4 C1300,923.2 1302.8,921.2 1307,921.6 C1313.8,921.6 1322.2,924.8 1330,929.8 C1331,930.4 1332.2,930.2 1332.6,929 L1342.8,905.4 C1343.2,904.4 1342.6,903.4 1341.6,902.6 C1331,895.8 1315.4,891.2 1302.4,891.2 C1275.2,891.2 1257,905.6 1257,927 C1257,964.6 1300.8,961.4 1300.8,971.6 C1300.8,974.6 1298,977 1293.8,976.6 C1287,976.6 1278.6,973 1270.8,968.4 C1269.8,967.8 1268.6,968 1268.2,969.2 L1258,992.4 Z M1403.2,894 L1403.2,868.8 C1403.2,867.4 1401.8,865.8 1400.2,866 L1365,869.4 C1363.4,869.6 1362,870.8 1362,872.2 L1362,894 L1350.6,894 C1349.2,894 1347.8,895.2 1347.8,897 L1347.8,916.4 C1347.8,918 1349.2,919.2 1350.6,919.2 L1362,919.2 L1362,1001 C1362,1002.6 1363.4,1004 1365,1004 L1400.2,1004 C1401.8,1004 1403.2,1002.6 1403.2,1001 L1403.2,919.2 L1416,919.2 C1417.6,919.2 1418.8,917.8 1419,916.2 L1421.2,896.8 C1421.2,895.2 1420,894 1418.2,894 L1403.2,894 Z" id="The-Femdomist" fill="#F54790"></path>
                <mask id="mask-2" fill="white">
                    <use xlink:href="#path-1"></use>
                </mask>
                <use id="Mask" fill="#F54790" xlink:href="#path-1"></use>
                <path d="M724.45768,595 C696.53695,595 680.165202,567.711069 699.245907,549.474827 C718.326612,531.238585 734.255595,533.958527 752.719595,512.0786 C836.213461,413.137972 871.105645,337.568004 903.161639,307.833718 C935.217633,278.099432 961.240041,228.771514 1170.94822,91.4672647 C1380.6564,-45.8369846 1347.01505,158.407897 1347.01505,158.407897 C1347.01505,158.407897 1020,288.624979 1018.5822,336.018167 C1017.1644,383.411355 1076.19885,475.896069 971.496112,471.628886 C866.793375,467.361703 858.94099,521.690667 825.89992,550.116316 C792.858851,578.541965 752.37841,595 724.45768,595 Z" id="foot" fill="#1D1D1D" mask="url(#mask-2)"></path>
                <path d="M461.45907,471.076131 C531.63139,477.450975 588.070604,522.37132 623.437748,540.60389 C658.804893,558.83646 666.279155,543.436666 681.869619,531.50716 C690.820263,524.65831 694.111657,518.209768 707.051481,523.857695 C719.991304,529.505623 751.440411,497.881334 741.317385,482.995542 C731.194359,468.109751 739.631924,460.940141 748.056663,457.108994 C756.481401,453.277846 779.044,471.076131 782.507275,447.150063 C785.712471,425.006936 753.197743,387.875347 779.044,334.915145 C783.080127,326.644929 789.023958,312.09364 794.887844,308.587232 C849.640947,275.846701 810.357141,240.78644 810.357141,240.78644 C810.357141,240.78644 487.184793,58.2308465 450.114918,279.457166 C420.728176,454.83194 364.195772,441.955212 405.70803,447.150063 C416.561366,448.508251 429.568716,468.179035 461.45907,471.076131 Z" id="head" fill="#1D1D1D" mask="url(#mask-2)"></path>
                <path d="M442.129258,328.25166 C405.463042,276.253332 124.392969,165.54372 114.322092,179.148649 C104.251214,192.753579 75.2403501,427.920761 75.2403501,427.920761 C75.2403501,427.920761 -127.436063,731.487163 68.0725571,732.256672 C263.581177,733.026182 130.77846,781.99444 133.441442,752.630917 C135.362689,731.446179 89.0354639,716.950661 5.05667582,710.409829 C-78.9221122,703.868998 137.700129,665.594718 133.441442,603.54115 C155.047586,458.509113 326.925611,464.075233 462.014103,470.200529 C597.102595,476.325825 593.993982,431.484499 593.993982,431.484499 C593.993982,431.484499 478.795473,380.249988 442.129258,328.25166 Z" id="body" fill="#1D1D1D" mask="url(#mask-2)"></path>
            </g>
        </g>
    </g>
</svg>