<?xml version="1.0" encoding="UTF-8"?>
<svg width="57px" height="41px" viewBox="0 0 57 41" version="1.1" xmlns="http://www.w3.org/2000/svg" xmlns:xlink="http://www.w3.org/1999/xlink">
    <!-- Generator: Sketch 43.2 (39069) - http://www.bohemiancoding.com/sketch -->
    <title>ico-collar</title>
    <desc>Created with Sketch.</desc>
    <defs>
        <polygon id="path-1" points="0.382138592 0.135189189 5.69231733 0.135189189 5.69231733 8.14146274 0.382138592 8.14146274 0.382138592 0.135189189"></polygon>
    </defs>
    <g id="Page-1" stroke="none" stroke-width="1" fill="none" fill-rule="evenodd">
        <g id="board-color" transform="translate(-371.000000, -880.000000)">
            <g id="7.-Collar-&amp;-Leash" transform="translate(360.000000, 841.000000)">
                <g id="ico-collar" transform="translate(11.000000, 39.000000)">
                    <path d="M51.1969573,5.8097 C51.4315981,5.7349027 51.6739864,5.6589973 51.9191417,5.68060541 C52.1648505,5.70165946 52.4166466,5.8434973 52.4913553,6.07897027 C52.5987146,6.41860541 52.3120544,6.74494324 52.0502971,6.98651081 C51.0940252,7.86911892 50.1383068,8.75172703 49.182035,9.63433514 C48.7559184,10.0271595 48.3093262,10.432173 47.7548214,10.5994973 C47.0580932,10.8100378 46.2490252,10.5806595 45.7648019,10.0365784 C43.3126951,7.27738919 49.6579573,6.3017 51.1969573,5.8097" id="Fill-1" fill="#D3D1D3"></path>
                    <path d="M52.491134,6.07869324 C52.4164252,5.84377432 52.1646291,5.70138243 51.9194738,5.68032838 C51.8519592,5.67478784 51.7849981,5.67700405 51.7180369,5.6836527 C51.7324252,5.97785541 51.4839495,6.25488243 51.2548427,6.46653108 C50.2985709,7.34913919 49.342299,8.23119324 48.3860272,9.11380135 C47.9604641,9.50717973 47.5138718,9.91219324 46.9588136,10.0795176 C46.5708816,10.196423 46.1497456,10.1731527 45.767901,10.0390716 C46.2521243,10.5814905 47.0589786,10.8092068 47.7546,10.5997743 C48.3096583,10.43245 48.7556971,10.0274365 49.1818136,9.63405811 C50.1380854,8.75145 51.0943573,7.86884189 52.0506291,6.98678784 C52.3123864,6.74466622 52.5990466,6.41832838 52.491134,6.07869324" id="Fill-3" fill="#C4C2C4"></path>
                    <g id="Group-7" transform="translate(35.417476, 0.418920)">
                        <mask id="mask-2" fill="white">
                            <use xlink:href="#path-1"></use>
                        </mask>
                        <g id="Clip-6"></g>
                        <path d="M2.39660097,2.85703514 C2.97324175,1.86084595 3.59526117,0.818116216 4.59801845,0.254643243 C4.79613495,0.143278378 5.07338738,0.0640486486 5.22778544,0.231372973 C5.30083398,0.310048649 5.32186311,0.422521622 5.33846505,0.5289 C5.67437767,2.61602162 5.77177573,4.74192703 5.62789223,6.85121081 C5.61682427,7.01908919 5.59800874,7.20137297 5.48345534,7.32492703 C5.38439709,7.43185946 5.23442621,7.47175135 5.09330971,7.50665676 C4.54544563,7.64295405 3.99813495,7.77925135 3.45027087,7.91554865 C2.82991165,8.06957568 2.18354272,8.22415676 1.55875631,8.09062973 C-1.21487476,7.49834595 1.69212524,4.07429189 2.39660097,2.85703514" id="Fill-5" fill="#D3D1D3" mask="url(#mask-2)"></path>
                    </g>
                    <path d="M28.4406757,4.5018 C28.5983942,3.50561081 28.8208602,2.52161081 29.0577146,1.57196216 C29.095899,1.41682703 29.1794621,1.22734054 29.3388408,1.23343514 C29.4257243,1.23675946 29.4960058,1.30158378 29.5563262,1.36363784 C30.9138117,2.73990811 32.1512097,4.85085405 32.966365,6.59889459 C33.2319961,7.16735405 33.4749379,7.76074595 33.5169961,8.38682703 C33.5302777,8.59127297 33.5147825,8.81621892 33.3775398,8.96802973 C33.2757146,9.07994865 33.1262971,9.13202973 32.982967,9.17967838 L30.743365,9.92654324 C29.517035,10.3354351 28.5441612,10.3071784 28.3377437,8.94752973 C28.1163845,7.49036757 28.2065883,5.98278649 28.4406757,4.5018" id="Fill-8" fill="#D3D1D3"></path>
                    <path d="M20.483033,5.27675541 C20.4730718,5.19530946 20.4625573,5.11386351 20.4509359,5.03352568 C20.434334,4.91883649 20.4238194,4.78586351 20.5051689,4.70386351 C20.6462854,4.56091757 20.8798194,4.71106622 21.0231495,4.85235 C22.2240233,6.03636351 23.7082369,7.00152568 24.986033,8.12071486 C25.3750718,8.46145811 25.7701981,8.80885 26.0452369,9.24766081 C26.3208291,9.68591757 26.4641592,10.2360932 26.3058874,10.7292014 C25.857635,12.1248635 22.7635864,13.3820122 21.7801981,12.037323 C20.4022369,10.1529851 20.7481107,7.4896473 20.483033,5.27675541" id="Fill-10" fill="#D3D1D3"></path>
                    <path d="M12.7204631,9.37470541 C12.7215699,9.29713784 12.7248903,9.21347568 12.7719291,9.15197568 C12.8482981,9.0528 12.9977155,9.05723243 13.1205699,9.07994865 C14.6285796,9.36196216 15.5643757,10.8750838 16.9130068,11.6058811 C17.470832,11.9078405 18.1210748,12.0906784 18.5372301,12.5699351 C19.1393272,13.2641649 19.015366,14.3767054 18.4846573,15.1274486 C17.9545019,15.8781919 17.1144437,16.3413811 16.2849,16.7353135 C13.497434,18.0589486 12.7010942,11.1072324 12.7204631,9.37470541" id="Fill-12" fill="#D3D1D3"></path>
                    <path d="M11.4846699,21.7400284 C11.9866019,20.9820824 12.597,19.8645554 11.8399515,19.0761365 C10.3596117,17.5342041 7.17591262,17.4649473 5.21245631,17.1652041 C4.97449515,17.1291905 4.72767961,17.0942851 4.49635922,17.1607716 C4.26503883,17.2267041 4.05253398,17.4228392 4.047,17.6638527 C4.04312621,17.8256365 4.13000971,17.974677 4.2168932,18.1115284 C5.29380583,19.8085959 6.80679612,21.2253122 8.56992233,22.1877041 C9.0901165,22.4719338 9.67450485,22.7229203 10.2577864,22.6193122 C10.7669126,22.5284473 11.1991165,22.1716365 11.4846699,21.7400284" id="Fill-14" fill="#D3D1D3"></path>
                    <g id="Group-18" transform="translate(0.000000, 24.797299)" fill="#D3D1D3">
                        <path d="M0.625118447,2.30597297 C0.320196117,2.42287838 -0.0461533981,2.63785135 0.0047592233,2.96086486 C0.0230213592,3.07610811 0.0955165049,3.17583784 0.180739806,3.25562162 C0.49008932,3.54428378 0.942768932,3.60135135 1.36224466,3.65232432 C3.03959417,3.85621622 4.70144854,4.1892027 6.32843883,4.64740541 C6.45572039,4.68286486 6.58798252,4.71998649 6.71803107,4.69727027 C6.96706019,4.65405405 7.13418641,4.39808108 7.15964272,4.14654054 C7.18565243,3.895 7.10264272,3.64622973 7.02073981,3.40687838 C6.76285631,2.65391892 6.55809903,1.84777027 6.23823495,1.11918919 C5.84476893,0.22272973 5.87077864,0.301405405 4.9145068,0.662094595 C3.48563301,1.20063514 2.07336117,1.82283784 0.625118447,2.30597297" id="Fill-16"></path>
                    </g>
                    <path d="M6.71825243,28.5516797 C6.58820388,28.5743959 6.45538835,28.5372743 6.3281068,28.5018149 C4.7016699,28.0436122 3.03981553,27.7106257 1.36246602,27.5067338 C1.01327184,27.4640716 0.643048544,27.4158689 0.349747573,27.2352473 C0.140009709,27.3588014 -0.0309902913,27.5311122 0.00498058252,27.7582743 C0.0226893204,27.8735176 0.0957378641,27.9732473 0.180961165,28.052477 C0.489757282,28.3416932 0.942436893,28.3987608 1.36246602,28.4497338 C3.03981553,28.6536257 4.7016699,28.9866122 6.3281068,29.4442608 C6.45538835,29.4802743 6.58820388,29.5173959 6.71825243,29.4946797 C6.96728155,29.4514635 7.13385437,29.1954905 7.15986408,28.94395 C7.182,28.7273149 7.12333981,28.51345 7.05416505,28.3056797 C6.97668932,28.4303419 6.86158252,28.5267473 6.71825243,28.5516797" id="Fill-19" fill="#C4C2C4"></path>
                    <path d="M25.5929447,14.5257459 C32.0754495,11.4053135 38.4528087,10.1381919 42.6198961,10.8246649 C40.8977214,14.7135703 35.653168,19.3365973 28.6416146,22.7096784 C22.1591097,25.8267865 15.7784301,27.0966784 11.6113427,26.4107595 C13.3335175,22.5218541 18.5813913,17.8955027 25.5929447,14.5257459 M48.7958184,13.0065297 C47.9192359,11.1798135 46.2380126,6.54681351 43.4726825,4.67577297 C42.6813233,4.13944865 41.8014204,3.82917838 40.826333,3.87682703 C40.3830612,3.89732703 39.922634,3.99262432 39.4417311,4.14997568 C35.172265,5.53954324 29.5591485,11.7770838 24.5531097,14.1844486 C19.904566,16.4206108 11.4270612,18.1138 7.06185728,20.5278135 C6.19910971,21.0059622 5.49684757,21.5145838 5.01594466,22.0575568 C4.07129417,23.1296514 3.98607087,24.3485703 4.34743981,25.5841108 C5.08401262,28.1554757 7.72040097,30.8082865 8.48409029,32.392327 C9.60970194,34.7448405 12.8869252,35.7892324 17.2753718,35.5742595 C21.6610515,35.3626108 27.1579544,33.8910432 32.7234786,31.2144081 C38.2890029,28.537773 42.8722456,25.1608135 45.7809058,21.8664081 C48.6901194,18.5714486 49.9241971,15.3590432 48.7958184,13.0065297" id="Fill-21" fill="#666666"></path>
                    <path d="M32.8190505,29.5926365 C22.9702252,34.3281365 13.3676621,34.7957581 11.3726621,30.6342581 C11.0893223,30.0436365 10.9736621,29.3948392 11.0107398,28.6945149 C11.0516913,27.9775689 11.2564485,27.20965 11.6111767,26.4107041 C15.7782641,27.096623 22.1589437,25.8267311 28.6414485,22.709623 C35.6530019,19.3365419 40.8975553,14.7135149 42.6197301,10.8246095 C43.1891767,10.9171365 43.7182252,11.0467851 44.1985748,11.2141095 C45.5494194,11.6784068 46.5350214,12.4330284 47.0397204,13.4812986 C49.0380408,17.6427986 42.6711961,24.8571365 32.8190505,29.5926365" id="Fill-23" fill="#666666"></path>
                    <path d="M28.6416146,22.709623 C22.1591097,25.8267311 15.7784301,27.097177 11.6113427,26.4107041 C13.3335175,22.5217986 18.5813913,17.8954473 25.5929447,14.5256905 C32.0754495,11.4052581 38.4528087,10.1386905 42.6198961,10.8246095 C40.8977214,14.7135149 35.653168,19.3365419 28.6416146,22.709623 M44.6182165,6.12346081 C44.352032,5.56663649 43.9635466,5.08571757 43.4721291,4.67571757 C39.7964592,1.60958243 30.1933427,2.57917703 20.3788282,7.30137973 C9.24445922,12.65465 2.04917767,20.8081095 4.30648835,25.5092581 C4.3203233,25.5330824 4.33028447,25.5602311 4.34743981,25.5846095 C5.31256602,27.4960959 7.72372136,28.5238662 11.0109058,28.6945149 C15.6627699,28.9338662 22.0567311,27.4517716 28.5458767,24.3313392 C36.2840417,20.6097581 42.1185175,15.5396095 44.1987408,11.2141095 C45.1162748,9.31204189 45.3071971,7.5573527 44.6182165,6.12346081" id="Fill-25" fill="#808080"></path>
                    <path d="M42.6198961,10.8247203 C38.4528087,10.1382473 32.0754495,11.4053689 25.5929447,14.5258014 C18.5813913,17.8955581 13.3335175,22.5219095 11.6113427,26.4108149 C9.44589612,26.0556662 7.87701262,25.1747203 7.19522621,23.7508014 C6.74476019,22.8122338 6.71764369,21.7163149 7.06185728,20.5278689 C8.24889612,16.4583419 13.7867505,11.3095176 21.4153427,7.63946351 C28.4401777,4.26250405 35.3393913,3.05411216 39.4417311,4.15003108 C41.0919641,4.59050405 42.2889641,5.4027473 42.8617311,6.59784189 C43.4383718,7.79958514 43.3188379,9.2506527 42.6198961,10.8247203" id="Fill-27" fill="#4D4D4D"></path>
                    <path d="M7.28637087,39.1177122 C7.1934,39.4263203 7.10042913,39.7437932 7.12865243,40.0645905 C7.15742913,40.3853878 7.3356233,40.7139419 7.63777864,40.8241986 C8.12200194,41.0003878 8.59681748,40.5693338 8.9332835,40.1787257 C10.0771573,38.8489959 11.2210311,37.5192662 12.3654583,36.1895365 C13.1230602,35.3091446 13.8922835,34.4099149 14.3482835,33.3411446 C14.5303515,32.914523 14.6592932,32.4252932 14.4938272,31.9914689 C14.3626718,31.6479554 14.0671573,31.3958608 13.7661087,31.1853203 C13.2044097,30.7919419 12.5646816,30.4838878 11.8823417,30.4207257 C9.86741942,30.2351176 9.58020583,31.9438203 9.0755068,33.4635905 C8.45238058,35.3396176 7.85581748,37.2245095 7.28637087,39.1177122" id="Fill-29" fill="#D3D1D3"></path>
                    <g id="Group-33" transform="translate(6.640777, 30.891893)" fill="#C4C2C4">
                        <path d="M7.85327184,1.0998527 C7.7221165,0.756339189 7.42660194,0.504244595 7.1255534,0.29315 C7.08626214,0.266001351 7.04641748,0.239960811 7.00657282,0.21392027 C7.16097087,0.642758108 7.03479612,1.12367703 6.85494175,1.54420405 C6.39894175,2.61297432 5.62971845,3.51220405 4.8721165,4.39259595 C3.72824272,5.72232568 2.58381553,7.05205541 1.43994175,8.38178514 C1.18427184,8.67875811 0.847252427,8.99789324 0.488097087,9.05662297 C0.488097087,9.09540676 0.484776699,9.13363649 0.488097087,9.17297432 C0.516320388,9.49377162 0.695067961,9.82232568 0.997223301,9.93258243 C1.4814466,10.1087716 1.95626214,9.67716351 2.29217476,9.28655541 C3.43660194,7.95682568 4.58047573,6.62765 5.72434951,5.29792027 C6.48195146,4.41697432 7.25172816,3.51829865 7.70772816,2.44952838 C7.88979612,2.0223527 8.01873786,1.53367703 7.85327184,1.0998527" id="Fill-31"></path>
                    </g>
                    <path d="M22.8073602,28.7065378 C23.3961757,28.5768892 24.0547194,28.6339568 24.5361757,28.9979703 C25.2843699,29.5636595 25.3767874,30.6340919 25.4044573,31.5721054 C25.4492825,33.0824568 25.4852534,34.5900378 25.4476223,36.0898622 C25.4277,36.8793892 25.7431369,40.2785108 24.9667194,40.751673 C24.7320786,40.8946189 24.4570398,40.6480649 24.2982146,40.423673 C22.6917,38.1542676 21.6441175,35.545227 20.6114767,32.9633351 C20.1903408,31.9122946 19.6092728,30.8640243 20.4310689,29.8977541 C21.0270786,29.1974297 21.9357583,28.8982405 22.8073602,28.7065378" id="Fill-34" fill="#D3D1D3"></path>
                    <path d="M25.4474563,36.0896959 C25.4850874,34.5904257 25.4491165,33.0828446 25.4042913,31.5719392 C25.3766214,30.6339257 25.2842039,29.5634932 24.5360097,28.9978041 C24.0706019,28.6459797 23.4402816,28.5828176 22.8664078,28.6963986 C23.0789126,28.7529122 23.2797961,28.8443311 23.4563301,28.9778581 C24.2045243,29.5435473 24.2969417,30.6139797 24.3246117,31.5525473 C24.3688835,33.0628986 24.4054078,34.5704797 24.3677767,36.06975 C24.3511748,36.7263041 24.564233,39.1802095 24.1912427,40.2633851 C24.227767,40.3165743 24.2609709,40.3714257 24.2980485,40.4235068 C24.4568738,40.6478986 24.7319126,40.8950068 24.9665534,40.7520608 C25.7435243,40.2788986 25.427534,36.879223 25.4474563,36.0896959" id="Fill-36" fill="#C4C2C4"></path>
                    <path d="M35.5828311,26.5770865 C36.2773456,28.1107081 36.8467922,29.6969649 37.3863553,31.2904243 C37.8323942,32.6068568 38.7410738,34.3399378 38.6702388,35.7533297 C38.6508699,36.1378432 38.4267437,36.5395324 38.055967,36.6403703 C37.5363262,36.7811 37.073132,36.3084919 36.7250447,35.8968297 C35.2092874,34.1033568 33.3886078,32.5957757 31.8789379,30.7967622 C30.7821029,29.4891946 28.8856078,27.9239919 30.2912388,26.0983838 C30.7151417,25.5482081 31.3338408,25.1864108 31.9547534,24.8761405 C32.472734,24.6179514 33.0421806,24.3791541 33.6138408,24.4700189 C34.6049767,24.6273703 35.1683359,25.6617892 35.5828311,26.5770865" id="Fill-38" fill="#D3D1D3"></path>
                    <path d="M37.386632,31.2906459 C36.8470689,29.6966324 36.2776223,28.1109297 35.5831078,26.5773081 C35.2582631,25.8609162 34.8415544,25.0730514 34.2007194,24.6885378 C34.4702243,25.0558757 34.6854961,25.4880378 34.8703311,25.8969297 C35.5648456,27.4305514 36.1342922,29.0162541 36.6744087,30.6102676 C37.1198942,31.9267 38.0285738,33.659227 37.9577388,35.073173 C37.9389233,35.4571324 37.7142437,35.8593757 37.343467,35.9596595 C37.1005252,36.0255919 36.870865,35.954673 36.6583602,35.8211459 C36.6804961,35.8466324 36.7037388,35.8715649 36.7253214,35.8970514 C37.0728553,36.3081595 37.5366029,36.7813216 38.0562437,36.6400378 C38.4270204,36.5397541 38.6511466,36.1380649 38.6705155,35.7535514 C38.7407971,34.3401595 37.8326709,32.6070784 37.386632,31.2906459" id="Fill-40" fill="#C4C2C4"></path>
                    <path d="M39.4969602,19.7104176 C40.3115621,18.89485 41.6513388,18.4482824 42.8477854,18.7663095 C43.6286301,18.9735257 44.3358728,19.3896203 45.0320476,19.8012824 C47.0967757,20.8345932 49.0137466,22.5161473 50.9478728,23.8176203 C51.4116204,24.1295527 51.8886495,24.4547824 52.1896981,24.9262824 C52.3081252,25.1113365 52.3839408,25.3839311 52.2184748,25.5279851 C52.1243971,25.6099851 51.9871544,25.6138635 51.8620864,25.6133095 C48.5815427,25.6011203 45.2351447,25.06535 42.0470184,24.2880122 C41.1178631,24.0614041 40.1344748,23.7954581 39.4864456,23.0912554 C38.3575136,21.8645797 38.6297854,20.5786203 39.4969602,19.7104176" id="Fill-42" fill="#D3D1D3"></path>
                    <path d="M52.1898087,24.9261716 C51.9662359,24.5765635 51.6463718,24.3078473 51.3065854,24.0646176 C51.4515757,24.202577 51.5871583,24.3488473 51.6956243,24.5183878 C51.8140515,24.7028878 51.889867,24.9760365 51.724401,25.1200905 C51.6297699,25.2020905 51.4930806,25.2059689 51.3680126,25.2054149 C48.0874689,25.1926716 44.7410709,24.6569014 41.5529447,23.8801176 C40.8523427,23.7089149 40.1213039,23.51555 39.526401,23.1293743 C40.1744301,23.8031041 41.1356825,24.0657257 42.0471291,24.2879014 C45.2352553,25.0652392 48.5816534,25.6010095 51.8621971,25.6131986 C51.987265,25.6137527 52.1239544,25.6098743 52.2185854,25.5278743 C52.3840515,25.3838203 52.3082359,25.1112257 52.1898087,24.9261716" id="Fill-44" fill="#C4C3C4"></path>
                    <g id="Group-48" transform="translate(45.378641, 12.054055)" fill="#D3D1D3">
                        <path d="M1.51448447,4.47243514 C2.40877573,4.99324595 3.5283,4.81262432 4.54378544,4.61648919 C5.62512524,4.40761081 6.70701845,4.19817838 7.78891165,3.9893 C8.95713495,3.7638 10.1856786,3.50893514 11.0783097,2.72162432 C11.2697854,2.55263784 11.454067,2.28225946 11.326232,2.06063784 C11.2880476,1.99525946 11.2277272,1.9465027 11.1674068,1.90051622 C10.1906592,1.16085405 8.94828058,0.867205405 7.73080485,0.7298 C6.51388252,0.591840541 5.27925146,0.591286486 4.07782427,0.350827027 C3.32575631,0.200678378 2.56206699,-0.0442135135 1.80833883,0.0959621622 C-0.151243689,0.459975676 0.0695621359,3.63082703 1.51448447,4.47243514" id="Fill-46"></path>
                    </g>
                    <g id="Group-51" transform="translate(45.932039, 13.162164)" fill="#C4C2C4">
                        <path d="M10.772834,0.952640541 C10.7352029,0.887262162 10.6743291,0.837951351 10.6140087,0.792518919 C10.4828534,0.693343243 10.3461641,0.603032432 10.2061544,0.51937027 C10.151368,0.630735135 10.0617175,0.735451351 9.9698534,0.816897297 C9.07722233,1.60420811 7.84812524,1.85851892 6.68045534,2.08457297 C5.59856214,2.29345135 4.51666893,2.50232973 3.43477573,2.71176216 C2.41929029,2.9078973 1.29976602,3.08851892 0.405474757,2.56770811 C0.29922233,2.50565405 0.201270874,2.42753243 0.1083,2.34165405 C0.301435922,2.77769459 0.590309709,3.14835676 0.961086408,3.36443784 C1.85537767,3.88469459 2.97490194,3.70462703 3.99038738,3.50849189 C5.07228058,3.29905946 6.15362039,3.09018108 7.23551359,2.8813027 C8.40373689,2.65524865 9.63228058,2.40093784 10.5249117,1.61362703 C10.7163874,1.44408649 10.9006689,1.17370811 10.772834,0.952640541" id="Fill-49"></path>
                    </g>
                </g>
            </g>
        </g>
    </g>
</svg>