<svg id="Layer_1" data-name="Layer 1" xmlns="http://www.w3.org/2000/svg" viewBox="0 0 70.5 77.43"><defs><style>.cls-1{fill:#fcd1a6;}.cls-2{fill:#fac49b;}.cls-3{fill:none;stroke:#fbcaa1;stroke-miterlimit:10;}.cls-4{fill:#fbd5cc;}.cls-5{fill:#f8c5af;}.cls-6{fill:#f6b19a;}.cls-7{fill:#fac397;}</style></defs><title>ico-go-to-jail</title><path class="cls-1" d="M157.14,46.91H135.95c-2.1,3.55-3.86,6.56-4.6,7.84-2.42,4.18-2.64,5.06-12.66,8.26s-10,8.26-10.79,14.53-0.77,8.7,1.87,9.58c0,0-7.71,9.25-12.11,15.41s-11.12,15.08-11,18.5a3.69,3.69,0,0,0,1.09,2.67,5,5,0,0,0,3.48-2.18c2.48-3.14,6.22-7,4.62-8.59,0,0,1.53,1.09,3.76-1.74s5.37-5.44,3.05-7.2c0.4,0.31,2,1.22,4-1.68a24.12,24.12,0,0,1,7.15-6.5l-0.89,1.78,0.13-.12a4.75,4.75,0,0,0,1,5.17,5.24,5.24,0,0,0,2.44,1.34,8.09,8.09,0,0,0,4-3.55c1.43-2.64,4.9-13.82,6.44-16.24s2.86-4.73,2.31-5.62c0,0,1,1.1.22,3.85a55,55,0,0,1-3.3,8.15,66.41,66.41,0,0,0-2.79,9.51c0.08-.17.16-0.33,0.23-0.51,0,0,1.52,2.84,4.27,3.17a4.21,4.21,0,0,0,.62,0A9,9,0,0,0,132,96.92c1.21-5.95,3.07-17.08,2.66-17.93,0,0,1.3.2,1.08,2.51-0.17,1.74-2,12.81-2.85,18.16a5.45,5.45,0,0,0,.43-1.1,5.19,5.19,0,0,0,5.27,1,7,7,0,0,0,2.66-2.12c1.12-1.37,1.95-2.36,2.56-3.12,1.2-2.92,2.14-8.32,2.85-11.1a23.72,23.72,0,0,0,.92-9.84,29.63,29.63,0,0,1-.06-7.76c0.11-.88,1.93-0.28,3.47-2.92,0.69-1.18,3.38-5.17,6.14-9.23v-6.6Z" transform="translate(-86.64 -46.91)"/><polygon class="cls-2" points="29.98 43.41 27.86 47.59 28.84 42.78 29.98 43.41"/><path class="cls-3" d="M102.65,104l-0.1-.08Z" transform="translate(-86.64 -46.91)"/><path class="cls-2" d="M120.44,100.45c1.43-2.64,4.9-13.82,6.44-16.24s2.86-4.73,2.31-5.62c0,0,1,1.1.22,3.85a55,55,0,0,1-3.3,8.15,66.41,66.41,0,0,0-2.79,9.51c-1.62,3.56-4.5,4.47-6.83,3.89A8.09,8.09,0,0,0,120.44,100.45Z" transform="translate(-86.64 -46.91)"/><path class="cls-2" d="M132,96.92c1.21-5.95,3.07-17.08,2.66-17.93,0,0,1.3.2,1.08,2.51-0.17,1.74-2,12.81-2.85,18.16a5.45,5.45,0,0,1-4.46,3.11A9,9,0,0,0,132,96.92Z" transform="translate(-86.64 -46.91)"/><path class="cls-2" d="M91.21,121.53c2.48-3.14,6.22-7,4.62-8.59,0,0,1.53,1.09,3.76-1.74s5.37-5.44,3.05-7.2c0.4,0.31,2,1.22,4-1.68a24.12,24.12,0,0,1,7.15-6.5l-0.89,1.78c-3.25,2.91-18.29,21.4-20.57,24.77-1.51,2.23-3.45,2.43-4.63,1.35A5,5,0,0,0,91.21,121.53Z" transform="translate(-86.64 -46.91)"/><path class="cls-2" d="M138,81.78a17.13,17.13,0,0,1,1.39,5c0.54,3.38.81,6.77,1.13,7s0.94,0,.86-1.71,3.26-5.89,3.55-7.42a56.15,56.15,0,0,1-.61,6.64c-0.51,3-5.29,9.25-5.51,6.5S139,83.37,138,81.78Z" transform="translate(-86.64 -46.91)"/><path class="cls-2" d="M113.67,78.92s3.19-4.51,5.56-4.68c2.09-.15,10.64-1.16,14.23-5l0,0.16c-1,5.4-10.46,6.72-12.88,6.94a6.39,6.39,0,0,0-4.05,2.51s0.75-.53,3.08,3.08,3.72,5.31,3.37,7.87a3.3,3.3,0,0,1-.34,1.1,9.48,9.48,0,0,0-2.38-5.42C117.69,82.72,116.53,79.8,113.67,78.92Z" transform="translate(-86.64 -46.91)"/><path class="cls-4" d="M116.26,88c-0.24,1.08-.73,1.33-1.14,1.34-0.45-.61-0.76-1.67.26-3.23l0.88,0.25A3.53,3.53,0,0,1,116.26,88Z" transform="translate(-86.64 -46.91)"/><path class="cls-5" d="M115.82,90a2.41,2.41,0,0,1-.7-0.64c0.4,0,.9-0.27,1.14-1.34a3.53,3.53,0,0,0,0-1.63c1.49,0.47,3.62,1.39,4.62,3a11.43,11.43,0,0,1,1.49,2.93,2,2,0,0,1-.58.84C120.88,93.84,115.82,90,115.82,90Z" transform="translate(-86.64 -46.91)"/><path class="cls-4" d="M115.38,86.12a7.27,7.27,0,0,1,.49-0.65,2.81,2.81,0,0,1,.4.91Z" transform="translate(-86.64 -46.91)"/><path class="cls-6" d="M116.26,86.37a2.81,2.81,0,0,0-.4-0.91l0.22-.27s5,1.43,6.52,5.69a3.62,3.62,0,0,1-.23,1.36,11.43,11.43,0,0,0-1.49-2.93C119.88,87.76,117.76,86.85,116.26,86.37Z" transform="translate(-86.64 -46.91)"/><path class="cls-5" d="M123.22,82.79l0-.06,0.08,0Z" transform="translate(-86.64 -46.91)"/><path class="cls-4" d="M123.22,82.79l0-.1a2.12,2.12,0,0,1,1.89-.1,3.71,3.71,0,0,1,1.52,1.64" transform="translate(-86.64 -46.91)"/><path class="cls-6" d="M125.78,77.82c-0.78.77-1.9,3.36-2.52,4.87l-0.08,0a3.57,3.57,0,0,1-.27-0.47s1.81-5.32,3.25-5.57a2.44,2.44,0,0,1,1.79.45A2.16,2.16,0,0,0,125.78,77.82Z" transform="translate(-86.64 -46.91)"/><path class="cls-5" d="M126.88,84.21l-0.2,0a3.71,3.71,0,0,0-1.52-1.64,2.12,2.12,0,0,0-1.89.1c0.62-1.51,1.74-4.1,2.52-4.87a2.16,2.16,0,0,1,2.16-.67c0.89,0.65,1.47,2,.7,4.06C127.38,84.59,126.88,84.21,126.88,84.21Z" transform="translate(-86.64 -46.91)"/><path class="cls-5" d="M130.39,82.44h0l0,0v0Z" transform="translate(-86.64 -46.91)"/><path class="cls-4" d="M132,81.68a2.77,2.77,0,0,1,1.5,1.22,10.73,10.73,0,0,1-2.12-.12,3.65,3.65,0,0,1-1-.34v0A2.09,2.09,0,0,1,132,81.68Z" transform="translate(-86.64 -46.91)"/><path class="cls-6" d="M130.4,82.39l0,0a0.45,0.45,0,0,1-.31-0.33,28.45,28.45,0,0,1,.93-4,2.44,2.44,0,0,1,2.06-.93,1.85,1.85,0,0,1,.47.16C131.28,77.27,130.6,80.68,130.4,82.39Z" transform="translate(-86.64 -46.91)"/><path class="cls-5" d="M132,81.68a2.09,2.09,0,0,0-1.58.72c0.2-1.71.88-5.13,3.13-5.08a2.11,2.11,0,0,1,1.2,2.06,9.66,9.66,0,0,1-.73,3.41,1.18,1.18,0,0,1-.51.1A2.77,2.77,0,0,0,132,81.68Z" transform="translate(-86.64 -46.91)"/><path class="cls-5" d="M137.13,84.37l-0.25.11c0-.14,0-0.26,0-0.39A2,2,0,0,1,137.13,84.37Z" transform="translate(-86.64 -46.91)"/><path class="cls-4" d="M136.92,84.09c0,0.13,0,.25,0,0.39a1.94,1.94,0,0,1-1.51-.22c0-.2.09-0.39,0.13-0.58A1.34,1.34,0,0,1,136.92,84.09Z" transform="translate(-86.64 -46.91)"/><path class="cls-5" d="M136.92,84.09a1.34,1.34,0,0,0-1.43-.41,13.55,13.55,0,0,0,.24-3.19,0.68,0.68,0,0,1,.68-0.21C136.78,80.63,137.19,81.59,136.92,84.09Z" transform="translate(-86.64 -46.91)"/><path class="cls-6" d="M136.92,84.09c0.27-2.5-.14-3.46-0.51-3.82a2,2,0,0,1,1,.63,19.62,19.62,0,0,1-.24,3.43l-0.09,0A2,2,0,0,0,136.92,84.09Z" transform="translate(-86.64 -46.91)"/><path class="cls-2" d="M109.76,87.12l5.71,2.57s-6-2.21-7.35-.58Z" transform="translate(-86.64 -46.91)"/><path class="cls-7" d="M157.14,58.84V53.51c-2.77,4.06-5.46,8-6.14,9.23-1.54,2.64-3.36,2-3.47,2.92a29.64,29.64,0,0,0,.06,7.76,23.72,23.72,0,0,1-.92,9.84c-0.71,2.78-1.65,8.18-2.85,11.1,1.55-1.92,1.75-2.41,2.07-4.15,0.44-2.42,3.19-9.8,3.3-13s-1.21-5.62.22-7.71C150.05,68.56,153.53,63.78,157.14,58.84Z" transform="translate(-86.64 -46.91)"/></svg>