<?xml version="1.0" encoding="UTF-8"?>
<svg width="134px" height="120px" viewBox="0 0 134 120" version="1.1" xmlns="http://www.w3.org/2000/svg" xmlns:xlink="http://www.w3.org/1999/xlink">
    <!-- Generator: Sketch 47.1 (45422) - http://www.bohemiancoding.com/sketch -->
    <title>ico-heels</title>
    <desc>Created with Sketch.</desc>
    <defs></defs>
    <g id="Page-1" stroke="none" stroke-width="1" fill="none" fill-rule="evenodd">
        <g id="ico-heels">
            <path d="M131,38 L130.996305,38.0036756 C130.853441,38.4778269 121.579585,68.8480158 120.378787,82.6866185 C118.384847,105.692147 118.344204,120 118.344204,120 L115.302182,120 C115.302182,120 115.069412,84.3504363 112.536036,73.2562754 C110.162767,62.8739541 107.245135,56.9145948 106,54.9371265 L131,38 Z" id="Fill-1" fill="#E62C28"></path>
            <g id="Group-7" fill="#FF302C">
                <path d="M0.00268,93.1327019 C-0.01072,94.1816579 0.0233890909,95.2761672 0.08308,96.3657518 C13.88508,100.045716 31.2295527,102.500667 44.7367527,103.448667 C50.9543527,103.880808 60.0042255,105.018408 65.7272436,101.79767 C67.4144255,100.857056 71.5574618,97.867778 75.1121164,95.2293827 C77.0063891,91.3327327 78.54008,88.0799841 79.4037709,86.5373293 C90.8766073,66.0248218 110.776825,51.9661025 130.273825,40.4251239 C134.37788,37.658687 133.012298,28.8989193 131.874516,24.7449549 C130.729425,20.5983776 117.496316,0.0797142857 117.496316,0.0797142857 C117.496316,0.0797142857 75.8089164,53.5567729 68.8202073,59.6719896 C63.9864618,63.9010552 58.9736436,69.8143602 53.3907164,72.9390672 C49.07348,75.3546209 45.7612436,77.3762004 40.8470982,78.1136707 C34.2810982,79.1084553 25.9073164,76.6658159 25.9073164,76.6658159 C25.9073164,76.6658159 0.23048,74.3992337 0.00268,93.1327019" id="Fill-5"></path>
            </g>
            <path d="M130.616106,39.7774443 C128.598274,46.6450788 121.694588,70.7480232 120.678982,82.6486528 C118.70737,105.673624 118.667232,120 118.667232,120 L115.666634,120 C115.666634,120 115.437971,84.3128278 112.932404,73.208108 C110.826999,63.8693514 108.288593,58.1128021 106.90445,55.6061155 C96.0174004,64.0238732 86.2529903,73.8875133 79.4502566,86.0174728 C78.587904,87.554106 77.0565895,90.7966106 75.165252,94.6780504 C70.5542805,104.136991 63.8306059,117.392752 59.6343908,118.861935 C53.7061727,120.93081 34.1493776,117.277473 27.1666323,115.74084 C27.1118991,115.728577 27.0535169,115.715087 27,115.701597 L126.867488,15 C129.325618,19.1512398 131.418861,22.9321179 131.839698,24.4675247 C132.941661,28.4703746 134.239447,36.7446478 130.616106,39.7774443" id="Fill-8" fill="#FF302C"></path>
            <path d="M0,96.1408902 C0.254501469,100.793448 1.02409443,105.255651 1.02409443,105.255651 C1.4783004,106.178994 15.5769512,113.711588 26.9442776,116.23193 C33.9363706,117.780722 53.5147181,121.460495 59.4498385,119.376485 C63.6509393,117.895677 70.3824422,104.53626 75,95 C71.4467211,97.6488924 67.3040704,100.650064 65.6187592,101.59442 C59.8967382,104.827972 50.8515855,103.685846 44.635174,103.251986 C31.1332013,102.300214 13.7966586,99.8354957 0,96.1408902" id="Fill-3" fill="#E62C28"></path>
            <path d="M16,87 C16,88.6562246 14.6568892,90 13,90 C11.3442686,90 10,88.6562246 10,87 C10,85.3437754 11.3442686,84 13,84 C14.6568892,84 16,85.3437754 16,87" id="Fill-10" fill="#FFFFFF"></path>
            <path d="M21,93 C21,94.1040392 20.1045296,95 18.9988386,95 C17.8954704,95 17,94.1040392 17,93 C17,91.8959608 17.8954704,91 18.9988386,91 C20.1045296,91 21,91.8959608 21,93" id="Fill-12" fill="#FFFFFF"></path>
        </g>
    </g>
</svg>