<?xml version="1.0" encoding="UTF-8"?>
<svg width="30px" height="42px" viewBox="0 0 30 42" version="1.1" xmlns="http://www.w3.org/2000/svg" xmlns:xlink="http://www.w3.org/1999/xlink">
    <!-- Generator: Sketch 43.2 (39069) - http://www.bohemiancoding.com/sketch -->
    <title>ico-padlock</title>
    <desc>Created with Sketch.</desc>
    <defs>
        <polygon id="path-1" points="29.5518049 11.8323963 29.5518049 23.6258608 0.0026598916 23.6258608 0.0026598916 0.0389317524 29.5518049 0.0389317524 29.5518049 11.8323963"></polygon>
    </defs>
    <g id="Page-1" stroke="none" stroke-width="1" fill="none" fill-rule="evenodd">
        <g id="board-color" transform="translate(-41.000000, -379.000000)">
            <g id="17.-Chastity" transform="translate(59.000000, 400.500000) rotate(-270.000000) translate(-59.000000, -400.500000) translate(19.000000, 341.000000)">
                <g id="ico-padlock" transform="translate(40.000000, 62.500000) rotate(-90.000000) translate(-40.000000, -62.500000) translate(25.000000, 41.000000)">
                    <g id="Group-3" transform="translate(0.000000, 18.047408)">
                        <mask id="mask-2" fill="white">
                            <use xlink:href="#path-1"></use>
                        </mask>
                        <g id="Clip-2"></g>
                        <path d="M26.9975928,0.0389317524 L2.55676965,0.0389317524 C1.14610637,0.0389317524 0.0026598916,1.177352 0.0026598916,2.58146135 L0.0026598916,21.2396794 C0.0026598916,22.557534 1.07572154,23.6258913 2.39963144,23.6258913 L27.154731,23.6258913 C28.4786409,23.6258913 29.5518049,22.557534 29.5518049,21.2396794 L29.5518049,2.58146135 C29.5518049,1.177352 28.4082561,0.0389317524 26.9975928,0.0389317524" id="Fill-1" fill="#B872A2" mask="url(#mask-2)"></path>
                    </g>
                    <path d="M29.5517844,20.6287981 C29.5517844,21.9466527 28.4812804,23.0149082 27.1608488,23.0149082 L2.39101748,23.0149082 C1.0704836,23.0149082 -2.04607046e-05,21.9466527 -2.04607046e-05,20.6287981 C-2.04607046e-05,19.2246888 1.14076612,18.0863704 2.54774648,18.0863704 L27.0040175,18.0863704 C28.4112024,18.0863704 29.5517844,19.2246888 29.5517844,20.6287981" id="Fill-6" fill="#9C6189"></path>
                    <path d="M14.7952378,1.92038532 L14.8445276,1.92038532 C20.4644694,1.92038532 25.0201476,6.45522672 25.0201476,12.0494639 L25.0201476,20.3508989 L26.6229369,20.3508989 L26.6229369,11.7632041 C26.6229369,10.1753833 26.3102973,8.63471238 25.6940209,7.18426783 C25.0989213,5.78351906 24.2469375,4.52544198 23.1620087,3.44537353 C22.0767729,2.36520325 20.8131198,1.51731999 19.4059348,0.924636758 C17.9485188,0.311179063 16.4009734,7.12849247e-05 14.8059592,7.12849247e-05 C14.8024875,7.12849247e-05 14.798812,0.000172732998 14.7952378,0.000173119425 C13.2010492,0.00139781499 11.6543293,0.313116564 10.1977379,0.926367964 C8.78789309,1.51996772 7.52188699,2.36948035 6.43491206,3.45168734 C5.34793713,4.53358882 4.49441883,5.79370262 3.8980916,7.19699728 C3.28048523,8.65029323 2.96753875,10.1936118 2.96753875,11.784284 L2.96753875,20.3508989 L4.57032805,20.3508989 L4.57032805,12.0494639 C4.57032805,6.45522672 9.12610854,1.92038532 14.745948,1.92038532 L14.7952378,1.92038532 Z" id="Combined-Shape" fill="#E6ECEC"></path>
                    <path d="M16.7119966,30.0148842 C16.7119966,29.0552872 15.9301931,28.2764485 14.9660847,28.2764485 C14.0019763,28.2764485 13.2204797,29.0552872 13.2204797,30.0148842 C13.2204797,30.6765101 13.5926599,31.2519831 14.140086,31.5453715 L14.140086,34.5925983 L15.7920833,34.5925983 L15.7920833,31.5454733 C16.3396118,31.2519831 16.7119966,30.6766119 16.7119966,30.0148842" id="Fill-17" fill="#EEF2F2"></path>
                    <path d="M14.7952532,1.92038532 L14.745948,1.92038532 C9.12610854,1.92038532 4.57032805,6.45522672 4.57032805,12.0494639 L4.57032805,20.3508989 L6.4449378,20.3508989 L6.4449378,11.9425366 C6.4449378,7.3829491 10.1713436,3.67348529 14.7518816,3.67348529 L14.7952532,3.67348529 L14.838727,3.67348529 C19.4191627,3.67348529 23.1455685,7.3829491 23.1455685,11.9425366 L23.1455685,20.3508989 L25.0201783,20.3508989 L25.0201783,12.0494639 C25.0201783,6.45522672 20.4645001,1.92038532 14.8445583,1.92038532 L14.7952532,1.92038532 Z" id="Combined-Shape" fill="#C8CCCC"></path>
                </g>
            </g>
        </g>
    </g>
</svg>