<svg id="Layer_1" data-name="Layer 1" xmlns="http://www.w3.org/2000/svg" viewBox="0 0 49.27 64.19"><defs><style>.cls-1{fill:#fcd2aa;}.cls-2,.cls-5{fill:none;}.cls-3{fill:#f9bf92;}.cls-4{fill:#fbcaa1;}.cls-5{stroke:#1d1d1b;stroke-miterlimit:10;}.cls-6{fill:#f9be8f;}.cls-7{fill:#fcd1a6;}</style></defs><title>ico-slap</title><path class="cls-1" d="M117.66,66.92c0,0.29-.07.58-0.11,0.89,0-.18.06-0.38,0.09-0.62C117.64,67.12,117.65,67,117.66,66.92Z" transform="translate(-96.52 -38.56)"/><path class="cls-2" d="M136,42.05a5.19,5.19,0,0,0-.54.12,2.07,2.07,0,0,1,.69.38Q136,42.28,136,42.05Z" transform="translate(-96.52 -38.56)"/><path class="cls-3" d="M122.65,46.68c-0.23,2-1.46,2.15-.87,2.15S123,49.3,123,54.29s-1.85,3-.54,4.46-0.31,3.46-.54,6.38-0.54,2.85,1.15,3.46c1,0.35,1.5-.4,1.8-1.13h-0.16a1.2,1.2,0,0,1-.83.18c-1.15,0-.87-1.56-0.69-2.94a76.07,76.07,0,0,0,.52-9.11c-0.17-1.73-.4-6.58-0.4-9.52s-0.23-4.61-.87-6a2.79,2.79,0,0,0-.72-0.93A19.29,19.29,0,0,1,122.65,46.68Z" transform="translate(-96.52 -38.56)"/><path class="cls-3" d="M124.91,67.47a5.27,5.27,0,0,0,.31-1.1,2.59,2.59,0,0,1-.47,1.1h0.16Z" transform="translate(-96.52 -38.56)"/><path class="cls-3" d="M117.77,61.09c0,2.43,0,4.81-.11,5.82A26.76,26.76,0,0,0,117.77,61.09Z" transform="translate(-96.52 -38.56)"/><path class="cls-4" d="M130.73,51.6a49.25,49.25,0,0,1,3.08-8.31,2.48,2.48,0,0,1,1.62-1.13,4,4,0,0,0-1.06-.18c-2.19-.12-4.61,11.07-5.19,13s-3.06,8.77-3.69,10.56c-0.11.31-.19,0.56-0.26,0.79a5.27,5.27,0,0,1-.31,1.1C126.95,67.14,129.91,54.74,130.73,51.6Z" transform="translate(-96.52 -38.56)"/><path class="cls-5" d="M131.46,58.71c-0.37,0-.65,0-0.65,0A4.87,4.87,0,0,0,131.46,58.71Z" transform="translate(-96.52 -38.56)"/><path class="cls-6" d="M130.2,72.39c-0.85,3.16-1.15,6,0,7.28,2.68,2.95,4.86-3.13,5.41-7.54a15,15,0,0,1-2.5,5.28c-1.25,1.35-1.63,1-2.13-1.21A7.05,7.05,0,0,1,130.2,72.39Z" transform="translate(-96.52 -38.56)"/><path class="cls-3" d="M131,76.2c-0.08-.34-0.15-0.73-0.24-1.16a12.82,12.82,0,0,1-.15-4q-0.21.68-.39,1.35A7.05,7.05,0,0,0,131,76.2Z" transform="translate(-96.52 -38.56)"/><path class="cls-3" d="M135.65,49.68a2.59,2.59,0,0,1-2,.69,1.56,1.56,0,0,1,1.43,1.85c-0.35,1.62-1.2,6.38-2.5,6.46-0.48,0-.85,0-1.12,0,0.79,0.07,2,.29,1.89,1s-3,7.62-3.15,12.71q0.18-.67.39-1.35c0.14-1.21.4-2.15,0.49-2.75,0.17-1.15,2-5.65,2.6-8.19s2.19-7.38,3-12.11c0.54-3.15.3-4.71-.56-5.44A10.87,10.87,0,0,1,135.65,49.68Z" transform="translate(-96.52 -38.56)"/><path class="cls-1" d="M117.55,67.81h0c0,0.11,0,.22-0.06.31h0Z" transform="translate(-96.52 -38.56)"/><path class="cls-3" d="M103.58,70.86c-0.46-.74,1.54-2.17,1.54-2.17s-1.54,1-2.15.84-0.69-1.62-1.85-3.54,0.62-2.46.62-2.46c-2.35.48-2.23-.38-2.23-0.38A18,18,0,0,1,97,55.75a2.58,2.58,0,0,0-.44,1C96,59.29,99.47,64.89,102,69.45a41.1,41.1,0,0,1,4.21,10c0.83,2.86,2.44,10.18,4.49,13.7-1.42-4.74-2.47-11.52-3.47-14.32A50,50,0,0,0,103.58,70.86Z" transform="translate(-96.52 -38.56)"/><path class="cls-6" d="M117.5,68.13h0c-0.18.75-.43,0.85-0.78,0.28-0.46-.75-0.46-2.65-0.87-4.73s-0.63-4.5-1.15-7.67a70.15,70.15,0,0,1-1.15-7.21c-0.31-3.36-.92-4.8-2.11-4.95,0.68,0.74,1.5,2.49,1.7,6.6C113.5,57.72,116.43,74.66,117.5,68.13Z" transform="translate(-96.52 -38.56)"/><path class="cls-4" d="M100.43,58.14c2.38,4.31,7.66,15,8.83,15.69a1.58,1.58,0,0,0,2-.17,1.25,1.25,0,0,1-.9-0.46,1.14,1.14,0,0,1-1-.64c-0.81-1.21-2-4.1-2.77-5.25s-1.5-2.54-2.6-4.27-2-3.11-3.29-5.54c-0.9-1.64-2.25-2.57-3.21-2.2A5.72,5.72,0,0,1,100.43,58.14Z" transform="translate(-96.52 -38.56)"/><path class="cls-4" d="M111.29,73.66a2.49,2.49,0,0,0,.16-2.07c-0.15,1-.57,1.58-1.06,1.61A1.25,1.25,0,0,0,111.29,73.66Z" transform="translate(-96.52 -38.56)"/><path class="cls-7" d="M101.73,63.52s-1.77.54-.62,2.46,1.23,3.38,1.85,3.54,2.15-.84,2.15-0.84-2,1.43-1.54,2.17a50,50,0,0,1,3.65,7.94c1,2.8,2.05,9.58,3.47,14.32,0.1,0.17.2,0.33,0.3,0.48,2.19,3.29,1.9,3.23,2.48,7.9,0,0.37.09,0.79,0.14,1.24H129.5a18.48,18.48,0,0,0-1-4.85,3.57,3.57,0,0,0-2.61-1.38s8.34-6.1,11.38-11.07c2.58-4.22,3-10.92,5.23-13.58,0.71-1.45,1.58-2.88,2.24-4,0.36-.6.65-1.09,0.82-1.43,0.69-1.38-.12-2.36-2.77-2.31s-5.77,3.52-6.58,6.06c-0.2.62-.4,1.28-0.61,1.93-0.54,4.41-2.72,10.49-5.41,7.54-1.14-1.25-.84-4.13,0-7.28,0.12-5.09,3-12,3.15-12.71s-1.1-.9-1.89-1a4.86,4.86,0,0,1-.65,0s0.28,0,.65,0,0.64,0,1.12,0c1.31-.08,2.15-4.84,2.5-6.46a1.56,1.56,0,0,0-1.43-1.85,2.59,2.59,0,0,0,2-.69,10.87,10.87,0,0,0,.46-7.13,2.07,2.07,0,0,0-.69-0.38,2.48,2.48,0,0,0-1.62,1.13,49.25,49.25,0,0,0-3.08,8.31c-0.82,3.14-3.78,15.54-5.82,15.87-0.3.72-.84,1.47-1.8,1.13-1.69-.62-1.38-0.54-1.15-3.46s1.85-4.92.54-6.38,0.54,0.54.54-4.46-0.67-5.46-1.26-5.46,0.64-.15.87-2.15a19.29,19.29,0,0,0-.89-7.5,2.47,2.47,0,0,0-2-.6,2.16,2.16,0,0,0-.86.35c-1.27.87-.81,4.5-0.69,7.56s-0.35,6.17-.4,8.31c0,1.05,0,3.7,0,6.3a26.77,26.77,0,0,1-.11,5.82c0,0.11,0,.2,0,0.28,0,0.23-.05.44-0.09,0.62l0,0.32c-1.07,6.53-4-10.41-4.37-17.68-0.2-4.11-1-5.86-1.7-6.6a1.81,1.81,0,0,0-.37,0,2.22,2.22,0,0,0-1.41.61,4.71,4.71,0,0,0-1.07,3.25c-0.12,2.6.75,6.69,0.81,10.56s2.31,11.59,2.08,13.27v0.07a2.49,2.49,0,0,1-.16,2.07,1.58,1.58,0,0,1-2,.17c-1.17-.69-6.44-11.39-8.83-15.69a5.72,5.72,0,0,0-2.84-2.83,1.31,1.31,0,0,0-.57.45,18,18,0,0,0,2.49,7.39S99.39,64,101.73,63.52Z" transform="translate(-96.52 -38.56)"/><path class="cls-6" d="M128.5,97.9a18.48,18.48,0,0,1,1,4.85h1.31a56.89,56.89,0,0,1-.66-5.91c-0.06-2.77,4.38-6.81,5.71-8.13a19.1,19.1,0,0,0,3.69-5c0.58-1.44,1.15-6.17,1.85-9.06a14.38,14.38,0,0,1,1.09-2.83c-2.23,2.66-2.65,9.36-5.23,13.58-3,5-11.38,11.07-11.38,11.07A3.57,3.57,0,0,1,128.5,97.9Z" transform="translate(-96.52 -38.56)"/></svg>