<?xml version="1.0" encoding="UTF-8"?>
<svg width="330px" height="325px" viewBox="0 0 330 325" version="1.1" xmlns="http://www.w3.org/2000/svg" xmlns:xlink="http://www.w3.org/1999/xlink">
    <!-- Generator: Sketch 49.3 (51167) - http://www.bohemiancoding.com/sketch -->
    <title>Page 1</title>
    <desc>Created with Sketch.</desc>
    <defs>
        <polygon id="path-1" points="0 0.4449 29.7832 0.4449 29.7832 52.7869 0 52.7869"></polygon>
        <polygon id="path-3" points="0.980221523 0.9896 34 0.9896 34 39.6744407 0.980221523 39.6744407"></polygon>
        <polygon id="path-5" points="0.266 0.685 65.777 0.685 65.777 62.9392 0.266 62.9392"></polygon>
    </defs>
    <g id="Page-1" stroke="none" stroke-width="1" fill="none" fill-rule="evenodd">
        <g transform="translate(0.000000, -1.000000)">
            <g id="Group-3" transform="translate(0.000000, 175.315000)">
                <mask id="mask-2" fill="white">
                    <use xlink:href="#path-1"></use>
                </mask>
                <g id="Clip-2"></g>
                <path d="M16.6792,52.7869 C19.5152,50.2489 24.7692,45.3609 29.7832,39.7339 C24.9032,34.9279 20.0962,29.9609 15.4152,24.7309 C9.4282,18.4149 7.0762,9.7319 6.7542,0.4449 C3.1062,8.7209 0.0692,17.2189 0.0012,24.6649 C-0.1078,36.7879 5.4432,44.3869 16.6792,52.7869" id="Fill-1" fill="#58A69D" mask="url(#mask-2)"></path>
            </g>
            <path d="M29.7837,215.0492 C36.8517,207.1142 43.4387,197.7052 42.0787,191.3142 C39.7497,180.3632 19.7297,165.9322 13.3727,161.5882 C11.2777,166.0592 8.9087,170.8712 6.7547,175.7602 C7.0767,185.0472 9.4287,193.7302 15.4147,200.0462 C20.0967,205.2762 24.9027,210.2422 29.7837,215.0492" id="Fill-4" fill="#6AC4BB"></path>
            <path d="M123.464131,301.237638 C123.984695,301.851645 124.543123,302.441887 125.135333,303.007277 C124.543258,302.441888 123.984921,301.851645 123.464131,301.237638 Z M126.8275,304.4839 C123.0885,312.7529 120.9405,321.1899 120.1695,324.5459 C109.0205,322.5899 97.8095,316.8649 89.3555,306.8269 C69.7935,283.5939 56.4315,253.6139 33.7215,239.4309 C27.0305,235.2539 21.3715,231.6099 16.6795,228.1019 C19.5155,225.5639 24.7695,220.6759 29.7835,215.0489 C51.9136281,236.843469 75.7513922,255.002359 98.3337809,275.833006 C75.7515967,255.002259 51.9135005,236.84337 29.7841,215.0488 C36.8521,207.1148 43.4381,197.7058 42.0791,191.3138 C39.7501,180.3638 19.7291,165.9318 13.3721,161.5878 C16.2011,155.5528 18.5391,150.1278 19.1661,145.9918 C19.5651,143.3618 20.0231,138.9928 20.5141,133.6138 C27.9611,109.4008 33.4381,85.0788 39.7211,61.2898 C45.1881,62.7958 52.5011,64.3038 62.2251,65.4528 C83.9171,68.0148 97.4411,65.3258 103.1141,63.7148 C103.1591,63.8488 103.2041,63.9838 103.2481,64.1168 C103.3751,64.4978 103.4951,64.8598 103.6201,65.2348 C98.8371,102.5668 92.3191,153.2808 91.9201,156.6628 C91.3031,161.8898 90.6661,181.3498 96.4021,190.8598 C102.1371,200.3708 152.1961,261.5988 157.4091,270.2508 C158.7751,272.5168 160.3891,275.4728 161.7791,278.8908 C156.9151,279.7478 142.5361,282.9008 135.0071,291.2628 C131.710137,294.923759 129.002161,299.675694 126.827173,304.483639 Z M27.2637,56.5355 C29.3617,57.7175 33.2407,59.5025 39.7207,61.2895 C33.4377,85.0785 27.9607,109.4015 20.5137,133.6135 C22.3327,113.6565 24.6037,79.6645 26.0007,67.8255 C26.3717,64.6855 26.8057,60.7805 27.2637,56.5355 Z" id="Combined-Shape" fill="#2F2D38"></path>
            <path d="M126.827347,304.483997 C129.002339,299.676032 131.710324,294.924074 135.0073,291.2631 C142.5353,282.9011 156.9153,279.7471 161.7793,278.8911 C161.9243,279.2481 162.0683,279.6111 162.2083,279.9791 C165.3313,288.1841 166.9193,298.7971 160.8893,309.0041 C151.735909,313.215349 139.657825,312.083108 130.807533,307.144698 C139.657781,312.083583 151.735899,313.215164 160.8901,309.0048 C159.9201,310.6478 158.7721,312.2808 157.3811,313.8898 C149.5291,322.9768 135.4271,326.9478 121.0901,324.6978 C120.7831,324.6498 120.4771,324.5998 120.1701,324.5458 C120.9401,321.1898 123.0891,312.7538 126.8271,304.4838 Z" id="Combined-Shape" fill="#B51977"></path>
            <path d="M48.4666731,31.0465367 C50.2803855,25.4257823 52.2115365,19.8525453 54.2996,14.336 C68.3486,15.192 85.7566,17.418 97.0236,20.197 C92.5156,22.453 89.8496,24.345 90.2046,25.452 C91.2546,28.707 97.8016,47.81 102.8706,62.985 C102.9526,63.23 103.0336,63.472 103.1136,63.715 C97.4406,65.326 83.9166,68.015 62.2246,65.453 C52.5016,64.304 45.1876,62.796 39.7206,61.289 C40.0228961,60.1446496 40.3270697,59.0015336 40.6334302,57.859724 C40.3269549,59.0016329 40.0226937,60.1448517 39.7203,61.2893 C33.2403,59.5023 29.3623,57.7173 27.2633,56.5353 C27.3063,56.1423 27.3483,55.7473 27.3913,55.3493 C29.0983,39.4413 31.0973,19.3463 31.4983,15.9503 C31.7393,13.9013 41.6613,13.5663 54.2993,14.3363 C52.211223,19.85252 50.2801908,25.4256931 48.4665877,31.0465037 Z M47.1511498,35.1958795 C44.9128383,42.3796254 42.8491075,49.6367137 40.8785421,56.9482219 C42.849379,49.6367724 44.9130143,42.3795868 47.1511501,35.1958784 Z" id="Combined-Shape" fill="#62B096"></path>
            <path d="M171.5175,207.1975 C169.3015,214.4005 166.5585,221.0325 165.0355,224.5205 C151.3225,221.5585 143.1125,216.9615 138.1665,205.8915 C135.1285,199.0935 134.3525,190.1015 134.2255,181.0595 C134.1495,175.7175 134.3005,170.3555 134.3435,165.4185 C141.9315,166.7225 166.1435,171.5115 172.8185,180.4975 C176.7145,185.7445 174.6425,197.0415 171.5175,207.1975 Z" id="Combined-Shape" fill="#58A69D"></path>
            <path d="M117.047648,66.0899871 C116.881655,65.1443454 116.71695,64.198961 116.5537,63.2538 C122.1527,62.3488 129.4287,60.6758 138.7477,57.6728 C160.4567,50.6768 171.7047,42.1698 175.7777,38.5798 C187.0107,74.6498 202.6527,124.9548 203.7137,128.2458 C205.3277,133.2548 212.8497,151.2148 222.0237,157.4748 C231.1957,163.7338 302.1987,198.5708 310.5387,204.2678 C312.7237,205.7598 315.4237,207.7758 318.1097,210.3048 C314.0427,213.1078 302.2817,221.9608 298.9157,232.6978 C297.441712,237.399763 296.957708,242.846714 296.981699,248.124675 C295.184736,247.673677 293.47077,247.046685 291.8838,246.2347 C251.8068,228.7557 211.6238,221.7677 171.5178,207.1977 C169.3018,214.4007 166.5588,221.0327 165.0348,224.5207 C170.7618,225.7567 177.4258,226.7137 185.2468,227.7287 C211.7988,231.1717 236.4278,252.8697 263.8858,265.8507 C275.7498,271.4597 288.3268,271.9987 299.2798,269.1367 C298.5818,265.7637 297.0248,257.1997 296.9818,248.1247 C295.1847,247.6738 293.4707,247.0468 291.8837,246.2348 C251.8067,228.7558 211.6237,221.7678 171.5177,207.1978 C174.6427,197.0418 176.7147,185.7448 172.8187,180.4978 C166.1437,171.5108 141.9307,166.7218 134.3437,165.4188 C134.4027,158.7538 134.2717,152.8478 133.1197,148.8258 C132.3887,146.2688 130.9857,142.1058 129.1937,137.0098 C128.29828,130.209537 127.26811,123.462133 126.158672,116.756193 C127.267964,123.462343 128.298072,130.210005 129.1935,137.0106 C122.5405,118.1066 110.4555,86.2546 106.7985,74.9076 C105.9215,72.1806 104.8215,68.8466 103.6205,65.2356 C103.4955,64.8606 103.3745,64.4976 103.2485,64.1166 C105.6465,64.3186 109.9165,64.3266 116.5535,63.2536 C116.716801,64.1988251 116.881552,65.1442736 117.04759,66.0899796 Z M117.348534,67.7966155 C119.965436,82.5745161 122.871843,97.4202398 125.437271,112.463632 C122.871623,97.4204048 119.964987,82.5746099 117.348533,67.7966152 Z" id="Combined-Shape" fill="#2F2D38"></path>
            <path d="M323.206904,243.651768 C325.714446,242.097326 327.971381,240.223347 329.8354,238.0564 C329.6364,239.9534 329.2724,241.9164 328.6784,243.9594 C325.3214,255.4894 314.1514,264.9704 300.1794,268.8924 C299.8794,268.9764 299.5814,269.0584 299.2794,269.1374 C298.582408,265.764437 297.024434,257.199589 296.981401,248.1247 C296.958,242.8466 297.441,237.3996 298.916,232.6976 C302.281,221.9606 314.043,213.1076 318.109,210.3046 C318.391,210.5696 318.671,210.8396 318.952,211.1156 C325.208,217.2766 331.067,226.2656 329.835,238.0556 C327.97117,240.222856 325.714342,242.097067 323.206835,243.651675 Z" id="Combined-Shape" fill="#B51977"></path>
            <g id="Group-34" transform="translate(296.000000, 209.315000)">
                <mask id="mask-4" fill="white">
                    <use xlink:href="#path-3"></use>
                </mask>
                <g id="Clip-33"></g>
            </g>
            <path d="M110.266,14.4932 C131.727,6.2062 162.899,-2.4988 164.49,2.4372 C165.234,4.7482 169.749,19.2232 175.469,37.5872 C175.572,37.9182 175.674,38.2452 175.777,38.5792 C171.705,42.1702 160.457,50.6772 138.748,57.6732 C129.428,60.6762 122.152,62.3482 116.554,63.2542 C113.744382,46.9934129 111.367647,30.7996076 110.26645,14.4998547 C111.367669,30.7988757 113.744436,46.9929459 116.5541,63.254 C109.9171,64.327 105.6471,64.319 103.2481,64.117 C103.2041,63.984 103.1591,63.848 103.1141,63.715 C103.0331,63.472 102.9521,63.23 102.8701,62.985 C97.8021,47.81 91.2541,28.707 90.2051,25.452 C89.8491,24.345 92.5161,22.453 97.0231,20.197 C100.51509,18.4500051 105.110073,16.4840114 110.266055,14.4940173 Z" id="Combined-Shape" fill="#62B096"></path>
            <g id="Group-39" transform="translate(110.000000, 0.315000)">
                <mask id="mask-6" fill="white">
                    <use xlink:href="#path-5"></use>
                </mask>
                <g id="Clip-38"></g>
            </g>
        </g>
    </g>
</svg>