<?xml version="1.0" encoding="UTF-8"?>
<svg width="43px" height="48px" viewBox="0 0 43 48" version="1.1" xmlns="http://www.w3.org/2000/svg" xmlns:xlink="http://www.w3.org/1999/xlink">
    <!-- Generator: Sketch 43.2 (39069) - http://www.bohemiancoding.com/sketch -->
    <title>ico-bra-pants</title>
    <desc>Created with Sketch.</desc>
    <defs>
        <polygon id="path-1" points="0.046729422 0.153475248 18.4047663 0.153475248 18.4047663 21.8936011 0.046729422 21.8936011 0.046729422 0.153475248"></polygon>
    </defs>
    <g id="Page-1" stroke="none" stroke-width="1" fill="none" fill-rule="evenodd">
        <g id="board-color" transform="translate(-33.000000, -539.000000)">
            <g id="15.-Bra-&amp;-Panties" transform="translate(59.000000, 560.500000) rotate(-270.000000) translate(-59.000000, -560.500000) translate(19.000000, 501.000000)">
                <g id="ico-bra-pants" transform="translate(41.000000, 62.500000) rotate(-98.000000) translate(-41.000000, -62.500000) translate(20.000000, 38.000000)">
                    <path d="M31.5770163,33.4116259 C31.1688238,33.7508191 30.6452023,33.9139672 30.1286743,34.0358446 C25.7152936,35.075994 21.1555311,33.6160446 16.669282,32.956359 C14.8965784,32.6951931 13.1019497,32.5591289 11.3550403,32.1625437 C9.7745032,31.8040049 8.42611352,31.1817208 7.07192016,30.311168 C6.30583363,29.8184995 4.02369539,29.8088267 4.94777115,31.300374 C5.17798402,31.6724547 5.76415629,31.7872387 6.08013474,31.4841574 C6.15751722,31.7833696 5.91505212,32.0574325 5.74094154,32.3134396 C5.56747582,32.5688017 5.49009334,32.9911811 5.7667357,33.128535 C5.89183738,33.1910858 6.04015379,33.1633571 6.17557313,33.1304696 C6.63599887,33.018265 7.0854621,32.8596309 7.51493485,32.6577916 C7.12995702,33.1137034 6.82236167,33.6341005 6.608915,34.1906095 C6.54958844,34.3453745 6.49671041,34.5104571 6.52185972,34.67425 C6.59795249,35.1765913 7.32018895,35.2868613 7.76513819,35.0418168 C8.21008744,34.7967723 8.51639308,34.3505333 8.96069747,34.1041991 C8.54089753,34.638783 8.24942353,35.2739642 8.11787332,35.9413881 C8.07079898,36.1806289 8.05338792,36.4566264 8.21460142,36.6391201 C8.33518911,36.7758291 8.5273556,36.8235483 8.70855957,36.8435388 C9.37275917,36.917697 10.0646875,36.7023158 10.5696082,36.2644599 C10.2665268,36.7435864 10.0253514,37.2614042 9.85382024,37.801147 C9.80094221,37.9694538 9.75386787,38.1461438 9.7828863,38.3196096 C9.8473717,38.7045874 10.2755547,38.9406039 10.6656914,38.9283517 C11.0558281,38.9154546 11.4130772,38.719419 11.7535601,38.5278974 C11.5536553,38.953501 11.184154,39.2720589 10.9229881,39.6628404 C10.6624671,40.0536219 10.5257581,40.6069066 10.8178769,40.9751183 C11.0532486,41.2711062 11.4936839,41.3355916 11.8567367,41.2285459 C12.2197895,41.1215001 12.5241606,40.8771004 12.8175691,40.6385045 C12.3880964,41.0080058 12.0611554,41.4955154 11.8838206,42.0333236 C11.8251389,42.2106585 11.7819336,42.4002456 11.8180455,42.5833841 C11.9070353,43.0392959 12.4622546,43.2733778 12.9175215,43.1818086 C13.3727884,43.0902393 13.7429346,42.7716814 14.0911558,42.464731 C13.6204123,42.9212876 13.1232299,43.4300774 13.0393989,44.0800902 C12.9645958,44.6617485 13.4340495,45.317565 13.979596,45.3046679 C13.8396627,45.4878064 13.7306824,45.6909354 13.6732904,45.9146998 C13.5404505,46.4383212 13.7538971,47.0696332 14.2459207,47.2921079 C14.7379443,47.5152273 15.4318072,47.1437914 15.4137513,46.6040487 C15.5878618,47.2360056 16.1114833,47.759627 16.744085,47.9330927 C16.9117471,47.9788774 17.0993996,48.0001575 17.2535197,47.9195508 C17.6017408,47.7383468 17.534676,47.2018283 17.300594,46.8864947 C17.1696887,46.7098047 17.0052509,46.5537501 16.8620933,46.3867329 C17.0284656,46.4647602 17.2367535,46.4712087 17.3876493,46.3615836 C17.6965344,46.1371744 17.7171697,45.6606273 17.5379003,45.3233687 C17.3586309,44.9867549 17.0329796,44.7571869 16.7189357,44.5405159 C17.1941931,44.8571392 17.8803178,44.5617961 18.1814646,44.0762211 C18.382659,43.7531492 18.4574621,43.3778442 18.4897048,42.9948009 C18.674133,43.0863702 18.8966076,43.117968 19.089419,43.0470341 C19.52663,42.8858206 19.7761885,42.42475 19.9045144,41.9765765 C19.9760932,41.7289526 20.0257469,41.4723007 20.0915221,41.2227422 C20.1327927,41.2969004 20.193409,41.3581615 20.2759503,41.3871799 C20.6151435,41.5071228 20.9743272,41.2607886 21.20454,40.9841462 C21.5334156,40.5894956 21.7455725,40.1000514 21.8171513,39.5912616 C21.9183934,39.805998 22.1369989,39.9833328 22.3801088,39.9846225 C22.8108713,39.9865571 23.1642513,39.598355 23.2706522,39.1811345 C23.3764082,38.7632691 23.2945118,38.3241235 23.2119705,37.9010993 C23.6240322,38.4518046 24.4591181,38.6330086 25.0627014,38.3015536 C25.5521456,38.0326495 25.8339468,37.4548604 25.7946107,36.9022205 C25.9751698,37.1743489 26.4014183,37.3233102 26.7090136,37.1524239 C27.1417106,36.9125382 27.2603638,36.3154034 27.1146268,35.8433703 C27.6466313,36.3586086 28.4746238,36.5449714 29.176225,36.3070203 C29.8778261,36.069714 30.4220828,35.4184115 30.5310632,34.6852125 C30.5168764,35.2165722 31.3971021,35.3448981 31.7040526,34.9109114 C32.0103582,34.4769247 31.8530138,33.8656031 31.5770163,33.4116259" id="Fill-1" fill="#C94A67"></path>
                    <path d="M31.5770163,33.4116259 C33.7901552,31.1365811 33.0156856,33.3348883 23.3899502,38.3279927 C19.7278244,40.2270876 16.0237831,44.4418533 15.9199616,48.8552339 C13.2876677,40.57015 7.94053848,33.4651488 2.68820279,26.5381273 C4.90650049,28.7235375 7.9276414,29.8758915 10.9100911,30.7715937 C18.0505592,32.916378 24.1611955,32.7138939 31.5770163,33.4116259" id="Fill-3" fill="#D8516F"></path>
                    <path d="M27.2840299,21.7974833 C25.4004114,21.586616 23.4407002,21.3177119 21.4294006,20.9901261 C19.8914239,20.7392779 18.3895589,20.4665046 16.9386375,20.1718064 C17.1495047,19.6849416 17.3713345,19.2264504 17.6041268,18.7937534 C17.6879578,18.6338296 17.771144,18.477775 17.8620684,18.3281688 C17.8620684,18.3210754 17.8659375,18.3178512 17.8730309,18.3101129 C19.0950292,18.5319427 20.3570084,18.7499033 21.644137,18.9614155 C23.5425871,19.2703005 25.3752621,19.5140553 27.120237,19.6991284 C27.1279752,19.7100909 27.1311995,19.7249226 27.1311995,19.7358851 C27.1750496,19.9209582 27.2150305,20.102807 27.2401798,20.2846558 C27.3349734,20.8340714 27.3568984,21.3467303 27.2840299,21.7974833" id="Fill-5" fill="#AD465D"></path>
                    <g id="Group-9" transform="translate(0.000000, 1.781151)" fill="#C94A67">
                        <path d="M18.7504837,16.3247365 C18.9710238,15.6431258 19.045182,14.9150857 18.9665098,14.2031669 C18.9362017,13.9303937 18.8672023,13.633116 18.6453725,13.4725473 C18.4235427,13.3119787 18.020509,13.4228936 18.015995,13.6969565 C18.0321164,13.2345962 18.2055821,12.7928712 18.2829646,12.3369595 C18.3603471,11.8804028 18.3190764,11.3580711 17.9856869,11.0375787 C17.7761093,10.8370291 17.4304676,10.7912445 17.1731709,10.8957108 C17.2905343,10.5700596 17.1841334,10.1257552 16.8862109,9.90779452 C16.448355,9.58665723 15.838968,9.64856322 15.3205054,9.81171127 C15.5133167,9.48606001 15.710642,9.14880138 15.7628752,8.77349636 C15.8144635,8.3988362 15.6848479,7.97194286 15.3553275,7.78493521 C15.1876655,7.69014167 14.9729291,7.69336594 14.796884,7.76816901 C14.9452004,7.43413464 14.9219856,7.01691412 14.6859691,6.73317837 C14.4273826,6.42235875 13.9637326,6.32885492 13.5877827,6.46169484 C13.9063406,6.16893113 14.0662644,5.69689802 13.9495458,5.27645322 C13.7960706,4.7218788 13.184749,4.33754582 12.6185672,4.4387879 C13.2595521,3.79586848 13.2447204,2.52550613 12.4412324,2.10312678 C11.1889259,1.44408601 9.93339522,3.01108118 8.69398587,2.5764496 C8.41734351,2.4797215 6.18485902,-0.124843731 5.9791506,0.232405375 C5.57031318,0.944324171 5.7115362,1.92772649 6.30544672,2.495198 C5.89531959,2.09409882 5.32913779,1.66656063 4.80616121,1.90064263 C4.41989368,2.07346349 4.25803533,2.5609731 4.32638985,2.97819363 C4.39538923,3.39605901 4.64043374,3.75975666 4.87967457,4.10862266 C4.40635174,3.81070012 3.85887071,3.58629093 3.30042716,3.62949615 C2.74262847,3.67205651 2.18418492,4.04091299 2.05714869,4.58645946 C1.93075731,5.13200593 2.38473451,5.77363564 2.9425332,5.72140247 C2.3595852,5.93807341 1.556742,5.43766672 1.15241855,5.91034468 C0.957672648,6.13733329 0.992494763,6.49522725 1.1517737,6.74929972 C1.31105263,7.00272733 1.56770452,7.17619305 1.81726301,7.34192052 C1.12211041,7.17038937 0.341192242,7.72109467 0.268968596,8.43365832 C0.19674495,9.14557711 0.851916595,9.84201941 1.56705966,9.81364584 C1.06407356,10.0722323 0.521106503,10.3733791 0.313463521,10.8995799 C0.105820538,11.4257808 0.511433693,12.1821945 1.06471841,12.0622517 C0.528199896,12.6561622 0.162567689,13.4022582 0.0219895208,14.189625 C-0.0147671562,14.3940437 -0.022505404,14.6390882 0.13677353,14.7719281 C0.268323742,14.8821981 0.45920052,14.8693011 0.628797118,14.8506003 C1.0228029,14.8080399 1.41616383,14.7648347 1.81016961,14.7222743 C1.47162127,15.1465883 1.12597954,15.5844441 0.964766042,16.1029067 C0.803552547,16.6207245 0.866748237,17.2462328 1.26075402,17.6189584 C1.65540466,17.9923289 2.41117352,17.9549274 2.65686289,17.4712869 C2.27188506,18.0045811 2.34217415,18.8158074 2.81291755,19.2755883 C3.28366096,19.7347243 4.09617698,19.785023 4.61979841,19.3871481 C4.45858492,20.1042257 4.57465863,20.9586572 5.16212061,21.401027 C5.6457611,21.7653695 6.4486043,21.6015766 6.73105035,21.1237398 C6.72782608,21.4867926 7.01736552,21.8711256 7.39138082,21.9556015 C7.89049781,22.0690958 8.40831555,21.7711732 8.7159109,21.3629807 C8.67206083,21.8569388 9.11829979,22.3386447 9.61483735,22.3315513 C10.1113749,22.3251028 10.5440719,21.8317895 10.4866799,21.3384762 C10.9761241,21.7344165 11.5977633,22.0123486 12.2245614,21.9472184 C12.8507146,21.8820881 13.454298,21.4029616 13.5213628,20.7768084 C13.8012294,21.3384762 14.8355752,21.1592068 14.9110231,20.5362778 C15.9498829,21.2501312 17.614251,20.6575104 17.9689207,19.4471195 C18.2681329,19.458082 18.5164017,19.1833742 18.581532,18.8912553 C18.6466622,18.5984916 18.5744386,18.2954103 18.5022149,18.0045811 C18.9149215,18.0142539 19.3089273,17.682799 19.3695435,17.2746064 C19.429515,16.865769 19.1483586,16.4343617 18.7504837,16.3247365" id="Fill-7"></path>
                    </g>
                    <g id="Group-12" transform="translate(0.644854, 0.491443)">
                        <mask id="mask-2" fill="white">
                            <use xlink:href="#path-1"></use>
                        </mask>
                        <g id="Clip-11"></g>
                        <path d="M17.766501,19.7024172 C17.0249189,20.502681 15.9189944,20.8296219 14.860789,21.0953018 C12.7740415,21.6221475 10.6176498,22.0625827 8.47544485,21.8297904 C6.82461866,21.6479416 5.23956757,21.0295267 3.87183228,20.0951332 C3.35917336,19.7494915 2.87553288,19.3567754 2.43187334,18.9279475 C0.664973426,17.2184396 -0.560893993,15.3606153 0.362536909,13.0114122 C1.32659361,10.557098 2.52279775,8.20789494 3.98855085,6.01152227 C4.43221039,5.34216384 8.96295446,0.404516903 8.87589918,0.15302385 C9.1628592,0.968119283 9.46851999,1.77870074 9.78836756,2.5821888 C10.9736092,5.57882525 12.3703629,8.49485496 13.9592831,11.3025492 C14.8794897,12.9314504 15.8209766,14.9859551 17.1158434,16.3498213 C18.0753861,17.3570832 19.1013488,18.2553648 17.766501,19.7024172" id="Fill-10" fill="#D8516F" mask="url(#mask-2)"></path>
                    </g>
                    <path d="M40.329297,19.9655821 C40.8129375,19.8398355 41.1469718,19.3000928 41.0437952,18.8112934 C40.9406186,18.3224941 40.4169971,17.9633105 39.9236838,18.0439172 C40.1848497,17.5770429 40.7052469,17.2372049 40.7748911,16.7071349 C40.8335728,16.2608959 40.5285569,15.8301335 40.1403548,15.6025 C39.7521527,15.3748666 39.2936615,15.3078018 38.8487122,15.2446061 C39.3936139,14.811909 39.5825561,13.9871408 39.2807644,13.3596979 C38.9783279,12.732255 38.2148208,12.3666228 37.5370793,12.5233223 C38.0136263,12.1325408 38.1748398,11.3980521 37.8917489,10.8499262 C37.6080132,10.3024452 36.9018981,10.0096814 36.3189501,10.2115207 C36.9051223,9.92971955 37.1720919,9.12881091 36.8722348,8.55166659 C36.5717328,7.97452228 35.7630859,7.73334689 35.1956144,8.05190476 C35.6818343,7.89004641 35.8030669,7.1671651 35.4690325,6.77831814 C35.135643,6.38947119 34.5198075,6.33981744 34.0555126,6.55648837 C33.9381492,6.61130096 33.8298137,6.6977114 33.7395342,6.79895347 C33.7085812,6.75832767 33.673759,6.72092614 33.6331332,6.69126286 C33.3313416,6.46814338 32.9025137,6.51457287 32.5594514,6.6654687 C31.6708426,7.05625021 31.138838,8.12219384 31.360023,9.06690493 C30.8241493,8.79735596 30.1019128,8.9817842 29.7614299,9.47574235 C29.420947,9.9697005 29.5047781,10.7106377 29.9471479,11.115606 C29.315191,10.6319655 28.3143776,10.8118798 27.8126812,11.4290051 C27.31034,12.0461303 27.3019569,12.9831032 27.7056354,13.6692278 C27.292284,13.1024011 26.307592,13.3751744 25.967754,13.9890754 C25.6285608,14.6029764 25.7330271,15.3561658 25.8478111,16.048739 C25.7149712,15.5044822 24.9089037,15.3806703 24.474917,15.7346951 C24.0409303,16.0887199 23.9242117,16.7039106 23.9377536,17.2636439 C23.834577,16.7974145 23.132331,16.7058452 22.7763716,17.0237582 C22.4197674,17.3416712 22.3475437,17.8691618 22.3649548,18.3463537 C22.3675342,18.4185774 22.372693,18.4920907 22.3810761,18.5662489 C21.9877152,18.7506772 21.7181662,19.1820845 21.7420258,19.6173609 C21.7471847,19.7198927 21.7697545,19.8262936 21.8368194,19.9036761 C22.006416,20.0990668 22.3391606,19.9894417 22.5171403,19.8017892 C22.6009713,19.714089 22.6712604,19.6122021 22.7447738,19.5148291 C22.7725025,19.5470718 22.8015209,19.57738 22.8324739,19.6051087 C22.6544942,19.8959378 22.4500755,20.1725802 22.3088525,20.482755 C22.1083029,20.9219005 22.0663874,21.4964654 22.4042909,21.8414623 C22.6170927,22.0587781 22.995622,22.0620024 23.2413113,21.9149757 C23.0123882,22.4869611 23.1239479,23.2001696 23.5688972,23.6354461 C24.0364163,24.0920027 24.801858,24.1751889 25.3796471,23.8856494 C25.0972011,24.1900205 25.0352951,24.7168662 25.2674425,25.0824984 C25.5692342,25.5584007 26.2160227,25.7350906 26.7641486,25.6022507 C27.0659403,25.5287374 27.336779,25.3739724 27.5798889,25.1798714 C27.5192726,25.3971872 27.5295903,25.6402971 27.6359912,25.8382673 C27.8732975,26.2825717 28.4040123,26.4953735 28.9063536,26.5314853 C29.6434217,26.5843633 30.3895177,26.3083658 30.9350642,25.813118 C31.9442607,26.3909071 33.2700805,26.3683373 34.256707,25.7525017 C34.0987178,25.8253702 34.0929141,26.0684802 34.2064084,26.2013201 C34.3192579,26.3335151 34.5017516,26.3805895 34.6732827,26.4108976 C35.7792073,26.6088678 36.950907,26.4147667 37.9343093,25.8717997 C38.103261,25.7782959 38.284465,25.6480354 38.3025209,25.4558689 C38.3063901,25.4145982 38.2941378,25.3746173 38.2741474,25.3378606 C38.9699448,25.4616726 39.724424,25.3584959 40.2196718,24.8696966 C40.797461,24.2990008 40.731041,23.1292357 39.975917,22.8306683 C40.669135,22.8151918 41.3075405,22.2393372 41.3920164,21.5506332 C41.4771371,20.862574 40.9980106,20.1487206 40.329297,19.9655821" id="Fill-13" fill="#C94A67"></path>
                    <path d="M40.0258932,22.3211692 C39.8801562,24.0087521 33.4767562,26.4263096 30.5059139,25.8414271 C29.6405198,25.6705408 28.6661455,25.302974 27.6911262,24.7974085 C27.6840328,24.7974085 27.6801637,24.7941842 27.6730703,24.7903151 C25.4696043,23.6482787 23.2693625,21.8156037 22.3420625,19.9938912 C21.5966112,18.5178204 23.89874,17.8774804 24.9820947,16.8773119 C26.2440739,15.7210887 27.3093727,14.3649608 28.3604847,13.0230196 C30.4988205,10.2849696 32.6623056,7.50693866 34.029396,4.31362174 C34.4840181,5.32088366 34.934771,6.32814558 35.3855239,7.3354075 C35.8807718,8.43746295 36.3747299,9.54274268 36.869333,10.6447981 C38.5349908,14.3610916 40.3747592,18.2631031 40.0258932,22.3211692" id="Fill-15" fill="#D8516F"></path>
                    <path d="M18.411355,20.1938604 C17.6697729,20.9941242 16.5638483,21.3210651 15.505643,21.586745 C13.4188955,22.1135907 11.2625038,22.554026 9.12029884,22.3212337 C7.46947264,22.1393848 5.88442155,21.5209699 4.51668626,20.5865765 C10.873012,22.3721771 8.90233819,5.72140247 10.4332215,3.07363202 C11.6184632,6.07026847 13.0152169,8.98629818 14.6041371,11.7939924 C15.5243437,13.4228936 16.4658305,15.4773984 17.7606973,16.8412645 C18.7202401,17.8485264 19.7462027,18.746808 18.411355,20.1938604" id="Fill-17" fill="#C34B65"></path>
                    <path d="M40.0258932,22.3211692 C39.8801562,24.0087521 33.4767562,26.4263096 30.5059139,25.8414271 C29.6405198,25.6705408 28.6661455,25.302974 27.6911262,24.7974085 C31.4983441,26.6268592 34.4188878,11.4740804 35.3855239,7.3354075 C35.8807718,8.43746295 36.3747299,9.54274268 36.869333,10.6447981 C38.5349908,14.3610916 40.3747592,18.2631031 40.0258932,22.3211692" id="Fill-19" fill="#C34B65"></path>
                </g>
            </g>
        </g>
    </g>
</svg>