<?xml version="1.0" encoding="UTF-8"?>
<svg width="85px" height="75px" viewBox="0 0 85 75" version="1.1" xmlns="http://www.w3.org/2000/svg" xmlns:xlink="http://www.w3.org/1999/xlink">
    <!-- Generator: Sketch 43.2 (39069) - http://www.bohemiancoding.com/sketch -->
    <title>ico-go</title>
    <desc>Created with Sketch.</desc>
    <defs></defs>
    <g id="Page-1" stroke="none" stroke-width="1" fill="none" fill-rule="evenodd">
        <g id="board-color" transform="translate(-854.000000, -874.000000)">
            <g id="1.-Go" transform="translate(840.000000, 839.000000)">
                <g id="ico-go" transform="translate(14.000000, 28.000000)">
                    <path d="M49.1782692,25.6408756 L45.0420387,29.7351139 C42.4245126,26.9636157 39.3731109,25.5778874 35.8877419,25.5778874 C32.8502918,25.5778874 30.3062905,26.5856898 28.2556618,28.6013249 C26.205033,30.6169599 25.1797341,33.0664797 25.1797341,35.9499577 C25.1797341,38.9314179 26.2435255,41.4579226 28.3711403,43.5295475 C30.4987551,45.6011725 33.1232406,46.6369694 36.2446755,46.6369694 C38.274308,46.6369694 39.9854725,46.2100531 41.3782204,45.3562077 C42.7709682,44.5023623 43.894248,43.1656243 44.7480934,41.3459538 L35.8037575,41.3459538 L35.8037575,35.8239811 L51.3408669,35.8239811 L51.3828591,37.1257389 C51.3828591,39.8272498 50.6829963,42.3887476 49.2832497,44.8103092 C47.8835031,47.2318708 46.0708585,49.0795086 43.8452614,50.353278 C41.6196643,51.6270474 39.0091761,52.2639225 36.0137184,52.2639225 C32.8082988,52.2639225 29.9493592,51.567559 27.4368141,50.1748112 C24.924269,48.7820633 22.9366587,46.7979523 21.4739235,44.2224186 C20.0111883,41.6468849 19.2798317,38.8684296 19.2798317,35.8869694 C19.2798317,31.7997094 20.6305669,28.2444064 23.3320778,25.2209538 C26.5374975,21.623605 30.7086797,19.8249577 35.8457497,19.8249577 C38.5332631,19.8249577 41.0457705,20.3218603 43.3833473,21.3156803 C45.35699,22.1555283 47.2886113,23.5972456 49.1782692,25.6408756 Z M70.6066959,19.8249577 C74.9739053,19.8249577 78.7286692,21.4066476 81.8711002,24.5700749 C85.0135313,27.7335021 86.5847233,31.5897461 86.5847233,36.1389225 C86.5847233,40.6461065 85.0345272,44.4603587 81.9340885,47.5817936 C78.8336498,50.7032285 75.0718873,52.2639225 70.6486881,52.2639225 C66.015527,52.2639225 62.1662816,50.6612367 59.1008366,47.455817 C56.0353916,44.2503974 54.502692,40.4431438 54.502692,36.033942 C54.502692,33.0804768 55.2165521,30.3650091 56.6442936,27.8874577 C58.0720351,25.4099062 60.0351503,23.4467911 62.5336979,21.9980534 C65.0322456,20.5493157 67.723218,19.8249577 70.6066959,19.8249577 Z M70.5437077,25.5778874 C67.6882246,25.5778874 65.2876953,26.5716925 63.3420475,28.5593327 C61.3963998,30.5469728 60.4235905,33.0734775 60.4235905,36.1389225 C60.4235905,39.5543042 61.6483504,42.2557746 64.0979069,44.2434147 C66.0015622,45.7971334 68.1851342,46.5739811 70.6486881,46.5739811 C73.4341838,46.5739811 75.8067187,45.5661787 77.7663639,43.5505436 C79.7260091,41.5349085 80.705817,39.0503956 80.705817,36.0969303 C80.705817,33.1574625 79.7190105,30.6694503 77.7453678,28.632819 C75.7717251,26.5961877 73.3711958,25.5778874 70.5437077,25.5778874 Z" id="GO" fill="#F3FFF5" transform="translate(52.932277, 36.044440) rotate(-45.000000) translate(-52.932277, -36.044440) "></path>
                    <path d="M9.5,75.5 L82.5,75.5" id="arrow" stroke="#D8516F" stroke-width="5" stroke-linecap="square" transform="translate(46.000000, 75.500000) scale(-1, 1) translate(-46.000000, -75.500000) "></path>
                    <polygon id="Triangle" fill="#D8516F" transform="translate(6.500000, 75.500000) rotate(-90.000000) translate(-6.500000, -75.500000) " points="6.5 69 13 82 0 82"></polygon>
                </g>
            </g>
        </g>
    </g>
</svg>