<?xml version="1.0" encoding="UTF-8"?>
<svg width="27px" height="58px" viewBox="0 0 27 58" version="1.1" xmlns="http://www.w3.org/2000/svg" xmlns:xlink="http://www.w3.org/1999/xlink">
    <!-- Generator: Sketch 43.2 (39069) - http://www.bohemiancoding.com/sketch -->
    <title>ico-toilet</title>
    <desc>Created with Sketch.</desc>
    <defs>
        <path d="M12.26485,14.2500672 C12.2648504,13.0946918 12.1500204,11.9443958 11.9248461,10.8281628 C11.4740493,8.59348323 10.5808898,6.49543121 9.28167103,4.76644472 C9.02461419,4.42450917 8.73345423,4.0719416 8.40586871,3.72108492 C6.90459809,2.11393895 4.63643511,0.542966282 1.36950302,0.190887538 C0.934718813,0.144082207 0.482332998,0.118785331 0.0117344064,0.117807674 L0.0117344064,0.606636197 C4.58631942,0.615923939 7.36346227,3.07705334 8.88820171,5.14369813 C9.23901157,5.61932829 9.55926308,6.1234327 9.8481006,6.65112309 C11.8688632,10.3419006 12.3554743,15.1837472 11.0509995,19.4619744 C10.2260463,22.1678847 8.66427012,24.4879871 6.64888581,26.2086635 L6.86340543,26.1799448 C6.91474346,26.145849 6.96155885,26.0979438 7.00874095,26.0581043 C7.80558048,25.3849874 8.52309054,24.6330469 9.15210362,23.8152368 C10.1992772,22.4539716 11.0017394,20.9106177 11.5186645,19.2461566 C12.0207553,17.6298805 12.2648495,15.9345752 12.26485,14.2500672 L12.26485,14.2500603 L12.26485,14.2500672 Z" id="path-1"></path>
        <polygon id="path-3" points="15.4665589 16.7423769 0.00403370221 16.7423769 0.00403370221 0.117453273 15.4665589 0.117453273 15.4665589 16.7423769"></polygon>
        <polygon id="path-5" points="1.64888499e-16 12.3027018 1.64888499e-16 0.081988764 25.9958662 0.081988764 25.9958662 12.3027018 0 12.3027018"></polygon>
    </defs>
    <g id="Page-1" stroke="none" stroke-width="1" fill="none" fill-rule="evenodd">
        <g id="board-color" transform="translate(-893.000000, -608.000000)">
            <g id="38.-Clean-Toilet" transform="translate(901.000000, 638.500000) rotate(-90.000000) translate(-901.000000, -638.500000) translate(861.000000, 579.000000)">
                <g id="ico-toilet" transform="translate(40.500000, 65.500000) rotate(90.000000) translate(-40.500000, -65.500000) translate(27.000000, 36.000000)">
                    <g id="Group-11" transform="translate(0.000000, 0.014543)">
                        <path d="M21.4390417,26.4945688 C15.8226614,27.0302027 10.1678998,27.0302027 4.55151957,26.4945688 C3.79196122,26.4221 3.18336112,25.8330617 3.08251856,25.0769661 C2.21221675,18.5562381 1.34130377,12.115189 0.466357093,5.79035897 L25.5242042,5.79035897 C24.6492575,12.115189 23.7783445,18.5562381 22.9080427,25.0769661 C22.8072002,25.8330617 22.1984778,26.4221 21.4390417,26.4945688 Z" id="Fill-1" fill="#F2F2F2"></path>
                        <path d="M24.5975528,3.19757582 C16.8951373,2.18838933 9.09542399,2.18838933 1.3930085,3.19757582 C0.779763531,3.28043225 0.283251459,3.84270726 0.283006992,4.4483658 L0.283006992,5.77773497 C8.74950347,6.31031365 17.2410578,6.31031365 25.7075543,5.77773497 L25.7075543,4.4483658 C25.7073098,3.84270726 25.2107977,3.28043225 24.5975528,3.19757582" id="Fill-3" fill="#F2F2F2"></path>
                        <polygon id="Fill-5" fill="#B3B3B3" points="11.2992555 2.91641908 14.6912324 2.91641908 14.6912324 2.44061263 11.2992555 2.44061263"></polygon>
                        <path d="M14.4162317,2.4654329 C13.4703896,2.53985704 12.5201472,2.53985704 11.5743051,2.4654329 L11.5743051,2.19621059 C12.4952116,1.88421579 13.4953253,1.88421579 14.4162317,2.19621059 L14.4162317,2.4654329 Z" id="Fill-7" fill="#E6E6E6"></path>
                        <path d="M22.8515464,5.79066449 C22.0577627,12.6342638 21.2669126,19.5613306 20.4766737,26.5806638 C20.7975364,26.553656 21.118399,26.5251817 21.4390173,26.49463 C22.1985756,26.4221611 22.8071757,25.833245 22.9080183,25.0771494 C23.7783201,18.5564214 24.649233,12.1454353 25.5241797,5.79066449 L22.8515464,5.79066449 Z" id="Fill-8" fill="#EEEAEA"></path>
                        <path d="M3.103066,5.91287162 C3.8968497,12.7564709 4.6876998,19.6835377 5.47793873,26.7028709 C5.15695382,26.6758631 4.83621338,26.6473889 4.51559517,26.6168371 C3.75603682,26.5443683 3.14743672,25.9554521 3.04659416,25.1993566 C2.17629235,18.6786285 1.30537938,12.2676424 0.430432696,5.91287162 L3.103066,5.91287162 Z" id="Fill-9" fill="#EEEBEB"></path>
                        <path d="M6.22077555,26.2603589 L6.08362968,26.1326524 C3.93867797,24.3351077 2.36455624,21.9606232 1.53116891,19.2780545 C-0.00408259557,14.3356315 0.874042153,8.65043355 3.76828461,4.79944245 C5.36355272,2.67682679 8.27111861,0.145061667 13.063768,0.145061667 C17.8586176,0.145061667 20.7653279,2.67242734 22.3592514,4.79320988 C25.2539828,8.64517865 26.1321075,14.3284213 24.5963671,19.2726774 C23.7633465,21.954635 22.1891025,24.3349855 20.0439063,26.1327746 L19.9067605,26.2603589 L6.22077555,26.2603589 Z" id="Fill-10" fill="#F2F2F2"></path>
                    </g>
                    <path d="M8.76279024,0.937464924 C7.00165141,1.62646873 5.6530503,2.68649338 4.64768058,3.76277158 L4.64768058,3.76277158 C4.60062072,3.81324312 4.55429427,3.86359246 4.50882344,3.91406401 L4.50882344,3.91406401 C4.23624296,4.215549 3.99043159,4.5171562 3.76967807,4.81069772 L3.76967807,4.81069772 C0.875435614,8.66181104 -0.00268913481,14.3437094 1.53256237,19.2862546 L1.53256237,19.2862546 C2.04973189,20.9509601 2.85219416,22.4946806 3.89936771,23.856068 L3.89936771,23.856068 C4.3183838,24.4007452 4.77675905,24.9164593 5.27155986,25.3988108 L5.27155986,25.3988108 C5.5326504,25.6534905 5.80388632,25.8987602 6.08502314,26.1342533 L6.08502314,26.1342533 L6.22216901,26.2492503 L6.40246328,26.2492503 C4.38707897,24.5285739 2.82542505,22.2078604 2.0003496,19.5019502 L2.0003496,19.5019502 C0.509102113,14.6118318 1.35813531,8.9903038 4.16314738,5.18807334 L4.16314738,5.18807334 C5.69057596,3.11764014 8.47493058,0.646856367 13.0651615,0.646856367 L13.0651615,0.646856367 C13.0737178,0.646856367 13.0820297,0.647222988 13.0907082,0.647222988 L13.0907082,0.647222988 L13.0907082,0.467700713 L13.0907082,0.158516672 C13.0827631,0.158394465 13.0746957,0.158394465 13.0668727,0.158394465 L13.0668727,0.158394465 C11.5992163,0.158394465 10.1320488,0.40183107 8.76279024,0.937464924" id="Fill-12"></path>
                    <g id="Group-40" transform="translate(0.000000, 0.040587)">
                        <g id="Group-16" transform="translate(13.078974, 0.000000)">
                            <mask id="mask-2" fill="white">
                                <use xlink:href="#path-1"></use>
                            </mask>
                            <g id="Clip-15"></g>
                            <path d="M6.64888581,26.2086635 C6.72687072,26.2086635 6.79947736,26.2223507 6.86340543,26.1799448 C6.91474346,26.145849 6.96155885,26.0979438 7.00874095,26.0581043 C7.80558048,25.3849874 8.52309054,24.6330469 9.15210362,23.8152368 C10.1992772,22.4539716 11.0017394,20.9106177 11.5186645,19.2461566 C12.3651308,16.5213042 12.4783189,13.5718351 11.9248461,10.8281628 C11.4740493,8.59348323 10.5808898,6.49543121 9.28167103,4.76644472 C9.02461419,4.42450917 8.73345423,4.0719416 8.40586871,3.72108492 C6.90459809,2.11393895 4.63643511,0.542966282 1.36950302,0.190887538 C0.934718813,0.144082207 0.482332998,0.118785331 0.0117344064,0.117807674 L0.0117344064,0.606636197 C4.58631942,0.615923939 7.36346227,3.07705334 8.88820171,5.14369813 C9.23901157,5.61932829 9.55926308,6.1234327 9.8481006,6.65112309 C11.8688632,10.3419006 12.3554743,15.1837472 11.0509995,19.4619744 C10.2260463,22.1678847 8.66427012,24.4879871 6.64888581,26.2086635" id="Fill-14" mask="url(#mask-2)"></path>
                        </g>
                        <g id="Group-19" transform="translate(5.256036, 40.206146)">
                            <mask id="mask-4" fill="white">
                                <use xlink:href="#path-3"></use>
                            </mask>
                            <g id="Clip-18"></g>
                            <path d="M15.4665589,15.3933446 C10.469413,17.1921114 5.00117958,17.1921114 0.00403370221,15.3933446 C0.626323944,10.5253458 1.27477213,5.40547803 1.92920976,0.117453273 L13.5413828,0.117453273 C14.1958204,5.40547803 14.8442686,10.5253458 15.4665589,15.3933446" id="Fill-17" fill="#F2F2F2" mask="url(#mask-4)"></path>
                        </g>
                        <g id="Group-22" transform="translate(0.000000, 28.107640)">
                            <mask id="mask-6" fill="white">
                                <use xlink:href="#path-5"></use>
                            </mask>
                            <g id="Clip-21"></g>
                            <path d="M7.23839306,12.3027018 L18.8505661,12.3027018 C22.5121898,8.75869505 26.4494499,3.62599556 25.9534268,0.081988764 L0.0367678068,0.081988764 C-0.426374547,3.62599556 3.56564608,8.75869505 7.23839306,12.3027018" id="Fill-20" fill="#F2F2F2" mask="url(#mask-6)"></path>
                        </g>
                        <path d="M25.710219,27.4277285 C25.710219,28.0672384 20.0187874,28.585641 12.9979453,28.585641 C5.97710327,28.585641 0.28567168,28.0672384 0.28567168,27.4277285 C0.28567168,26.7882186 5.97710327,26.2698159 12.9979453,26.2698159 C20.0187874,26.2698159 25.710219,26.7882186 25.710219,27.4277285" id="Fill-23" fill="#F3F3F3"></path>
                        <path d="M23.1181497,27.4277285 C23.1181497,28.0672384 18.587202,28.585641 12.9979575,28.585641 C7.40871308,28.585641 2.87776539,28.0672384 2.87776539,27.4277285 C2.87776539,26.7882186 7.40871308,26.2698159 12.9979575,26.2698159 C18.587202,26.2698159 23.1181497,26.7882186 23.1181497,27.4277285" id="Fill-25" fill="#F9F9F9"></path>
                        <g id="Group-31" transform="translate(9.656439, 28.229847)" fill="#E6E6E6">
                            <path d="M16.2969515,0.0208851986 L12.7276139,0.0208851986 C12.0362618,2.70944207 9.38049673,9.79745566 0.0560440141,12.2415983 L9.19409079,12.2415983 C12.8557145,8.69759148 16.7929746,3.56489199 16.2969515,0.0208851986" id="Fill-29"></path>
                        </g>
                        <path d="M7.23839306,40.4103419 C7.23839306,40.4103419 14.893382,40.4103419 15.8304232,41.5102061 C16.7675867,42.6100703 14.1599816,39.554892 14.1599816,39.554892 L7.23839306,40.4103419 Z" id="Fill-32" fill="#E6E6E6"></path>
                        <path d="M25.7505193,28.2852437 C25.7485636,28.2447931 25.7467301,28.2044648 25.7447743,28.1640142 L25.7101823,27.4307714 C17.2400188,27.8301443 8.75579849,27.8301443 0.28563501,27.4307714 C0.27414507,27.6751857 0.262655131,27.9196 0.251042958,28.1640142 C0.249209457,28.2044648 0.247253722,28.2447931 0.245420221,28.2852437 C8.74235282,28.6858387 17.2535867,28.6858387 25.7505193,28.2852437" id="Fill-34" fill="#F2F2F2"></path>
                        <polygon id="Fill-36" fill="#FFFFFF" points="12.8543455 4.4203419 13.2173787 4.4203419 13.5804119 4.4203419 13.2173787 4.4203419"></polygon>
                        <path d="M20.7225951,55.5728861 C20.1003048,50.7048873 19.4518566,45.6651874 18.797419,40.2881959 L15.657243,40.2881959 L13.5804975,40.2881959 L11.1040488,40.2881959 L7.25369668,40.410403 C7.25369668,40.410403 7.51454276,40.4321559 7.94101509,40.4727286 C11.6369864,40.8239519 14.7551605,43.3661047 15.8519608,46.9123112 C16.8429069,50.1163377 17.7474341,53.6389583 17.9557198,56.3837304 C18.8898275,56.1756117 19.8140342,55.8999124 20.7225951,55.5728861" id="Fill-38" fill="#E6E6E6"></path>
                    </g>
                </g>
            </g>
        </g>
    </g>
</svg>