<?xml version="1.0" encoding="UTF-8"?>
<svg width="250px" height="147px" viewBox="0 0 250 147" version="1.1" xmlns="http://www.w3.org/2000/svg" xmlns:xlink="http://www.w3.org/1999/xlink">
    <!-- Generator: Sketch 47.1 (45422) - http://www.bohemiancoding.com/sketch -->
    <title>ico-laundry</title>
    <desc>Created with Sketch.</desc>
    <defs>
        <polygon id="path-1" points="0.143453107 110 215.808267 110 215.808267 0.172036667 0.143453107 0.172036667"></polygon>
        <polygon id="path-3" points="15.6956308 0.120785714 0 0.120785714 0 15.0341571 15.6956308 15.0341571 15.6956308 0.120785714"></polygon>
    </defs>
    <g id="Page-1" stroke="none" stroke-width="1" fill="none" fill-rule="evenodd">
        <g id="ico-laundry">
            <path d="M206,104.65609 C206,105.39764 205.384558,106 204.62539,106 L44.37461,106 C43.615442,106 43,105.39764 43,104.65609 L43,89.3427105 C43,88.6011599 43.615442,88 44.37461,88 L204.62539,88 C205.384558,88 206,88.6011599 206,89.3427105 L206,104.65609 Z" id="Fill-1" fill="#6D463A"></path>
            <path d="M211,117.64708 C211,118.394269 210.384367,119 209.624963,119 L40.3750366,119 C39.615633,119 39,118.394269 39,117.64708 L39,110.35292 C39,109.605731 39.615633,109 40.3750366,109 L209.624963,109 C210.384367,109 211,109.605731 211,110.35292 L211,117.64708 Z" id="Fill-3" fill="#F35B74"></path>
            <path d="M206,135.645161 C206,136.392742 205.38178,137 204.617952,137 L46.3820484,137 C45.6194538,137 45,136.392742 45,135.645161 L45,123.353629 C45,122.606048 45.6194538,122 46.3820484,122 L204.617952,122 C205.38178,122 206,122.606048 206,123.353629 L206,135.645161 Z" id="Fill-5" fill="#FFCA08"></path>
            <path d="M212,55.637028 C212,56.3897686 211.383812,57 210.623723,57 L39.3762767,57 C38.6161882,57 38,56.3897686 38,55.637028 L38,47.362972 C38,46.6102314 38.6161882,46 39.3762767,46 L210.623723,46 C211.383812,46 212,46.6102314 212,47.362972 L212,55.637028 Z" id="Fill-7" fill="#60D785"></path>
            <path d="M215,83.6836843 C215,84.4106576 214.384344,85 213.624913,85 L36.3763159,85 C35.6156556,85 35,84.4106576 35,83.6836843 L35,76.3163157 C35,75.5893424 35.6156556,75 36.3763159,75 L213.624913,75 C214.384344,75 215,75.5893424 215,76.3163157 L215,83.6836843 Z" id="Fill-9" fill="#208C87"></path>
            <path d="M220,70.6147034 C220,71.3797734 219.38445,72 218.625148,72 L30.374852,72 C29.6155504,72 29,71.3797734 29,70.6147034 L29,60.3852966 C29,59.6202266 29.6155504,59 30.374852,59 L218.625148,59 C219.38445,59 220,59.6202266 220,60.3852966 L220,70.6147034 Z" id="Fill-11" fill="#B4236E"></path>
            <g id="Group-15" transform="translate(17.000000, 37.000000)">
                <mask id="mask-2" fill="white">
                    <use xlink:href="#path-1"></use>
                </mask>
                <g id="Clip-14"></g>
                <path d="M181.828594,94.26057 C181.828594,96.1611367 180.289046,97.70157 178.392323,97.70157 L172.283397,97.70157 C170.386673,97.70157 168.848357,96.1611367 168.848357,94.26057 L168.848357,17.0070367 C168.848357,15.1089367 170.386673,13.56727 172.283397,13.56727 L178.392323,13.56727 C180.289046,13.56727 181.828594,15.1089367 181.828594,17.0070367 L181.828594,94.26057 Z M154.882809,94.26057 C154.882809,96.1611367 153.344493,97.70157 151.449001,97.70157 L145.341306,97.70157 C143.444583,97.70157 141.905035,96.1611367 141.905035,94.26057 L141.905035,17.0070367 C141.905035,15.1089367 143.444583,13.56727 145.341306,13.56727 L151.449001,13.56727 C153.344493,13.56727 154.882809,15.1089367 154.882809,17.0070367 L154.882809,94.26057 Z M127.938255,94.26057 C127.938255,96.1611367 126.398707,97.70157 124.503216,97.70157 L118.395521,97.70157 C116.498798,97.70157 114.960481,96.1611367 114.960481,94.26057 L114.960481,17.0070367 C114.960481,15.1089367 116.498798,13.56727 118.395521,13.56727 L124.503216,13.56727 C126.398707,13.56727 127.938255,15.1089367 127.938255,17.0070367 L127.938255,94.26057 Z M74.0479164,94.26057 C74.0479164,96.1611367 72.5096,97.70157 70.6128768,97.70157 L64.5051819,97.70157 C62.6084588,97.70157 61.0701424,96.1611367 61.0701424,94.26057 L61.0701424,17.0070367 C61.0701424,15.1089367 62.6084588,13.56727 64.5051819,13.56727 L70.6128768,13.56727 C72.5096,13.56727 74.0479164,15.1089367 74.0479164,17.0070367 L74.0479164,94.26057 Z M100.993702,94.26057 C100.993702,96.1611367 99.4553853,97.70157 97.5586621,97.70157 L91.4497356,97.70157 C89.5542441,97.70157 88.014696,96.1611367 88.014696,94.26057 L88.014696,17.0070367 C88.014696,15.1089367 89.5542441,13.56727 91.4497356,13.56727 L97.5586621,13.56727 C99.4553853,13.56727 100.993702,15.1089367 100.993702,17.0070367 L100.993702,94.26057 Z M47.1033627,94.26057 C47.1033627,96.1611367 45.5650463,97.70157 43.6683232,97.70157 L37.5593966,97.70157 C35.6639051,97.70157 34.1243571,96.1611367 34.1243571,94.26057 L34.1243571,17.0070367 C34.1243571,15.1089367 35.6639051,13.56727 37.5593966,13.56727 L43.6683232,13.56727 C45.5650463,13.56727 47.1033627,15.1089367 47.1033627,17.0070367 L47.1033627,94.26057 Z M0.143453107,0.172036667 L23.0236,104.63907 C23.708391,107.76927 26.4771141,110.00037 29.6769107,110.00037 L186.274809,110.00037 C189.475837,110.00037 192.243329,107.76927 192.929351,104.63907 L215.808267,0.172036667 L0.143453107,0.172036667 Z" id="Fill-13" fill="#FFFFFF" mask="url(#mask-2)"></path>
            </g>
            <polygon id="Fill-16" fill="#BFC4C9" points="16.9438554 37 233.056145 37 235 28 15 28"></polygon>
            <path d="M247,9.89849372 C247,6.08817039 243.948613,3 240.186714,3 L8.81205456,3 C5.0513867,3 2,6.08817039 2,9.89849372 L2,22.100259 C2,25.9105824 5.0513867,29 8.81205456,29 L14.7498216,29 L234.250178,29 L240.186714,29 C243.948613,29 247,25.9105824 247,22.100259 L247,9.89849372 Z" id="Fill-18" fill="#44475A"></path>
            <g id="Group-22">
                <mask id="mask-4" fill="white">
                    <use xlink:href="#path-3"></use>
                </mask>
                <g id="Clip-21"></g>
                <path d="M6.99286154,15.0341571 C11.7990154,15.0341571 15.6956308,11.1897286 15.6956308,6.44672857 L15.6956308,1.35887143 C15.6956308,0.675228571 15.1344,0.1203 14.4414769,0.1203 L6.80947692,0.1203 C3.04947692,0.1203 -0.000369230769,3.12808571 -0.000369230769,6.83772857 L-0.000369230769,13.7955857 C-0.000369230769,14.4792286 0.562092308,15.0341571 1.25501538,15.0341571 L6.99286154,15.0341571 Z" id="Fill-20" fill="#FFFFFF" mask="url(#mask-4)"></path>
            </g>
            <path d="M250,6.75555737 C250,3.0241837 246.891084,0 243.058261,0 L235.279699,0 C234.573355,0 234,0.556957902 234,1.24460549 L234,8.24444263 C234,11.9745949 237.108916,15 240.940485,15 L248.720301,15 C249.426645,15 250,14.4418207 250,13.7541731 L250,6.75555737 Z" id="Fill-23" fill="#FFFFFF"></path>
        </g>
    </g>
</svg>