<?xml version="1.0" encoding="UTF-8"?>
<svg width="47px" height="58px" viewBox="0 0 47 58" version="1.1" xmlns="http://www.w3.org/2000/svg" xmlns:xlink="http://www.w3.org/1999/xlink">
    <!-- Generator: Sketch 43.2 (39069) - http://www.bohemiancoding.com/sketch -->
    <title>ico-sph</title>
    <desc>Created with Sketch.</desc>
    <defs></defs>
    <g id="Page-1" stroke="none" stroke-width="1" fill="none" fill-rule="evenodd">
        <g id="board-color" transform="translate(-881.000000, -371.000000)">
            <g id="35.-SPH" transform="translate(901.000000, 398.500000) rotate(-90.000000) translate(-901.000000, -398.500000) translate(861.000000, 339.000000)">
                <g id="ico-sph" transform="translate(38.500000, 63.000000) rotate(90.000000) translate(-38.500000, -63.000000) translate(15.000000, 34.000000)">
                    <path d="M37.62115,53.8003504 C37.9370442,54.192862 38.3803808,55.1631256 38.8951212,56.4872341 L46.8295346,48.5933891 C46.2388712,47.7476682 45.4886788,46.8381023 44.5129769,45.2203969 C42.8182654,42.4103194 38.7509577,32.6312496 37.9600923,28.8095442 C37.1692269,24.9878388 36.7173038,24.4258233 34.2317269,22.8521798 C34.0152558,22.7150481 33.7400346,22.5513891 33.4214288,22.3674977 C32.5537365,20.0578388 31.1234,16.1421643 30.5987173,14.084738 C29.8254769,11.0498543 30.1644192,8.57698605 28.9216308,8.01497054 C28.9216308,8.01497054 28.5587365,7.92100155 28.1551692,8.21864496 C27.721775,8.53876899 27.2422846,9.3112031 27.1139385,11.1555132 C26.9367846,13.7070636 27.4772846,14.368893 27.79815,16.304924 C26.6570442,14.7182419 23.2396019,7.42732713 22.2557654,3.29404031 C21.3925923,-0.331634109 18.9897173,-0.869370543 18.28065,1.21458295 C18.1545635,1.58551318 18.0754769,2.02973023 18.0754769,2.56566822 C18.0754769,5.11182326 20.5258038,12.0952031 21.9050731,15.8233891 C21.2082077,15.352645 20.6898519,14.9470946 20.4480731,14.6467535 C19.0923038,12.960707 15.3639385,11.0498543 13.8951885,8.91419535 C12.4264385,6.77853643 7.45528462,1.2707845 6.7774,2.84442791 C6.50669808,3.47253643 6.34897692,4.32005581 6.46738077,5.37844341 C6.55460192,6.1612186 6.79366923,7.0599938 7.25824615,8.07836589 C8.81692885,9.89614884 11.0444577,12.4895132 12.2379865,13.8599318 C13.9774385,15.8562109 19.7439769,22.1647225 27.1654577,25.336738 C26.2927942,25.2715442 25.4490538,25.1622884 24.7454096,24.9878388 C24.7454096,24.9878388 17.5105731,24.088614 14.3471115,24.9878388 C11.18365,25.8870636 2.25816923,27.5731101 1.35432308,28.4723349 C0.991880769,28.8324744 0.994592308,29.5905209 1.63496731,30.2604434 C1.97978462,30.6210326 2.51034231,30.9550946 3.26776538,31.188893 C5.83514038,31.0117457 8.90866923,30.3157457 10.9576885,30.4205054 C13.8951885,30.5702264 16.6067269,28.9965829 18.0754769,29.8958078 C19.5442269,30.7950326 24.6658712,31.5445364 25.4192269,31.3197302 C26.1725827,31.094924 27.1514481,31.7693426 27.6788423,32.2940403 C28.2062365,32.8182884 29.4865346,33.492707 30.5987173,33.9423194 C31.7113519,34.3919318 32.4995058,34.7669085 31.2942269,35.3037457 C30.0889481,35.8405829 27.3774096,38.6632496 25.0260538,39.6375597 C22.6746981,40.6118698 21.1259577,40.0871721 19.99615,40.0120868 C19.1384,39.9554357 15.1556019,38.9914667 13.2873519,38.530614 C13.0979962,38.5405054 12.92265,38.5584899 12.7653808,38.588614 C11.7011019,38.7900403 10.4542462,38.9941643 9.10796731,39.4595132 C7.45257308,40.0318698 5.64668846,41.0003349 3.8399,42.8599318 C0.563457692,46.2320248 3.72691923,46.7940403 4.74374615,46.456831 C4.95660192,46.3862419 5.23182308,46.2805829 5.56308269,46.1614357 C6.81581346,45.7122729 8.91273654,45.0657302 11.8615346,45.3328 C11.9397173,45.3395442 12.0183519,45.3471876 12.0969865,45.3539318 C13.4306115,45.2999783 15.1714192,45.3345984 17.1341212,45.6322419 C21.5778808,46.3066605 26.7749962,48.1801953 28.5826885,48.854614 C30.3903808,49.5290326 35.8134577,51.5522884 37.62115,53.8003504" id="Fill-1" fill="#FCD4AB"></path>
                    <path d="M33.3354731,22.3181302 L31.7198481,21.4166574 L27.9047135,16.4448434 L27.590175,15.2866419 C27.590175,15.2866419 29.9035692,17.7500682 30.5990788,18.8021612 C31.2941365,19.8547039 32.9549538,21.4885953 33.3354731,22.3181302" id="Fill-3" fill="#F9BF92"></path>
                    <path d="M29.5281567,8.07827597 C29.7342337,8.07108217 30.1735029,8.47123721 30.019849,10.7085085 C30.019849,10.7085085 29.7355894,10.9373612 29.4712144,10.6873767 C29.4043298,9.56154729 29.4431952,8.70953178 29.5281567,8.07827597" id="Fill-5" fill="#F8C4AE"></path>
                    <path d="M29.5485261,8.07823101 C29.5533988,8.0777814 29.559246,8.07823101 29.564606,8.07823101 C29.4725123,8.70948682 29.4306073,9.56150233 29.5032102,10.6873318 C29.3711606,10.5717814 29.2439836,10.354169 29.1543263,9.9630062 C28.8697618,8.72657209 29.3341282,8.10430853 29.5485261,8.07823101" id="Fill-7" fill="#F6B099"></path>
                    <path d="M28.3567269,33.7551008 C28.2437462,33.3054884 25.3062462,32.1814574 25.3062462,32.1814574 C22.1427846,32.855876 17.2846115,30.4954109 17.2846115,30.4954109 C15.9288423,31.6194419 9.7149,31.0574264 9.7149,31.0574264 C6.68159231,31.703969 4.6154,31.6055039 3.26776538,31.1891628 C5.83514038,31.0115659 8.90866923,30.3160155 10.9576885,30.4203256 C13.8951885,30.5704961 16.6067269,28.9968527 18.0754769,29.8960775 C19.5442269,30.7953023 24.6658712,31.5443566 25.4192269,31.3195504 C26.1725827,31.0947442 27.1514481,31.7691628 27.6788423,32.2938605 C28.2062365,32.8185581 29.4865346,33.4929767 30.5987173,33.9425891 C31.7113519,34.3922016 32.4995058,34.7667287 31.2942269,35.3040155 C30.0889481,35.8408527 27.3774096,38.6635194 25.0260538,39.6373798 C22.6746981,40.6116899 21.1259577,40.0869922 19.99615,40.0123566 C19.1384,39.9552558 15.1556019,38.9917364 13.2873519,38.5308837 C15.9550538,38.396 21.54715,40.1175659 22.7076885,39.4876589 C23.9504769,38.8132403 25.5322077,37.8016124 26.2100923,37.2395969 C26.8879769,36.6775814 29.5995154,35.0095194 29.5995154,35.0095194 C29.5995154,35.0095194 28.4697077,34.2047132 28.3567269,33.7551008" id="Fill-9" fill="#F9BF92"></path>
                    <path d="M27.1654125,25.3368729 C26.293201,25.2712295 25.4494606,25.1624233 24.7458163,24.987524 C18.6489221,22.6270589 12.8783163,15.8828729 9.48889327,11.611555 C8.45398942,10.3076791 7.73814327,9.13104341 7.25820096,8.07805116 C8.81688365,9.89583411 11.0444125,12.4896481 12.2379413,13.8596171 C13.9773933,15.8563457 19.7439317,22.1648574 27.1654125,25.3368729" id="Fill-11" fill="#F9BF92"></path>
                    <path d="M22.6564404,3.80439535 C22.7364308,4.28503101 22.7685173,4.69552713 22.7111231,4.9153876 C22.7111231,4.9153876 22.3269885,4.99137209 21.8926904,4.72520155 C22.0883731,3.93613178 22.3866423,3.7589845 22.6564404,3.80439535" id="Fill-13" fill="#F8C4AE"></path>
                    <path d="M10.9106885,5.07167287 C11.3273615,5.65526977 11.5451885,6.03923876 11.5451885,6.03923876 C11.5451885,6.03923876 11.3395635,6.56168837 10.6910538,6.36206047 C10.5893712,5.62649457 10.7199769,5.25331628 10.9106885,5.07167287" id="Fill-15" fill="#F8C4AE"></path>
                    <path d="M4.00308942,27.2570326 C4.7781375,27.0735907 5.1658875,27.0218853 5.16227212,27.1779008 C5.16227212,27.1779008 5.23186827,27.8523194 4.70131058,28.448955 C4.30271442,28.3504899 3.96241635,28.0393581 4.00308942,27.2570326" id="Fill-17" fill="#F8C4AE"></path>
                    <path d="M4.51778462,44.3584899 C5.03930385,44.0621953 8.0229,42.670645 8.67276538,43.5087225 C8.38353462,43.7605054 8.10469808,44.1094047 8.05769808,44.5459783 C8.03600577,44.7501023 8.06854423,44.954676 8.12322692,45.1525054 C7.89771731,45.3071721 7.63515,45.462738 7.34953462,45.6268465 C6.19035192,46.2936217 2.86058269,46.9437612 2.86058269,46.9437612 C2.22065962,46.6438698 3.99039038,44.6583814 4.51778462,44.3584899" id="Fill-19" fill="#F8C4AE"></path>
                    <path d="M7.65607404,2.60635814 C7.68318942,2.35592403 7.7356125,2.15359845 7.7943625,2.09514884 C7.94485288,1.94497829 9.07466058,2.80688527 10.0539779,3.96823411 C10.3992471,4.37828062 10.6835067,4.75325736 10.910824,5.07158295 C10.7571702,5.21770698 10.6446413,5.49242016 10.6591029,5.9762031 C8.91106442,4.71593953 8.03162212,3.33877674 7.65607404,2.60635814" id="Fill-21" fill="#F8C4AE"></path>
                    <path d="M10.6591029,5.97624806 C10.6627183,6.09314729 10.6713048,6.21858915 10.6911894,6.3620155 C10.5221702,6.30986047 10.3251317,6.21139535 10.0914875,6.0391938 C8.96167981,5.20471318 8.05783365,4.2304031 7.7943625,3.7807907 C7.63347788,3.50697674 7.61359327,2.99756589 7.65607404,2.6064031 C8.03162212,3.33882171 8.91106442,4.7159845 10.6591029,5.97624806" id="Fill-23" fill="#F6B099"></path>
                    <path d="M21.7661519,0.746086822 C22.0043154,1.14084651 22.4675365,2.67087752 22.6564404,3.80435039 C22.3934212,3.75983876 22.1046423,3.9315907 21.9085077,4.67075349 C21.1275846,2.53329612 20.8478442,1.10937364 20.7538442,0.295125581 C21.2315269,0.0352496124 21.4520654,0.224986047 21.7661519,0.746086822" id="Fill-25" fill="#F8C4AE"></path>
                    <path d="M20.6392365,0.359195349 C20.6803615,0.332668217 20.7160635,0.315582946 20.754025,0.294900775 C20.848025,1.10914884 21.1277654,2.53352093 21.9086885,4.67097829 C21.9037173,4.69031163 21.8978423,4.70514884 21.8928712,4.7253814 C21.6732365,4.59094729 21.4414,4.37063721 21.2389385,4.00600155 C20.636525,2.91928837 19.6626308,0.983257364 20.6392365,0.359195349" id="Fill-27" fill="#F6B099"></path>
                    <path d="M0.187141346,29.2929225 C0.175843269,29.2803333 0.159574038,29.2726899 0.149179808,29.2587519 C-0.340252885,28.6221008 0.375141346,28.1724884 2.29581442,27.6851085 C2.99403558,27.5084109 3.56029519,27.3618372 4.00317981,27.2570775 C3.9697375,27.9013721 4.19569904,28.222845 4.49893942,28.3725659 C3.27151635,28.813186 1.53974712,29.3221473 0.187141346,29.2929225" id="Fill-29" fill="#F8C4AE"></path>
                    <path d="M4.49875865,28.3725659 C4.56383558,28.4044884 4.63072019,28.4314651 4.70122019,28.449 C4.4761625,28.7021318 4.14535481,28.9417752 3.65140288,29.109031 C2.02990288,29.6593566 0.702152885,29.8805659 0.186960577,29.2929225 C1.53956635,29.3221473 3.27133558,28.813186 4.49875865,28.3725659" id="Fill-31" fill="#F6B099"></path>
                    <path d="M29.0644837,19.9033519 C29.0644837,19.9033519 25.2687817,18.0185767 21.9051183,15.8231194 L20.9624067,13.2140186 C20.9624067,13.2140186 26.307301,18.565755 29.0644837,19.9033519" id="Fill-33" fill="#F9BF92"></path>
                    <path d="M37.7049817,57.6713333 L39.2202798,56.1637829 C38.7593183,55.0046822 38.3629817,54.1607597 38.073299,53.8001705 C36.2656067,51.5521085 30.8425298,49.5288527 29.0348375,48.8544341 C27.2271452,48.1800155 22.0300298,46.3069302 17.5858183,45.6325116 C15.6231163,45.3344186 13.8823087,45.3002481 12.5486837,45.3542016 C16.1993183,45.6851163 19.872549,46.0591938 24.6285875,48.479907 C29.4506067,50.9343411 36.4960875,51.3987907 37.7049817,57.6713333" id="Fill-35" fill="#F9BF92"></path>
                </g>
            </g>
        </g>
    </g>
</svg>