<?xml version="1.0" encoding="UTF-8"?>
<svg width="187px" height="100px" viewBox="0 0 187 100" version="1.1" xmlns="http://www.w3.org/2000/svg" xmlns:xlink="http://www.w3.org/1999/xlink">
    <!-- Generator: Sketch 47.1 (45422) - http://www.bohemiancoding.com/sketch -->
    <title>ico-ironing</title>
    <desc>Created with Sketch.</desc>
    <defs>
        <path d="M193.242712,0.656 C182.165032,0.656999772 174.539518,8.40663728 170.802,13.346 L170.306,13.004 C169.901,12.725 169.347,12.827 169.067,13.232 L163.61,21.143 C162.104,20.49 160.451,20.131 158.732,20.131 L88.844,20.131 C67.548,20.131 48.006,27.637 32.71,40.14 C32.696,40.121 32.685,40.1 32.671,40.082 L12.825,55.395 C12.289,55.808 12.001,56.464 12.055,57.137 C12.069,57.305 12.104,57.469 12.158,57.626 C12.279,57.977 12.496,58.288 12.785,58.523 L14.579,60.316 C5.756,73.774 0.465,89.755 0.097,106.961 C0.086,107.47 0.282,107.963 0.638,108.328 C0.688,108.379 0.747,108.421 0.801,108.466 L5.934,113.597 L1.973,113.597 C0.925,113.597 0.076,114.447 0.076,115.495 L0.076,117.445 C0.076,118.011 0.329,118.514 0.723,118.861 L91.834,209.973 C92.556,209.984 93.277,210 94.001,210 C171.32,210 234,147.32 234,70 C234,54.688 231.533,39.955 226.99,26.164 L203.74,2.914 L203.732,2.922 C203.669,2.858 203.595,2.807 203.511,2.773 C199.819,1.281 196.393,0.656 193.247,0.656 C193.245571,0.655999871 193.244141,0.655999871 193.242712,0.656 L234,0.656 L234,210 L0.076,210 L0.076,0.656 L193.242712,0.656 L193.242712,0.656 Z" id="path-1"></path>
        <polygon id="path-3" points="0 280 280 280 280 0 0 0"></polygon>
        <path d="M146.426116,0.599317299 C146.426116,0.690104702 146.394979,0.780167846 146.335,0.853 L144.077,3.604 C141.93,6.219 138.758,7.718 135.374,7.718 L1.018,7.718 C0.904,7.718 0.796,7.67 0.721,7.585 C0.645,7.501 0.608,7.388 0.621,7.276 C0.832,5.381 1.114,3.459 1.46,1.533 C1.6,0.761 2.271,0.202 3.056,0.202 L146.027,0.202 C146.181,0.202 146.322,0.291 146.388,0.43 C146.413606,0.483927147 146.426116,0.541767735 146.426116,0.599317299 L146.426116,0.599317355 L146.426116,0.599317299 Z" id="path-5"></path>
    </defs>
    <g id="Page-1" stroke="none" stroke-width="1" fill="none" fill-rule="evenodd">
        <g id="ico-ironing" transform="translate(-46.000000, -90.000000)">
            <g id="Group-5" transform="translate(46.000000, 70.000000)">
                <mask id="mask-2" fill="white">
                    <use xlink:href="#path-1"></use>
                </mask>
                <g id="Clip-4"></g>
                <path d="M170.802,13.346 L170.306,13.004 C169.901,12.725 169.347,12.827 169.067,13.232 L169.067,13.232 L163.61,21.143 C162.104,20.49 160.451,20.131 158.732,20.131 L158.732,20.131 L88.844,20.131 C67.548,20.131 48.006,27.637 32.71,40.14 L32.71,40.14 C32.696,40.121 32.685,40.1 32.671,40.082 L32.671,40.082 L12.825,55.395 C12.289,55.808 12.001,56.464 12.055,57.137 L12.055,57.137 C12.069,57.305 12.104,57.469 12.158,57.626 L12.158,57.626 C12.279,57.977 12.496,58.288 12.785,58.523 L12.785,58.523 L14.579,60.316 C5.756,73.774 0.465,89.755 0.097,106.961 L0.097,106.961 C0.086,107.47 0.282,107.963 0.638,108.328 L0.638,108.328 C0.688,108.379 0.747,108.421 0.801,108.466 L0.801,108.466 L5.934,113.597 L1.973,113.597 C0.925,113.597 0.076,114.447 0.076,115.495 L0.076,115.495 L0.076,117.445 C0.076,118.011 0.329,118.514 0.723,118.861 L0.723,118.861 L91.834,209.973 C92.556,209.984 93.277,210 94.001,210 L94.001,210 C171.32,210 234,147.32 234,70 L234,70 C234,54.688 231.533,39.955 226.99,26.164 L226.99,26.164 L203.74,2.914 L203.732,2.922 C203.669,2.858 203.595,2.807 203.511,2.773 L203.511,2.773 C199.819,1.281 196.393,0.656 193.247,0.656 L193.247,0.656 C182.167,0.655 174.54,8.406 170.802,13.346" id="Fill-3" mask="url(#mask-2)"></path>
            </g>
            <g id="Group-44">
                <path d="M136.1401,141.7485 L100.1201,141.7485 L100.1201,135.7595 C100.1201,134.7345 100.9511,133.9045 101.9751,133.9045 L134.2861,133.9045 C135.3101,133.9045 136.1401,134.7345 136.1401,135.7595 L136.1401,141.7485 Z" id="Fill-6" fill="#44475A"></path>
                <path d="M103.0034,139.6558 C103.0034,139.7818 102.9004,139.8848 102.7744,139.8848 L102.2324,139.8848 C102.1064,139.8848 102.0034,139.7818 102.0034,139.6558 L102.0034,136.0318 C102.0034,135.9058 102.1064,135.8028 102.2324,135.8028 L102.7744,135.8028 C102.9004,135.8028 103.0034,135.9058 103.0034,136.0318 L103.0034,139.6558 Z" id="Fill-8" fill="#242633"></path>
                <path d="M105.4033,139.6558 C105.4033,139.7818 105.3003,139.8848 105.1743,139.8848 L104.6323,139.8848 C104.5063,139.8848 104.4033,139.7818 104.4033,139.6558 L104.4033,136.0318 C104.4033,135.9058 104.5063,135.8028 104.6323,135.8028 L105.1743,135.8028 C105.3003,135.8028 105.4033,135.9058 105.4033,136.0318 L105.4033,139.6558 Z" id="Fill-10" fill="#242633"></path>
                <path d="M107.8027,139.6558 C107.8027,139.7818 107.6997,139.8848 107.5737,139.8848 L107.0317,139.8848 C106.9057,139.8848 106.8027,139.7818 106.8027,139.6558 L106.8027,136.0318 C106.8027,135.9058 106.9057,135.8028 107.0317,135.8028 L107.5737,135.8028 C107.6997,135.8028 107.8027,135.9058 107.8027,136.0318 L107.8027,139.6558 Z" id="Fill-12" fill="#242633"></path>
                <path d="M110.2031,139.6558 C110.2031,139.7818 110.1001,139.8848 109.9741,139.8848 L109.4321,139.8848 C109.3061,139.8848 109.2031,139.7818 109.2031,139.6558 L109.2031,136.0318 C109.2031,135.9058 109.3061,135.8028 109.4321,135.8028 L109.9741,135.8028 C110.1001,135.8028 110.2031,135.9058 110.2031,136.0318 L110.2031,139.6558 Z" id="Fill-14" fill="#242633"></path>
                <path d="M112.603,139.6558 C112.603,139.7818 112.5,139.8848 112.374,139.8848 L111.832,139.8848 C111.706,139.8848 111.603,139.7818 111.603,139.6558 L111.603,136.0318 C111.603,135.9058 111.706,135.8028 111.832,135.8028 L112.374,135.8028 C112.5,135.8028 112.603,135.9058 112.603,136.0318 L112.603,139.6558 Z" id="Fill-16" fill="#242633"></path>
                <path d="M115.0024,139.6558 C115.0024,139.7818 114.8994,139.8848 114.7734,139.8848 L114.2314,139.8848 C114.1054,139.8848 114.0024,139.7818 114.0024,139.6558 L114.0024,136.0318 C114.0024,135.9058 114.1054,135.8028 114.2314,135.8028 L114.7734,135.8028 C114.8994,135.8028 115.0024,135.9058 115.0024,136.0318 L115.0024,139.6558 Z" id="Fill-18" fill="#242633"></path>
                <path d="M117.4019,139.6558 C117.4019,139.7818 117.2989,139.8848 117.1729,139.8848 L116.6309,139.8848 C116.5049,139.8848 116.4019,139.7818 116.4019,139.6558 L116.4019,136.0318 C116.4019,135.9058 116.5049,135.8028 116.6309,135.8028 L117.1729,135.8028 C117.2989,135.8028 117.4019,135.9058 117.4019,136.0318 L117.4019,139.6558 Z" id="Fill-20" fill="#242633"></path>
                <path d="M119.8027,139.6558 C119.8027,139.7818 119.6997,139.8848 119.5737,139.8848 L119.0317,139.8848 C118.9057,139.8848 118.8027,139.7818 118.8027,139.6558 L118.8027,136.0318 C118.8027,135.9058 118.9057,135.8028 119.0317,135.8028 L119.5737,135.8028 C119.6997,135.8028 119.8027,135.9058 119.8027,136.0318 L119.8027,139.6558 Z" id="Fill-22" fill="#242633"></path>
                <path d="M122.2021,139.6558 C122.2021,139.7818 122.0991,139.8848 121.9731,139.8848 L121.4311,139.8848 C121.3051,139.8848 121.2021,139.7818 121.2021,139.6558 L121.2021,136.0318 C121.2021,135.9058 121.3051,135.8028 121.4311,135.8028 L121.9731,135.8028 C122.0991,135.8028 122.2021,135.9058 122.2021,136.0318 L122.2021,139.6558 Z" id="Fill-24" fill="#242633"></path>
                <path d="M124.6016,139.6558 C124.6016,139.7818 124.4986,139.8848 124.3726,139.8848 L123.8306,139.8848 C123.7046,139.8848 123.6016,139.7818 123.6016,139.6558 L123.6016,136.0318 C123.6016,135.9058 123.7046,135.8028 123.8306,135.8028 L124.3726,135.8028 C124.4986,135.8028 124.6016,135.9058 124.6016,136.0318 L124.6016,139.6558 Z" id="Fill-26" fill="#242633"></path>
                <path d="M127.0015,139.6558 C127.0015,139.7818 126.8985,139.8848 126.7725,139.8848 L126.2305,139.8848 C126.1045,139.8848 126.0015,139.7818 126.0015,139.6558 L126.0015,136.0318 C126.0015,135.9058 126.1045,135.8028 126.2305,135.8028 L126.7725,135.8028 C126.8985,135.8028 127.0015,135.9058 127.0015,136.0318 L127.0015,139.6558 Z" id="Fill-28" fill="#242633"></path>
                <path d="M129.4014,139.6558 C129.4014,139.7818 129.2984,139.8848 129.1724,139.8848 L128.6304,139.8848 C128.5044,139.8848 128.4014,139.7818 128.4014,139.6558 L128.4014,136.0318 C128.4014,135.9058 128.5044,135.8028 128.6304,135.8028 L129.1724,135.8028 C129.2984,135.8028 129.4014,135.9058 129.4014,136.0318 L129.4014,139.6558 Z" id="Fill-30" fill="#242633"></path>
                <path d="M131.8008,139.6558 C131.8008,139.7818 131.6978,139.8848 131.5718,139.8848 L131.0298,139.8848 C130.9038,139.8848 130.8008,139.7818 130.8008,139.6558 L130.8008,136.0318 C130.8008,135.9058 130.9038,135.8028 131.0298,135.8028 L131.5718,135.8028 C131.6978,135.8028 131.8008,135.9058 131.8008,136.0318 L131.8008,139.6558 Z" id="Fill-32" fill="#242633"></path>
                <path d="M134.2012,139.6558 C134.2012,139.7818 134.0982,139.8848 133.9722,139.8848 L133.4302,139.8848 C133.3042,139.8848 133.2012,139.7818 133.2012,139.6558 L133.2012,136.0318 C133.2012,135.9058 133.3042,135.8028 133.4302,135.8028 L133.9722,135.8028 C134.0982,135.8028 134.2012,135.9058 134.2012,136.0318 L134.2012,139.6558 Z" id="Fill-34" fill="#242633"></path>
                <path d="M163.0415,127.0444 C163.0415,127.8204 163.6705,128.4494 164.4455,128.4494 L167.6185,128.4494 C170.6845,124.4884 172.9255,119.8614 174.0875,114.8164 L164.4455,114.8164 C163.6705,114.8164 163.0415,115.4454 163.0415,116.2214 L163.0415,127.0444 Z" id="Fill-36" fill="#F35B74"></path>
                <path d="M163.4434,125.6509 L169.5674,125.6509 C171.1344,123.1649 172.3934,120.4689 173.3054,117.6159 L163.4434,117.6159 L163.4434,125.6509 Z" id="Fill-38" fill="#B4236E"></path>
                <mask id="mask-4" fill="white">
                    <use xlink:href="#path-3"></use>
                </mask>
                <g id="Clip-41"></g>
                <polygon id="Fill-40" fill="#242633" mask="url(#mask-4)" points="55.41 184.131 200.021 184.131 200.021 178.142 55.41 178.142"></polygon>
                <path d="M209.3545,187.4448 C209.3545,188.4928 208.5055,189.3418 207.4575,189.3418 L47.9735,189.3418 C46.9255,189.3418 46.0765,188.4928 46.0765,187.4448 L46.0765,185.4948 C46.0765,184.4468 46.9255,183.5978 47.9735,183.5978 L207.4575,183.5978 C208.5055,183.5978 209.3545,184.4468 209.3545,185.4948 L209.3545,187.4448 Z" id="Fill-42" fill="#44475A" mask="url(#mask-4)"></path>
                <path d="M138.4687,141.7148 L82.1337,141.7148 C81.1887,141.7148 80.3237,141.1798 79.9017,140.3348 C79.4767,139.4888 79.5677,138.4778 80.1337,137.7198 C94.3957,118.6248 117.1607,106.2518 142.8287,106.2518 L171.5807,106.2518 C172.2107,106.2518 172.8117,106.5148 173.2417,106.9748 C173.6717,107.4358 173.8917,108.0528 173.8487,108.6818 C172.6007,127.1338 157.2377,141.7148 138.4687,141.7148 L138.4687,141.7148 Z M231.1307,160.5708 C231.6637,160.5708 232.1667,160.3228 232.4907,159.8988 C232.8147,159.4748 232.9227,158.9238 232.7817,158.4088 L216.5567,99.1528 C215.0977,93.8248 210.2557,90.1308 204.7317,90.1308 L134.8437,90.1308 C86.4677,90.1308 47.1277,128.8298 46.0967,176.9608 C46.0857,177.4698 46.2807,177.9638 46.6377,178.3278 C46.9947,178.6928 47.4837,178.8988 47.9937,178.8988 L204.1007,178.8988 C204.6737,178.8988 205.2287,178.5818 205.5267,178.1328 L213.3137,166.3818 C215.7177,162.7528 219.7807,160.5708 224.1327,160.5708 L231.1307,160.5708 Z" id="Fill-43" fill="#FFFFFF" mask="url(#mask-4)"></path>
            </g>
            <path d="M197.274,123.459 C194.022,123.459 190.904,124.751 188.605,127.049 L188.605,127.049 L161.005,154.648 C158.707,156.947 155.588,158.239 152.337,158.239 L152.337,158.239 L53.623,158.239 C51.197,158.239 49.118,159.951 48.661,162.332 L48.661,162.332 C48.187,164.805 47.82,167.292 47.561,169.777 L47.561,169.777 C47.535,170.017 47.615,170.258 47.777,170.437 L47.777,170.437 C47.939,170.616 48.169,170.718 48.411,170.718 L48.411,170.718 L183.374,170.718 C187.044,170.718 190.52,169.075 192.849,166.239 L192.849,166.239 L200.079,157.435 C202.407,154.599 205.884,152.955 209.553,152.955 L209.553,152.955 L229.135,152.955 C229.4,152.955 229.651,152.831 229.812,152.619 L229.812,152.619 C229.973,152.408 230.027,152.133 229.956,151.877 L229.956,151.877 L222.347,124.087 C222.246,123.715 221.908,123.459 221.525,123.459 L221.525,123.459 L197.274,123.459 Z" id="Fill-45"></path>
            <g id="Group-49" transform="translate(48.000000, 162.000000)">
                <mask id="mask-6" fill="white">
                    <use xlink:href="#path-5"></use>
                </mask>
                <g id="Clip-48"></g>
                <path d="M3.056,0.202 C2.271,0.202 1.6,0.761 1.46,1.533 L1.46,1.533 C1.114,3.459 0.832,5.381 0.621,7.276 L0.621,7.276 C0.608,7.388 0.645,7.501 0.721,7.585 L0.721,7.585 C0.796,7.67 0.904,7.718 1.018,7.718 L1.018,7.718 L135.374,7.718 C138.758,7.718 141.93,6.219 144.077,3.604 L144.077,3.604 L146.335,0.853 C146.433,0.734 146.454,0.569 146.388,0.43 L146.388,0.43 C146.322,0.291 146.181,0.202 146.027,0.202 L146.027,0.202 L3.056,0.202 Z" id="Fill-47" mask="url(#mask-6)"></path>
            </g>
            <path d="M58.825,125.395 C58.29,125.808 58,126.464 58.055,127.137 L58.055,127.137 C58.11,127.81 58.503,128.41 59.098,128.731 L59.098,128.731 C59.718,129.064 60.399,129.307 61.121,129.478 L61.121,129.478 C66.011,122.199 71.938,115.675 78.71,110.14 L78.71,110.14 C78.695,110.121 78.685,110.1 78.671,110.082 L78.671,110.082 L58.825,125.395 Z" id="Fill-50"></path>
            <path d="M215.067,83.232 L207.737,93.857 C207.514,93.833 207.288,93.82 207.059,93.82 L207.059,93.82 C203.587,93.82 200.774,96.634 200.774,100.104 L200.774,100.104 C200.774,103.575 203.587,106.389 207.059,106.389 L207.059,106.389 C210.529,106.389 213.343,103.575 213.343,100.104 L213.343,100.104 C213.343,99.087 213.095,98.128 212.665,97.277 L212.665,97.277 L220.204,86.35 C220.373,86.104 220.312,85.767 220.065,85.597 L220.065,85.597 L216.306,83.004 C216.152,82.898 215.976,82.847 215.802,82.847 L215.802,82.847 C215.519,82.847 215.24,82.981 215.067,83.232" id="Fill-54"></path>
            <path d="M210.2251,100.1045 C210.2251,101.8535 208.8071,103.2715 207.0581,103.2715 C205.3091,103.2715 203.8911,101.8535 203.8911,100.1045 C203.8911,98.3555 205.3091,96.9375 207.0581,96.9375 C208.8071,96.9375 210.2251,98.3555 210.2251,100.1045" id="Fill-56" fill="#44475A"></path>
        </g>
    </g>
</svg>