<?xml version="1.0" encoding="UTF-8"?>
<svg width="34px" height="46px" viewBox="0 0 34 46" version="1.1" xmlns="http://www.w3.org/2000/svg" xmlns:xlink="http://www.w3.org/1999/xlink">
    <!-- Generator: Sketch 43.2 (39069) - http://www.bohemiancoding.com/sketch -->
    <title>ico-foot</title>
    <desc>Created with Sketch.</desc>
    <defs></defs>
    <g id="Page-1" stroke="none" stroke-width="1" fill="none" fill-rule="evenodd">
        <g id="board-color" transform="translate(-40.000000, -773.000000)">
            <g id="12.-Foot-Worship" transform="translate(58.715774, 800.463542) rotate(-270.000000) translate(-58.715774, -800.463542) translate(18.715774, 740.963542)">
                <g id="ico-foot" transform="translate(36.000000, 61.500000) rotate(-90.000000) translate(-36.000000, -61.500000) translate(19.000000, 38.000000)">
                    <g id="Group-3" transform="translate(0.000000, 0.172051)">
                        <path d="M32.3487562,44.6623606 C32.8346527,43.5106777 32.5433424,41.8956289 31.5692734,41.3918728 C30.8648941,41.0277996 28.4228941,39.776263 28.4228941,39.776263 C28.4228941,39.776263 25.68617,36.5618728 23.9109975,31.0643118 C22.1358251,25.5723606 21.3335838,18.5601655 18.5342734,11.8284581 C16.7249631,7.47753131 15.4937217,3.60118985 14.7102562,0.593799606 L0.996480306,0.593799606 C4.1001872,7.99923863 5.027601,12.8926289 4.77099755,14.3640679 C4.384101,16.6079703 0.833756168,23.4630923 3.53634237,26.391385 C6.23892858,29.3196777 14.6653079,32.7528484 16.8159975,36.7806533 C18.9666872,40.8140679 20.40617,43.7030923 21.7716872,44.6623606 C23.1315148,45.6216289 25.487032,45.7282142 26.3518596,45.5991899 C27.2166872,45.4701655 29.48117,45.1952874 30.3630665,45.481385 C31.2392734,45.7674825 31.8793596,45.7758972 32.3487562,44.6623606" id="Fill-1" fill="#F8BE92"></path>
                        <path d="M33.4899224,44.4576537 C33.975819,43.3059707 33.6845086,41.690922 32.7104397,41.1871659 C32.0060603,40.8230927 29.5640603,39.5715561 29.5640603,39.5715561 C29.5640603,39.5715561 26.8273362,36.3571659 25.0521638,30.8596049 C23.2769914,25.3676537 22.47475,18.3554585 19.6754397,11.6237512 C17.8661293,7.27282439 16.6348879,3.39648293 15.8514224,0.389092683 L2.13764655,0.389092683 C5.24135345,7.79453171 6.16876724,12.687922 5.91216379,14.159361 C5.52526724,16.4032634 1.97492241,23.2583854 4.67750862,26.186678 C7.38009483,29.1149707 15.8064741,32.5481415 17.9571638,36.5759463 C20.1078534,40.609361 21.5473362,43.4983854 22.9128534,44.4576537 C24.272681,45.416922 26.6281983,45.5235073 27.4930259,45.3944829 C28.3578534,45.2654585 30.6223362,44.9905805 31.5042328,45.276678 C32.3804397,45.5627756 33.0205259,45.5711902 33.4899224,44.4576537" id="Fill-1" fill="#FBD4AB"></path>
                    </g>
                    <path d="M29.0292328,45.2334268 C29.0292328,45.2334268 30.0687328,44.3325 29.7131293,43.3507927 C29.3575259,42.3690854 28.6821638,41.5977439 27.7928707,41.5624024 C27.7928707,41.5624024 30.3230603,41.686378 30.3196466,43.5611585 C30.3156638,45.435378 29.9970431,45.3287927 29.9970431,45.3287927 L28.9478707,45.3938659 L29.0292328,45.2334268 Z" id="Fill-4" fill="#F8BE95"></path>
                    <path d="M31.3945362,45.4190537 C31.3945362,45.4190537 32.7896397,44.0693463 31.7046224,42.6848585 C31.7046224,42.6848585 33.0661569,43.6901268 31.9322086,45.5626634 L31.3945362,45.4190537 Z" id="Fill-6" fill="#F8BE95"></path>
                </g>
            </g>
        </g>
    </g>
</svg>