<?xml version="1.0" encoding="UTF-8"?>
<svg width="48px" height="49px" viewBox="0 0 48 49" version="1.1" xmlns="http://www.w3.org/2000/svg" xmlns:xlink="http://www.w3.org/1999/xlink">
    <!-- Generator: Sketch 43.2 (39069) - http://www.bohemiancoding.com/sketch -->
    <title>ico-dog</title>
    <desc>Created with Sketch.</desc>
    <defs>
        <polygon id="path-1" points="0.0363314917 0.0778940217 25.6606409 0.0778940217 25.6606409 22.855544 0.0363314917 22.855544 0.0363314917 0.0778940217"></polygon>
        <polygon id="path-3" points="0 31.1794848 0 0.06615696 10.1691713 0.06615696 10.1691713 31.1794848 1.06096071e-16 31.1794848"></polygon>
    </defs>
    <g id="Page-1" stroke="none" stroke-width="1" fill="none" fill-rule="evenodd">
        <g id="board-color" transform="translate(-135.000000, -881.000000)">
            <g id="10.-Doggie" transform="translate(120.000000, 841.000000)">
                <g id="ico-dog" transform="translate(15.000000, 40.000000)">
                    <path d="M16.9353282,31.9991571 C16.9353282,31.9991571 23.6913945,33.3682277 23.9865547,38.6959125 C24.2823779,33.3682277 31.0377812,31.9991571 31.0377812,31.9991571 C31.5102232,32.0894342 31.9276376,32.1300457 32.3007646,32.1269832 C32.4684994,33.9177467 32.6888751,36.9132712 32.6213834,39.7496788 C32.5558807,42.4808962 32.2233282,45.0643147 31.319284,46.281725 C28.9525657,49.4696543 25.388632,48.8467685 23.9865547,48.9126788 C22.5846099,48.8467685 19.0212066,49.4696543 16.6544884,46.281725 C15.7504442,45.0636489 15.4178917,42.4808962 15.352389,39.7503446 C15.2843669,36.9132712 15.5052729,33.917081 15.6724773,32.1269832 C16.0456044,32.1300457 16.4636818,32.0894342 16.9353282,31.9991571" id="Fill-1" fill="#E88A7E"></path>
                    <path d="M26.2234343,19.0211342 C25.3498873,17.2667212 26.5054674,15.5963272 27.1594343,15.387012 C27.939368,15.1377511 28.7193017,15.7630337 28.9063956,16.7655364 C29.032495,17.4396859 29.4985724,18.2742837 30.168053,18.717281 C29.2633459,20.6320092 26.9353459,20.4509223 26.2234343,19.0211342 M21.7497547,19.0211342 C21.0378431,20.4509223 18.7098431,20.6320092 17.8051359,18.717281 C18.4746166,18.2742837 18.9406939,17.4396859 19.0667934,16.7655364 C19.2538873,15.7630337 20.033821,15.1377511 20.8137547,15.387012 C21.4677215,15.5963272 22.6233017,17.2667212 21.7497547,19.0211342 M31.9725613,15.1396152 L31.9718983,15.1389495 C31.7859978,14.6715853 31.5556773,14.1508272 31.2774895,13.5700174 C29.3631912,9.5801125 23.9865282,10.1866207 23.9865282,10.1866207 C23.9865282,10.1866207 18.6099978,9.5801125 16.6956994,13.5700174 C16.4175116,14.1508272 16.1871912,14.6715853 16.0019536,15.1389495 L16.0012906,15.1396152 C15.026705,17.5881505 15.2649812,18.5586967 16.0817768,18.8877158 C16.0181304,20.1646451 16.2333348,22.8343462 18.9418873,23.8664087 C22.5608486,25.2448 23.9865282,24.7022049 23.9865282,26.7072103 C23.9865282,24.7022049 25.4123403,25.2448 29.0311691,23.8664087 C31.7398541,22.8343462 31.9550586,20.1646451 31.8920751,18.8877158 C32.7082077,18.558031 32.946484,17.5874848 31.9725613,15.1396152" id="Fill-3" fill="#512F18"></path>
                    <path d="M23.9865812,27.0712217 C24.0645481,27.8594826 24.6772773,29.7723467 28.5738961,31.2597897 C29.5328354,31.6263576 30.3440619,31.8662978 31.0378077,31.9991837 C31.0378077,31.9991837 24.2822718,33.3681212 23.9865812,38.695806 C23.691421,33.3681212 16.9353547,31.9991837 16.9353547,31.9991837 C17.6291006,31.8662978 18.4408575,31.6263576 19.3999293,31.2597897 C23.2965481,29.7723467 23.9086144,27.8594826 23.9865812,27.0712217" id="Fill-5" fill="#AA554F"></path>
                    <path d="M37.8039646,6.17594402 C36.566042,3.79505 34.916274,2.70533261 34.3553901,2.1872375 C33.372716,1.27940598 28.6000309,-0.859683696 26.7793459,0.670900543 C26.6739315,0.759979348 26.5777989,0.861441304 26.4936,0.976085326 C25.3929149,2.47045217 27.4001635,5.20419946 30.1243624,8.59758261 C30.4887381,8.50610707 30.7364287,8.4528462 30.7364287,8.4528462 C30.7364287,8.4528462 30.9866387,8.43407174 31.3585724,8.46722663 C31.4215558,8.01610707 31.5838541,7.23290598 31.9793901,6.65023207 C31.9793901,6.65023207 30.372716,7.0042837 30.310263,5.90151739 C30.2479425,4.79808533 31.4752575,3.0750962 33.8561635,4.26560978 C36.2378652,5.45599022 36.8593459,8.0794875 35.8167381,7.40653641 C36.5397878,8.34765598 37.0945724,9.66213424 37.391589,11.154637 C37.391589,11.154637 38.2744177,12.3720473 39.2503293,14.2341804 C39.4574453,10.5756913 38.7511028,7.99733261 37.8039646,6.17594402" id="Fill-7" fill="#9E653E"></path>
                    <path d="M21.1937768,0.670953804 C19.3730917,-0.859763587 14.6010696,1.27932609 13.6177326,2.18729076 C13.0568486,2.70538587 11.4070807,3.79497011 10.169158,6.17599728 C9.22201989,7.99805163 8.51634033,10.5756114 8.72345635,14.2329022 C9.68438453,12.4001957 10.5547492,11.1922391 10.5816663,11.1552228 L10.5823293,11.1552228 L10.5823293,11.1545571 C10.8786829,9.6621875 11.4333348,8.34757609 12.1565171,7.40645652 C11.1139094,8.07940761 11.7353901,5.45604348 14.1169591,4.26552989 C16.4985282,3.0750163 17.7253127,4.79813859 17.6628597,5.90157065 C17.6004066,7.0042038 15.9937326,6.65028533 15.9937326,6.65028533 C16.3899315,7.23295924 16.5515669,8.01616033 16.6152133,8.46727989 C16.987147,8.434125 17.2366939,8.45289946 17.2366939,8.45289946 C17.2366939,8.45289946 17.4843845,8.50616033 17.8487602,8.59763587 C20.5736221,5.20411957 22.5808707,2.47037228 21.4795227,0.976138587 C21.3953238,0.861361413 21.2991912,0.759899457 21.1937768,0.670953804" id="Fill-9" fill="#9E653E"></path>
                    <path d="M35.8166718,7.40650978 C35.1359204,6.51931685 34.3048044,5.96473804 33.3989039,5.90521902 C32.7400309,5.86207772 32.2888044,6.19469185 31.9793238,6.65020543 C31.5837878,7.2330125 31.4216221,8.01621359 31.3585061,8.46733315 C31.5420199,8.48357772 31.755368,8.51180598 31.9825061,8.56133859 C31.9806497,8.52365652 31.9793238,8.48610761 31.9793238,8.44789293 C31.9793238,7.38400707 32.8385503,6.52118098 33.8979978,6.52118098 C34.6193238,6.52118098 35.2475669,6.9209038 35.5752133,7.51183315 C35.5814453,7.52248533 35.5890033,7.53753152 35.5989481,7.55630598 C35.6045171,7.56695815 35.6100862,7.57694457 35.6144619,7.58759674 C35.6201635,7.59891467 35.6263956,7.61143098 35.6326276,7.62461304 C35.6432354,7.64645 35.6545061,7.67095 35.6656442,7.69784674 C35.6718762,7.71169457 35.6781083,7.72674076 35.6838099,7.74178696 C35.8990144,8.26680598 36.2204287,9.54999348 35.0267934,10.9271864 C35.8397436,11.5788332 36.7882077,11.8595179 37.3915227,11.1546103 C37.0945061,9.66210761 36.5398541,8.34762935 35.8166718,7.40650978" id="Fill-11" fill="#D29263"></path>
                    <g id="Group-15" transform="translate(11.138122, 0.055258)">
                        <mask id="mask-2" fill="white">
                            <use xlink:href="#path-1"></use>
                        </mask>
                        <g id="Clip-14"></g>
                        <path d="M18.9862541,8.54235109 C16.2620552,5.14883478 14.2548066,2.41522065 15.3554917,0.920853804 C15.4396906,0.806209783 15.5358232,0.704614674 15.6412376,0.615669022 C15.1221215,0.357620109 14.2174144,0.0542994565 12.8584309,0.0793320652 L12.8384088,0.0793320652 C11.479558,0.0542994565 10.5748508,0.357620109 10.0556022,0.615669022 C10.1611492,0.704614674 10.2571492,0.806209783 10.3414807,0.920853804 C11.4426961,2.41522065 9.43544751,5.14883478 6.71071823,8.54235109 C5.62753591,9.89198152 4.43018785,11.3462696 3.27023204,12.8675332 C1.0838453,15.7340332 0.19040884,19.5617587 0.0363314917,22.855544 C0.386254144,18.0930902 4.79138122,15.131919 4.86311602,15.0842505 L4.86377901,15.0837179 C5.04914917,14.6162207 5.27933702,14.0955957 5.55765746,13.5147859 C7.4718232,9.52488098 12.8484862,10.1313891 12.8484862,10.1313891 C12.8484862,10.1313891 18.2250166,9.52488098 20.1393149,13.5147859 C20.4176354,14.0955957 20.6478232,14.6162207 20.8337238,15.0837179 L20.8343867,15.0842505 C20.9036022,15.1300549 25.3105856,18.0917587 25.6606409,22.855544 C25.5065635,19.5610929 24.6129945,15.7335005 22.4274033,12.8675332 C21.2674475,11.3462696 20.0700994,9.89198152 18.9862541,8.54235109" id="Fill-13" fill="#D29263" mask="url(#mask-2)"></path>
                    </g>
                    <path d="M12.9464088,10.9271731 C11.7527735,9.54998016 12.0741878,8.26679266 12.2893923,7.74177364 C12.2949613,7.72672745 12.3011934,7.71168125 12.3074254,7.69783342 C12.3186961,7.67093668 12.3299669,7.64643668 12.3405746,7.62459973 C12.3468066,7.61141766 12.3530387,7.59890136 12.3586077,7.58758342 C12.3629834,7.57693125 12.3686851,7.56694484 12.3742541,7.55629266 C12.3841989,7.53751821 12.3917569,7.52247201 12.397989,7.51181984 C12.7255028,6.92089049 13.3538785,6.52116766 14.0750718,6.52116766 C15.1351823,6.52116766 15.9937459,7.38399375 15.9937459,8.44787962 C15.9937459,8.48609429 15.9925525,8.52364321 15.9906961,8.56132527 C16.2183646,8.51179266 16.4318453,8.4835644 16.6152265,8.46731984 C16.5515801,8.01620027 16.3899448,7.23299918 15.9937459,6.65019212 C15.6842652,6.19467853 15.2331713,5.8620644 14.5742983,5.90520571 C13.6689282,5.96485788 12.8378122,6.51930353 12.1565304,7.40649647 C11.4333481,8.34761603 10.8786961,9.66209429 10.5822099,11.154597 L10.5822099,11.1552628 C11.1856575,11.8595046 12.133989,11.5788198 12.9464088,10.9271731" id="Fill-16" fill="#D29263"></path>
                    <path d="M41.6350011,20.9634783 C41.2350895,18.4622147 40.1987138,16.0436386 39.2502497,14.2342337 C38.2744707,12.3721005 37.3915094,11.1545571 37.3915094,11.1545571 C36.7881945,11.8594647 35.8397304,11.5787799 35.0267801,10.9271332 C34.800305,10.7455136 34.5844376,10.5355326 34.390316,10.3099728 C34.2567912,10.1564484 34.133211,9.99546739 34.022758,9.83129076 C33.5012552,9.05621196 32.6757083,8.71227989 31.9824928,8.56128533 C31.7553547,8.51175272 31.5420066,8.48352446 31.3584928,8.46727989 C30.9866917,8.434125 30.7364818,8.45289946 30.7364818,8.45289946 C30.7364818,8.45289946 30.4887912,8.50616033 30.1244155,8.59763587 C31.2081282,9.9472663 32.4056088,11.4014212 33.565432,12.9228179 C35.7511558,15.7886522 36.6447249,19.6163777 36.7988022,22.9108288 C36.7993326,22.9126929 36.7993326,22.9145571 36.7993326,22.9164212 C36.815642,23.1382527 36.8230674,23.3638125 36.8205481,23.5937663 C36.862979,26.1482908 36.461874,28.299231 35.8946254,29.2968071 C34.9899182,30.8863777 34.2581171,32.1100462 32.3007249,32.1269565 C32.4685923,33.9177201 32.6888354,36.9132446 32.6214762,39.7497853 C36.1667138,37.5517092 38.4672663,34.5969293 39.8772994,31.583163 C41.7323271,27.6181576 42.0487028,23.5499592 41.6350011,20.9634783" id="Fill-18" fill="#B77A51"></path>
                    <path d="M11.1743867,22.9108421 C11.3284641,19.6169236 12.2220331,15.7893313 14.4082873,12.9228313 C15.5682431,11.4014345 16.7655912,9.94727962 17.8487735,8.59764918 C17.4843978,8.50617364 17.2367072,8.45291277 17.2367072,8.45291277 C17.2367072,8.45291277 16.9871602,8.43413832 16.6152265,8.46729321 C16.4318453,8.48353777 16.2183646,8.51176603 15.9906961,8.56129864 C15.2974807,8.71229321 14.4719337,9.05622527 13.9502983,9.83130408 C13.8398453,9.99548071 13.7163978,10.1564617 13.5828729,10.3099861 C13.3887514,10.5355459 13.172884,10.7455269 12.9464088,10.9271465 C12.133989,11.5787932 11.1856575,11.859478 10.5822099,11.1552361 L10.5816796,11.1552361 C10.5547624,11.1922524 9.68439779,12.400209 8.72346961,14.2329155 C7.77447514,16.0424535 6.73809945,18.4615622 6.33818785,20.9634916 C5.92448619,23.5499726 6.24086188,27.6181709 8.0958895,31.5830432 C9.50592265,34.5974753 11.8064751,37.5517226 15.3523757,39.7503312 C15.2843536,36.9132579 15.5052597,33.9170677 15.6724641,32.1269698 C13.7157348,32.1100595 12.9838011,30.886391 12.0784309,29.2968204 C11.5113149,28.2992443 11.1100773,26.1483041 11.1525083,23.5937796 C11.149989,23.3638258 11.157547,23.138266 11.1737238,22.9164345 C11.1737238,22.9145704 11.1737238,22.9127062 11.1743867,22.9108421" id="Fill-20" fill="#B77A51"></path>
                    <path d="M34.3765923,8.01428288 C34.0889901,8.01428288 33.8562829,7.78060082 33.8562829,7.49232636 C33.8562829,7.20418505 34.0889901,6.97036984 34.3765923,6.97036984 C34.6636641,6.97036984 34.8963713,7.20418505 34.8963713,7.49232636 C34.8963713,7.78060082 34.6636641,8.01428288 34.3765923,8.01428288 M35.6837304,7.74172038 C35.6781613,7.72667418 35.6719293,7.71229375 35.6656972,7.69791332 C35.6544265,7.67088342 35.6431558,7.64651658 35.6325481,7.62454647 C35.626316,7.6113644 35.620084,7.5988481 35.6145149,7.58766332 C35.6089459,7.57634538 35.6039072,7.56569321 35.5988685,7.5562394 C35.5889238,7.53746495 35.5814983,7.52241875 35.5751337,7.51176658 C35.2476199,6.92097038 34.6193768,6.5211144 33.8980508,6.5211144 C32.8386033,6.5211144 31.9793768,7.38394049 31.9793768,8.44782636 C31.9793768,8.48604103 31.9805702,8.5237231 31.9825591,8.56127201 C32.6757746,8.71226658 33.501189,9.05633179 34.0228243,9.83127745 C34.1332773,9.99545408 34.2567249,10.1565682 34.3903823,10.3099595 C35.211421,10.0919894 35.8167249,9.34074484 35.8167249,8.44782636 C35.8167249,8.19843234 35.7692552,7.96035625 35.6837304,7.74172038" id="Fill-22" fill="#000000"></path>
                    <path d="M28.9064221,16.7654965 C28.7191956,15.7629938 27.9392619,15.1377111 27.1593282,15.3871052 C26.5054939,15.5962872 25.3499138,17.2668144 26.2234608,19.0210943 C26.9353724,20.4508823 29.2633724,20.6319693 30.1680796,18.717241 C29.4985989,18.2742437 29.0325215,17.4396459 28.9064221,16.7654965" id="Fill-24" fill="#000000"></path>
                    <path d="M20.8137945,15.3870652 C20.0338608,15.1376712 19.2539271,15.7629538 19.0667006,16.7654565 C18.9407337,17.4397391 18.4746564,18.2742038 17.8051757,18.7172011 C18.7098829,20.6320625 21.0377503,20.4509755 21.7496619,19.0211875 C22.6232088,17.2667745 21.4677613,15.5963804 20.8137945,15.3870652" id="Fill-26" fill="#000000"></path>
                    <path d="M13.5971934,8.01428288 C13.3095912,8.01428288 13.076884,7.78060082 13.076884,7.49232636 C13.076884,7.20418505 13.3095912,6.97036984 13.5971934,6.97036984 C13.8842652,6.97036984 14.1169724,7.20418505 14.1169724,7.49232636 C14.1169724,7.78060082 13.8842652,8.01428288 13.5971934,8.01428288 M14.0750718,6.5211144 C13.3538785,6.5211144 12.7255028,6.92097038 12.397989,7.51176658 C12.3917569,7.52241875 12.3841989,7.53746495 12.3742541,7.5562394 C12.3692155,7.56569321 12.3643094,7.57634538 12.3586077,7.58766332 C12.3530387,7.5988481 12.3468066,7.6113644 12.3405746,7.62454647 C12.3299669,7.64651658 12.3186961,7.67088342 12.3074254,7.69791332 C12.3011934,7.71229375 12.2949613,7.72667418 12.2893923,7.74172038 C12.2038674,7.96035625 12.1565304,8.19843234 12.1565304,8.44782636 C12.1565304,9.34074484 12.7617017,10.0919894 13.5828729,10.3099595 C13.7163978,10.1565682 13.8398453,9.99545408 13.9502983,9.83127745 C14.4719337,9.05633179 15.2974807,8.71226658 15.9906961,8.56127201 C15.9925525,8.5237231 15.9937459,8.48604103 15.9937459,8.44782636 C15.9937459,7.38394049 15.1351823,6.5211144 14.0750718,6.5211144" id="Fill-28" fill="#000000"></path>
                    <path d="M34.3903293,10.3100128 C34.5843182,10.5355726 34.8003182,10.7454204 35.0267934,10.9271731 C36.2204287,9.54998016 35.8990144,8.26679266 35.6838099,7.74177364 C35.7692022,7.96040951 35.8166718,8.1984856 35.8166718,8.44787962 C35.8166718,9.34066495 35.2115006,10.0919095 34.3903293,10.3100128" id="Fill-30" fill="#F0DFCC"></path>
                    <path d="M34.3765923,8.01428288 C34.6636641,8.01428288 34.8963713,7.78060082 34.8963713,7.49232636 C34.8963713,7.20418505 34.6636641,6.97036984 34.3765923,6.97036984 C34.0889901,6.97036984 33.8562829,7.20418505 33.8562829,7.49232636 C33.8562829,7.78060082 34.0889901,8.01428288 34.3765923,8.01428288" id="Fill-32" fill="#F0DFCC"></path>
                    <path d="M36.8206144,23.5937929 C36.8231337,23.3638391 36.8155757,23.1382793 36.7993989,22.9164478 C36.7993989,22.9145837 36.7993989,22.9127196 36.7987359,22.9108554 C36.4486807,18.1470701 32.0418298,15.1853663 31.9724818,15.139562 C32.946537,17.5875647 32.7081282,18.5581109 31.8919956,18.8876625 C31.954979,20.1645918 31.7397746,22.8344261 29.0312221,23.8663554 C25.5261613,25.2014723 24.0784707,24.7343745 23.9908243,26.5254043 C23.9880398,26.5252712 23.9851227,26.525138 23.9823381,26.5250049 C23.8944265,24.7345076 22.4467359,25.2013391 18.9419403,23.8663554 C16.2333878,22.8344261 16.0180508,20.1645918 16.0816972,18.8876625 C15.2650343,18.5587766 15.0266254,17.5882304 16.001211,15.139562 C15.9294762,15.1872304 11.5244818,18.1484016 11.1744265,22.9108554 C11.1737635,22.9127196 11.1737635,22.9145837 11.1737635,22.9164478 C11.1575867,23.1382793 11.1500287,23.3638391 11.1525481,23.5937929 C11.1101171,26.1483174 11.5113547,28.2992576 12.0784707,29.2968337 C12.9838409,30.8864043 13.7157746,32.1100728 15.6725039,32.1269832 C16.0456309,32.1300457 16.4635757,32.0894342 16.9353547,31.9991571 C17.6291006,31.8662712 18.4408575,31.626331 19.3999293,31.259763 C23.1719072,29.8198554 23.8660508,27.9814234 23.9772994,27.1502875 C23.9835315,27.1501543 23.9896309,27.149888 23.9957304,27.1493554 C24.1065812,27.9800918 24.8005923,29.819456 28.5738961,31.259763 C29.5328354,31.626331 30.3440619,31.8662712 31.0378077,31.9991571 C31.5101171,32.0894342 31.9275315,32.1300457 32.3006586,32.1269832 C34.2580508,32.1100728 34.9899845,30.8864043 35.8946917,29.2968337 C36.4618077,28.2992576 36.8630453,26.1483174 36.8206144,23.5937929" id="Fill-34" fill="#F0DFCC"></path>
                    <path d="M13.5971934,8.01428288 C13.8842652,8.01428288 14.1169724,7.78060082 14.1169724,7.49232636 C14.1169724,7.20418505 13.8842652,6.97036984 13.5971934,6.97036984 C13.3095912,6.97036984 13.076884,7.20418505 13.076884,7.49232636 C13.076884,7.78060082 13.3095912,8.01428288 13.5971934,8.01428288" id="Fill-36" fill="#F0DFCC"></path>
                    <path d="M13.5828331,10.3100128 C12.7616619,10.0919095 12.1564906,9.34066495 12.1564906,8.44787962 C12.1564906,8.1984856 12.2039602,7.96040951 12.2893525,7.74177364 C12.0741481,8.26679266 11.7528663,9.54998016 12.9463691,10.9271731 C13.1729768,10.7454204 13.3888442,10.5355726 13.5828331,10.3100128" id="Fill-38" fill="#F0DFCC"></path>
                    <path d="M47.3753503,31.2391245 C46.3145768,27.6677168 47.0010298,19.8982875 46.6890298,15.1388962 C46.3770298,10.3789723 44.8796155,7.30435543 42.3837481,5.90146413 C40.7127646,4.96234185 38.6374939,5.69601033 37.8039912,6.17589076 C38.7511293,7.9974125 39.4574718,10.575638 39.2502232,14.2341272 C40.1986873,16.0436652 41.235063,18.4622413 41.6349746,20.9635049 C42.0486762,23.5499859 41.7323006,27.6181842 39.8774055,31.5830565 C41.1769856,34.6250511 42.9478144,35.967225 45.1291624,36.4396489 C48.3112177,37.1288446 48.4361238,34.8105321 47.3753503,31.2391245" id="Fill-40" fill="#7F4D2A"></path>
                    <path d="M33.8562166,4.26555652 C31.4751779,3.07504293 30.247863,4.79816522 30.310316,5.90146413 C30.3727691,7.00423043 31.9794431,6.65031196 31.9794431,6.65031196 C32.2889238,6.19479837 32.7400177,5.86205109 33.3988906,5.90532554 C34.3047912,5.96484457 35.1359072,6.51929022 35.8166586,7.40648315 C36.8592663,8.07943424 36.2377856,5.45607011 33.8562166,4.26555652" id="Fill-42" fill="#7F4D2A"></path>
                    <path d="M14.1169326,4.26555652 C11.7353635,5.45607011 11.1138829,8.07943424 12.1564906,7.40648315 C12.837905,6.51929022 13.6688884,5.96484457 14.5742586,5.90532554 C15.2331315,5.86205109 15.684358,6.19479837 15.9938387,6.65031196 C15.9938387,6.65031196 17.6005127,7.00423043 17.6628331,5.90146413 C17.7252862,4.79816522 16.4985017,3.07504293 14.1169326,4.26555652" id="Fill-44" fill="#7F4D2A"></path>
                    <g id="Group-48" transform="translate(0.000000, 5.381345)">
                        <mask id="mask-4" fill="white">
                            <use xlink:href="#path-3"></use>
                        </mask>
                        <g id="Clip-47"></g>
                        <path d="M5.58941436,0.520158967 C3.09354696,1.92305027 1.5961326,4.99753397 1.2841326,9.75759103 C0.972132597,14.5169823 1.65858564,22.2864117 0.597812155,25.8578193 C-0.462961326,29.4292269 -0.338055249,31.7475394 2.844,31.0582106 C5.02534807,30.5857867 6.7961768,29.2437459 8.09575691,26.2017514 C6.24086188,22.2368791 5.92448619,18.1685476 6.33818785,15.5820666 C6.73809945,13.0802704 7.77447514,10.6611617 8.72346961,8.85162364 C8.51635359,5.19433288 9.22203315,2.61663995 10.1691713,0.794585598 C9.33500552,0.314705163 7.25973481,-0.419096467 5.58941436,0.520158967" id="Fill-46" fill="#7F4D2A" mask="url(#mask-4)"></path>
                    </g>
                </g>
            </g>
        </g>
    </g>
</svg>