<?xml version="1.0" encoding="UTF-8"?>
<svg width="178px" height="217px" viewBox="0 0 178 217" version="1.1" xmlns="http://www.w3.org/2000/svg" xmlns:xlink="http://www.w3.org/1999/xlink">
    <!-- Generator: Sketch 46.1 (44463) - http://www.bohemiancoding.com/sketch -->
    <title>ico-maid</title>
    <desc>Created with Sketch.</desc>
    <defs>
        <polygon id="path-1" points="110.649288 0 0.427736087 0 0.427736087 83.819376 110.649288 83.819376 110.649288 2.72848411e-14"></polygon>
        <polygon id="path-3" points="130 40 1.75401341e-14 40 0 0 130 0"></polygon>
    </defs>
    <g id="Page-1" stroke="none" stroke-width="1" fill="none" fill-rule="evenodd">
        <g id="ico-maid">
            <g id="Group-3" transform="translate(34.000000, 0.000000)">
                <mask id="mask-2" fill="white">
                    <use xlink:href="#path-1"></use>
                </mask>
                <g id="Clip-2"></g>
                <path d="M96.1435187,71.424336 C94.8158622,72.745296 94.1006361,74.675376 94.1006361,76.707696 C94.1006361,80.670096 96.8587448,83.819376 100.33208,83.819376 C103.804932,83.819376 106.56304,80.670096 106.56304,76.707696 C106.56304,73.760976 105.030758,71.322576 102.783732,70.205136 L103.498475,70.205136 C106.97181,70.205136 109.729919,67.055376 109.729919,63.093456 C109.729919,59.537136 107.380097,56.489136 104.315532,56.082576 L104.417845,56.082576 C107.788867,56.082576 110.649288,52.933296 110.649288,48.970896 C110.649288,45.008496 107.788867,41.859216 104.417845,41.859216 L104.213701,41.859216 C106.56304,40.843056 108.197636,38.302896 108.197636,35.254896 C108.197636,31.292976 105.439527,28.143216 101.966193,28.143216 C100.944993,28.143216 100.02514,28.346256 99.2080839,28.854096 L99.2080839,28.752816 C100.740367,27.431856 101.659736,25.400016 101.659736,23.062896 C101.659736,19.202256 98.9016274,15.951216 95.4287752,15.951216 C93.7941796,15.951216 92.261897,16.763856 91.1379013,17.983056 C91.6489839,16.966896 91.9554404,15.747696 91.9554404,14.427216 C91.9554404,10.464816 89.0950187,7.315056 85.723997,7.315056 C83.2723448,7.315056 81.1271491,8.940816 80.1059491,11.277456 C80.2077796,10.667856 80.3100926,9.956976 80.3100926,9.347376 C80.3100926,5.384976 77.5519839,2.235696 74.0786491,2.235696 C71.116397,2.235696 68.5624317,4.673616 67.9495187,7.822896 C67.9495187,7.619856 68.0518317,7.315056 68.0518317,7.112016 C68.0518317,3.149616 65.1918926,-0.000144 61.7185578,-0.000144 C58.3475361,-0.000144 55.5894274,3.047856 55.4871143,6.908976 L55.4871143,7.010736 L55.4871143,7.112016 L55.4871143,7.213776 L55.4871143,7.112016 L55.4871143,7.010736 L55.4871143,6.908976 C55.3852839,3.047856 52.6271752,-0.000144 49.2561535,-0.000144 C45.7833013,-0.000144 43.02471,3.149616 43.02471,7.112016 L43.02471,7.822896 C42.51411,4.673616 39.9601448,2.235696 36.8955796,2.235696 C33.5245578,2.235696 30.6646187,5.384976 30.6646187,9.347376 C30.6646187,9.956976 30.7664491,10.667856 30.9710752,11.277456 C29.9493926,8.940816 27.8046796,7.315056 25.3525448,7.315056 C21.8796926,7.315056 19.1215839,10.464816 19.1215839,14.427216 C19.1215839,15.747696 19.4280404,16.966896 19.9386404,17.983056 C18.8146448,16.763856 17.2828448,15.951216 15.5459361,15.951216 C12.1749143,15.951216 9.31497522,19.202256 9.31497522,23.062896 C9.31497522,25.400016 10.3361752,27.431856 11.8689404,28.752816 L11.7666274,28.854096 C10.9495709,28.346256 10.0302013,28.143216 9.11083174,28.143216 C5.63749696,28.143216 2.87938826,31.292976 2.87938826,35.254896 C2.87938826,38.302896 4.51398391,40.843056 6.86332304,41.859216 L6.65917957,41.859216 C3.18584478,41.859216 0.427736087,45.008496 0.427736087,48.970896 C0.427736087,52.933296 3.18584478,56.082576 6.65917957,56.082576 L6.76101,56.082576 C3.69644478,56.489136 1.34710565,59.537136 1.34710565,63.093456 C1.34710565,67.055376 4.10521435,70.205136 7.57806652,70.205136 L8.29329261,70.205136 C6.04626652,71.322576 4.51398391,73.760976 4.51398391,76.707696 C4.51398391,80.670096 7.27209261,83.819376 10.7449448,83.819376 C14.2182796,83.819376 16.9763883,80.670096 16.9763883,76.707696 C16.9763883,74.675376 16.1588491,72.745296 14.933023,71.424336 L96.1435187,71.424336 Z" id="Fill-1" fill="#D8D9D9" mask="url(#mask-2)"></path>
            </g>
            <path d="M129.99693,71.5658726 C128.672807,72.8909982 127.959485,74.8271646 127.959485,76.8658935 C127.959485,80.8407888 130.710252,84 134.174342,84 C137.637951,84 140.388718,80.8407888 140.388718,76.8658935 C140.388718,73.9098811 138.860514,71.4637917 136.619469,70.3428278 L137.33231,70.3428278 C138.656914,70.3428278 139.981037,69.8333864 141,69.0181837 C140.388718,64.7370457 139.573837,60.5584701 138.758955,56.2778136 C138.554873,56.2778136 138.350792,56.1757327 138.147192,56.1757327 L138.249232,56.1757327 L138.656914,56.1757327 C138.249232,53.9338051 137.73951,51.6913959 137.230269,49.4489868 C124.088194,-1.81632892 54.9118055,-1.81632892 41.7692495,49.4489868 C41.2600085,51.6913959 40.7507675,53.9338051 40.2410453,56.1757327 L40.7507675,56.1757327 L40.8523269,56.1757327 C40.6487268,56.1757327 40.4451267,56.2778136 40.2410453,56.2778136 C39.4261635,60.5584701 38.6112817,64.7370457 38,69.0181837 C39.0184819,69.8333864 40.2410453,70.3428278 41.6672087,70.3428278 L42.3805311,70.3428278 C40.1394859,71.4637917 38.6112817,73.9098811 38.6112817,76.8658935 C38.6112817,80.8407888 41.3620492,84 44.8256578,84 C48.2897478,84 51.0405153,80.8407888 51.0405153,76.8658935 C51.0405153,74.8271646 50.2251522,72.8909982 49.0025889,71.5658726 L51.8553971,71.5658726 C52.5687195,60.2527089 53.8933236,49.1437071 65.6092349,43.537925 C76.2046235,74.1135614 105.546144,45.372492 126.32924,71.5658726 L129.99693,71.5658726 Z" id="Fill-4" fill="#EBEBEB"></path>
            <path d="M89.4487793,217 L177,217 C175.977518,202.393195 171.068059,193.915187 162.783346,190.544349 C114.9166,168.48068 108.882217,146.21288 114.302918,98 C106.018205,99.2257594 97.733492,100.349694 89.4487793,101.575453 C81.266508,100.349694 72.9817952,99.2257594 64.6970825,98 C70.0158246,146.21288 64.0834001,168.48068 16.2166541,190.544349 C7.93194131,193.915187 3.0224819,202.393195 2,217 L89.4487793,217 Z" id="Fill-6" fill="#FBD0A4"></path>
            <path d="M112.585708,130.286856 C111.979514,120.989288 112.585708,110.362806 114,98 C105.816389,99.2260954 97.6332544,100.349855 89.4491657,101.575951 C81.3667456,100.349855 73.1831341,99.2260954 65,98 C66.3131009,110.362806 66.9192943,120.989288 66.3131009,130.286856 C72.3750353,138.051805 80.1543587,143.569234 89.4491657,145 C98.8456413,143.569234 106.624965,138.051805 112.585708,130.286856" id="Fill-8" fill="#F8BE92"></path>
            <path d="M88.9479012,217 L178,217 C176.95999,202.189282 171.966368,193.59292 163.539632,190.175024 C142.420938,180.542773 133.680664,173.889648 122.943359,160.966797 C102.553066,170.599048 75.4534118,168.753345 56.3115234,159.121094 C48.7168935,170.928369 35.4753561,180.542773 14.4603681,190.175024 C6.03363173,193.59292 1.04001016,202.189282 0,217 L88.9479012,217 Z" id="Fill-10" fill="#40494C"></path>
            <path d="M121.655057,159 C111.687118,162.658664 100.785175,166.317328 88.6367491,164.995984 C83.6522889,187.354165 70.4658631,192.029284 47,169.772412 C50.7379772,166.317328 53.748962,162.759973 56.2409468,159 C66.3128821,162.658664 76.4883232,166.317328 88.6367491,164.995984 C93.7242243,187.354165 107.534137,192.029284 131,169.772412 C128.067871,166.501953 124.76709,163.051758 121.655057,159 Z" id="Fill-12" fill="#EBEBEB"></path>
            <path d="M88.9816254,38.7589233 C33.875728,28.1949701 43.008654,131.295851 88.9816254,138 C135.057377,131.295851 144.087523,28.1949701 88.9816254,38.7589233" id="Fill-14" fill="#FBD0A3"></path>
            <path d="M111.767272,123.501944 C107.646148,128.625143 112.269709,134.752574 114.079052,143.090646 C128.654477,146.807634 137.399636,138.871541 142.927869,124.004061 C147.816406,101.955078 141.31988,78.3983371 136.09273,55.8961281 C123.125769,5.36795731 54.8741079,5.36795731 41.9071471,55.8961281 C36.6804717,78.3983371 29.0175781,100.701172 35.0720082,124.004061 C40.5000383,138.871541 49.3454004,146.807634 63.9208248,143.090646 C65.6294908,134.752574 69.2481775,127.419685 65.1265788,122.195873 C57.6883255,112.351453 51.9587381,96.278989 51.7578583,78.7998402 C52.4616501,67.2478457 53.4665243,55.7959896 65.4286109,50.0700616 C76.0833164,80.608028 105.63545,51.0742939 126.141342,78.7998402 C125.839784,96.278989 119.507082,112.854044 111.767272,123.501944 Z" id="Fill-16" fill="#3D311F"></path>
            <g id="Group-20" transform="translate(24.000000, 177.000000)">
                <mask id="mask-4" fill="white">
                    <use xlink:href="#path-3"></use>
                </mask>
                <g id="Clip-19"></g>
                <path d="M116.101051,0 C120.698981,2.6946379 125.401577,5.49257677 130,8.29002607 C128.327801,18.8600174 126.551429,29.4300087 124.774564,40 L64.9995063,40 L5.32960898,40 C3.55323722,29.4300087 1.77637176,18.8600174 0,8.29002607 C4.70259616,5.49257677 9.30052561,2.6946379 14.0031218,0 C34.7992116,29.2229172 95.3054551,29.2229172 116.101051,0" id="Fill-18" fill="#EBEBEB" mask="url(#mask-4)"></path>
            </g>
        </g>
    </g>
</svg>