<?xml version="1.0" encoding="UTF-8"?>
<svg width="44px" height="46px" viewBox="0 0 44 46" version="1.1" xmlns="http://www.w3.org/2000/svg" xmlns:xlink="http://www.w3.org/1999/xlink">
    <!-- Generator: Sketch 43.2 (39069) - http://www.bohemiancoding.com/sketch -->
    <title>ico-spit-mouth</title>
    <desc>Created with Sketch.</desc>
    <defs>
        <polygon id="path-1" points="1.32360533e-20 0.318789544 1.32360533e-20 32.5446102 44.0564606 32.5446102 44.0564606 0.318789544 0 0.318789544"></polygon>
        <polygon id="path-3" points="0.127599107 0.325931842 43.5869858 0.325931842 43.5869858 19.8336083 0.127599107 19.8336083 0.127599107 0.325931842"></polygon>
    </defs>
    <g id="Page-1" stroke="none" stroke-width="1" fill="none" fill-rule="evenodd">
        <g id="board-color" transform="translate(-35.000000, -700.000000)">
            <g id="13.-Drink-Spit" transform="translate(59.000000, 720.500000) rotate(-270.000000) translate(-59.000000, -720.500000) translate(19.000000, 661.000000)">
                <g id="ico-spit-mouth" transform="translate(42.500000, 61.000000) rotate(-90.000000) translate(-42.500000, -61.000000) translate(20.000000, 38.000000)">
                    <path d="M13.4382418,6.4734144 C14.3680111,7.36717683 16.0390564,8.32797144 18.0895296,8.46495025 C19.7346938,8.57132741 21.1996663,8.11910305 22.2549348,7.54301487 C22.8565502,7.82182989 23.8922858,8.27162555 25.1536271,9.01383696 C26.1786196,9.62684141 27.3295997,10.4453141 28.4678833,11.5299725 C28.9830653,12.0127985 29.5006889,12.5466273 30.0329623,13.1076575 C28.1787954,12.7467523 24.291735,12.2333247 19.8235688,11.5246293 C14.9437453,10.7683315 10.8164293,9.927029 9.18200831,9.74390485 C9.24939705,9.66230046 9.31629746,9.57535292 9.38319787,9.49617722 C10.0668517,8.69033382 10.7549005,8.02146922 11.3594458,7.48618324 C12.1002336,6.83334808 12.7062439,6.36898021 13.0480708,6.06879261 C13.1652686,6.19994253 13.2912563,6.33400689 13.4382418,6.4734144" id="Fill-1" fill="#FEFEFE"></path>
                    <path d="M44.0696454,19.9840422 C43.8132752,20.1511369 43.2863734,20.5547872 42.8590898,20.9506656 C41.9503185,21.6899626 40.8051983,22.9441445 39.5624133,24.5980907 C38.3098617,26.2466938 36.9689236,28.3023474 35.4414455,30.5275244 C33.9090843,32.7434723 32.1867649,35.1668314 29.9546351,37.246772 C28.8324661,38.2687699 27.6282587,39.140674 26.3703356,39.8347971 C25.1172958,40.5366921 23.8173769,41.0442908 22.5550589,41.4357976 C20.0206564,42.2256116 17.5966152,42.397078 15.5861845,42.3368462 C14.4479009,42.296044 13.4419531,42.1673228 12.5815259,42.0109143 C13.2270905,41.5703477 13.8331008,41.0933506 14.4029751,40.6027528 C15.7492848,39.4374614 16.9329826,38.1915372 18.0541749,36.9684427 C19.1734139,35.7429196 20.2223343,34.5285684 21.2424435,33.367163 C23.275337,31.0370661 25.2178906,28.9265238 27.1326097,27.1496853 C30.9537464,23.5824074 34.7685348,21.5670703 37.5803054,20.7787135 C37.9299455,20.6752508 38.259076,20.5688737 38.5711152,20.4819261 C38.8880376,20.4124652 39.1844503,20.347376 39.4593769,20.2871442 C39.7347917,20.2254552 39.9892086,20.1681378 40.2216509,20.1151921 C40.4579998,20.0807045 40.6713975,20.0486456 40.8628205,20.0209584 C40.9214194,20.0122151 43.7854407,19.8635785 43.8396447,19.8553209" id="Fill-3" fill="#D7516F"></path>
                    <polygon id="Fill-5" fill="#813A3F" points="2.77480446 16.3620699 11.8088017 3.75516227 18.4011781 3.18830317 26.7026891 4.88839474 33.6207777 12.171587 38.2598573 17.3626952 28.3258786 18.4881559 11.8903519 29.9040279 9.18210598 30.3091355 7.25127218 26.6660821"></polygon>
                    <path d="M5.20416841,18.425301 C4.60401799,19.1165097 4.0990908,19.7513725 2.93150769,21.6117584 C2.67953242,21.0123547 0.65787033,17.13226 0.615874451,17.0409408 C0.75260522,17.0657135 1.1925853,16.9535075 1.37521854,16.9680797 C2.06668558,17.0113106 2.58235591,16.915134 3.80511964,16.3793623 L5.20416841,18.425301 Z" id="Fill-7" fill="#D7516F"></path>
                    <g id="Group-11" transform="translate(0.000000, 12.789012)">
                        <mask id="mask-2" fill="white">
                            <use xlink:href="#path-1"></use>
                        </mask>
                        <g id="Clip-10"></g>
                        <path d="M44.0564606,7.26779434 C43.7449098,7.31685412 43.4099194,7.36931409 43.0510012,7.42565998 C42.6964778,7.50337845 42.3229098,7.60295525 41.9249256,7.70058908 C41.1201674,7.87059823 40.2690183,8.20090174 39.3216694,8.52294766 C38.8641097,8.72064402 38.3860403,8.92708371 37.8879497,9.14226673 C37.391324,9.35939271 36.9039764,9.6425794 36.3834229,9.90487924 C34.3358796,11.0201393 32.1555122,12.5584793 29.9727031,14.4994982 C27.791359,16.4410027 25.5885286,18.7565275 23.3158679,21.2896639 C22.1746543,22.5535606 21.0104895,23.8670027 19.7818659,25.1833594 C18.5517773,26.4963158 17.2635781,27.822873 15.8357182,29.0367383 C14.4112766,30.2428319 12.8261763,31.3440055 11.0423281,31.9832399 C9.26873468,32.6234458 7.29395172,32.75411 5.4051138,32.1775361 L4.70388029,31.9370946 C4.4777862,31.8530615 4.21018455,31.7894295 4.03975941,31.6772234 L3.75018317,31.5285869 L3.48062823,31.3265188 C3.29262342,31.2055695 3.13342974,31.0307029 2.96837617,30.8655511 C2.31841669,30.1840573 1.82032603,29.2970952 1.42429512,28.3610734 C0.633698283,26.4764004 0.234249107,24.3634295 0.0726138049,22.2281145 C-0.233077129,17.9467981 0.424695536,13.6664533 2.02102727,9.96462531 C2.81601902,8.11346846 3.90156367,6.43669243 5.20636587,5.03047382 C6.50726147,3.61065449 8.08064196,2.5444542 9.76975529,1.80612872 C11.4671701,1.04497343 13.2300204,0.579148339 14.9713844,0.393595487 C16.7147017,0.220671886 18.4306729,0.356679212 20.0440959,0.707383817 C21.6599606,1.0590599 23.171324,1.63126215 24.5606062,2.31372749 C24.7095451,2.38513133 24.8550657,2.46187832 25.000098,2.53765383 C24.6348315,2.61537231 24.2656584,2.70474855 23.895997,2.83152681 C22.1927223,3.29783764 20.4035025,4.11193863 18.6894847,5.20485464 C16.9749785,6.29971362 15.4860781,7.56118157 14.3145884,8.86393745 C14.0045025,9.17383986 13.7359242,9.50608633 13.4746708,9.82764651 C13.217324,10.1526069 12.9467924,10.4508515 12.7255815,10.7704687 C12.2816948,11.4077602 11.8505046,11.9867628 11.5306523,12.5647939 C10.1799476,14.8317446 9.74387411,16.4128298 9.88548812,16.4686899 C10.0754462,16.554666 10.8079325,15.1290178 12.3051344,13.0743357 C12.6616111,12.5482788 13.1201475,12.0231933 13.5821021,11.4398191 C13.8111262,11.1469176 14.0870293,10.8758744 14.3482828,10.5786012 C14.6124661,10.2837568 14.8815328,9.97871179 15.1901536,9.6955251 C16.3518769,8.49768915 17.7826667,7.33628374 19.3970664,6.30457102 C21.0124428,5.27577275 22.6722567,4.47915841 24.2593102,3.97981723 C25.0372106,3.67622945 25.819506,3.53779342 26.5358775,3.33863984 C27.2605506,3.17834549 27.9500644,3.09576961 28.574631,2.97579172 C29.2084758,2.9155599 29.7822567,2.86164271 30.2862072,2.81404015 C30.5391591,2.78003832 30.7750197,2.77080925 30.9928123,2.76983777 C31.0826639,2.76692333 31.1676323,2.76352314 31.2516241,2.76012296 C31.9259998,2.76109444 32.5637512,2.88155807 33.1917361,2.96024802 C34.4335444,3.19826085 35.5640149,3.58345302 36.5694744,4.08522291 C37.5705389,4.59865056 38.4817519,5.16599541 39.3622003,5.63716364 C39.809017,5.86643314 40.232394,6.09035948 40.6645609,6.25551124 C40.8779586,6.34051582 41.0806131,6.43766391 41.2881509,6.50566757 C41.4971536,6.56978531 41.7007848,6.63293157 41.8995328,6.69413486" id="Fill-9" fill="#DF7E9C" mask="url(#mask-2)"></path>
                    </g>
                    <g id="Group-14" transform="translate(0.488324, 0.159760)">
                        <mask id="mask-4" fill="white">
                            <use xlink:href="#path-3"></use>
                        </mask>
                        <g id="Clip-13"></g>
                        <path d="M0.394224107,16.5232872 C0.466984409,16.4042808 0.541698008,16.2838171 0.616899931,16.1604391 C1.2160737,15.1709858 1.6868182,13.9843218 2.16195762,12.6757371 C2.63660872,11.3661808 3.10051669,9.92596037 3.6987138,8.42210794 C4.00440474,7.67358191 4.34623166,6.90999792 4.75935391,6.15515726 C5.17784773,5.41488881 5.6861932,4.64110428 6.24385941,3.9100649 C6.80689718,3.17708256 7.45734499,2.47421613 8.23622205,1.8782126 C9.00826257,1.28852369 9.93168359,0.807640646 10.943003,0.542426361 C11.4474418,0.410790699 11.971902,0.331615005 12.5002687,0.32627186 C12.9978711,0.318014273 13.4549425,0.421962729 13.9325236,0.626945199 C14.4008264,0.829498967 14.8515497,1.11171417 15.2690668,1.43813175 C15.4770929,1.60279776 15.6826774,1.77280692 15.8745888,1.95544533 L16.0186444,2.09290988 L16.0899398,2.16237076 L16.2144624,2.29352068 C16.4024672,2.48441668 16.5914487,2.71465765 16.7779885,2.92838345 L17.3410263,2.58302199 L17.623766,2.41009839 L17.7902845,2.32072215 C17.9685229,2.22114536 18.1565277,2.13322633 18.3484391,2.05016472 C20.452628,1.1505734 22.9714041,1.15348785 25.0931726,1.78349321 C27.2510771,2.40766969 29.0837578,3.58024714 30.5873079,4.86891655 L30.8666293,5.113244 C30.9442729,5.19193395 31.0194748,5.25556595 31.0971183,5.34639941 C31.2514288,5.51300839 31.4023209,5.69710402 31.5497948,5.88071391 C31.8447427,6.24793369 32.1250407,6.62729698 32.4014322,7.00083138 C32.946402,7.75664352 33.4752571,8.49059734 33.9875091,9.20074988 C35.00713,10.6273696 35.9710819,11.953441 36.8847365,13.1478768 C38.7091156,15.5357768 40.3518381,17.3922768 41.6830098,18.5366813 C42.3442008,19.1108265 42.9282365,19.5018476 43.3569851,19.7228595 C43.4414652,19.7685191 43.5156905,19.8015495 43.5869858,19.8336083 C42.9692557,19.7330601 41.7801863,19.5921953 40.2453834,19.2070032 C39.1061231,18.90973 37.780323,18.4681919 36.4354782,17.7866981 C35.7615909,17.4486227 35.0852619,17.05323 34.4265126,16.596634 C33.7677633,16.1395522 33.1197571,15.6193242 32.4712626,15.0626656 C31.1781802,13.9459483 29.9754377,12.8039725 28.7282578,11.8703794 C27.4869377,10.9270714 26.1992269,10.2348913 25.0736396,9.76858047 C23.9446341,9.29935519 22.9723807,9.04385572 22.2945867,8.91173431 C22.2740771,8.90784839 22.2564975,8.90541969 22.2364762,8.90153377 C22.3194913,8.8539312 22.4069013,8.80730012 22.4825916,8.75969755 C23.5456733,8.0986048 23.9436575,7.47831425 23.8328079,7.39525263 C23.703402,7.28741825 23.1061815,7.70126911 22.0474947,8.13989274 C21.0005277,8.58143081 19.4286122,9.0088824 17.6862715,8.91222005 C15.9444192,8.81215752 14.4516122,8.21081085 13.482777,7.65512377 C12.5007571,7.10137966 11.9723903,6.62341105 11.8278464,6.71618748 C11.738483,6.76670449 11.8761905,7.1295526 12.3186122,7.61966472 C11.8722839,7.75567204 11.1832584,8.04371613 10.3570139,8.52119899 C9.65187383,8.93067819 8.85785872,9.48442231 8.07898166,10.1911747 C7.69027562,10.5438222 7.30449952,10.9338718 6.93679141,11.3593804 C6.56175845,11.7834319 6.22090817,12.2784014 5.92351875,12.7587987 C5.32141504,13.7283366 4.82185941,14.6517292 4.24954348,15.3808256 C3.96387383,15.7490169 3.67087933,16.0433756 3.33784224,16.2590444 C3.00724677,16.4790848 2.64686353,16.6296643 2.29234018,16.7204978 C1.57938688,16.9070221 0.924544162,16.8953644 0.474797596,16.8934214 C0.34197342,16.8909927 0.227217239,16.8900212 0.127599107,16.8905069 L0.149573695,16.8618483 C0.229170536,16.7515852 0.315603915,16.6398649 0.394224107,16.5232872" id="Fill-12" fill="#D7516F" mask="url(#mask-4)"></path>
                    </g>
                </g>
            </g>
        </g>
    </g>
</svg>