<?xml version="1.0" encoding="UTF-8"?>
<svg width="59px" height="50px" viewBox="0 0 59 50" version="1.1" xmlns="http://www.w3.org/2000/svg" xmlns:xlink="http://www.w3.org/1999/xlink">
    <!-- Generator: Sketch 43.2 (39069) - http://www.bohemiancoding.com/sketch -->
    <title>ico-trample</title>
    <desc>Created with Sketch.</desc>
    <defs>
        <polygon id="path-1" points="15.5982857 0.28 0.128104952 0.28 0.128104952 34.4162226 15.5982857 34.4162226 15.5982857 0.28"></polygon>
        <polygon id="path-3" points="0.700099976 0.28 15.1697586 0.28 15.1697586 33.4680963 0.700099976 33.4680963 0.700099976 0.28"></polygon>
        <polygon id="path-5" points="10.3364286 0.158024859 10.3364286 14.8228571 0.597880902 14.8228571 0.597880902 0.158024859 10.3364286 0.158024859"></polygon>
        <polygon id="path-7" points="16.0447143 0.28 0.574533524 0.28 0.574533524 34.4162226 16.0447143 34.4162226 16.0447143 0.28"></polygon>
        <polygon id="path-9" points="0.610814261 0.28 15.0804728 0.28 15.0804728 33.4680963 0.610814261 33.4680963"></polygon>
    </defs>
    <g id="Page-1" stroke="none" stroke-width="1" fill="none" fill-rule="evenodd">
        <g id="board-color" transform="translate(-28.000000, -215.000000)">
            <g id="19.-Trample-Situps" transform="translate(59.000000, 240.500000) rotate(-270.000000) translate(-59.000000, -240.500000) translate(19.000000, 181.000000)">
                <g id="ico-trample" transform="translate(39.500000, 60.500000) rotate(-90.000000) translate(-39.500000, -60.500000) translate(10.000000, 35.000000)">
                    <path d="M44.5342143,30.0442857 C43.1620714,32.2485714 41.2906429,32.415 39.1277857,31.5828571 C36.9656429,30.7514286 34.5792143,29.53 31.7256429,31.0442857 C27.8006429,33.1278571 20.8942143,32.4457143 17.0863571,31.8778571 L13.2792143,31.31 C13.2792143,31.31 10.0549286,31.3535714 5.02778571,30.9464286 C-7.14285714e-05,30.5385714 1.59421429,44.0671429 5.02778571,44.4371429 C8.46064286,44.8071429 7.5235,44.6778571 8.46064286,44.8071429 C15.0913571,45.7221429 33.4720714,46.6371429 40.4585,43.56 C47.4449286,40.4821429 47.4113571,35.2571429 49.8942143,33.8292857 C51.7227857,32.7771429 44.5342143,30.0442857 44.5342143,30.0442857" id="Fill-1" fill="#FBD0A4"></path>
                    <g id="Group-5" transform="translate(19.285714, 0.434571)">
                        <mask id="mask-2" fill="white">
                            <use xlink:href="#path-1"></use>
                        </mask>
                        <g id="Clip-4"></g>
                        <path d="M6.70042857,0.279714286 C5.57042857,2.81614286 4.24828571,6.699 4.46257143,10.6532857 C4.82328571,17.3897143 4.854,18.0961429 4.19971429,19.044 C3.54828571,19.994 1.389,20.0554286 0.755428571,20.8211429 C0.119,21.5861429 -0.408857143,24.0147143 1.14542857,25.2468571 C2.69685714,26.4811429 2.96971429,28.7132857 3.05471429,29.6782857 C3.14257143,30.6432857 3.01971429,33.5932857 4.23685714,33.9104286 C5.454,34.2268571 6.85828571,34.6932857 6.979,34.2032857 C7.09614286,33.7168571 7.26042857,33.6082857 6.91114286,33.4675714 C6.55971429,33.3232857 6.219,32.8804286 6.06114286,32.7604286 C5.89971429,32.6404286 5.47757143,31.8247143 5.51542857,31.024 C5.55614286,30.2204286 5.53328571,29.4375714 5.96114286,28.584 C6.38614286,27.7275714 7.66185714,24.7947143 7.85257143,23.4254286 C8.04614286,22.0554286 8.43328571,18.5247143 9.12542857,16.9732857 C9.81471429,15.4247143 12.8325714,5.65828571 14.6247143,2.14471429 C14.9482857,1.50971429 15.2825714,0.889714286 15.5982857,0.279714286 L6.70042857,0.279714286 Z" id="Fill-3" fill="#EBB293" mask="url(#mask-2)"></path>
                    </g>
                    <g id="Group-8" transform="translate(5.714286, 0.434571)">
                        <mask id="mask-4" fill="white">
                            <use xlink:href="#path-3"></use>
                        </mask>
                        <g id="Clip-7"></g>
                        <path d="M10.1197143,0.279714286 L1.38685714,0.279714286 C1.20828571,1.00042857 1.03971429,1.89542857 0.891857143,3.06614286 C-0.240285714,12.0547143 4.089,16.7297143 2.24971429,30.3968571 C1.97114286,32.4582857 1.599,32.8311429 3.13828571,32.8454286 C4.67542857,32.8604286 6.08328571,32.3204286 7.359,32.4668571 C8.63185714,32.6168571 10.189,33.4925714 11.3561429,33.4675714 C14.6761429,33.3947143 15.0868571,33.0418571 15.1604286,32.7547143 C15.2332857,32.4697143 14.8904286,31.479 13.7432857,31.2411429 C12.594,31.004 10.8147143,31.0618571 9.49757143,29.6097143 C8.16971429,28.1461429 7.71971429,28.3404286 7.444,27.244 C7.41185714,27.1147143 7.38257143,26.9682857 7.359,26.8011429 C7.12114286,25.2347143 7.59614286,22.5425714 7.359,19.5861429 C7.12114286,16.6332857 7.07114286,9.95471429 8.02471429,7.47685714" id="Fill-6" fill="#EBB293" mask="url(#mask-4)"></path>
                    </g>
                    <path d="M44.0464286,23.2387143 C44.8535714,22.9208571 45.6635714,22.548 46.2621429,22.258 C46.8607143,21.9672857 46.6521429,21.478 47.0092857,21.1915714 C47.3657143,20.9058571 49.2585714,20.1758571 50.9885714,19.5987143 C53.4878571,18.7644286 57.5221429,22.4358571 57.7807143,25.1544286 C58.0385714,27.8722857 56.5192857,29.9751429 55.555,30.9987143 C54.59,32.0222857 50.3742857,33.4315714 49.8935714,33.8287143 C49.2514286,34.3601429 47.9242857,35.8315714 47.9928571,35.7622857 L43.9771429,33.0865714 C43.9771429,33.0865714 43.4207143,29.6487143 43.0642857,28.9787143 L43.0642857,28.9787143 C42.7292857,28.7315714 42.4335714,28.4937143 42.3021429,28.2751429 C41.9057143,27.6144286 42.4,27.4408571 42.74,27.0922857 C43.0807143,26.743 43.1157143,26.428 43.035,26.1887143 C42.955,25.9487143 43.4192857,25.8008571 43.3357143,25.6165714 C43.2514286,25.4315714 43.1964286,25.428 43.5335714,25.1337143 C43.87,24.8394286 43.8971429,24.8408571 43.5321429,24.3344286 C43.1664286,23.8272857 43.2392857,23.5565714 44.0464286,23.2387143" id="Fill-9" fill="#FBD0A4"></path>
                    <g id="Group-13" transform="translate(47.857143, 19.006000)">
                        <mask id="mask-6" fill="white">
                            <use xlink:href="#path-5"></use>
                        </mask>
                        <g id="Clip-12"></g>
                        <path d="M5.73714286,0.846428571 C4.24142857,-0.00214285714 2.1,0.14 1.53428571,0.219285714 C0.968571429,0.298571429 0.713571429,0.23 0.713571429,0.23 C0.713571429,0.23 4.36357143,4.70214286 0.682142857,6.51785714 C0.300714286,6.70571429 1.28642857,7.20571429 2.19,6.65642857 C3.09357143,6.10714286 3.35857143,7.48071429 2.61642857,8.19214286 C1.87357143,8.90428571 1.39,8.71428571 1.65571429,9.95357143 C1.92142857,11.1928571 1.95785714,13.3728571 1.83285714,13.9928571 C1.70785714,14.6128571 2.03642857,14.8228571 2.03642857,14.8228571 C2.03642857,14.8228571 2.72214286,14.6771429 3.36642857,14.39 C3.64071429,14.2671429 7.40071429,12.9942857 9.085,10.8192857 C10.7685714,8.64428571 11.1614286,4.77928571 7.66428571,1.97285714" id="Fill-11" fill="#3D311E" mask="url(#mask-6)"></path>
                    </g>
                    <path d="M36.8092143,34.0233571 C33.7842143,34.4226429 30.4742143,35.4719286 30.8320714,38.0397857 C31.1906429,40.6076429 36.8092143,34.0233571 36.8092143,34.0233571" id="Fill-14" fill="#FBD0A4"></path>
                    <path d="M30.8323571,38.0399286 C31.1902143,40.6077857 36.8095,34.0235 36.8095,34.0235" id="Fill-16" fill="#ECECEC"></path>
                    <g id="Group-20" transform="translate(0.000000, 32.577429)" fill="#F0C79D">
                        <path d="M36.5551429,0.708214286 C40.4837143,-0.0582142857 42.368,1.98678571 42.5301429,6.37678571 C42.6922857,10.7667857 36.2858571,12.9189286 31.663,14.6403571 C27.0408571,16.3625 27.933,17.2232143 21.2015714,17.1367857 C14.4708571,17.0510714 11.5515714,13.7796429 7.578,14.4682143 C3.60442857,15.1567857 -1.01842857,15.7596429 0.198,14.2103571 C1.41442857,12.6603571 5.46942857,10.9389286 9.28085714,10.7667857 C13.0922857,10.5946429 21.413,9.09892857 24.4944286,8.6925 C27.5758571,8.28607143 29.4722857,5.64392857 30.8508571,4.18035714 C32.2294286,2.71678571 35.0315714,1.00535714 36.5551429,0.708214286" id="Fill-18"></path>
                    </g>
                    <g id="Group-23" transform="translate(0.000000, 33.434571)" fill="#FBD0A4">
                        <path d="M37.4914286,0.4065 C41.5207143,-0.3335 43.4528571,1.6415 43.6192857,5.88364286 C43.7857143,10.1250714 37.215,12.2043571 32.4742857,13.8679286 C27.7335714,15.5315 28.6485714,16.3629286 21.745,16.2800714 C14.8414286,16.1972143 11.8471429,13.0365 7.77214286,13.7015 C3.69642857,14.3672143 -1.04428571,14.9493571 0.202857143,13.4522143 C1.45071429,11.9550714 5.60928571,10.2915 9.51857143,10.1250714 C13.4278571,9.95864286 21.9614286,8.51364286 25.1221429,8.12078571 C28.2821429,7.72864286 30.2271429,5.17507143 31.6414286,3.7615 C33.055,2.34721429 35.9285714,0.693642857 37.4914286,0.4065" id="Fill-21"></path>
                    </g>
                    <g id="Group-26" transform="translate(19.285714, 0.434571)">
                        <mask id="mask-8" fill="white">
                            <use xlink:href="#path-7"></use>
                        </mask>
                        <g id="Clip-25"></g>
                        <path d="M7.14685714,0.279714286 C6.01685714,2.81614286 4.69471429,6.699 4.909,10.6532857 C5.26971429,17.3897143 5.30042857,18.0961429 4.64614286,19.044 C3.99471429,19.994 1.83542857,20.0554286 1.20185714,20.8211429 C0.565428571,21.5861429 0.0375714286,24.0147143 1.59185714,25.2468571 C3.14328571,26.4811429 3.41614286,28.7132857 3.50114286,29.6782857 C3.589,30.6432857 3.46614286,33.5932857 4.68328571,33.9104286 C5.90042857,34.2268571 7.30471429,34.6932857 7.42542857,34.2032857 C7.54257143,33.7168571 7.70685714,33.6082857 7.35757143,33.4675714 C7.00614286,33.3232857 6.66542857,32.8804286 6.50757143,32.7604286 C6.34614286,32.6404286 5.924,31.8247143 5.96185714,31.024 C6.00257143,30.2204286 5.97971429,29.4375714 6.40757143,28.584 C6.83257143,27.7275714 8.10828571,24.7947143 8.299,23.4254286 C8.49257143,22.0554286 8.87971429,18.5247143 9.57185714,16.9732857 C10.2611429,15.4247143 13.279,5.65828571 15.0711429,2.14471429 C15.3947143,1.50971429 15.729,0.889714286 16.0447143,0.279714286 L7.14685714,0.279714286 Z" id="Fill-24" fill="#F8BB9A" mask="url(#mask-8)"></path>
                    </g>
                    <g id="Group-29" transform="translate(6.428571, 0.434571)">
                        <mask id="mask-10" fill="white">
                            <use xlink:href="#path-9"></use>
                        </mask>
                        <g id="Clip-28"></g>
                        <path d="M10.0304286,0.279714286 L1.29757143,0.279714286 C1.119,1.00042857 0.950428571,1.89542857 0.802571429,3.06614286 C-0.329571429,12.0547143 3.99971429,16.7297143 2.16042857,30.3968571 C1.88185714,32.4582857 1.50971429,32.8311429 3.049,32.8454286 C4.58614286,32.8604286 5.994,32.3204286 7.26971429,32.4668571 C8.54257143,32.6168571 10.0997143,33.4925714 11.2668571,33.4675714 C14.5868571,33.3947143 14.9975714,33.0418571 15.0711429,32.7547143 C15.144,32.4697143 14.8011429,31.479 13.654,31.2411429 C12.5047143,31.004 10.7254286,31.0618571 9.40828571,29.6097143 C8.08042857,28.1461429 7.63042857,28.3404286 7.35471429,27.244 C7.32257143,27.1147143 7.29328571,26.9682857 7.26971429,26.8011429 C7.03185714,25.2347143 7.50685714,22.5425714 7.26971429,19.5861429 C7.03185714,16.6332857 6.98185714,9.95471429 7.93542857,7.47685714" id="Fill-27" fill="#F8BB9A" mask="url(#mask-10)"></path>
                    </g>
                </g>
            </g>
        </g>
    </g>
</svg>