<?xml version="1.0" encoding="UTF-8"?>
<svg width="121px" height="129px" viewBox="0 0 121 129" version="1.1" xmlns="http://www.w3.org/2000/svg" xmlns:xlink="http://www.w3.org/1999/xlink">
    <!-- Generator: Sketch 46.1 (44463) - http://www.bohemiancoding.com/sketch -->
    <title>ico-dance</title>
    <desc>Created with Sketch.</desc>
    <defs>
        <polygon id="path-1" points="20.2899375 0.237731512 20.2899375 16 0.00792719426 16 0.00792719426 0.237731512 20.2899375 0.237731512"></polygon>
        <polygon id="path-3" points="0.108805689 0.655153846 15.8616031 0.655153846 15.8616031 15.9640462 0.108805689 15.9640462 0.108805689 0.655153846"></polygon>
    </defs>
    <g id="Page-1" stroke="none" stroke-width="1" fill="none" fill-rule="evenodd">
        <g id="ico-dance">
            <path d="M91,33.7988091 L94.3086388,27 C96.4719795,27.4487057 99.0050305,27.9984357 101.784555,29.4705051 C107.423976,32.4592522 106.961838,37.9827926 107.701258,45.3168996 C108.440679,52.6510067 108.717962,55.6384417 110.65894,60.8903971 C112.601259,66.1423525 111.861838,72.8427613 111.861838,72.8427613 L105.667852,79 C105.667852,79 101.5997,66.8665792 101.507272,64.1507292 C101.414845,61.4335671 100.675424,60.3472271 98.9193006,55.7289701 C97.1618374,51.112025 97.3480321,46.3127113 97.3480321,46.3127113 L91,46.2523591 L91,33.7988091 Z" id="Fill-1" fill="#FBD0A3"></path>
            <path d="M91.5546198,67.3552563 C96.5801784,66.3987724 104.403729,67.4461618 109.598303,69.6278938 C114.791556,71.8109432 117.252839,75.7198796 116.97951,78.1756455 C116.706181,80.6300939 116.432852,88.9947171 113.424911,98.8151458 C110.418291,108.634257 110.781409,113.271755 111.738721,116.907975 C112.696033,120.545512 113.424911,122 113.424911,122 L107.486935,121.393963 L102.581535,115.635298 C102.581535,115.635298 103.310413,109.361501 102.308206,103.087704 C101.304679,96.8139074 100.211362,93.1776875 101.122459,88.5401896 C102.034877,83.9026918 104.276968,80.7209994 104.276968,80.7209994 C104.276968,80.7209994 99.1180459,86.2675522 90.7346324,86.7220797 C82.3512189,87.1766072 79.7077169,84.3585367 77.9766325,85.4494027 C76.2455481,86.5402687 70.3220967,91.995916 61.208485,92.4504435 C52.0961939,92.904971 51.5495356,93.4504039 45.5349745,97.1775293 C39.5204134,100.905972 31.6836581,99.0878623 25.3046582,101.724122 C18.9256582,104.361699 12,101.542311 12,101.542311 C12,101.542311 16.1012573,99.3684836 22.7535863,94.5004283 C29.4059154,89.6310556 32.5036455,86.6311742 40.1581813,84.2676312 C47.8140376,81.9027708 50.7929289,81.9936763 58.5979939,75.7198796 C66.4030588,69.4460828 72.690949,67.6279728 72.690949,67.6279728 L91.5546198,67.3552563 Z" id="Fill-3" fill="#FBD0A3"></path>
            <g id="Group-7" transform="translate(100.000000, 113.000000)">
                <mask id="mask-2" fill="white">
                    <use xlink:href="#path-1"></use>
                </mask>
                <g id="Clip-6"></g>
                <path d="M2.8888125,0.349333333 C3.5424375,0.056 3.8390625,0.454666667 4.0215,0.274666667 C4.0621875,0.698666667 4.1041875,1.12266667 4.16325,1.51466667 C4.45725,3.46266667 8.565375,7.71333333 8.2621875,6.42133333 C7.959,5.12933333 8.287125,4.40933333 9.7965,4.22666667 C10.975125,4.08533333 11.2888125,4.27066667 12.607875,3.84533333 C12.7771875,3.84933333 12.8795625,3.95066667 12.865125,4.29333333 C12.8008125,5.988 13.794375,8.16933333 14.5700625,9.072 C15.3470625,9.97333333 16.61625,10.1186667 18.7805625,10.7706667 C20.094375,11.1666667 21.580125,14.228 18.3435,15.3453333 C16.401,16.0173333 14.2025625,16.4333333 11.3334375,15.2613333 C8.806875,14.228 7.4064375,11.6866667 5.604375,11.1373333 C3.8023125,10.588 -0.756,8.38533333 0.118125,6.75333333 C0.99225,5.12 1.63275,0.913333333 2.8888125,0.349333333" id="Fill-5" fill="#404040" mask="url(#mask-2)"></path>
            </g>
            <path d="M100.035889,119 C101.226204,120.352779 103.75449,121.927933 105.99394,122.726099 C108.846034,123.743993 109.349878,126.047159 112.685092,127.176239 C115.561795,128.149129 118.67941,127.160356 119.981115,124.830716 C120.101571,125.773161 119.666374,126.80032 118.079719,127.350962 C116.162781,128.016763 113.993273,128.429744 111.161903,127.266248 C108.668588,126.241736 107.286579,123.718843 105.50823,123.173496 C103.793347,122.64668 99.568311,120.59898 100.035889,119" id="Fill-8" fill="#2B423C"></path>
            <path d="M3.23149515,103.875579 C6.8960432,103.090759 8.29250106,102.118519 10.2137844,100.836515 C12.2366044,99.4881339 14.4928267,96.4959248 15.7600562,96.0521043 C16.8215751,95.6798677 16.8004766,97.4121993 17.5402432,97.7597069 L17.5415619,97.7610084 C18.4659405,98.9388898 16.14906,100.073821 16.3653198,100.61005 C16.5710303,101.118946 17.8013373,102.283813 19.2901012,102.693793 C19.2307616,102.935877 19.2083444,103.198786 19.267684,103.51766 C19.6566879,105.571468 20.9318293,107.096857 18.7916488,107.377987 C17.4769477,107.549788 10.2981785,108.069097 5.51804655,107.992307 C2.63414349,107.946754 1.43812151,107.307704 0.598136948,106.935468 C-0.918318704,106.26388 0.627147404,104.433934 3.23149515,103.875579" id="Fill-10" fill="#404040"></path>
            <path d="M5.51490677,107.993385 C2.63021904,107.95301 1.43519065,107.385449 0.594977539,107.056679 C-0.00649370209,106.820195 -0.121248084,106.423364 0.113536743,106 C0.193996712,106.283781 0.28105176,106.54449 0.394487125,106.661001 C0.782277794,107.06014 3.51395968,107.638083 6.20211404,107.706144 C8.60931802,107.76613 16.5471556,107.533107 19.9990201,106.519111 C20.0188054,107.008229 19.7431311,107.336999 18.7921206,107.447742 C17.4770618,107.601168 10.2963393,108.060293 5.51490677,107.993385" id="Fill-12" fill="#2B423C"></path>
            <path d="M61.309082,64.1557617 C60.8547399,68.247187 68.8678871,75.6193961 68.9324168,71.7044843 C69.2300438,72.0298488 69.5474248,72.2972536 69.8911445,72.4764017 C74.1935666,74.7183868 83.0394097,74.5366042 89.8861475,71.9916481 C96.7328854,69.4453747 99.0743933,65.5317802 97.7627275,60.7013692 C96.7723934,57.0538622 61.7634241,60.0656537 61.309082,64.1557617 Z" id="Fill-14" fill="#F8BE92"></path>
            <path d="M107.774984,44.5455257 C107.046719,37.182014 107.502378,31.636328 101.958088,28.6355982 C99.2241336,27.1576268 96.7351291,26.6056927 94.6069644,26.1551881 L93.6653568,25.9536465 C91.8993489,25.5690051 90.4243832,25.1632875 89.3247437,24.181925 C86.779111,21.9083255 87.5073753,18 87.5073753,18 L78.6905047,18 C78.2361626,24.0001424 75.1466364,25.6361856 66.7841079,27.5449027 C58.4228964,29.4536198 59.422449,39.7269701 59.0589754,47.7267209 C58.6955017,55.7264717 60.1493964,58.2727451 59.6950543,62.3628531 C59.2407122,66.4542784 61.4228712,80.5450629 61.6954765,84.545597 C61.9680817,88.5448137 61.6954765,92 61.6954765,92 L66.7841079,90.1356908 L67.8758459,81.9084323 C68.9689008,77.7392883 69.5483516,74.0825605 69.6128813,70.1676487 C69.9105083,70.4930132 70.2278893,70.760418 70.571609,70.939566 C74.8740311,73.1815512 83.7198742,72.9997686 90.5666121,70.4548125 C97.4133499,67.9085391 99.7548579,63.9949446 98.443192,59.1645335 C97.4528579,55.5170265 95.5354026,51.3636898 97.5950867,45.5453299 C97.5950867,45.5453299 97.4133499,50.3638856 99.1398499,54.9993414 C100.867667,59.6361144 101.594614,60.7268099 101.685483,63.4535486 C101.776351,66.1816046 105.774561,78.363672 105.774561,78.363672 L111.864062,72.181747 C111.864062,72.181747 112.59101,65.4544743 110.682773,60.1814622 C108.774536,54.9084501 108.501931,51.9090375 107.774984,44.5455257 Z" id="Fill-14" fill="#FBD0A3"></path>
            <g id="Group-20" transform="translate(75.000000, 0.000000)">
                <mask id="mask-4" fill="white">
                    <use xlink:href="#path-3"></use>
                </mask>
                <g id="Clip-19"></g>
                <path d="M14.8142667,15.9640462 C15.1542667,14.0352 15.2302667,12.2959692 15.6369333,10.1879692 C16.0422667,8.08127692 16.0729333,5.32858462 14.2196,3.73189231 C12.3676,2.13650769 10.0982667,1.1322 8.1756,1.18450769 C6.25293333,1.23681538 5.16493333,0.405123077 5.2356,0.730738462 C5.30626667,1.05766154 5.55026667,2.17573846 5.1076,1.89327692 C4.66493333,1.61081538 5.00493333,1.35843077 4.68493333,1.91027692 C4.36493333,2.46212308 3.25293333,2.96035385 3.0156,3.01266154 C2.77826667,3.06627692 2.4436,3.15781538 1.50893333,4.47204615 C0.574266667,5.78496923 0.0662666667,7.67981538 0.1116,9.35889231 C0.156933333,11.0379692 0.918266667,14.3503538 0.922266667,14.8760462 C0.9276,15.4004308 14.8142667,15.9640462 14.8142667,15.9640462" id="Fill-18" fill="#3D311F" mask="url(#mask-4)"></path>
            </g>
            <path d="M89.9952064,10.1192989 C89.8717151,13.1446054 89.7403413,18.2191415 89.3265139,19.9013449 C88.8430584,21.8694564 87.8419902,24.1460827 85.288084,25.3987591 C83.57497,26.2391959 81.6135595,26.1261624 80.3904697,25.5051435 C78.1623704,24.376139 76.6003363,21.2298202 76.1851951,18.8827143 C75.819976,16.8148674 76.1037434,10.9623953 76.1260769,8.95571947 C76.1484105,6.94904364 78.3581174,4.62986361 80.2328212,3.5247956 C82.1062112,2.4197276 85.2591818,3.17771648 87.3217501,4.70167308 C89.3856321,6.22429988 90.0648345,8.39720135 89.9952064,10.1192989" id="Fill-21" fill="#F8BE92"></path>
            <path d="M89.9952064,9.1192989 C89.8717151,12.1446054 89.7403413,17.2191415 89.3265139,18.9013449 C88.8430584,20.8694564 87.8419902,23.1460827 85.288084,24.3987591 C83.57497,25.2391959 81.6135595,25.1261624 80.3904697,24.5051435 C78.1623704,23.376139 76.6003363,20.2298202 76.1851951,17.8827143 C75.819976,15.8148674 76.1037434,9.96239531 76.1260769,7.95571947 C76.1484105,5.94904364 78.3581174,3.62986361 80.2328212,2.5247956 C82.1062112,1.4197276 85.2591818,2.17771648 87.3217501,3.70167308 C89.3856321,5.22429988 90.0648345,7.39720135 89.9952064,9.1192989" id="Fill-21" fill="#FBD0A3"></path>
            <path d="M89.60063,12.4618411 C89.4278324,10.4054508 89.5250311,7.96136915 88.5219951,7.03416347 C87.5203092,6.10831336 85.6613853,5.23939693 84.4909517,4.68226018 C83.3205181,4.12512344 82.5091795,3.18707325 82.5159294,3.42565249 C82.5240293,3.66423173 83.5365151,4.11563449 82.9681731,4.09936772 C82.399831,4.08445652 80.5395571,2.54995824 80.7218046,2.99051649 C80.905402,3.43243031 81.4642942,4.59008184 80.1440127,4.4979035 C78.8237312,4.40572515 78.839931,4.85848348 78.0852916,5.49559849 C77.3306522,6.13406907 79.0694278,5.30310843 77.8179953,6.28589222 C76.5652129,7.27003158 75.7255247,8.31517131 75.562177,9.79409148 C75.3988293,11.2730116 75.4015292,13 75.4015292,13 C75.4015292,13 74.6927892,8.75030731 75.1585326,6.71967266 C75.6229261,4.689038 78.1473907,2.52555809 79.2611251,1.84099834 C80.3748594,1.15779416 82.1068851,0.77959184 83.8348609,1.1374607 C85.5628367,1.49668512 88.0846013,2.72075928 89.0012384,4.21187952 C89.9165256,5.70435533 90.0852732,7.23885361 89.9664749,8.87230806 C89.8463266,10.5071181 89.60063,12.4618411 89.60063,12.4618411" id="Fill-23" fill="#3D311F"></path>
            <path d="M89.8155733,11.128339 C90.5322981,10.6029821 91.4277701,11.7676289 90.7717848,13.2196396 C90.1175348,14.6716504 89.6107949,15.0147149 89.1196736,14.9995238 C88.6268169,14.9830669 89.8155733,11.128339 89.8155733,11.128339" id="Fill-25" fill="#FBD0A3"></path>
            <path d="M75.701889,12.1425535 C75.3302577,11.5932819 74.788574,12.7081277 75.0856879,14.1715979 C75.3837573,15.6338141 75.6464786,15.9937249 75.9177982,15.9999951 C76.1891177,16.0050113 75.701889,12.1425535 75.701889,12.1425535" id="Fill-27" fill="#FBD0A3"></path>
            <path d="M70.1103516,66.0742187 C68.871582,43.1181641 68.9757945,41.7382812 70.4504039,41.1230469" id="Path-2" stroke="#F8BE92"></path>
        </g>
    </g>
</svg>