<?xml version="1.0" encoding="UTF-8"?>
<svg width="27px" height="50px" viewBox="0 0 27 50" version="1.1" xmlns="http://www.w3.org/2000/svg" xmlns:xlink="http://www.w3.org/1999/xlink">
    <!-- Generator: Sketch 46.1 (44463) - http://www.bohemiancoding.com/sketch -->
    <title>ico-buttplug</title>
    <desc>Created with Sketch.</desc>
    <defs></defs>
    <g id="Page-1" stroke="none" stroke-width="1" fill="none" fill-rule="evenodd">
        <g id="ico-buttplug">
            <path d="M21.215128,48.9782293 C20.2852255,49.2734998 19.1883093,49.5184341 17.9770651,49.6891617 C17.0961603,49.8214885 16.150452,49.9107443 15.1631221,49.9610803 C15.1431015,49.9652318 15.1225541,49.9652318 15.0983187,49.9652318 C15.0614387,49.9652318 15.0287736,49.9652318 14.9961084,49.9688643 C14.5066583,49.9885836 14.0093053,50 13.4993078,50 C10.485686,50 7.76183547,49.6076899 5.78401444,48.9782293 C3.8098814,48.3446173 2.59073439,47.4707413 2.59073439,46.5070906 C2.59073439,45.9243336 2.36629332,45.193682 2.62339952,44.5683728 C2.79041318,44.1563434 3.16553533,43.7910176 3.94844478,43.5424507 C5.09435867,43.1734924 7.1090597,43.0531009 9.18909099,43.0183327 C10.6937945,42.9908295 12.2353779,43.0105487 13.4993078,43.0105487 C14.2089841,43.0105487 15.0003233,43.0027648 15.8238007,43.0027648 C16.4765765,42.9986134 17.145158,42.9986134 17.8100515,43.0063973 C19.8979856,43.0333816 21.9205895,43.1423566 23.0665034,43.511315 C23.4416255,43.6317065 24.2719521,44.3322603 24.3040904,44.3950506 C24.6723634,45.0618741 24.4084081,45.8755543 24.4084081,46.5070906 C24.4084081,47.4707413 23.189261,48.3446173 21.215128,48.9782293 Z" id="Fill-1" fill="#4D4D4D"></path>
            <path d="M24.5,44.99973 C24.5,45.3150932 24.3188404,45.6223562 23.9857405,45.9096391 C22.5752457,47.1224912 18.4138876,48 13.4997344,48 C7.42637222,48 2.5,46.6575466 2.5,44.99973 C2.5,44.9230492 2.51221898,44.8463685 2.53293811,44.7691477 C2.84956896,43.6291963 5.50586801,42.6669067 9.19865495,42.2381424 C10.5225544,42.0847808 11.9744875,42 13.4997344,42 C14.3678129,42 15.214641,42.0280803 16.0248122,42.0804608 C16.6373548,42.1171812 17.2254594,42.1695617 17.7928449,42.2343623 C17.7928449,42.2343623 17.797095,42.2381424 17.8013451,42.2381424 C18.8867088,42.3634236 19.8817585,42.5335253 20.7535558,42.7435874 C22.2713651,43.1075511 23.418355,43.5849158 24.0229287,44.1222212 C24.0723359,44.1670417 24.121743,44.2156422 24.1669001,44.2599226 C24.2040883,44.304203 24.2449953,44.3490235 24.2779334,44.3933039 C24.4219048,44.5914859 24.5,44.7934479 24.5,44.99973" id="Fill-3" fill="#616161"></path>
            <path d="M18,44.7570569 C18,45.0991309 17.4975964,45.4122344 16.6815287,45.6373124 C16.1039539,45.7955356 15.3711693,45.9125316 14.5464487,45.9665726 C14.2116933,45.9877433 13.8601731,46 13.5,46 C12.2566999,46 11.1307535,45.8623904 10.3184713,45.6373124 C9.50240356,45.4122344 9,45.0991309 9,44.7570569 C9,44.6779453 9.02541762,43.9436562 9.07517125,42.8550364 C9.09193607,42.5631036 9.10491527,42.2461001 9.12168009,41.907926 C9.31799063,38.0203164 9.74089653,31.5214678 10.3184713,31.3632447 C11.1307535,31.1376096 12.2566999,31 13.5,31 C14.7433001,31 15.8692465,31.1376096 16.6815287,31.3632447 C16.7399351,31.3799584 16.7945559,31.454613 16.848636,31.5844228 C17.1417498,32.2891844 17.3888956,34.5706062 17.5770941,37.0442356 L17.5814205,37.0988338 C17.7068862,38.7629624 17.8074751,40.5067598 17.8783199,41.907926 C17.8826463,42.0332789 17.8912991,42.1502748 17.8950847,42.2667137 L17.8950847,42.312955 C17.9080639,42.4962487 17.9161759,42.6711856 17.9248287,42.8422226 C17.9751232,43.9397564 18,44.6779453 18,44.7570569" id="Fill-5" fill="#4D4D4D"></path>
            <g id="Group-9" fill="#616161">
                <path d="M26.507034,25.4166845 C26.507034,32.6190507 20.572974,38.4575155 13.253274,38.4575155 C5.933574,38.4575155 5.4e-05,32.6190507 5.4e-05,25.4166845 C5.4e-05,18.2143183 7.994214,0.0551492958 13.253274,0.0551492958 C18.512874,0.0551492958 26.507034,18.2143183 26.507034,25.4166845" id="Fill-7"></path>
            </g>
        </g>
    </g>
</svg>