<?xml version="1.0" encoding="UTF-8"?>
<svg width="140px" height="168px" viewBox="0 0 140 168" version="1.1" xmlns="http://www.w3.org/2000/svg" xmlns:xlink="http://www.w3.org/1999/xlink">
    <!-- Generator: Sketch 47.1 (45422) - http://www.bohemiancoding.com/sketch -->
    <title>ico-dress</title>
    <desc>Created with Sketch.</desc>
    <defs></defs>
    <g id="Page-1" stroke="none" stroke-width="1" fill="none" fill-rule="evenodd">
        <g id="ico-dress">
            <path d="M73,85.0489068 L82.7084256,163.206991 C82.7084256,163.206991 93.5280325,166.507355 103.186479,165.932841 C112.894621,165.40639 117,159.861093 117,159.861093 L86.8615121,85 L73,85.0489068 Z" id="Fill-1" fill="#FF2C2C"></path>
            <path d="M67,85 L57.9227216,163.080366 C57.9227216,163.080366 47.2689358,166.470236 37.6649376,165.944637 C28.1095381,165.468428 24,159.980937 24,159.980937 L53.288711,85.0488276 L67,85 Z" id="Fill-3" fill="#FF302C"></path>
            <g id="Group-7" fill="#332B18">
                <path d="M92.9973052,85.0129893 C91.4193534,80.0251369 93.331,64.1110832 93.331,64.1110832 C94.9587108,52.5061168 99.1654578,43.7331906 99.1654578,43.7331906 C99.1654578,43.7331906 95.1495944,41.6258617 93.4277068,32.753996 C91.6585904,23.9348416 92.9973052,0.204277852 92.9973052,0.204277852 L88.1675863,0.204277852 L88.3115221,34.5301168 C88.3115221,34.5301168 82.4298353,34.2913651 75.7840522,39.5644792 C73.6809598,41.242506 71.5297952,43.7331906 69.6636908,46.2269758 C67.7509197,43.7331906 65.6008795,41.242506 63.4497149,39.6101436 C56.802245,34.3860765 50.9208394,34.6744389 50.9208394,34.6744389 L50.7780281,0.3486 L45.9497149,0.3486 C45.9497149,0.3486 47.4309598,24.0791638 45.7571446,32.9473651 C44.0850161,41.8155664 40.1149759,43.9262779 40.1149759,43.9262779 C40.1149759,43.9262779 44.3714819,52.699204 46.092245,64.3007879 C47.813008,75.8564255 47.7185502,81.7522107 46.5701566,85.2525866 C40.354494,104.332707 -8.43373494e-05,150.548493 -8.43373494e-05,150.548493 C-8.43373494e-05,150.548493 1.6734498,154.671258 9.51541767,157.738949 C17.356261,160.760412 23.4760602,160.521379 23.4760602,160.521379 L52.40349,89.5653383 C55.5121647,91.7250966 59.4788313,94.1207879 63.1618434,95.4647879 L57.4238112,163.634734 C57.4238112,163.634734 61.2007189,166.800238 67.0348956,167.711553 C67.1788313,167.7606 67.3205181,167.7606 67.4644538,167.806828 L67.6081084,167.806828 C68.325257,167.90154 69.0424056,167.999915 69.8551365,167.999915 L70.0460201,167.999915 L70.2855382,167.999915 C71.0510402,167.999915 71.8151365,167.90154 72.4861807,167.806828 C72.5806386,167.806828 72.6278675,167.7606 72.6762209,167.7606 C72.8201566,167.7606 72.9638112,167.711553 73.0582691,167.711553 C78.8916024,166.751472 82.6693534,163.539459 82.6693534,163.539459 L76.3581084,94.2157812 C80.0402771,92.6820765 83.8641325,90.6209758 86.9244538,88.8476738 L116.617386,160.183969 C116.617386,160.183969 122.688831,160.377056 130.529675,157.2606 C138.371361,154.192909 139.996823,150.020815 139.996823,150.020815 C139.996823,150.020815 99.0206787,104.188385 92.9973052,85.0129893" id="Fill-5"></path>
            </g>
            <path d="M70.0457735,59.8399052 C70.0457735,60.6448463 69.4098897,61.3110237 68.5925159,61.3110237 C67.8176412,61.3110237 67.1817574,60.6448463 67.1817574,59.8399052 C67.1817574,58.9827533 67.8176412,58.3207639 68.5925159,58.3207639 C69.4098897,58.3207639 70.0457735,58.9827533 70.0457735,59.8399052 M70.2275309,65.1573187 C70.2275309,65.965331 69.5916472,66.6306708 68.8189108,66.6306708 C68.0004678,66.6306708 67.364584,65.965331 67.364584,65.1573187 C67.364584,64.3484688 68.0004678,63.6864794 68.8189108,63.6864794 C69.5916472,63.6864794 70.2275309,64.3484688 70.2275309,65.1573187 M70.409021,70.522755 C70.409021,71.3313257 69.7731373,71.9966655 69.0006682,71.9966655 C68.2279318,71.9966655 67.590979,71.3313257 67.590979,70.522755 C67.590979,69.6692327 68.2279318,69.0038929 69.0006682,69.0038929 C69.7731373,69.0038929 70.409021,69.6692327 70.409021,70.522755 M70.6367524,75.8432397 C70.6367524,76.6481808 70.0008687,77.314079 69.1832275,77.314079 C68.4107584,77.314079 67.7727364,76.6481808 67.7727364,75.8432397 C67.7727364,75.0352274 68.4107584,74.3693292 69.1832275,74.3693292 C70.0008687,74.3693292 70.6367524,75.0352274 70.6367524,75.8432397 M70.8185099,81.2092344 C70.8185099,82.0141755 70.1826261,82.6795153 69.4098897,82.6795153 C68.5925159,82.6795153 67.9544938,82.0141755 67.9544938,81.2092344 C67.9544938,80.3520825 68.5925159,79.6900931 69.4098897,79.6900931 C70.1826261,79.6900931 70.8185099,80.3520825 70.8185099,81.2092344 M71,86.5260895 C71,87.3352186 70.3641163,88 69.5916472,88 C68.8189108,88 68.1819579,87.3352186 68.1819579,86.5260895 C68.1819579,85.7183564 68.8189108,85.0558086 69.5916472,85.0558086 C70.3641163,85.0558086 71,85.7183564 71,86.5260895 M69.8191113,54.4739105 C69.8191113,55.2788516 69.1832275,55.9447498 68.4107584,55.9447498 C67.6358837,55.9447498 67,55.2788516 67,54.4739105 C67,53.6658982 67.6358837,53 68.4107584,53 C69.1832275,53 69.8191113,53.6658982 69.8191113,54.4739105" id="Fill-8" fill="#FF302C"></path>
        </g>
    </g>
</svg>