<?xml version="1.0" encoding="UTF-8"?>
<svg width="478px" height="519px" viewBox="0 0 478 519" version="1.1" xmlns="http://www.w3.org/2000/svg" xmlns:xlink="http://www.w3.org/1999/xlink">
    <!-- Generator: Sketch 47.1 (45422) - http://www.bohemiancoding.com/sketch -->
    <title>ico-crop</title>
    <desc>Created with Sketch.</desc>
    <defs></defs>
    <g id="Page-1" stroke="none" stroke-width="1" fill="none" fill-rule="evenodd">
        <g id="ico-crop">
            <path d="M413.916731,84 L412.336418,81.6582583 L409.780341,77.8633821 L408.48109,75.9241272 L404,69.2752534 C431.618362,33.06189 425.371351,1.9240427 432.907006,0.131146682 C438.994925,-1.29062509 462.996596,8.98585765 473.31636,24.2437687 C475.745164,27.840015 477.431539,31.7185247 477.924724,35.7643018 C480.544438,57.0438344 413.916731,84 413.916731,84" id="Fill-1" fill="#605754"></path>
            <path d="M413.538498,83 L411,79.1593893 C426.041391,67.9179324 451.147242,53.3119736 460.089917,36.1191572 C469.106325,18.7517676 474.283386,30.3582412 475.842298,36.8862213 C477.316944,43.065055 469.343322,54.2060001 413.538498,83" id="Fill-3" fill="#403B39"></path>
            <path d="M472,24.2685786 C461.543264,13.1709408 455.165175,35.4499326 450.644327,41.2577487 C438.158672,57.2946463 421.745238,65.2215305 408.390789,76 L404,69.3393244 C431.093872,33.0954126 424.965496,1.92156723 432.358045,0.132131998 C438.325147,-1.29627683 461.876215,8.99559189 472,24.2685786" id="Fill-5" fill="#867C76"></path>
            <path d="M100.200778,404.485004 C144.514019,358.42435 401.964572,75 401.964572,75 L409,82.4381057 C409,82.4381057 165.447429,359.205928 109.52547,412.274557 C53.6035118,465.348432 100.200778,404.485004 100.200778,404.485004" id="Fill-7" fill="#B0ACB0"></path>
            <path d="M406.071608,80 C391.3144,96.73402 161.469706,357.121864 107.354704,408.381581 C94.9444003,420.130999 87.5946087,426.277977 83.6499237,428.738862 C79.3280576,436.917379 82.0521429,438.336315 109.523495,412.324233 C165.440584,359.352369 409,83.0891964 409,83.0891964 L406.071608,80 Z" id="Fill-9" fill="#1A0000"></path>
            <path d="M116.407313,414.942792 C113.218934,425.633734 41.6066659,508.307906 36.7451763,514.710953 C35.6718604,516.114074 34.4143972,517.140236 32.9675253,517.82609 C32.8570369,517.888916 32.7728552,517.930801 32.6676282,517.972685 C19.3616679,523.946419 -6.65571973,502.679717 1.57829679,484.894639 C2.57795375,482.700954 4.12479135,480.575331 6.25037773,478.549183 C50.7824645,436.178081 92.0946037,394.571365 100.686392,397.110595 C109.283442,399.649824 119.595693,404.257086 116.407313,414.942792" id="Fill-11" fill="#4D4D4D"></path>
            <g id="Group-15" transform="translate(1.000000, 402.000000)" fill="#1A0000">
                <path d="M110.895769,0.67073539 C111.266374,2.41591071 111.219396,4.37595746 110.561703,6.61900561 C107.393297,17.3206512 36.3677473,100.077598 31.5446703,106.487056 C24.8163736,115.438286 9.23532967,109.269903 0.784505495,98.5158499 C7.24659341,112.618753 27.3062088,122.932582 35.1985165,112.430086 C40.0215934,106.020628 111.047143,23.2636807 114.215549,12.5620351 C115.781484,7.26886068 114.058956,3.46930482 110.895769,0.67073539" id="Fill-13"></path>
            </g>
            <path d="M416.583961,79.843194 C415.007685,85.1373802 409.445249,88.1582994 404.15563,86.5821677 C398.860959,85.0110876 395.844815,79.449161 397.416039,74.1549748 C398.987263,68.8607886 404.549699,65.8449211 409.84437,67.4160011 C415.139041,68.9921329 418.155185,74.5540595 416.583961,79.843194" id="Fill-16" fill="#666666"></path>
            <path d="M413.9665,68 C415.007217,70.2696449 415.309874,72.8996363 414.545266,75.4919796 C412.899235,81.1230655 407.04786,84.3392922 401.483214,82.6666392 C400.171699,82.2686446 399.014167,81.6232479 398,80.8218804 C399.226559,83.48952 401.493833,85.6515988 404.504477,86.5551541 C410.063814,88.2331854 415.909879,85.0169587 417.566529,79.3804945 C418.824946,75.0724718 417.258562,70.6138565 413.9665,68" id="Fill-18" fill="#1A0000"></path>
            <path d="M33.5666309,517.829977 C33.4541293,517.892798 33.3684138,517.934679 33.2612694,517.971325 C19.7128596,523.949799 -6.77323684,502.679622 1.60545548,484.90125 C8.28590902,470.975906 45.7971645,511.354169 33.5666309,517.829977" id="Fill-20" fill="#666666"></path>
        </g>
    </g>
</svg>