<?xml version="1.0" encoding="UTF-8"?>
<svg width="54px" height="33px" viewBox="0 0 54 33" version="1.1" xmlns="http://www.w3.org/2000/svg" xmlns:xlink="http://www.w3.org/1999/xlink">
    <!-- Generator: Sketch 43.2 (39069) - http://www.bohemiancoding.com/sketch -->
    <title>ico-gag</title>
    <desc>Created with Sketch.</desc>
    <defs>
        <polygon id="path-1" points="0 7.25499879 0 0.740389554 6.67732881 0.740389554 6.67732881 7.25499879 4.89511768e-16 7.25499879"></polygon>
    </defs>
    <g id="Page-1" stroke="none" stroke-width="1" fill="none" fill-rule="evenodd">
        <g id="board-color" transform="translate(-136.000000, -45.000000)">
            <g id="22.-Hogtie" transform="translate(121.000000, -2.000000)">
                <g id="ico-gag" transform="translate(15.000000, 47.000000)">
                    <path d="M5.28220678,13.3101763 C5.04424068,15.9827186 4.01915593,18.1344814 2.88607119,18.5207186 C2.73230847,18.5756339 2.57854576,18.5966847 2.4238678,18.5820407 C1.58732542,18.5088203 0.945732203,17.4370576 0.661088136,15.8866169 L0.963122034,15.7584814 L1.14342712,15.6834305 L1.48024068,15.5406508 C1.64864746,16.7313966 2.03488475,17.5386508 2.55200339,17.5853288 C3.38854576,17.6612949 4.24522373,15.7090576 4.4658,13.2314644 C4.51796949,12.6447864 4.5298678,12.0819051 4.50698644,11.5620407 C4.49508814,11.2773966 4.47220678,11.0037356 4.44017288,10.7511254 L4.92525763,10.5451932 L5.18885085,10.4317017 C5.23552881,10.7081085 5.27305424,10.9982441 5.29410508,11.300278 C5.34627458,11.9272271 5.34627458,12.6045153 5.28220678,13.3101763" id="Fill-1" fill="#989498"></path>
                    <path d="M34.2607119,26.6309695 C34.3604746,28.0038508 33.8369492,29.448122 32.7093559,30.5079864 C30.7973898,32.306461 27.8868814,32.3174441 26.2092203,30.5326983 C25.7204746,30.0128339 25.3955593,29.3977831 25.2198305,28.7433763 L24.3201356,28.9657831 C24.5251525,29.7748678 24.9223729,30.5363593 25.5236949,31.176122 C27.5335932,33.3132407 31.0197966,33.3004271 33.310678,31.1468339 C34.6853898,29.8544949 35.3105085,28.0843932 35.161322,26.413139 L34.2607119,26.6309695 Z" id="Fill-3" fill="#989498"></path>
                    <g id="Group-7" transform="translate(2.745763, 0.736963)" fill="#4D4D4D">
                        <path d="M44.5462475,17.8493797 C41.1781119,21.4078881 37.1638068,22.6077864 37.1638068,22.6077864 C35.7369254,23.0315492 32.8914,24.3943627 28.7928915,23.5404305 C28.7928915,23.5404305 28.8075356,23.6072441 28.834078,23.7289729 C28.834078,23.7289729 28.8368237,23.7326339 28.834078,23.7353797 C28.9786881,24.3971085 29.4500441,26.6422271 29.6852644,28.5917186 C29.9635017,30.9063966 34.558078,27.9409729 36.7629254,27.2554475 C70.3262136,16.8151424 33.8679763,-5.07773898 12.8143831,1.33361695 C6.32980678,3.30782034 4.44072203,4.51687119 3.0614339,5.33327797 L1.17326441,7.0146 C0.626857627,7.46490508 0.19119661,7.88043051 0.0841118644,8.10375254 C0.0813661017,8.10649831 0.0813661017,8.10649831 0.078620339,8.11290508 C0.0694677966,8.12754915 0.0639762712,8.14127797 0.0612305085,8.15592203 C0.0667220339,8.15592203 0.0722135593,8.1586678 0.074959322,8.1586678 C0.368755932,8.22914237 0.603976271,8.28131186 0.792518644,8.28131186 C0.917908475,8.28131186 1.03414576,8.25476949 1.1613661,8.18521017 C1.32702712,8.09185424 1.51556949,7.92344746 1.7773322,7.63331186 C1.94299322,7.45026102 2.13794237,7.21778644 2.37590847,6.92765085 C2.64773898,6.59358305 3.03031525,6.20826102 3.34058644,5.90714237 L3.9794339,9.77409153 C6.24468814,7.74039661 13.4953322,5.01934576 18.156722,4.15076949 C29.215739,2.09144746 51.1790949,10.841278 44.5462475,17.8493797" id="Fill-5"></path>
                    </g>
                    <path d="M0.000823728814,14.1309763 C0.626857627,16.5481627 0.287298305,15.9285356 0.384315254,16.5316881 C0.481332203,17.1357559 1.54577288,17.6675186 2.19926441,18.3210102 C2.85275593,18.9745017 3.73506102,21.1949085 4.66862034,21.7339932 C5.60217966,22.273078 5.61224746,19.1438237 5.61224746,19.1438237 C5.61224746,19.1438237 2.11506102,14.9693492 1.93292542,14.7872136 C1.75170508,14.6059932 0.000823728814,14.1309763 0.000823728814,14.1309763" id="Fill-8" fill="#4D4D4D"></path>
                    <g id="Group-12" transform="translate(0.000000, 12.635268)">
                        <mask id="mask-2" fill="white">
                            <use xlink:href="#path-1"></use>
                        </mask>
                        <g id="Clip-11"></g>
                        <path d="M6.67732881,5.68601695 C5.03170169,4.49984746 3.96634576,3.50771186 2.91471864,2.00669492 C2.05346441,0.778423729 1.2315661,0.384864407 0.287023729,1.08686441 C-0.65660339,1.78886441 0.940515254,2.12842373 1.95736271,3.14435593 C2.97421017,4.16120339 4.90905763,7.01130508 5.29712542,7.23554237 C5.68519322,7.45886441 6.67732881,5.68601695 6.67732881,5.68601695" id="Fill-10" fill="#666666" mask="url(#mask-2)"></path>
                    </g>
                    <path d="M7.14401695,11.4889119 C6.85113559,11.996878 5.8809661,13.8676576 4.57947458,13.8676576 C4.47788136,13.8676576 4.38727119,13.8621661 4.30672881,13.8530136 C3.33289831,13.7514203 3.64957627,13.0777932 3.54798305,12.5231492 C3.44638983,11.9648441 2.60435593,9.4122 2.49361017,9.07264068 C2.48811864,9.06348814 2.48262712,9.05525085 2.48262712,9.04335254 C2.4789661,9.03786102 2.4789661,9.0342 2.4789661,9.0342 C2.4789661,9.0342 2.70320339,8.81728475 3.05740678,8.50335254 C2.9210339,8.64521695 2.8249322,8.76786102 2.78191525,8.85755593 C2.77825424,8.86030169 2.77825424,8.86030169 2.77550847,8.86579322 C2.76727119,8.88043729 2.76086441,8.89508136 2.75811864,8.90972542 C2.76361017,8.90972542 2.77001695,8.91247119 2.77276271,8.91247119 C3.06564407,8.98203051 3.30086441,9.0342 3.49032203,9.0342 C3.61479661,9.0342 3.7310339,9.00857288 3.85916949,8.93901356 C3.91957627,8.9042339 3.98364407,8.86030169 4.05320339,8.80264068 C4.17310169,8.70379322 4.30947458,8.5701661 4.47513559,8.38711525 C4.63988136,8.20406441 4.83483051,7.97158983 5.07279661,7.68145424 C5.41876271,7.25677627 5.94411864,6.74881017 6.26994915,6.43762373 C6.45574576,6.38911525 6.63238983,6.37081017 6.78981356,6.38911525 C7.48998305,9.13030169 7.43689831,10.9836915 7.14401695,11.4889119" id="Fill-13" fill="#4D4D4D"></path>
                    <path d="M2.01603051,16.5333356 C1.85677627,16.0967593 1.60508136,15.7883186 1.45497966,15.8432339 C1.30487797,15.8981492 1.3122,16.2962847 1.47145424,16.732861 C1.63070847,17.168522 1.88240339,17.477878 2.03250508,17.4220475 C2.18260678,17.3671322 2.17528475,16.9689966 2.01603051,16.5333356" id="Fill-15" fill="#C0BEC2"></path>
                    <path d="M18.3674136,23.7683288 C18.3674136,27.7652441 15.1274136,31.0052441 11.1304983,31.0052441 C7.13449831,31.0052441 3.89449831,27.7652441 3.89449831,23.7683288 C3.89449831,19.7714136 7.13449831,16.5314136 11.1304983,16.5314136 C15.1274136,16.5314136 18.3674136,19.7714136 18.3674136,23.7683288" id="Fill-17" fill="#C1272D"></path>
                    <path d="M14.8348983,17.5516475 C15.7162881,18.7506305 16.2379831,20.2296814 16.2379831,21.8322915 C16.2379831,25.8282915 12.9979831,29.0682915 9.0010678,29.0682915 C7.64740678,29.0682915 6.38069492,28.6957831 5.2970339,28.0486983 C6.61408475,29.8407661 8.73655932,31.0049695 11.1308644,31.0049695 C15.1277797,31.0049695 18.3677797,27.7649695 18.3677797,23.7680542 C18.3677797,21.1257153 16.9500508,18.8146983 14.8348983,17.5516475" id="Fill-19" fill="#AF2528"></path>
                    <path d="M24.7511288,30.859078 C22.5728237,30.5570441 18.3004169,29.2674508 16.644722,28.753078 C16.2172983,28.6194508 15.9646881,28.5389085 15.9646881,28.5389085 L16.479061,25.5094169 L19.1744847,25.5496881 L23.7342814,25.6192475 L26.6942136,26.1281288 C26.6942136,26.1482644 26.688722,26.1656542 26.6859763,26.1830441 C26.3866881,27.9403322 26.4470949,28.9947051 26.7061119,29.6591797 C26.9669593,30.333722 27.4932305,31.2398237 24.7511288,30.859078" id="Fill-21" fill="#4D4D4D"></path>
                    <path d="M26.6942136,26.1276712 C26.6942136,26.1478068 26.688722,26.1651966 26.6859763,26.1825864 C26.6475356,26.3427559 26.5550949,26.5194 26.404078,26.7198407 C25.4943153,27.9316373 21.0736373,26.5926203 17.6551627,25.7734678 L17.6496712,25.7734678 C17.2432983,25.6773661 16.8506542,25.5876712 16.479061,25.5089593 C16.8424169,25.3524508 17.1526881,25.1867898 17.3879085,25.0156373 C17.4986542,24.9314339 17.5883492,24.8499763 17.6615695,24.7621119 C17.7887898,24.6110949 17.8528576,24.4490949 17.8354678,24.2779424 C17.8354678,24.2779424 18.4367898,24.4893661 19.4389932,24.687061 C20.3185525,24.8609593 21.5092983,25.0266203 22.8693661,25.0266203 C25.2938746,25.0266203 26.8424847,25.2618407 26.6942136,26.1276712" id="Fill-23" fill="#666666"></path>
                    <path d="M22.537861,28.4386881 C22.537861,29.1443492 21.9658271,29.7154678 21.2610814,29.7154678 C20.5554203,29.7154678 19.9833864,29.1443492 19.9833864,28.4386881 C19.9833864,27.7330271 20.5554203,27.1619085 21.2610814,27.1619085 C21.9658271,27.1619085 22.537861,27.7330271 22.537861,28.4386881" id="Fill-25" fill="#989498"></path>
                    <path d="M39.8894339,24.0799729 C34.2459763,25.8638034 31.9221458,25.1572271 31.5798407,24.4717017 C31.5825864,24.4689559 31.5798407,24.4662102 31.5798407,24.4662102 C31.5505525,24.4085492 31.5423153,24.3499729 31.5423153,24.2950576 C31.5423153,24.2831593 31.5386542,24.2776678 31.5386542,24.2776678 L31.545061,24.2776678 C31.5560441,24.001261 31.8873661,23.7697017 32.4539085,23.7697017 C34.731061,23.7697017 37.434722,22.9706847 38.6748915,22.2531254 L39.0409932,22.7610915 L38.9705186,23.6397356 L39.5599424,23.4786508 L39.8894339,24.0799729 Z" id="Fill-27" fill="#666666"></path>
                    <path d="M38.6611627,26.6231898 C38.3280102,27.2583763 37.6745186,27.5713932 37.2004169,27.3233593 C36.7272305,27.0753254 36.6128237,26.3586814 36.9459763,25.7234949 C37.2791288,25.0883085 37.9326203,24.7752915 38.406722,25.0233254 C38.8799085,25.2722746 38.9943153,25.9880034 38.6611627,26.6231898" id="Fill-29" fill="#989498"></path>
                    <path d="M34.6527153,25.046939 C34.3882068,25.0789729 34.1676305,25.0963627 33.9992237,25.0963627 C33.8601051,25.108261 33.7319695,25.1137525 33.6157322,25.1164983 C33.5086475,24.9426 33.3832576,24.7741932 33.244139,24.6140237 C33.2093593,24.5737525 33.1709186,24.5325661 33.1333932,24.4922949 C31.4548169,22.7057186 28.5443085,22.7176169 26.6332576,24.5151763 C26.0960034,25.0203966 25.695122,25.6162271 25.4333593,26.2468373 C25.3207831,26.5195831 25.2329186,26.7987356 25.1725119,27.0833797 C25.0791559,27.0916169 24.9748169,27.0943627 24.8585797,27.0943627 C24.6727831,27.0943627 24.4723424,27.0861254 24.2636644,27.0687356 C24.3213254,26.7520576 24.4082746,26.4381254 24.5217661,26.1306 C24.8329525,25.3050407 25.3381729,24.5298203 26.0319356,23.8763288 C28.3237322,21.7245661 31.8090203,21.709922 33.8189186,23.8470407 C33.996478,24.0364983 34.1557322,24.236939 34.2985119,24.4456169 C34.432139,24.6378203 34.5483763,24.8410068 34.6527153,25.046939" id="Fill-31" fill="#989498"></path>
                    <path d="M4.47476949,8.43415932 C4.4546339,8.45887119 4.43449831,8.48358305 4.41344746,8.5046339 C4.1846339,8.77005763 4.00982034,8.93022712 3.85880339,9.01992203 C3.7105322,8.81032881 3.54212542,8.68402373 3.35358305,8.66571864 C3.16229492,8.64649831 2.96734576,8.7426 2.78154915,8.93297288 C2.77880339,8.9366339 2.77880339,8.9366339 2.77514237,8.94304068 C2.15368475,9.5745661 1.61093898,11.2659559 1.43978644,13.2850068 C1.41873559,13.5495153 1.40226102,13.8085322 1.39585424,14.0611424 C1.37846441,14.5425661 1.38761695,14.9983627 1.41873559,15.4202949 C1.27137966,15.3122949 1.12310847,15.2107017 0.983989831,15.1155153 C0.974837288,15.1091085 0.9666,15.1027017 0.954701695,15.0972102 C0.811922034,14.9983627 0.638023729,14.8784644 0.50439661,14.7668034 C0.498905085,14.6194475 0.495244068,14.4684305 0.498905085,14.3137525 C0.501650847,13.9568034 0.516294915,13.5870407 0.548328814,13.2108712 C0.818328814,9.99649831 2.09876949,7.49419322 3.40575254,7.61775254 C3.5686678,7.63331186 3.72517627,7.68822712 3.87070169,7.77792203 C4.09402373,7.91978644 4.29721017,8.14127797 4.47476949,8.43415932" id="Fill-33" fill="#989498"></path>
                </g>
            </g>
        </g>
    </g>
</svg>