<?xml version="1.0" encoding="UTF-8"?>
<svg width="56px" height="44px" viewBox="0 0 56 44" version="1.1" xmlns="http://www.w3.org/2000/svg" xmlns:xlink="http://www.w3.org/1999/xlink">
    <!-- Generator: Sketch 43.2 (39069) - http://www.bohemiancoding.com/sketch -->
    <title>ico-ass</title>
    <desc>Created with Sketch.</desc>
    <defs></defs>
    <g id="Page-1" stroke="none" stroke-width="1" fill="none" fill-rule="evenodd">
        <g id="board-color" transform="translate(-877.000000, -136.000000)">
            <g id="32.-Ass-Worship" transform="translate(901.000000, 158.500000) rotate(-90.000000) translate(-901.000000, -158.500000) translate(861.000000, 99.000000)">
                <g id="ico-ass" transform="translate(40.500000, 63.500000) rotate(90.000000) translate(-40.500000, -63.500000) translate(13.000000, 42.000000)">
                    <path d="M34.7736506,42.8523814 L54.8139719,42.8523814 C54.2904779,34.8497268 52.1286908,26.892067 49.0623855,21.9109381 C47.3218233,19.0804742 45.2896948,17.2119691 43.1029478,16.8418144 C42.563992,16.7509381 42.0117831,16.7487216 41.4529478,16.826299 C37.6647952,17.3516082 33.6491325,21.5053196 32.0388916,25.5881031 C31.630257,26.6254227 31.1818635,28.1481546 32.8075663,35.2387216 C33.2751767,37.2759021 33.9144137,39.7756649 34.7736506,42.8523814" id="Fill-1" fill="#FBD4AB"></path>
                    <path d="M44.027743,13.0740613 C42.5772008,11.6302366 41.0564177,9.78544794 40.0021406,7.58934485 C39.0121406,5.52689639 38.687,3.68321598 38.6503333,2.17599948 C38.0283253,1.87721598 33.9596506,-0.0121242268 27.343747,6.64948454e-05 C20.2346104,0.0133654639 16.0641084,2.21124175 15.5454739,2.49450979 C15.6539277,3.99263866 15.4628635,5.96975206 14.3164779,8.22614381 C13.2151526,10.3938758 11.5658153,12.1633036 10.0786064,13.4767985 C21.3949116,13.3424789 32.7114378,13.2083809 44.027743,13.0740613" id="Fill-3" fill="#FBD4AB"></path>
                    <path d="M48.399757,27.9198557 C47.2489538,30.7990825 44.8634116,33.4389278 41.9101988,34.9084639 C40.0393153,35.8393918 37.9409217,36.3004227 35.7828896,36.0588247 C34.6939337,35.9369175 33.7043755,35.6487732 32.8075884,35.2387216 C30.437508,34.1570722 28.7057811,32.2309381 27.4776687,30.2915052 C25.9690341,27.9065567 25.2180301,25.4994433 24.9684317,24.6039794 C24.8005602,23.9988763 24.6614036,23.3738247 24.5553795,22.7354742 C24.2814839,21.113 24.2041747,19.406299 24.3168253,17.7217629 C24.4073876,16.365268 24.4891145,14.9311959 24.6989538,13.5902165 C25.0346968,11.451299 25.7017651,9.55397938 27.272247,8.6008866 C27.4511627,8.49227835 27.6565843,8.41026804 27.8973474,8.35263918 L27.8995562,8.35263918 C28.7322871,8.14872165 29.9891145,8.20856701 32.0256606,8.31274227 C34.1859016,8.42356701 40.7395161,8.8136701 43.4608012,11.5067113 C43.5071867,11.5532577 43.5513635,11.5998041 43.5933313,11.644134 C43.624255,11.6795979 43.6618052,11.7194948 43.7037731,11.7638247 C43.7523675,11.8170206 43.8097972,11.8835155 43.8760622,11.9588763 C43.9820863,12.0807835 44.0925281,12.2071237 44.187508,12.315732 C44.2206406,12.3534124 44.2559819,12.3933093 44.2913233,12.4354227 C44.3509618,12.5063505 44.3973474,12.5595464 44.4128092,12.5794948 C44.8567851,13.1092371 45.3935321,13.7874845 45.9479498,14.5876392 C46.2108012,14.9688763 46.4758614,15.3767113 46.736504,15.8111443 C46.7431305,15.8200103 46.7475482,15.8266598 46.749757,15.8288763 C47.4786727,17.0435155 48.1656205,18.4487732 48.6250582,19.9848041 C48.8128092,20.6076392 48.96301,21.2504227 49.0624076,21.9109381 C49.3517651,23.8082577 49.2280703,25.8452165 48.399757,27.9198557" id="Fill-5" fill="#FBD4AB"></path>
                    <path d="M30.3071867,22.4539794 C30.1901185,23.2940309 30.022247,24.1163505 29.8013635,24.9054227 C29.5628092,25.7632062 28.8626084,28.0085155 27.4776687,30.2915052 C26.2340944,32.3395464 24.4405201,34.4208351 21.9312831,35.5534639 C21.0411225,35.956866 20.0626084,36.2405773 18.9869056,36.360268 C17.2618052,36.5531031 15.574255,36.2982062 14.0103996,35.7108351 C12.8905201,35.2919175 11.8369056,34.7023299 10.8760622,33.9886186 C8.85276908,32.4836186 7.25136345,30.4222784 6.37224699,28.221299 C5.49754819,26.0336186 5.40698594,23.8880515 5.75598193,21.9020722 C5.86642369,21.2703711 6.02104217,20.6564021 6.21321084,20.0623814 C6.63951606,18.7125361 7.24031928,17.4646495 7.88088153,16.3674845 L7.88088153,16.365268 C8.19453614,15.7136186 8.53027912,15.1351134 8.86823092,14.6208866 C9.68991767,13.3752165 10.5359016,12.513 11.1764639,11.9455773 C14.8210422,8.71614433 19.1724478,8.48119588 23.7071867,8.23738144 C25.9182309,8.11990722 26.6714438,8.30609278 27.1286727,8.52552577 C27.1750582,8.54769072 27.2236526,8.57428866 27.272247,8.6008866 C28.8493554,9.47640206 29.5451386,11.3160928 29.9250582,13.4084639 C30.1547771,14.6740825 30.2718454,16.0305773 30.397749,17.3227938 C30.5656205,19.0317113 30.5391145,20.7783093 30.3071867,22.4539794" id="Fill-7" fill="#FBD4AB"></path>
                    <path d="M41.4529699,16.826299 C42.7517651,20.0823299 44.912006,26.1533093 43.8804799,28.2235155 C42.4668253,31.0606289 40.6268655,32.714134 40.5694357,32.7673299 C40.6622068,32.8271753 42.0979498,33.7049072 43.0830904,34.2435155 C43.1294759,34.2701134 43.1736526,34.2944948 43.2178293,34.3188763 C45.3648173,35.4781031 46.1975482,35.3872268 46.9728494,35.8704227 C48.6168855,36.8920052 48.7138534,39.6752577 48.4949578,42.8523814 L54.8148775,42.8523814 C54.2913835,34.8503918 52.128492,26.8931753 49.0624076,21.9109381 C48.7178293,19.621299 47.7746566,17.5355773 46.749757,15.8288763 C46.7475482,15.8266598 46.7431305,15.8200103 46.736504,15.8111443 C45.9280703,14.465732 45.0666245,13.359701 44.4128092,12.5794948 C41.8218454,13.4350619 40.5672269,14.7028969 40.5672269,14.7028969 C40.5672269,14.7028969 40.6577892,14.9045979 40.8057811,15.2592371 C40.9670261,15.6316082 41.1923273,16.172433 41.4529699,16.826299" id="Fill-9" fill="#EEC9A3"></path>
                    <path d="M48.6250582,19.9848041 C45.8132108,19.6611959 38.970239,18.9607835 36.7923273,19.5392887 C35.2549779,19.9471237 32.4762631,21.3169175 30.3071867,22.4539794 C28.573251,23.3627423 27.2302791,24.123 27.2302791,24.123 L27.2214438,23.9368144 L27.0535723,20.1333093 C27.0535723,20.1333093 27.1087932,19.9870206 27.2037731,19.7387732 C27.7338936,18.3645464 29.4832912,13.8584124 29.80799,13.4771753 C29.8256606,13.4572268 29.8654197,13.4328454 29.9250582,13.4084639 C31.1421265,12.8587732 40.7218454,11.1565052 40.7218454,11.1565052 L45.9479498,14.5876392 C46.2108012,14.9688763 46.4758614,15.3767113 46.736504,15.8111443 C46.7431305,15.8200103 46.7475482,15.8266598 46.749757,15.8288763 C47.4786727,17.0435155 48.1656205,18.4487732 48.6250582,19.9848041" id="Fill-11" fill="#FFFFFF"></path>
                    <path d="M20.0388635,42.8523814 C20.855249,39.9310412 21.4726185,37.5316856 21.9313936,35.5534639 C23.643241,28.1924845 23.1882209,26.6409381 22.7751687,25.5881031 C22.7354096,25.4883608 22.6934418,25.3864021 22.6514739,25.2866598 C20.7118956,20.7029485 15.823743,16.1436186 11.7108916,16.8418144 C9.52635341,17.2119691 7.49665462,19.0760412 5.75609237,21.9020722 C2.68713655,26.8847526 0.523140562,34.8466237 8.83534137e-05,42.8523814 L20.0388635,42.8523814 Z" id="Fill-13" fill="#FBD4AB"></path>
                    <path d="M14.0104217,35.7108351 C14.6178514,37.4286186 14.3792972,38.971299 14.1341165,40.3765567 C13.9834739,41.2491907 13.831506,42.0719536 13.679759,42.8523814 L20.0387751,42.8523814 C20.8549398,39.9319278 21.4723092,37.5319072 21.9313052,35.5534639 C24.4405422,34.4208351 26.2341165,32.3395464 27.4776908,30.2915052 C27.2877309,25.7233093 27.0535944,20.1333093 27.0535944,20.1333093 L24.3168474,17.7217629 C24.3168474,17.7217629 24.3146386,17.7572268 24.3102209,17.8237216 C24.308012,17.8436701 24.308012,17.8680515 24.3058032,17.8946495 C24.2395382,18.7258351 23.892751,22.407433 22.6513855,25.2866598 C22.201004,26.3315155 21.4241566,27.0483299 20.0250803,28.5559897 C18.5358835,30.1605103 17.38,31.3793608 15.4969679,32.1023814 C14.4778112,32.4935928 13.5686546,32.6155 12.9568072,32.6565052 C13.1666466,33.2970722 13.4889157,34.2506082 13.9883333,35.6487732 C13.998494,35.677366 14.0048996,35.6948763 14.0104217,35.7108351" id="Fill-15" fill="#EFC79D"></path>
                    <path d="M27.3848976,20.2153196 L27.2214438,23.9368144 L27.2214438,23.9434639 L27.2103996,24.2050103 C27.2103996,24.2050103 26.0772671,23.5533608 24.5553795,22.7354742 C22.3774679,21.5629485 19.4043755,20.0535155 17.8029699,19.621299 C15.6758614,19.0450103 9.00959639,19.7343402 6.21321084,20.0623814 C6.63951606,18.7125361 7.24031928,17.4646495 7.88088153,16.3674845 L7.88088153,16.365268 C8.19453614,15.7136186 8.53027912,15.1351134 8.86823092,14.6208866 L8.9919257,14.5410928 L8.9919257,14.5388763 L13.937508,11.2385155 C13.937508,11.2385155 24.2991546,13.1092371 24.6746566,13.5591856 C24.6812831,13.5680515 24.6901185,13.5769175 24.6989538,13.5902165 C25.0612028,14.1266082 26.6626084,18.3113505 27.2037731,19.7387732 C27.2280703,19.8008351 27.2501586,19.8584639 27.2678293,19.9072268 C27.3429297,20.1022784 27.3848976,20.2153196 27.3848976,20.2153196" id="Fill-17" fill="#FFFFFF"></path>
                    <path d="M46.736504,15.8111443 C46.5200382,15.4365567 43.8097972,15.2415052 40.8057811,15.2592371 C38.1750582,15.2725361 35.3190341,15.4476392 33.7198373,15.8111443 C32.5513635,16.0771237 31.4027691,16.6644948 30.397749,17.3227938 C28.908994,18.300268 27.7338936,19.4351134 27.2678293,19.9072268 C27.1286727,20.051299 27.0535723,20.1333093 27.0535723,20.1333093 C26.4085924,19.4284639 25.5051787,18.5551649 24.3168253,17.7217629 C23.4465442,17.1100103 22.4238534,16.5204227 21.2399177,16.0327938 C15.0176285,13.4749588 9.23489759,15.7867629 7.88088153,16.3674845 L7.88088153,16.365268 C7.99198594,16.1070464 8.122749,15.832866 8.27670482,15.5480464 C8.48566064,15.1614897 8.70256827,14.8199278 8.91174498,14.5229175 C9.36234739,13.8881134 10.0974478,12.9381237 11.1481908,11.9322784 C14.5053996,8.71880412 19.1912229,6.74723196 22.5276687,7.12913402 C24.9668855,7.40841237 27.1286727,8.52552577 27.1286727,8.52552577 C27.1750582,8.54769072 27.2236526,8.57428866 27.272247,8.6008866 C27.4842952,8.5122268 27.6919257,8.43021649 27.8973474,8.35263918 L27.8995562,8.35263918 C29.7041747,7.67882474 31.2371064,7.4837732 32.2465442,7.42614433 C37.7288735,7.10253608 41.9455402,9.96624742 43.4608012,11.5067113 C43.5071867,11.5532577 43.5513635,11.5998041 43.5933313,11.644134 C43.624255,11.6795979 43.6618052,11.7194948 43.7037731,11.7638247 C43.7545763,11.8236701 43.8142149,11.8901649 43.8760622,11.9588763 C43.9820863,12.0807835 44.0925281,12.2071237 44.187508,12.315732 C44.2250582,12.3600619 44.2603996,12.3999588 44.2913233,12.4354227 C44.3509618,12.5063505 44.3973474,12.5595464 44.4128092,12.5794948 C44.8567851,13.1092371 45.3935321,13.7874845 45.9479498,14.5876392 C46.2108012,14.9688763 46.4758614,15.3767113 46.736504,15.8111443" id="Fill-19" fill="#002834"></path>
                </g>
            </g>
        </g>
    </g>
</svg>