<?xml version="1.0" encoding="UTF-8"?>
<svg width="137px" height="122px" viewBox="0 0 137 122" version="1.1" xmlns="http://www.w3.org/2000/svg" xmlns:xlink="http://www.w3.org/1999/xlink">
    <!-- Generator: Sketch 46.1 (44463) - http://www.bohemiancoding.com/sketch -->
    <title>ico-video</title>
    <desc>Created with Sketch.</desc>
    <defs></defs>
    <g id="Page-1" stroke="none" stroke-width="1" fill="none" fill-rule="evenodd">
        <g id="ico-video">
            <g id="Group-25">
                <path d="M49.3499626,2.22432518 C49.3499626,1.32438273 48.6124086,0.587778417 47.7127827,0.587778417 L15.7744806,0.587778417 C14.8748547,0.587778417 14.1382504,1.32438273 14.1382504,2.22432518 L14.1382504,8.36121727 C14.1382504,9.26115971 14.8748547,9.99776403 15.7744806,9.99776403 L47.7127827,9.99776403 C48.6124086,9.99776403 49.3499626,9.26115971 49.3499626,8.36121727 L49.3499626,2.22432518 Z" id="Fill-5" fill="#939598"></path>
                <path d="M58.8462072,113.441954 C58.8462072,117.941983 55.1641353,121.624371 50.6631568,121.624371 L12.8231568,121.624371 C8.32217842,121.624371 4.64010647,117.941983 4.64010647,113.441954 L4.64010647,13.4755367 C4.64010647,8.97519137 8.32217842,5.29248633 12.8231568,5.29248633 L50.6631568,5.29248633 C55.1641353,5.29248633 58.8462072,8.97519137 58.8462072,13.4755367 L58.8462072,113.441954 Z" id="Fill-7" fill="#D1D3D4"></path>
                <polygon id="Fill-9" fill="#A7A9AC" points="22.8378417 121.624403 39.6968058 121.624403 39.6968058 5.29220144 22.8378417 5.29220144"></polygon>
                <polygon id="Fill-12" fill="#808285" points="58.8463022 50.1481439 65.8378705 50.1481439 65.8378705 34.1919712 58.8463022 34.1919712"></polygon>
                <path d="M49.9064201,39.2814734 C49.9064201,49.3141065 41.7737007,57.4442935 31.7442331,57.4442935 C21.7116,57.4442935 13.5810964,49.3141065 13.5810964,39.2814734 C13.5810964,29.2501065 21.7116,21.1183367 31.7442331,21.1183367 C41.7737007,21.1183367 49.9064201,29.2501065 49.9064201,39.2814734" id="Fill-13" fill="#E6E7E8"></path>
                <path d="M47.4752777,39.2814734 C47.4752777,47.9690993 40.4311626,55.014164 31.7441698,55.014164 C23.0559108,55.014164 16.0130619,47.9690993 16.0130619,39.2814734 C16.0130619,30.5938475 23.0559108,23.5497324 31.7441698,23.5497324 C40.4311626,23.5497324 47.4752777,30.5938475 47.4752777,39.2814734" id="Fill-14" fill="#93B6C6"></path>
                <path d="M38.1240115,39.2814734 C38.1240115,42.8065381 35.2681266,45.6611568 31.7443281,45.6611568 C28.2192633,45.6611568 25.3624288,42.8065381 25.3624288,39.2814734 C25.3624288,35.7573583 28.2192633,32.9005237 31.7443281,32.9005237 C35.2681266,32.9005237 38.1240115,35.7573583 38.1240115,39.2814734" id="Fill-16" fill="#475E70"></path>
                <path d="M34.6282273,39.2814734 C34.6282273,40.876236 33.3360835,42.1671137 31.7441698,42.1671137 C30.1500403,42.1671137 28.8572633,40.876236 28.8572633,39.2814734 C28.8572633,37.687977 30.1500403,36.3958331 31.7441698,36.3958331 C33.3360835,36.3958331 34.6282273,37.687977 34.6282273,39.2814734" id="Fill-17" fill="#5A748A"></path>
                <path d="M34.8263856,41.245646 C34.8263856,42.2278906 34.0293209,43.025905 33.0461266,43.025905 C32.0632489,43.025905 31.2671338,42.2278906 31.2671338,41.245646 C31.2671338,40.2627683 32.0632489,39.464754 33.0461266,39.464754 C34.0293209,39.464754 34.8263856,40.2627683 34.8263856,41.245646" id="Fill-18" fill="#FFFFFF"></path>
                <path d="M73.4059971,67.3691108 C68.9050187,67.3691108 65.2229468,63.6867223 65.2229468,59.1860604 L65.2229468,25.1544345 C65.2229468,20.6537727 68.9050187,16.9713842 73.4059971,16.9713842 L128.435119,16.9713842 C132.936098,16.9713842 136.61817,20.6537727 136.61817,25.1544345 L136.61817,59.1860604 C136.61817,63.6867223 132.936098,67.3691108 128.435119,67.3691108 L73.4059971,67.3691108 Z" id="Fill-19" fill="#D1D3D4"></path>
                <polygon id="Fill-21" fill="#808285" points="0.784028777 86.3702734 4.64020144 86.3702734 4.64020144 48.3682014 0.784028777 48.3682014"></polygon>
                <path d="M26.1482561,66.2732576 C26.1482561,68.1025813 24.664918,69.5849698 22.8365439,69.5849698 C21.0081698,69.5849698 19.5257813,68.1025813 19.5257813,66.2732576 C19.5257813,64.4455165 21.0081698,62.962495 22.8365439,62.962495 C24.664918,62.962495 26.1482561,64.4455165 26.1482561,66.2732576" id="Fill-22" fill="#D85959"></path>
            </g>
        </g>
    </g>
</svg>