<?xml version="1.0" encoding="UTF-8"?>
<svg width="60px" height="65px" viewBox="0 0 60 65" version="1.1" xmlns="http://www.w3.org/2000/svg" xmlns:xlink="http://www.w3.org/1999/xlink">
    <!-- Generator: Sketch 43.2 (39069) - http://www.bohemiancoding.com/sketch -->
    <title>ico-jail</title>
    <desc>Created with Sketch.</desc>
    <defs></defs>
    <g id="Page-1" stroke="none" stroke-width="1" fill="none" fill-rule="evenodd">
        <g id="board-color" transform="translate(-30.000000, -861.000000)">
            <g id="11.-Jail" transform="translate(-5.000000, 840.000000)">
                <g id="ico-jail" transform="translate(35.000000, 21.000000)">
                    <path d="M51.7075185,59.2277671 L8.23924691,59.2277671 C8.18220988,58.4923774 9.02001953,46.56925 11.4480123,45.8509135 C13.8760052,45.132577 13.2523333,44.3435561 14.4859136,43.5477386 C16.2169012,42.4296397 18.2693704,41.2736036 20.1739383,40.1530333 C22.1829506,38.9719116 24.0255432,37.8293451 25.1452963,36.8150485 C25.1452963,36.8495257 25.1393704,36.955058 25.1452963,37.1338698 L25.1452963,36.8495257 L25.1452963,34.9043451 C25.1452963,34.8544211 25.147642,34.8049914 25.1492469,34.7553146 C22.8110988,32.20252 20.9723333,28.1911797 20.9723333,23.6792405 C20.9723333,15.9679667 25.1930741,10.3779667 30.4001111,10.3779667 C35.6067778,10.3779667 39.8271481,15.9679667 39.8271481,23.6792405 C39.8271481,28.3258755 37.7852963,32.4416359 35.3304815,34.980096 L35.3304815,37.3778051 C35.3480123,37.1613032 35.3488765,36.9988032 35.3475185,36.9148964 C35.8072716,37.2428622 36.2836914,37.620999 36.7673951,37.9872728 C36.7024568,38.7457709 36.4470247,39.4798013 36.0534444,40.1530333 L39.9631975,40.1530333 C42.0638148,41.4794781 44.114679,42.5928812 45.7625802,43.5477386 C47.2987531,44.4378432 48.2836561,45.5001283 49.0170247,45.8509135 C51.5449219,47.0600586 51.7210988,58.4622253 51.7075185,59.2277671 Z" id="Fill-1" fill="#FAD1A9"></path>
                    <path d="M20.9274938,21.4129895 C20.9734198,23.6751378 21.0431728,26.7877234 21.2546543,25.8574572 C21.7182346,23.8220675 22.5007037,19.6217823 23.6325556,18.5993298 C24.4115679,17.8954515 25.8295926,15.6174857 26.6047778,16.3023337 C31.4837901,20.6088926 37.7310741,17.2793108 38.4145309,19.2707082 C38.7777407,20.3323337 39.6125556,23.5429135 39.7334198,25.1197196 C39.9046543,27.360366 40.1066296,24.0085409 40.1066296,21.1854895 C40.1066296,15.4867443 39.2718148,8.18833175 31.0807037,9.17828422 C27.4621852,9.61548954 26.2181111,11.7973146 24.8414444,12.1289876 C19.3887284,13.4428279 20.8525556,17.7204705 20.9274938,21.4129895" id="Fill-3" fill="#321A04"></path>
                    <path d="M26.1662099,40.153058 L26.1942346,40.153058 C25.2283086,38.9374591 25.1434938,37.4261473 25.1431235,36.9603964 C25.1431235,36.8895884 25.1452222,36.8495504 25.1452222,36.8495504 C25.1452222,36.8495504 25.0380617,38.7025447 26.1662099,40.153058" id="Fill-5" fill="#FFF0D7"></path>
                    <path d="M35.3475802,36.9149087 C35.3501728,37.3110875 35.2902963,38.8896236 34.2819012,40.1530456 L34.3144938,40.1530456 C35.3222716,38.8612015 35.3530123,37.2523897 35.3475802,36.9149087" id="Fill-7" fill="#FFF0D7"></path>
                    <path d="M35.3472144,36.8871645 C35.3472144,36.8616505 35.3447901,36.849501 35.3447901,36.849501 C35.3447901,36.849501 35.3472144,36.8780524 35.3472144,36.8871645" id="Fill-9" fill="#FFF0D7"></path>
                    <path d="M36.0534815,40.153058 L39.9632346,40.153058 C38.4000247,39.1663184 36.8116296,38.0613184 35.3448395,36.8150732 C35.3448395,36.8150732 35.3448395,36.8291606 35.3460741,36.8499211 C35.3460741,36.8499211 35.3458272,36.8499211 35.3448395,36.8495504 C35.8073086,37.2428869 36.2837284,37.6210238 36.7674321,37.9872975 C36.7024938,38.7456721 36.4470617,39.479826 36.0534815,40.153058" id="Fill-11" fill="#FAD1A9"></path>
                    <path d="M35.3457778,36.8648241 C35.3466869,36.8912494 35.347899,36.9343802 35.3503232,36.9878382 C35.3491111,36.9756886 35.3503232,36.9547307 35.3503232,36.9422774 C35.347899,36.8936793 35.3466869,36.8827447 35.3457778,36.8648241" id="Fill-15" fill="#FFF0D7"></path>
                    <path d="M25.1472469,36.849501 C25.1460348,36.8504122 25.1451257,36.8504122 25.1439136,36.8516271 C25.1439136,36.8504122 25.1472469,36.8504122 25.1472469,36.849501" id="Fill-17" fill="#FFF0D7"></path>
                    <polygon id="Fill-19" fill="#959595" points="11.4718519 64.8928612 14.1745679 64.8928612 14.1745679 0 11.4718519 0"></polygon>
                    <polygon id="Fill-21" fill="#959595" points="0 64.8928612 2.70271605 64.8928612 2.70271605 0 0 0"></polygon>
                    <polygon id="Fill-22" fill="#959595" points="22.8591358 64.8928612 25.5618519 64.8928612 25.5618519 0 22.8591358 0"></polygon>
                    <polygon id="Fill-23" fill="#959595" points="34.2450617 64.8928612 36.9479012 64.8928612 36.9479012 0 34.2450617 0"></polygon>
                    <polygon id="Fill-24" fill="#959595" points="45.717037 64.8928612 48.4198765 64.8928612 48.4198765 0 45.717037 0"></polygon>
                    <polygon id="Fill-25" fill="#959595" points="57.1890123 64.8928612 59.8917284 64.8928612 59.8917284 0 57.1890123 0"></polygon>
                    <polygon id="Fill-26" fill="#959595" points="0 64.8927376 59.8917284 64.8927376 59.8917284 58.7576521 0 58.7576521"></polygon>
                    <polygon id="Fill-27" fill="#959595" points="0 6.13508555 59.8917284 6.13508555 59.8917284 0 0 0"></polygon>
                    <path d="M14.2116885,52.8810209 L14.3783552,52.8646191 L14.3910825,52.8621892 C14.4495673,52.8646191 14.1422946,52.8898294 14.2116885,52.8810209" id="Fill-28" fill="#C9C9C9"></path>
                </g>
            </g>
        </g>
    </g>
</svg>