<?xml version="1.0" encoding="UTF-8"?>
<svg width="32px" height="50px" viewBox="0 0 32 50" version="1.1" xmlns="http://www.w3.org/2000/svg" xmlns:xlink="http://www.w3.org/1999/xlink">
    <!-- Generator: Sketch 46.1 (44463) - http://www.bohemiancoding.com/sketch -->
    <title>ico-glass</title>
    <desc>Created with Sketch.</desc>
    <defs></defs>
    <g id="Page-1" stroke="none" stroke-width="1" fill="none" fill-rule="evenodd">
        <g id="ico-glass">
            <path d="M2.12359677,4.44116315e-16 L29.8764032,4.44116315e-16 L29.8764032,8.8817842e-16 C30.9809727,2.64737776e-15 31.8764032,0.8954305 31.8764032,2 C31.8764032,2.03995509 31.8752059,2.07990121 31.8728129,2.11978458 L29.1128129,48.1197846 L29.1128129,48.1197846 C29.049444,49.1759331 28.1744512,50 27.1164032,50 L4.88359677,50 L4.88359677,50 C3.82554885,50 2.95055599,49.1759331 2.88718707,48.1197846 L0.127187075,2.11978458 L0.127187075,2.11978458 C0.0610318773,1.01719795 0.901225558,0.0697455067 2.00381218,0.00359030907 C2.04369555,0.00119730703 2.08364167,2.67188073e-15 2.12359677,2.66453526e-15 Z" id="Rectangle-4" fill="#FFFFFF"></path>
            <path d="M5.08466036,6.62667099 L26.915328,6.62667099 L26.915328,6.62667099 C28.0198975,6.62667099 28.915328,7.52210149 28.915328,8.62667099 C28.915328,8.66662609 28.9141306,8.70657221 28.9117376,8.74645557 L26.7069382,45.4931136 L26.7069382,45.4931136 C26.6435693,46.5492621 25.7685764,47.373329 24.7105285,47.373329 L7.28945984,47.373329 L7.28945984,47.373329 C6.23141192,47.373329 5.35641906,46.5492621 5.29305015,45.4931136 L3.08825067,8.74645557 L3.08825067,8.74645557 C3.02209547,7.64386895 3.86228915,6.6964165 4.96487578,6.6302613 C5.00475914,6.6278683 5.04470526,6.62667099 5.08466036,6.62667099 Z" id="Rectangle-4-Copy" fill="#F0DA7D"></path>
        </g>
    </g>
</svg>