<?xml version="1.0" encoding="UTF-8"?>
<svg width="106px" height="77px" viewBox="0 0 106 77" version="1.1" xmlns="http://www.w3.org/2000/svg" xmlns:xlink="http://www.w3.org/1999/xlink">
    <!-- Generator: Sketch 43.2 (39069) - http://www.bohemiancoding.com/sketch -->
    <title>ico-handcuffs</title>
    <desc>Created with Sketch.</desc>
    <defs></defs>
    <g id="Page-1" stroke="none" stroke-width="1" fill="none" fill-rule="evenodd">
        <g id="board-color" transform="translate(-9.000000, -44.000000)">
            <g id="21.-Free-Zone" transform="translate(-3.000000, 0.000000)">
                <g id="ico-handcuffs" transform="translate(12.000000, 44.000000)">
                    <polygon id="Fill-1" fill="#F8BE95" points="9.21462914 31.8722338 6.04164901 47.3492338 5.6976755 49.0267087 5.53621854 49.8178046 3.41972848 60.1509233 0 76.8240603 1.17547682 76.8240603 4.59941722 60.3161744 6.73310596 50.0182155 6.92615232 49.0899963 7.26696689 47.4480329 10.3062185 32.796937 10.3553576 32.5574986 10.387298 32.4027954 10.0745629 32.103937 9.33045695 31.3937087 9.31641722 31.3799963"></polygon>
                    <polygon id="Fill-2" fill="#FBD4AB" points="9.33056225 31.393779 9.23930397 31.900432 9.23930397 31.9039479 6.44890662 47.3809479 6.14740331 49.0475233 5.99612517 49.8948749 4.68691987 57.1627607 4.12919139 60.2497927 1.14153576 76.8241306 23.3509927 76.8241306 25.2059927 63.2591215 25.5464563 60.259989 26.3326815 53.2948292 26.4313106 52.4161854 26.5608272 51.2485279 27.5541384 42.4409936 27.575198 42.2585142 28.2599861 35.9575233 28.2701649 35.8731397 28.3403636 35.2300667 28.1722377 35.1910393 18.1268073 32.8349799 18.1229464 32.8349799 17.8210921 32.7653635 17.7965225 32.7614959 9.96235033 30.9261534 9.9588404 30.9261534 9.51307881 30.820674 9.43586026 30.8034457"></polygon>
                    <polygon id="Fill-3" fill="#F8BE95" points="96.5741781 31.3940954 95.8300722 32.1043237 95.5176881 32.4031822 95.5492775 32.5578854 95.5984166 32.7973237 98.6383702 47.4484196 98.9784828 49.0903831 99.1715291 50.0182507 101.305569 60.3165612 104.729158 76.8240954 105.904635 76.8240954 102.484907 60.15131 100.368417 49.8181913 100.20696 49.0270954 99.8633371 47.3496205 96.690006 31.8726205 96.5882179 31.3800315"></polygon>
                    <polygon id="Fill-4" fill="#FBD4AB" points="96.3915914 30.8210256 95.9458298 30.9268566 95.9426709 30.9268566 88.1081477 32.7618475 88.0835781 32.7653635 87.7820748 32.8353315 87.7782139 32.8353315 77.7327834 35.1913909 77.5643066 35.2304183 77.6348563 35.8734913 77.6450351 35.9578749 78.3294722 42.2585142 78.3508828 42.4413452 79.344194 51.2488795 79.4737106 52.4161854 79.5719887 53.2955324 80.3585649 60.2603406 80.6986775 63.2594731 82.5536775 76.8241306 104.763134 76.8241306 101.77583 60.2501443 101.21775 57.1627607 99.908896 49.8952265 99.7576179 49.0478749 99.4557636 47.3812995 96.6653662 31.9042995 96.6653662 31.9007836 96.5741079 31.3941306 96.4688099 30.8037973"></polygon>
                    <g id="Group-111" transform="translate(2.807947, 0.175799)">
                        <path d="M33.7802344,51.9105169 C33.6770424,51.9657178 33.592804,52.0592429 33.5531417,52.1787863 C33.4699563,52.4273662 33.6036848,52.6959872 33.8521881,52.7779096 L39.1107709,54.53801 C39.3585722,54.6206356 39.6253272,54.4863251 39.7092146,54.2388 C39.791347,53.9905717 39.6576185,53.7219507 39.4098172,53.6389735 L34.1515854,51.8799279 C34.0241748,51.8363297 33.8907974,51.8514484 33.7802344,51.9105169" id="Fill-5" fill="#CFD1D2"></path>
                        <path d="M42.0755417,52.6727817 C41.9902503,52.7540009 41.9358464,52.8665123 41.9288265,52.9927361 C41.9165417,53.2539735 42.1173099,53.4765352 42.378098,53.4895443 L47.9160715,53.7630877 C48.1772106,53.7757452 48.3979854,53.5749826 48.4113232,53.3137452 C48.4239589,53.0525078 48.2231907,52.8299461 47.9624026,52.816937 L42.4247801,52.5433936 C42.2899987,52.5363616 42.165747,52.5869918 42.0755417,52.6727817" id="Fill-7" fill="#CFD1D2"></path>
                        <path d="M42.970645,52.5385064 C42.8207709,52.0881091 42.3321881,51.8437484 41.8836185,51.9938808 L38.6365788,53.0789128 C38.1866053,53.2286936 37.9437179,53.7177667 38.093943,54.1681639 L38.2192477,54.5454288 C38.3691219,54.995826 38.8570026,55.24089 39.3069762,55.0900543 L42.5529629,54.0064288 C43.0022344,53.85489 43.2465258,53.3672233 43.0966517,52.9164744 L42.970645,52.5385064 Z M37.4347775,54.807721 L37.3091219,54.4301046 C37.0142874,53.5465384 37.4923404,52.5866753 38.3750887,52.2923877 L41.6210755,51.2084105 C42.5038238,50.9127164 43.4613338,51.3915932 43.7551152,52.2765658 L43.8807709,52.653479 C44.1756053,53.5381 43.6968503,54.4972598 42.814453,54.7915475 L39.5681152,55.8765795 C38.6857179,56.1708671 37.7285589,55.6919904 37.4347775,54.807721 L37.4347775,54.807721 Z" id="Fill-9" fill="#CFD1D2"></path>
                        <path d="M52.6980404,53.6753639 C52.6875106,52.7436288 52.2617556,52.1244644 52.2617556,52.1244644 L51.7036762,52.8332863 C51.8338947,53.0252589 51.8651331,53.2094963 51.870047,53.6845055 L51.8746099,53.731268 C51.8798748,54.2069804 51.499047,54.5969027 51.025557,54.6021767 C51.025557,54.6021767 49.9329146,54.2681584 49.5559477,54.2224507 C49.1344046,54.1711174 47.8567887,54.241437 47.8567887,54.241437 C47.3829477,54.246711 46.994047,53.8645237 46.9880801,53.3898662 L46.9838682,52.9915055 C46.9789543,52.5175511 47.3411795,52.28409 47.8336232,52.1213 L49.4755702,51.8987384 L49.3618483,51.0960397 L47.8234444,51.2918799 C46.8761132,51.5091676 46.145345,52.0696151 46.1562258,53.0017018 L46.1600868,53.4000626 C46.1713185,54.3314461 46.9364841,55.0803502 47.8669675,55.0701539 C47.8669675,55.0701539 49.2835768,54.9840123 49.749696,55.0487064 C50.0813848,55.0951174 51.0346828,55.4308936 51.0346828,55.4308936 C51.9648152,55.4199941 52.7134841,54.6549164 52.7029543,53.7224781 L52.6980404,53.6753639 Z" id="Fill-11" fill="#CFD1D2"></path>
                        <path d="M33.171647,16.2209114 C33.1649781,16.2050895 33.1642762,16.1892676 33.1611172,16.1720393 C33.065998,15.728674 32.5963689,15.2153406 31.8505079,14.6633315 C30.2966603,13.5100895 27.5448722,12.1824548 24.481402,10.9370941 C18.2235411,8.39187489 10.6764815,6.18418995 9.43852781,6.50062831 C7.30413709,7.04455068 4.43125629,20.5227151 6.09426291,26.34061 C7.75691854,32.1574502 7.16198477,32.4176329 7.16198477,32.4176329 C7.16198477,32.4176329 9.17528278,33.7213589 11.5121967,34.1165553 C13.8484086,34.5117516 14.1758854,33.3644868 15.1814815,33.7744502 C16.0066669,34.1112813 19.2154483,35.5152128 21.3294815,36.3070119 C21.5218258,36.3773315 21.7018854,36.4413224 21.8657993,36.4954685 C22.0995609,36.5696557 22.3010311,36.6230986 22.4628391,36.6508749 C23.0374152,36.7475644 23.8141636,36.5496146 24.6003887,36.1769205 C25.8909914,35.5658429 27.2110775,34.4888977 27.7193159,33.4882493 C30.0832563,28.8218384 34.0526404,20.5132219 33.171647,16.2209114" id="Fill-13" fill="#FBD4AB"></path>
                        <path d="M33.171647,16.2209114 C33.1649781,16.2050895 33.1642762,16.1892676 33.1611172,16.1720393 C33.1140841,15.9519388 32.7409781,15.6762858 32.5212563,15.42419 C33.2895808,19.773811 29.3296735,27.4678338 27.8600642,31.2243087 C27.4304483,32.3237562 26.5652497,33.8475826 25.9303026,34.4910073 C24.3455675,36.0953498 22.9222894,36.3836603 22.043051,36.4247973 C21.6604682,36.4423772 21.4347795,36.4100301 21.4347795,36.4100301 C21.6980245,36.5485598 22.1083358,36.6069251 22.5786669,36.6139571 C23.4617662,36.6255598 23.8717265,36.4219845 24.6003887,36.1769205 C25.9524152,35.7184365 27.2110775,34.4888977 27.7193159,33.4882493 C30.0832563,28.8218384 34.0526404,20.5132219 33.171647,16.2209114" id="Fill-15" fill="#F8BE95"></path>
                        <path d="M3.36806225,10.050258 C3.36806225,10.050258 3.43124106,7.77963699 5.43892318,2.29892466 C5.9784,0.828189498 7.94431391,-1.27823516 11.8894795,1.44172831 C13.0470556,2.23844977 12.8557642,3.16913014 10.7701616,10.2784452 C10.1611881,12.3521712 9.03555232,16.5991256 5.03528079,15.9588653 C2.20732715,15.5049521 3.36806225,10.050258 3.36806225,10.050258" id="Fill-17" fill="#FBD4AB"></path>
                        <path d="M12.5939583,2.87649498 C12.6041371,2.10860457 12.3577397,1.76298356 11.8884616,1.44197443 C7.94575298,-1.27834064 5.9784351,0.828435616 5.43966026,2.30092877 C3.43127616,7.77917991 3.36809735,10.0505041 3.36809735,10.0505041 C3.36809735,10.0505041 2.57871325,13.7626776 3.88967351,15.3167416 C3.51551457,13.5981297 3.97882583,11.4168146 3.97882583,11.4168146 C3.97882583,11.4168146 4.04200464,9.14584201 6.05038874,3.66723927 C6.58916358,2.19474612 8.55542848,0.0893762557 12.4998921,2.80723014 C12.5321834,2.83043562 12.5644748,2.8529379 12.5939583,2.87649498" id="Fill-19" fill="#F8BE95"></path>
                        <path d="M19.463004,1.96089817 C18.9228252,1.5896105 18.2826132,1.40185708 17.6462623,1.27176575 C17.1011695,1.16066073 16.5399311,1.11108539 15.9860636,1.17050548 C15.166845,1.25910822 14.3785139,1.61105799 13.8551828,2.26116301 C13.6316,2.53857397 13.4627722,2.85641872 13.3557192,3.19606256 C13.1335404,3.89890731 12.9633086,4.62355114 12.7906199,5.34116301 C12.4835007,6.62941872 12.2209576,7.92787078 11.9963219,9.2323 C11.8769841,9.9260032 11.7664212,10.6221676 11.6755139,11.3197384 C11.6239179,11.7163411 11.6067192,12.1210306 11.5870636,12.5204461 C11.5298517,13.6638434 11.5210768,14.8149758 11.616898,15.9562635 C11.6295338,16.1042863 11.6439245,16.2526607 11.6604212,16.4013868 C11.6772689,16.5515192 11.6765669,16.7322406 11.7309709,16.8728799 C11.8418848,17.1594324 11.9836861,17.440711 12.1907722,17.6692498 C12.5252689,18.040889 13.0770305,18.1600808 13.5480636,18.2662635 C14.2619841,18.4272954 15.0338185,18.438195 15.6635007,18.0159256 C16.3528517,17.5539256 16.7487722,16.742437 17.0492225,15.9945877 C17.500951,14.8733411 17.7592821,13.6701721 18.0446397,12.4993502 C18.3854543,11.0975283 18.720653,9.69183881 19.0474278,8.28720411 C19.2948781,7.22713562 19.5398715,6.16179315 19.6974675,5.08379315 C19.8038185,4.35317215 19.884547,3.59055571 19.7638053,2.85606712 C19.7132623,2.54419954 19.620951,2.23619954 19.463004,1.96089817" id="Fill-21" fill="#FBD4AB"></path>
                        <path d="M19.8167702,3.43444612 C19.7971146,2.83567443 19.6795318,2.22670639 19.3162536,1.73939132 C18.9171742,1.20179772 18.2794192,0.935286301 17.6574589,0.754916438 C16.6364192,0.457815982 15.4949887,0.325615068 14.4795649,0.71026347 C13.7673993,0.979939269 13.1812404,1.51155571 12.8681543,2.21053288 C12.777949,2.41164703 12.7193331,2.62049635 12.6596642,2.83215845 C12.5543662,3.2073137 12.4543331,3.58387534 12.3585119,3.96149178 C12.1763464,4.67804886 12.0099755,5.39882511 11.8565914,6.12276575 C11.6172139,7.25280228 11.4066179,8.39127717 11.2283132,9.53467443 C11.1535517,10.0128479 11.0777371,10.4927795 11.0356179,10.9769301 C10.9148762,12.3660945 10.8924126,13.7816288 11.0001675,15.1711447 C11.0542205,15.8943822 11.1468828,16.6243 11.3560748,17.3201128 C11.5196377,17.8601676 11.7814788,18.5130854 12.3293795,18.7679941 C12.726353,18.9536379 13.1949291,19.0643913 13.627704,19.1301402 C13.9744854,19.1818251 14.3303927,19.1948342 14.6754192,19.1227566 C15.3433596,18.9835237 15.8466841,18.5211721 16.2096113,17.9600215 C16.7311874,17.1583776 17.0330417,16.2143365 17.3054126,15.3022909 C17.0151411,16.15351 16.6652007,17.0796196 16.013406,17.7265603 C15.4960417,18.2405968 14.8165185,18.4255374 14.100843,18.3580306 C13.6413927,18.3133776 13.1917702,18.1875055 12.7572404,18.0359667 C12.5017172,17.9449027 12.2963861,17.8060215 12.1265053,17.5943594 C11.9467967,17.3693365 11.7477834,17.0507886 11.7070682,16.7628297 C11.5378894,15.5744279 11.5242007,14.3621174 11.561406,13.1621128 C11.5789556,12.5833822 11.5915914,11.9941037 11.6624921,11.4185374 C11.7260219,10.9009849 11.8074523,10.3851904 11.8902868,9.87080228 C12.086843,8.65286621 12.3174457,7.4412589 12.5852536,6.23773836 C12.7491675,5.49516301 12.9299291,4.75469726 13.1261344,4.01915388 C13.1900152,3.78006712 13.2598629,3.57403059 13.3893795,3.36201689 C13.4827437,3.2073137 13.5922536,3.06245525 13.7133464,2.92990274 C14.2924854,2.29702603 15.1267967,1.99605799 15.9695318,1.95210822 C16.5497238,1.92116758 17.1330748,2.00098037 17.6950152,2.14021324 C18.288194,2.28753288 18.9017305,2.48126347 19.3710086,2.89017215 C19.5479093,3.04452374 19.6995384,3.22946438 19.8167702,3.43444612 C19.7981675,2.8405968 19.5177238,2.90669726 19.8167702,3.43444612" id="Fill-23" fill="#F8BE95"></path>
                        <path d="M16.9763744,21.337026 C16.9105612,21.2821927 16.848825,21.2174427 16.7923305,21.1491927 C16.8470777,21.2191927 16.9082316,21.2816094 16.9763744,21.337026" id="Fill-25" fill="#F7CD9D"></path>
                        <path d="M25.1865477,4.05041096 C22.8075146,2.51920091 21.3249185,2.70343836 20.4460311,3.61196804 C20.4151437,3.66576256 20.3863623,3.72131507 20.3596868,3.77792237 C18.491349,7.58115982 17.5805212,13.1212922 17.5805212,13.1212922 C17.5805212,13.1212922 15.8975079,20.0122648 17.5527927,20.7351507 C19.1768391,21.4439726 20.1136404,21.4580365 20.9560245,20.5062603 C21.6520444,19.3899361 22.3607,17.5486164 23.4389517,14.819863 C26.1591503,7.93557078 26.5835013,4.95050228 25.1865477,4.05041096" id="Fill-27" fill="#FBD4AB"></path>
                        <path d="M25.9310397,5.39689132 C25.8432914,4.74467671 25.5909272,4.31045297 25.1865828,4.05027032 C22.8075497,2.51941187 21.3249536,2.70329772 20.4460662,3.612179 C20.4236026,3.63749406 20.3990331,3.66245753 20.3758675,3.68636621 C20.3684967,3.69269498 20.3628808,3.70148493 20.3562119,3.70886849 C20.3323444,3.73664475 20.3095298,3.76301461 20.2860132,3.79219726 C20.2403841,3.84845297 20.195106,3.90963105 20.1526358,3.97116073 C20.1473709,3.9767863 20.1442119,3.98311507 20.141755,3.98768584 C20.1171854,4.02143927 20.0947219,4.05695068 20.0726093,4.09105571 C20.0519007,4.12656712 20.0301391,4.16172694 20.0094305,4.19794155 C19.9929338,4.22536621 19.9771391,4.25243927 19.9627483,4.28091872 C19.9381788,4.32662648 19.9132583,4.37374064 19.8907947,4.4205032 C18.0228079,8.22374064 17.1123311,13.7628183 17.1123311,13.7628183 C17.1123311,13.7628183 16.8196026,14.96001 16.5984768,16.4075397 C16.5928609,16.4493799 16.5851391,16.4929781 16.5788212,16.5362247 C16.5626755,16.6392429 16.375245,18.4461059 16.3703311,18.5558046 C16.3678742,18.5892064 16.3671722,18.6257726 16.3661192,18.6591744 C16.3510265,19.0107726 16.3520795,19.3497132 16.3731391,19.6615808 C16.374543,19.7213525 16.3808609,19.7779598 16.3864768,19.8356219 C16.3963046,19.9495397 16.4092914,20.0567772 16.4261391,20.161905 C16.4342119,20.2139416 16.4426358,20.2635169 16.4524636,20.3134438 C16.4580795,20.3377041 16.6290132,21.1973616 17.0835497,21.3773799 C19.0757881,22.162147 20.9750132,22.6213342 21.7998477,18.7133205 C20.6033113,22.0978046 19.1768742,21.4441836 17.5528278,20.73501 C17.2018344,20.5806584 17.0014172,20.1506539 16.9017351,19.5673525 C17.0266887,17.4243616 17.6353113,14.9343434 17.6353113,14.9343434 C17.6353113,14.9343434 18.5457881,9.39561735 20.4137748,5.59308311 C21.1568278,4.07804658 22.7324371,3.304179 25.7109669,5.22249863 C25.7895894,5.27242557 25.864,5.33079087 25.9310397,5.39689132" id="Fill-29" fill="#F8BE95"></path>
                        <path d="M9.41308079,18.7679237 C9.41308079,18.7679237 9.29655099,15.0343027 9.72230596,14.7966224 C9.86059735,14.7196224 10.1659616,14.5308142 10.5759219,14.259732 C10.6057563,14.1869511 10.6394517,14.1370242 10.6780609,14.1152251 C10.8781272,14.0037685 11.4256768,13.6613119 12.1346834,13.1715356 C14.3038225,11.6730242 17.987498,8.81277306 17.8292,7.09908356 C17.4736437,3.26771826 12.9777695,4.03279589 12.9777695,4.03279589 C12.9777695,4.03279589 6.2857298,7.43134384 5.21800795,8.0164032 C5.06357086,8.10113836 4.87473642,8.26041233 4.66308742,8.48438037 C2.86635232,10.3654306 -0.664290066,16.7321703 0.108948344,19.789668 C1.06049139,23.5514169 6.49211391,31.8234671 6.49211391,31.8234671 C6.49211391,31.8234671 11.3133589,34.7698598 14.4740543,33.2263438 C16.5975642,31.1009329 15.9282199,26.4872616 15.2525576,24.758805 C14.4968689,22.8257183 9.41308079,18.7679237 9.41308079,18.7679237" id="Fill-31" fill="#FBD4AB"></path>
                        <path d="M0.110036424,19.7911447 C0.229374172,20.2622863 0.415400662,20.8002315 0.657586093,21.3874005 C0.716903974,21.5350717 0.780433775,21.6827429 0.847122517,21.8374461 C0.917321192,22.0026973 0.994539735,22.1714644 1.07175828,22.3437475 C1.13142715,22.4738388 1.19460596,22.6039301 1.25427483,22.7375374 C1.41222185,23.0680397 1.58034768,23.405574 1.75584437,23.7501402 C1.83692384,23.9153913 1.92467219,24.0841584 2.01242053,24.2494096 C2.18440728,24.5834279 2.36341391,24.9174461 2.54557947,25.2514644 C2.5494404,25.2620123 2.55646026,25.2690443 2.55961921,25.2795922 C2.90043377,25.898405 3.24756623,26.5137018 3.59189073,27.1043868 C3.61259934,27.1430626 3.63400993,27.1817384 3.65822848,27.2168982 C3.74983775,27.3751174 3.84109603,27.5333365 3.9323543,27.6880397 C3.94639404,27.7126516 3.96043377,27.7372635 3.97447351,27.7583594 C4.05134106,27.8884507 4.1289106,28.018542 4.20261921,28.1451174 C4.38162583,28.4439758 4.55361258,28.7322863 4.7220894,29.0065329 C4.79228808,29.1260763 4.86599669,29.2421037 4.93619536,29.3581311 C5.02745364,29.5058023 5.11520199,29.6499575 5.20295033,29.7905968 C5.25559934,29.8784963 5.30824834,29.9663959 5.36089735,30.0472635 C5.42056623,30.138679 5.47321523,30.2265785 5.52586424,30.3109621 C5.83473841,30.8031995 6.08394371,31.1969895 6.25593046,31.4606881 C6.3120894,31.5485877 6.35771854,31.6224233 6.39632781,31.678679 C6.39983775,31.685711 6.40334768,31.6892269 6.40650662,31.6927429 L6.40650662,31.6962589 C6.41738742,31.7068068 6.42054636,31.7173548 6.43142715,31.7243868 L6.43142715,31.7279027 C6.47003642,31.7911904 6.49109603,31.8228342 6.49109603,31.8228342 C6.49109603,31.8228342 6.49425497,31.8228342 6.49811589,31.8263502 C6.55778477,31.8439301 6.93299669,31.9564416 7.25977152,32.0830169 C7.37910927,32.1322406 7.49142715,32.1814644 7.5791755,32.2271721 C7.49142715,32.058405 7.38577815,31.86151 7.2559106,31.6364872 L7.2559106,31.6329712 C7.09831457,31.3411447 6.91228808,31.0106425 6.70520199,30.6449804 C4.97445364,27.6247521 1.78427483,22.2910078 1.16301656,19.9669438 C0.657586093,18.0894096 1.7807649,15.1570808 3.13910927,12.7732452 L3.13910927,12.7697292 C3.41288411,12.2880397 3.69718874,11.8274461 3.97798344,11.4055283 C4.82703642,10.122195 5.65924172,9.16233196 6.15063245,8.89511735 C6.50513576,8.70173836 7.39665894,8.18488904 8.4320894,7.5766242 C9.01824834,7.23557397 9.65003642,6.86287991 10.257255,6.50424977 C10.8957119,6.12803973 11.5067914,5.76589361 12.0016921,5.47406712 C12.0543411,5.44593927 12.1034801,5.41429543 12.1491093,5.38616758 C12.4544735,5.20685251 12.7071887,5.0556653 12.8858444,4.95018584 L12.8897053,4.95018584 C13.065202,4.84470639 13.1669901,4.7849347 13.1669901,4.7849347 C13.1669901,4.7849347 15.8485795,4.42278858 17.0595066,5.57251461 C17.4280497,5.92411279 17.624255,6.48666986 17.6912947,7.17580228 C17.7228841,7.52740046 17.6000364,7.92822237 17.3610099,8.35014018 C16.6944735,9.53854201 15.1430828,10.9203228 13.6829503,12.045437 C13.1350497,12.4638388 12.6018907,12.8470808 12.1350695,13.1705511 C12.057851,13.2232909 11.9701026,13.2830626 11.8753344,13.3463502 C11.7731954,13.4201858 11.6647384,13.4940215 11.5524205,13.5713731 C11.3558642,13.7049804 11.1487781,13.8456196 10.9413411,13.9862589 C10.8223543,14.0671265 10.7030166,14.1479941 10.5903477,14.2253457 C10.2081159,14.4820123 9.88836093,14.6964872 9.76586424,14.7703228 C9.7518245,14.7808708 9.73778477,14.7879027 9.72374503,14.7949347 C9.70619536,14.8054826 9.6886457,14.8195466 9.67460596,14.8406425 C9.66758609,14.8511904 9.66056623,14.8617384 9.65319536,14.8758023 C9.64652649,14.8863502 9.63950662,14.9004142 9.63248675,14.9179941 C9.62511589,14.932058 9.61844702,14.9496379 9.61107616,14.9672178 C9.60440728,14.9812817 9.59738742,15.0023776 9.59387748,15.0199575 C9.57983775,15.0586333 9.56930795,15.1043411 9.55877815,15.1500489 C9.55175828,15.1781767 9.54824834,15.2063046 9.54122848,15.2344324 C9.52718874,15.2942041 9.51665894,15.3574918 9.50963907,15.4242954 C9.50612914,15.4418753 9.50261921,15.4559393 9.50261921,15.4735192 C9.49559934,15.5262589 9.48857947,15.5789986 9.4815596,15.6387703 C9.4815596,15.6458023 9.47769868,15.6528342 9.47769868,15.6633822 C9.4710298,15.7301858 9.46400993,15.7969895 9.4605,15.8673091 C9.44961921,15.9481767 9.44646026,16.0290443 9.4394404,16.1134279 L9.4394404,16.1204598 C9.4394404,16.1450717 9.43557947,16.1661676 9.43557947,16.1907795 C9.42540066,16.3384507 9.41838079,16.4931539 9.41487086,16.6478571 C9.39381126,17.2983137 9.39732119,17.9663502 9.40785099,18.3742041 C9.41136093,18.6168068 9.41487086,18.7679941 9.41487086,18.7679941 L10.2116258,19.0246607 C10.2116258,19.0246607 10.1905662,18.2968525 10.201096,17.4635648 L10.201096,17.4565329 C10.2151358,16.4017384 10.2853344,15.1852087 10.5205,15.0516014 C10.6082483,15.0023776 10.7626854,14.9074461 10.9732815,14.7738388 C11.0891093,14.7000032 11.2259967,14.6121037 11.3734139,14.5136562 C11.3800828,14.4960763 11.4436126,14.4433365 11.5489106,14.3730169 C11.8328642,14.165574 12.4123543,13.7858479 12.9318245,13.4272178 C14.6481821,12.238816 17.1648046,10.2347064 18.101957,8.5962589 C18.3511623,8.16379315 18.4876987,7.75593927 18.4736589,7.39730913 C18.3616921,4.92908995 16.2136126,4.4192726 15.9710762,4.36301689 L15.9679172,4.36301689 C15.9570364,4.36301689 15.9538775,4.35950091 15.9503675,4.35950091 C15.185202,4.11689817 14.5709636,4.01141872 14.1076523,3.97274292 L14.1002815,3.97274292 L14.0936126,3.97274292 C13.6232815,3.93406712 13.3038775,3.96922694 13.1318907,3.99735479 L13.1248709,3.99735479 C13.0581821,4.01141872 13.0160629,4.02196667 12.9950033,4.02899863 C12.9844735,4.02899863 12.9774536,4.03251461 12.9774536,4.03251461 L12.9735927,4.03603059 C12.9704338,4.03603059 12.9634139,4.03954658 12.959553,4.04306256 C12.9353344,4.0536105 12.8858444,4.07822237 12.8121358,4.11689817 C12.7773874,4.13447808 12.7352682,4.15557397 12.6861291,4.18018584 C12.6054007,4.22237763 12.5067715,4.27160137 12.3948046,4.32785708 C12.3491755,4.35246895 12.3035464,4.37356484 12.2544073,4.40169269 L12.2508974,4.40169269 C12.0297715,4.51420411 11.7700364,4.64781142 11.4787119,4.79548265 C11.4050033,4.83415845 11.3312947,4.87283425 11.2540762,4.91151005 C11.0996391,4.98534566 10.9413411,5.06972922 10.7767252,5.15411279 C10.6959967,5.19630457 10.6117583,5.23849635 10.5275199,5.28068813 C9.7202351,5.69205799 8.81467219,6.1526516 7.97579801,6.58511735 C7.86699007,6.64137306 7.75818212,6.69762877 7.64902318,6.75036849 C7.63498344,6.75740046 7.61778477,6.7679484 7.6002351,6.77498037 C7.51599669,6.82068813 7.43140728,6.86287991 7.3510298,6.90507169 C6.35771854,7.41488904 5.53639404,7.84032283 5.21699007,8.01612192 C5.1889106,8.03018584 5.16083113,8.05128174 5.12924172,8.07237763 C5.09765232,8.09347352 5.06220199,8.11456941 5.03096358,8.14269726 C5.00639404,8.16027717 4.98533444,8.17785708 4.96041391,8.19895297 C4.86950662,8.27630457 4.76771854,8.37123607 4.66242053,8.48374749 C4.61328146,8.53648721 4.56063245,8.59274292 4.50798344,8.64899863 C4.49745364,8.65954658 4.48692384,8.67009452 4.47604305,8.68415845 L4.47288411,8.68767443 C4.32195695,8.85995753 4.16400993,9.06036849 3.99518212,9.28187534 C3.94955298,9.34164703 3.9007649,9.4049347 3.85162583,9.47173836 C3.81652649,9.52447808 3.77405629,9.57721781 3.73579801,9.63347352 C3.70034768,9.68269726 3.6620894,9.73543699 3.6305,9.78817671 C3.56732119,9.87607626 3.50414238,9.97100776 3.44096358,10.0624233 C3.40586424,10.115163 3.3707649,10.1679027 3.33531457,10.2206425 C2.98432119,10.7515557 2.62665894,11.3492726 2.28233444,11.9821493 C2.22301656,12.0876288 2.16650662,12.1931082 2.11069868,12.2985877 C1.96679139,12.5693183 1.82639404,12.8435648 1.69301656,13.1178114 C1.64387748,13.2197749 1.59438742,13.3252543 1.54559934,13.4307338 C1.52804967,13.4658936 1.5105,13.5010534 1.49259934,13.5397292 C1.40871192,13.7225603 1.32447351,13.9053913 1.24725497,14.0882224 C1.21215563,14.1726059 1.17354636,14.2534735 1.13844702,14.3378571 C1.05385762,14.538268 0.973480132,14.735163 0.896261589,14.935574 C0.847122517,15.0621493 0.801493377,15.1887247 0.755864238,15.311784 C0.569837748,15.8145694 0.415400662,16.3138388 0.29255298,16.7955283 C0.264122517,16.9045237 0.239903974,17.0135192 0.215334437,17.1189986 C0.211824503,17.1295466 0.20831457,17.1436105 0.20831457,17.1541584 C0.180235099,17.2737018 0.155665563,17.3897292 0.134254967,17.5057566 C0.113546358,17.621784 0.092486755,17.7342954 0.0784470199,17.8503228 C0.0644072848,17.9311904 0.0538774834,18.012058 0.0465066225,18.0929256 C0.0398377483,18.1280854 0.0363278146,18.1597292 0.0363278146,18.1913731 C0.0257980132,18.2827886 0.0187781457,18.3742041 0.0117582781,18.4621037 C-0.0198311258,18.9508251 0.0117582781,19.3973548 0.110036424,19.7911447" id="Fill-33" fill="#F8BE95"></path>
                        <path d="M16.2457987,24.3728909 C15.2872358,22.530868 11.3066199,19.957521 10.3687656,18.0870187 C10.134653,17.6172836 10.1272821,16.7340689 10.2188914,15.9120324 C10.2954079,15.23169 10.4393152,14.5910781 10.5758517,14.2598726 C10.1658914,14.5309548 9.96266623,15.0235438 9.66572583,15.4570644 C9.59096424,15.5674662 9.51023576,15.8111237 9.43898411,16.1208817 C9.25471258,16.9415119 9.14485166,18.2280096 9.4130106,18.7680644 C9.4130106,18.7680644 9.41230861,18.7698224 9.41441457,18.7698224 C10.3364742,20.6178224 13.9966331,22.3185027 15.4286861,24.4273886 C17.0429046,26.808763 16.5315073,31.2033886 14.4739841,33.2264845 C14.4996066,33.2127721 14.5259311,33.1990598 14.5519046,33.1864023 C17.0004344,32.0651557 17.6434543,27.0587493 16.2457987,24.3728909" id="Fill-35" fill="#F8BE95"></path>
                        <path d="M33.1610119,16.1721447 C33.105204,15.8806699 33.0276344,15.4932087 32.9360252,15.0494918 C32.5295748,13.1118342 31.8226742,10.1225466 31.2316013,9.577921 C28.0589722,6.64981142 26.6630715,7.09704429 25.9586278,8.12687534 C25.417747,8.91832283 24.9172305,9.91826804 24.4812967,10.9368479 C23.4384954,13.3681493 22.7600252,15.8978982 22.7600252,15.8978982 C22.7600252,15.8978982 21.3757073,19.54151 21.4318662,21.5811311 C21.5094358,21.8050991 21.6287735,21.9770306 21.7979523,22.0786425 C22.0345219,22.2175237 22.2549457,22.3377703 22.4609788,22.436921 C22.4936212,22.4534461 22.5297735,22.469268 22.5624159,22.4843868 C22.6301576,22.5163822 22.6961444,22.5441584 22.7610781,22.5705283 C24.8824821,23.4365146 25.6581775,21.8789347 28.3959258,16.9073365 C28.4075086,16.8879986 28.4187404,16.8676059 28.4320781,16.848268 C28.7718397,16.3293091 29.5728066,16.2727018 30.4257205,16.3194644 C31.5668,16.3834553 32.8001907,16.6320352 33.1385483,16.2055466 C33.1466212,16.1942954 33.1539921,16.1837475 33.1610119,16.1721447" id="Fill-37" fill="#FBD4AB"></path>
                        <path d="M32.0888325,11.4827393 C31.8182166,10.5879219 31.5216272,9.84604977 31.2317066,9.57778037 C28.0590775,6.64967078 26.6631768,7.09690365 25.9583821,8.1267347 C24.1265477,10.8020452 22.7601305,15.8981091 22.7601305,15.8981091 C22.7601305,15.8981091 20.5393954,21.7416708 21.8398258,22.7676342 C21.7650642,20.7375064 23.1658788,17.0495932 23.1658788,17.0495932 C23.1658788,17.0495932 24.533349,11.9542324 26.3651834,9.27821872 C27.0699781,8.24979406 28.4658788,7.80220959 31.637806,10.7306708 C31.7869781,10.8692005 31.9403623,11.1328991 32.0888325,11.4827393" id="Fill-39" fill="#F8BE95"></path>
                        <path d="M33.171647,16.2209114 C33.1677861,16.2043863 33.1642762,16.1892676 33.1611172,16.1720393 C33.1053093,15.8805644 32.9680709,15.2061991 32.8747066,14.7621306 C32.6493689,14.4917516 32.2583623,14.34619 31.792945,14.2923954 C30.4753159,14.138747 29.2742166,15.4410667 28.4321834,16.8485142 C28.4188457,16.8675005 28.4076139,16.8878932 28.3956801,16.9072311 C25.5547397,21.8155416 24.8576669,23.4205872 22.7611834,22.5707744 C22.6958987,22.544053 22.6302629,22.5162767 22.5621702,22.4842813 C22.5298788,22.4691626 22.4937265,22.4536922 22.4607331,22.4371671 C22.2547,22.3376648 22.0346272,22.2177699 21.7980576,22.078537 C21.6285278,21.9769251 21.5091901,21.8049936 21.4319715,21.5810256 C21.4491702,22.1713589 21.5867596,22.6263269 21.9145874,22.8193543 C24.8211636,24.542537 25.3957397,23.3056146 28.510104,17.650158 C28.8144152,17.0981489 29.5757199,16.616811 30.4258258,16.3193589 C31.3963225,15.9793635 32.482296,15.8840804 33.1383026,16.2054411 C33.1498854,16.2114183 33.1604152,16.2149342 33.171647,16.2209114" id="Fill-41" fill="#F8BE95"></path>
                        <path d="M6.31447616,31.3698352 C6.30499934,31.4148397 6.29482053,31.4566799 6.28499272,31.5016845 C6.1375755,31.2738489 5.9203106,30.9363146 5.65215166,30.5101776 C5.84414503,30.8076297 6.06807881,31.1001594 6.31447616,31.3698352" id="Fill-43" fill="#BE1E2D"></path>
                        <path d="M25.4412285,35.9220822 L25.4615861,35.7223744 L25.3475132,35.7149909 L25.0828642,35.6977626 C25.0828642,35.6977626 25.0625066,35.7955068 25.0088046,35.9681416 C25.0007318,35.9853699 24.9958179,36.0057626 24.991255,36.0233425 C24.6353477,37.1312283 23.1295861,40.7656986 18.3722219,42.0595799 C13.1999834,43.463863 8.43138742,41.1489406 6.6304404,36.8158447 C6.56304967,36.6604384 6.50232781,36.5046804 6.44616887,36.3425936 C6.35315563,36.0897945 6.27453311,35.8348858 6.20363245,35.5694292 C6.20363245,35.5694292 6.24399669,36.2627808 6.53883113,37.2539361 C7.1070894,39.1508082 8.61495695,42.1295479 12.6001358,43.4427671 C15.1139503,44.2739452 17.4227848,44.0345068 19.2819967,43.4494475 C21.0478444,42.8974384 22.4051358,42.0296941 23.1443278,41.4713562 L23.1478377,41.4713562 C23.5097119,41.1988676 23.7231159,41.0044338 23.7648841,40.9509909 C23.8680762,40.8233607 24.3657848,39.8093516 24.8648974,38.763347 C24.8691093,38.7563151 24.8733212,38.7496347 24.8771821,38.7426027 C24.990553,38.507032 25.1007649,38.2711096 25.2067649,38.041516 C25.2071159,38.038 25.2106258,38.0387032 25.2109768,38.0351872 L25.4412285,35.9220822 Z" id="Fill-45" fill="#F7CD9D"></path>
                        <path d="M29.5684894,35.0705466 C29.5614695,35.1791904 29.5505887,35.2948662 29.536198,35.4066744 C29.5123305,35.6162269 29.4744232,35.8250763 29.4361649,36.0377932 C28.9468801,38.7331447 27.6983967,41.0909621 25.9644894,42.956542 C25.934304,42.9927566 25.9002576,43.0296744 25.8665623,43.0623731 C25.7946086,43.1425374 25.719145,43.2188342 25.6443834,43.2916151 L25.6440325,43.2951311 C25.4745026,43.4674142 25.3098868,43.6221174 25.138602,43.7768205 L24.6405424,43.2023091 L24.4345093,42.963574 L23.1442576,41.4713913 L22.8820656,41.1690169 L22.8789066,41.1651493 C22.9234828,41.1289347 22.964198,41.0934233 23.0056152,41.0536927 C23.0431715,41.0136105 23.0845887,40.9738799 23.122145,40.9376653 C23.4099596,40.6711539 23.6746086,40.3846014 23.9259199,40.0875009 C24.0199861,39.9844826 24.1007146,39.883574 24.1740722,39.7795009 C24.2576086,39.6789438 24.3386881,39.5748708 24.4050258,39.4665785 C24.4780325,39.3723502 24.5436682,39.2781219 24.6026351,39.1796744 C24.6759927,39.0787658 24.7426815,38.9739895 24.8023503,38.8649941 C24.822006,38.830889 24.8455225,38.7971356 24.8651781,38.7633822 C24.8690391,38.7563502 24.873251,38.7496699 24.8771119,38.7426379 C24.9006285,38.7018525 24.924145,38.6614187 24.9483636,38.6171174 C24.979602,38.5696516 25.0034695,38.5218342 25.031549,38.4708525 C25.087357,38.368889 25.1435159,38.263058 25.1961649,38.1572269 C25.2200325,38.1097612 25.244251,38.0658114 25.2646086,38.0172909 C25.3249795,37.9016151 25.3779795,37.7852361 25.4313305,37.6649895 C25.4355424,37.6551447 25.4397543,37.6445968 25.4439662,37.6340489 C25.4976682,37.5074735 25.5520722,37.3805466 25.5984033,37.2494005 C25.6191119,37.2050991 25.6363106,37.1600945 25.6496483,37.1154416 C25.6535093,37.1087612 25.6573702,37.1017292 25.6580722,37.0950489 C25.6917675,37.0018753 25.7261649,36.909405 25.7570523,36.8123639 C25.8219861,36.6228525 25.8799,36.4291219 25.931145,36.2353913 C25.9672974,36.107058 25.9967808,35.9752087 26.0262642,35.8433594 C26.0599596,35.7044781 26.090145,35.5655968 26.1133106,35.4224963 C26.1192775,35.3841721 26.1284033,35.3532315 26.1305093,35.3180717 C26.8339,34.7709849 27.415496,34.0899393 27.7177013,33.489058 C28.1929464,32.5509941 28.7334762,31.4687749 29.2834828,30.2993594 C29.6495689,31.8267018 29.7576748,33.4335055 29.5684894,35.0705466" id="Fill-47" fill="#CFD1D2"></path>
                        <path d="M25.1385669,43.7767151 C24.9588583,43.941263 24.7805536,44.095263 24.5941762,44.252779 L24.5906662,44.2559434 C24.5646927,44.2756329 24.5422291,44.2953224 24.5169576,44.3143087 C22.0680768,46.2990804 18.9737192,47.4428292 15.6908781,47.408021 C14.9137788,47.4002858 14.1236927,47.3282082 13.3315007,47.178779 C10.1192093,46.5919616 7.36566623,44.9383954 5.37763974,42.6435142 C5.28532848,42.5426055 5.19758013,42.4381808 5.11263974,42.3309434 C4.86799735,42.0331397 4.63493775,41.7223269 4.41977881,41.405537 C2.40472583,38.4890301 1.50828874,34.8056877 2.1993947,31.0453452 C2.45632185,29.613989 2.92524901,28.2772128 3.56932185,27.0606831 C4.30395099,28.3376877 5.02032848,29.5004228 5.55629536,30.3593772 C5.58472583,30.4103589 5.61666623,30.4620438 5.65211656,30.5102128 C5.84410993,30.8076648 6.06804371,31.1001945 6.31444106,31.3698703 C6.30496424,31.4148749 6.29478543,31.4567151 6.28495762,31.5017196 C6.26530199,31.5955963 6.2484543,31.6894731 6.23160662,31.784053 C6.20563311,31.9232858 6.18246755,32.0590027 6.16281192,32.1950712 C6.10595099,32.5895644 6.0740106,32.9819479 6.06699073,33.3690575 C6.06067285,33.5768521 6.06488477,33.7849982 6.06909669,33.9896283 C6.08559338,34.4519799 6.13683841,34.9097607 6.21756689,35.3552356 C6.27688477,35.6906603 6.35094437,36.019053 6.44606358,36.3428749 C7.4572755,39.9446466 10.4329974,42.8488475 14.3581563,43.5594274 C16.2142093,43.9008292 18.0418318,43.7081534 19.6918517,43.0956694 C19.8396199,43.0380073 19.9838781,42.9799936 20.1288384,42.9191671 C20.259057,42.8639662 20.3927854,42.8059525 20.520196,42.7402037 C20.6107523,42.7001215 20.7013086,42.6530073 20.7960768,42.6027288 C20.8652225,42.5647562 20.9417391,42.5271352 21.0112358,42.4824822 C21.1386464,42.4170849 21.2586861,42.3506329 21.3797788,42.2771489 C21.9136397,41.9522721 22.4162623,41.5792265 22.8792225,41.1650438 L22.8820305,41.1689114 L23.1442225,41.4712858 L24.4344742,42.9634685 L24.6405073,43.2022037 L25.1385669,43.7767151 Z" id="Fill-49" fill="#CFD1D2"></path>
                        <path d="M28.4428185,47.8496283 C28.2845205,47.6664457 28.3041762,47.3890347 28.4873947,47.2315187 C28.6695603,47.0725963 28.947196,47.0922858 29.1044411,47.2758201 L31.2033815,49.7088795 C31.3623815,49.8917105 31.3409709,50.1684183 31.1581033,50.3276922 C30.9762887,50.4852082 30.699004,50.4658703 30.5414079,50.2823361 L28.4428185,47.8496283 Z" id="Fill-51" fill="#CFD1D2"></path>
                        <path d="M22.9873636,41.2832511 L23.1133702,40.9576712 L23.123198,40.9383333 C23.4092576,40.6700639 23.6753106,40.3859726 23.9262709,40.0878174 C24.0189331,39.9844475 24.1014166,39.8838904 24.1730192,39.7812237 C24.2583106,39.6792603 24.3365821,39.576242 24.4043238,39.4672466 C24.4776815,39.3709087 24.5443702,39.2766804 24.6040391,39.1796393 C24.6770457,39.0773242 24.7409265,38.9728995 24.8027013,38.8646073 C24.8823768,38.7359224 24.9588934,38.6058311 25.032251,38.469411 C25.3204166,37.9448265 25.5650589,37.3928174 25.7552974,36.8140868 C25.8384828,36.7641598 25.9206152,36.7166941 26.0097675,36.6660639 C26.038549,36.6481324 26.0718934,36.6316073 26.1031318,36.612621 C26.7858139,36.2075799 27.5544894,35.7480411 28.0904563,35.3721826 C28.7183834,34.9397169 29.2255689,34.9530776 29.5698934,35.070863 C29.5611185,35.1809132 29.5495358,35.2944795 29.535496,35.4055845 C29.5109265,35.6175982 29.4744232,35.8243379 29.4375689,36.0384612 C28.9461781,38.732758 27.6976947,41.0916301 25.9651914,42.9579132 C25.933251,42.9937763 25.9013106,43.0299909 25.8679662,43.0626895 C25.7953106,43.1414475 25.7177411,43.2187991 25.6429795,43.2922831 C25.4787146,43.4628082 25.3098868,43.6227854 25.137549,43.7774886 L24.4338073,42.964242 L22.9873636,41.2832511 Z" id="Fill-53" fill="#B1B4B5"></path>
                        <path d="M15.967496,46.3165196 L19.6904828,43.0951772 C19.838953,43.0389215 19.9825093,42.9787982 20.1274695,42.9183233 C20.2590921,42.8631224 20.3917675,42.8040539 20.5209331,42.7407662 C20.6111384,42.7003324 20.7030987,42.6525151 20.7954099,42.6022365 C20.8663106,42.5660219 20.9414232,42.5280493 21.0119728,42.4840995 C21.1372775,42.4183507 21.2573172,42.3487342 21.3777079,42.2770082 C21.9129728,41.9598667 22.4155954,41.586821 22.8827675,41.1698256 C22.9620921,41.1012639 23.0393106,41.0298895 23.1133702,40.9578119 C23.4029397,40.6874329 23.6784695,40.3956064 23.9262709,40.0876064 C24.0189331,39.9842365 24.1014166,39.8836795 24.1730192,39.7810128 C24.2583106,39.6790493 24.3365821,39.5760311 24.4043238,39.4673872 C24.4776815,39.3706977 24.5443702,39.276821 24.6040391,39.1794283 C24.6770457,39.0771132 24.7409265,38.9726886 24.8027013,38.8647479 C24.8823768,38.7357114 24.9588934,38.6056201 25.032251,38.4695516 L25.987304,37.6425927 L26.0831252,37.5617251 L28.4337278,35.5224557 C28.7569927,35.2411772 29.2066152,35.2063689 29.535496,35.4057251 C29.6127146,35.4500265 29.6794033,35.5024146 29.7376682,35.5730858 L32.7467344,41.013716 C33.0710523,41.388168 33.0047146,41.9654922 32.6063371,42.3114648 L31.3192444,43.4260311 C31.4284033,44.199547 31.4175225,44.944232 31.0521384,45.2599671 L29.484251,46.6160813 L29.8152377,46.9958073 C29.9296616,47.1311726 29.9131649,47.3315836 29.7804894,47.4451498 L29.4765291,47.707442 L28.8138536,48.282305 L28.3947675,48.6451543 C28.2578801,48.7629397 28.0602709,48.7481726 27.9430391,48.6131589 L27.6183702,48.2330813 L25.8142642,49.7920676 L25.7802179,49.822305 C25.7595093,49.8388301 25.7412576,49.8553553 25.720549,49.8666064 C25.3235755,50.1429626 24.6580921,50.0184968 23.9936616,49.7660493 L22.5465159,51.0191452 C22.1523503,51.3608986 21.5668934,51.3461315 21.2467874,50.9741406 L15.8278007,47.6167297 C15.7712907,47.5520356 15.7256616,47.4820676 15.6909132,47.4075288 C15.5368272,47.0499534 15.6410722,46.598853 15.967496,46.3165196" id="Fill-55" fill="#CFD1D2"></path>
                        <path d="M24.8396609,45.0230954 C24.6395947,44.7920954 24.5574623,44.4921822 24.5950185,44.2144196 L24.1166146,43.6599493 C24.0039457,43.5295064 24.0148265,43.3269858 24.148555,43.2106068 L24.7217272,42.7141502 C24.8526477,42.600584 25.0586808,42.6160543 25.1713497,42.7461457 L25.6501046,43.3013192 C25.9340583,43.3079995 26.214151,43.4285977 26.4142172,43.6599493 C26.7880252,44.0941731 26.741343,44.7509584 26.3026013,45.1306845 C25.8687735,45.5051365 25.2138199,45.4580224 24.8396609,45.0230954" id="Fill-57" fill="#A4A5A5"></path>
                        <path d="M33.8400437,53.1308087 C34.197706,52.8196443 34.2377192,52.2746671 33.9277921,51.9167402 L31.6916132,49.3222973 C31.3806331,48.9622607 30.8365934,48.9235849 30.4782291,49.2333429 L30.1774278,49.4942288 C29.8183616,49.8050416 29.7786993,50.3489639 30.0886265,50.7079457 L32.3269113,53.3016854 C32.6361364,53.6613703 33.1791232,53.7018041 33.5385404,53.3909913 L33.8400437,53.1308087 Z M29.635845,48.8673292 L29.9373483,48.6071466 C30.6414411,47.9967721 31.7088119,48.0741237 32.3174344,48.7801329 L34.5550172,51.3738726 C35.1622358,52.0788269 35.0839642,53.1487402 34.3802225,53.7573566 L34.0801232,54.0178909 C33.3760305,54.6272105 32.3086596,54.5495073 31.7003881,53.8442014 L29.4628053,51.2515164 C28.8548848,50.5448041 28.9328053,49.4766489 29.635845,48.8673292 L29.635845,48.8673292 Z" id="Fill-59" fill="#CFD1D2"></path>
                        <path d="M67.1172344,16.2212279 C67.1239033,16.2054059 67.1249563,16.189584 67.1277642,16.1723557 C67.2228834,15.7289904 67.6925126,15.2156571 68.4383735,14.6636479 C69.9922212,13.5104059 72.7440093,12.1827712 75.8074795,10.9374105 C82.0653404,8.39219132 89.6124,6.18450639 90.8503536,6.50094475 C92.9847444,7.04486712 95.8576252,20.5230315 94.1946185,26.3409265 C92.5319629,32.1577667 93.1268967,32.4179493 93.1268967,32.4179493 C93.1268967,32.4179493 91.1135987,33.7220269 88.7766848,34.1168717 C86.4404728,34.5124196 86.112996,33.3648032 85.1074,33.7747667 C84.2822146,34.1115977 81.0734331,35.5155292 78.9594,36.3073283 C78.7667046,36.3776479 78.586996,36.4416388 78.4230821,36.4957849 C78.1893205,36.5699721 77.9878503,36.6234151 77.8260424,36.6515429 C77.2514662,36.7478808 76.4747179,36.5499311 75.6884927,36.177237 C74.3978901,35.566511 73.077453,34.4892142 72.5695656,33.4885658 C70.2056252,28.8221548 66.2362411,20.5135384 67.1172344,16.2212279" id="Fill-61" fill="#FBD4AB"></path>
                        <path d="M67.1172344,16.2212279 C67.1239033,16.2054059 67.1249563,16.189584 67.1277642,16.1723557 C67.1747974,15.9522553 67.5479033,15.6766023 67.7676252,15.4245064 C66.9993007,19.7741274 70.9592079,27.4681502 72.4288172,31.2246251 C72.8584331,32.3240726 73.7236318,33.8478991 74.3585788,34.4913237 C75.9436649,36.0956662 77.3665921,36.3839767 78.2458305,36.4251137 C78.6284132,36.4426936 78.854102,36.4103466 78.854102,36.4103466 C78.590857,36.5492279 78.1805457,36.6075932 77.7102146,36.6142735 C76.8271152,36.6258763 76.417155,36.4223009 75.6884927,36.177237 C74.3364662,35.718753 73.077453,34.4892142 72.5695656,33.4885658 C70.2056252,28.8221548 66.2362411,20.5135384 67.1172344,16.2212279" id="Fill-63" fill="#F8BE95"></path>
                        <path d="M96.9208192,10.0505744 C96.9208192,10.0505744 96.8576404,7.77995342 94.8499583,2.2992411 C94.3104815,0.828505936 92.3445675,-1.27791872 88.399402,1.44204475 C87.2418258,2.23876621 87.4331172,3.16944658 89.5187199,10.2787616 C90.1280444,12.3524877 91.2533291,16.599442 95.2536007,15.9591817 C98.0815543,15.5052685 96.9208192,10.0505744 96.9208192,10.0505744" id="Fill-65" fill="#FBD4AB"></path>
                        <path d="M87.6948881,2.87681142 C87.6847093,2.108921 87.9311066,1.7633 88.4003848,1.44229087 C92.3430934,-1.2780242 94.3104113,0.828752055 94.8491861,2.30124521 C96.8575702,7.77949635 96.920749,10.0508205 96.920749,10.0508205 C96.920749,10.0508205 97.7101331,13.7629941 96.3991728,15.317058 C96.7733318,13.5984461 96.3100205,11.4171311 96.3100205,11.4171311 C96.3100205,11.4171311 96.2468417,9.14615845 94.2384576,3.66755571 C93.6996828,2.19506256 91.7334179,0.0896926941 87.7889543,2.80754658 C87.7566629,2.83075205 87.7243715,2.85325434 87.6948881,2.87681142" id="Fill-67" fill="#F8BE95"></path>
                        <path d="M80.8258424,1.96124977 C81.3660212,1.5899621 82.0062331,1.40220868 82.6425841,1.27211735 C83.1873258,1.16101233 83.7489152,1.11143699 84.3027828,1.17085708 C85.1220013,1.25945982 85.9103325,1.61140959 86.4336636,2.26151461 C86.6572464,2.53892557 86.8260742,2.85677032 86.9331272,3.19641416 C87.155306,3.8992589 87.3255377,4.62390274 87.4982265,5.34151461 C87.8053457,6.62977032 88.0678887,7.92822237 88.2925245,9.2326516 C88.4118623,9.92635479 88.5224252,10.6225192 88.6133325,11.32009 C88.6649285,11.7166927 88.6821272,12.1217338 88.7017828,12.5207977 C88.7589947,13.664195 88.7677695,14.8153274 88.6719483,15.9566151 C88.6593126,16.1046379 88.6449219,16.2530123 88.6284252,16.4017384 C88.6115775,16.5518708 88.6122795,16.7325922 88.5578755,16.8732315 C88.4469616,17.159784 88.3051603,17.4410626 88.0980742,17.6696014 C87.7635775,18.0412406 87.2118159,18.1604324 86.7407828,18.2666151 C86.0268623,18.427647 85.2550278,18.4385466 84.6253457,18.0162772 C83.9359947,17.5542772 83.5400742,16.7427886 83.2396238,15.9949393 C82.7878954,14.8736927 82.5292132,13.6705237 82.2442066,12.4997018 C81.9033921,11.0978799 81.5681934,9.69219041 81.2414185,8.28755571 C80.9939682,7.22748721 80.7489748,6.16214475 80.5913788,5.08414475 C80.4850278,4.35352374 80.4042993,3.59090731 80.5250411,2.85641872 C80.5755841,2.54455114 80.6678954,2.23655114 80.8258424,1.96124977" id="Fill-69" fill="#FBD4AB"></path>
                        <path d="M80.4721113,3.43476256 C80.4917669,2.83599087 80.6093497,2.22737443 80.9726278,1.73970776 C81.3717073,1.20211416 82.0094623,0.93560274 82.6314225,0.755232877 C83.6524623,0.45813242 84.7938927,0.325931507 85.8093166,0.710931507 C86.5214821,0.980255708 87.1076411,1.51187215 87.4207272,2.21084932 C87.5109325,2.41196347 87.5695483,2.62081279 87.6292172,2.83247489 C87.7341642,3.20763014 87.8345483,3.58419178 87.9303695,3.96180822 C88.1125351,4.6783653 88.278906,5.39914155 88.4322901,6.12308219 C88.6716675,7.25311872 88.8822636,8.39159361 89.0605682,9.53499087 C89.1353298,10.013516 89.2111444,10.4930959 89.2532636,10.9772466 C89.3740053,12.366411 89.3964689,13.7819452 89.2887139,15.1714612 C89.2346609,15.8946986 89.1419987,16.6246164 88.9331576,17.3204292 C88.7692437,17.860484 88.5074026,18.5134018 87.959502,18.7683105 C87.5625285,18.9539543 87.0939523,19.0647078 86.6611775,19.1304566 C86.314396,19.1824932 85.9584887,19.1951507 85.6134623,19.1230731 C84.9455219,18.9838402 84.4421974,18.5214886 84.0792702,17.9603379 C83.557694,17.1586941 83.2558397,16.214653 82.9834689,15.3026073 C83.2737404,16.1538265 83.6236808,17.0799361 84.2754755,17.7272283 C84.7928397,18.2409132 85.4723629,18.4258539 86.1880384,18.358347 C86.6474887,18.3136941 87.0971113,18.1881735 87.5316411,18.0362831 C87.7871642,17.9452192 87.9924954,17.8063379 88.1623762,17.5946758 C88.3420848,17.369653 88.541098,17.051105 88.5821642,16.7631461 C88.7509921,15.5747443 88.7646808,14.3624338 88.7274755,13.1624292 C88.7099258,12.5836986 88.6972901,11.9944201 88.6263894,11.4188539 C88.5628596,10.9013014 88.4814291,10.3855068 88.3985947,9.87111872 C88.2020384,8.65318265 87.9714358,7.44157534 87.7032768,6.23805479 C87.5397139,5.49547945 87.3589523,4.7550137 87.163098,4.01982192 C87.0988662,3.78038356 87.0290185,3.57469863 86.899502,3.36233333 C86.8061377,3.20763014 86.6966278,3.06277169 86.5755351,2.93057078 C85.996396,2.29734247 85.1620848,1.99637443 84.3193497,1.95242466 C83.7391576,1.92148402 83.1558066,2.0012968 82.5938662,2.14052968 C82.0006874,2.28784932 81.387151,2.48157991 80.9178728,2.89048858 C80.7409722,3.04484018 80.589343,3.22978082 80.4721113,3.43476256 C80.4907139,2.84091324 80.7711576,2.9073653 80.4721113,3.43476256" id="Fill-71" fill="#F8BE95"></path>
                        <path d="M83.3856371,21.3373776 C83.4514503,21.2825443 83.5131865,21.2177943 83.569681,21.1495443 C83.5149338,21.2195443 83.4537799,21.281961 83.3856371,21.3373776" id="Fill-73" fill="#F7CD9D"></path>
                        <path d="M75.1023338,4.05076256 C77.4813669,2.51990411 78.9639629,2.70378995 79.8428503,3.61231963 C79.8737377,3.66611416 79.9025192,3.72166667 79.9291947,3.77827397 C81.7975325,7.58186301 82.7083603,13.1216438 82.7083603,13.1216438 C82.7083603,13.1216438 84.3913735,20.0126164 82.7360887,20.7355023 C81.1120424,21.4443242 80.1752411,21.4583881 79.332857,20.5066119 C78.6368371,19.3902877 77.9281815,17.548968 76.8499298,14.8202146 C74.1300821,7.93592237 73.7053801,4.95085388 75.1023338,4.05076256" id="Fill-75" fill="#FBD4AB"></path>
                        <path d="M74.3578417,5.39724292 C74.4455901,4.74502831 74.6979543,4.31080457 75.1022987,4.05062192 C77.4813318,2.51976347 78.9639278,2.70364932 79.8428152,3.61253059 C79.8652788,3.63784566 79.8898483,3.66280913 79.9130139,3.68671781 C79.9203848,3.69304658 79.9260007,3.70183653 79.9326695,3.70922009 C79.9565371,3.73699635 79.9793517,3.76336621 80.0028682,3.79254886 C80.0484974,3.84880457 80.0937755,3.90998265 80.1362457,3.97151233 C80.1418616,3.9771379 80.1446695,3.98346667 80.1471265,3.98803744 C80.171696,4.02179087 80.1941596,4.05695068 80.2162722,4.09140731 C80.2369808,4.12691872 80.2587424,4.16207854 80.279451,4.19829315 C80.2959477,4.22571781 80.3117424,4.25279087 80.3261331,4.28127032 C80.3507026,4.32697808 80.3756232,4.37409224 80.3980868,4.42085479 C82.2660735,8.22409224 83.1765503,13.7631699 83.1765503,13.7631699 C83.1765503,13.7631699 83.4692788,14.9603616 83.6904046,16.4078913 C83.6960205,16.4497315 83.7037424,16.4933297 83.7100603,16.5365763 C83.726206,16.6395945 83.9136364,18.4464575 83.9185503,18.5561562 C83.9210073,18.589558 83.9217093,18.6261242 83.9227623,18.659526 C83.937855,19.0111242 83.936802,19.3500648 83.9157424,19.6619324 C83.9143384,19.7217041 83.9080205,19.7783114 83.9024046,19.8359735 C83.8925768,19.9498913 83.8795901,20.0571288 83.8627424,20.1622566 C83.8546695,20.2142932 83.8462457,20.2638685 83.8364179,20.3137954 C83.830802,20.3380557 83.6598682,21.1973616 83.2053318,21.3777315 C81.2130934,22.1624986 79.3138682,22.6216858 78.4890338,18.7136721 C79.6855702,22.0981562 81.1120073,21.4445352 82.7360536,20.7353616 C83.087047,20.58101 83.2874642,20.1510055 83.3871464,19.5677041 C83.2621927,17.4247132 82.6535702,14.934695 82.6535702,14.934695 C82.6535702,14.934695 81.7430934,9.39561735 79.8751066,5.5934347 C79.1320536,4.07839817 77.5564444,3.30453059 74.5779146,5.22285023 C74.4992921,5.27277717 74.4248815,5.33114247 74.3578417,5.39724292" id="Fill-77" fill="#F8BE95"></path>
                        <path d="M90.8757656,18.7682753 C90.8757656,18.7682753 90.9922954,15.0346543 90.5665404,14.796974 C90.428249,14.719974 90.1228848,14.5311658 89.7129245,14.2600836 C89.6830901,14.1873027 89.6493947,14.1373758 89.6107854,14.1155767 C89.4107192,14.0041201 88.8631695,13.6616635 88.1541629,13.1718872 C85.9850238,11.6733758 82.3013483,8.81312466 82.4596464,7.09943516 C82.8152026,3.26806986 87.3110768,4.03314749 87.3110768,4.03314749 C87.3110768,4.03314749 94.0031166,7.43169543 95.0708384,8.01675479 C95.2252755,8.10148995 95.4141099,8.26076393 95.6257589,8.48473196 C97.422494,10.3657822 100.953136,16.7325219 100.179898,19.7900196 C99.228355,23.5517685 93.7967325,31.8238187 93.7967325,31.8238187 C93.7967325,31.8238187 88.9754874,34.7702114 85.8147921,33.2266954 C83.6912821,31.1012845 84.3606265,26.4876132 85.0362887,24.7591566 C85.7919775,22.8260699 90.8757656,18.7682753 90.8757656,18.7682753" id="Fill-79" fill="#FBD4AB"></path>
                        <path d="M100.277193,18.4623498 C100.269823,18.3744502 100.263154,18.2830347 100.252624,18.1916192 C100.252624,18.1603269 100.249114,18.1283315 100.242094,18.0931717 C100.235074,18.0126557 100.224544,17.9314365 100.210505,17.8505689 C100.196465,17.7345416 100.175405,17.6220301 100.154346,17.5060027 C100.133286,17.3899753 100.108717,17.2739479 100.080286,17.1544046 C100.080286,17.1438566 100.077127,17.1297927 100.073617,17.1192447 C100.049048,17.0137653 100.024478,16.9047699 99.9963987,16.7957744 C99.873551,16.3140849 99.7191139,15.8148155 99.5330874,15.3120301 C99.4874583,15.1889708 99.4418291,15.0623954 99.3926901,14.9358201 C99.3154715,14.7354091 99.234743,14.5385142 99.1505046,14.3381032 C99.1150543,14.2537196 99.076796,14.1728521 99.0416967,14.0884685 C98.9644781,13.9056374 98.8802397,13.7228064 98.7960013,13.5399753 C98.7784517,13.5012995 98.760902,13.4661397 98.7433523,13.4309799 C98.6942132,13.3255005 98.6450742,13.220021 98.5959351,13.1180575 C98.4625576,12.843811 98.3221603,12.5695644 98.178253,12.2988338 C98.122094,12.1933543 98.0659351,12.0878749 98.0062662,11.9823954 C97.6622927,11.3495187 97.3042795,10.7518018 96.9532861,10.2208886 C96.9181868,10.1681489 96.8830874,10.1154091 96.8479881,10.0626694 C96.7848093,9.97125388 96.7216305,9.87632237 96.6581007,9.78842283 C96.6268623,9.73568311 96.588253,9.68294338 96.5531536,9.63371963 C96.5145444,9.57746393 96.4724252,9.5247242 96.4373258,9.47198447 C96.3881868,9.40518082 96.3390477,9.34189315 96.2934185,9.28212146 C96.1249417,9.06061461 95.9669947,8.86020365 95.8160675,8.68792055 L95.8125576,8.68440457 C95.8020278,8.67034064 95.791498,8.65979269 95.7806172,8.64924475 C95.7283192,8.59298904 95.6756702,8.53673333 95.6265311,8.48399361 C95.5212331,8.37148219 95.419445,8.27655068 95.3281868,8.19919909 C95.3036172,8.1781032 95.2825576,8.16052329 95.2579881,8.14294338 C95.2263987,8.11481553 95.1912993,8.09371963 95.1597099,8.07262374 C95.1281205,8.05152785 95.1000411,8.03043196 95.0719616,8.01636804 C94.7525576,7.84056895 93.9312331,7.41513516 92.9379219,6.90531781 C92.8571934,6.86312603 92.772955,6.82093425 92.6887166,6.77522648 C92.6711669,6.76819452 92.6536172,6.75764658 92.6395775,6.75061461 C92.5307695,6.69787489 92.4219616,6.64161918 92.3131536,6.58536347 C91.4742795,6.15289772 90.5687166,5.69230411 89.7614318,5.28093425 C89.6771934,5.23874247 89.592955,5.19655068 89.5122265,5.1543589 C89.3472596,5.06997534 89.1893126,4.98559178 89.0348755,4.91175616 C88.957657,4.87308037 88.8839483,4.83440457 88.8102397,4.79572877 C88.5189152,4.64805753 88.2591801,4.51445023 88.0380543,4.40193881 L88.0345444,4.40193881 C87.9854053,4.37381096 87.9397762,4.35271507 87.894147,4.3281032 C87.7818291,4.27184749 87.683551,4.22262374 87.6028225,4.18043196 C87.5536834,4.15582009 87.5115642,4.1347242 87.4764649,4.11714429 C87.4027563,4.07846849 87.3536172,4.05385662 87.3290477,4.04330868 C87.3255377,4.03979269 87.3185179,4.03627671 87.3150079,4.03627671 L87.311498,4.03276073 C87.311498,4.03276073 87.3044781,4.02924475 87.2939483,4.02924475 C87.2728887,4.02221279 87.2307695,4.01166484 87.1640808,3.99760091 L87.1570609,3.99760091 C86.9850742,3.96947306 86.6656702,3.93431324 86.1953391,3.97298904 L86.1883192,3.97298904 L86.1812993,3.97298904 C85.7179881,4.01166484 85.1037497,4.11714429 84.3385841,4.35974703 C84.3350742,4.35974703 84.3315642,4.36326301 84.3210344,4.36326301 L84.3175245,4.36326301 C84.0753391,4.41951872 81.9272596,4.92933607 81.8149417,7.39755525 C81.800902,7.75618539 81.9377894,8.16403927 82.1869947,8.59650502 C83.124147,10.2349525 85.6407695,12.2390621 87.3567762,13.4274639 C87.8765974,13.7860941 88.4557364,14.1658201 88.7400411,14.373263 C88.8453391,14.4435826 88.9085179,14.4963224 88.9155377,14.5139023 C89.062955,14.6123498 89.1994914,14.7002493 89.3156702,14.7740849 C89.5262662,14.9076922 89.6807033,15.0026237 89.7684517,15.0518475 C90.0036172,15.1854548 90.0738159,16.4019845 90.0878556,17.456779 L90.0878556,17.463811 C90.0983854,18.2970986 90.0769748,19.0252584 90.0769748,19.0252584 L90.8740808,18.7682402 C90.8740808,18.7682402 90.8775907,18.617053 90.8811007,18.3744502 C90.8916305,17.9665963 90.8951404,17.2985598 90.8740808,16.6481032 C90.8705709,16.4934 90.863551,16.3386968 90.8530212,16.1910256 C90.8530212,16.1664137 90.8495113,16.1453178 90.8495113,16.1207059 L90.8495113,16.113674 C90.8424914,16.0292904 90.8389815,15.9484228 90.8284517,15.8675553 C90.8249417,15.7972356 90.8179219,15.730432 90.810902,15.6636283 C90.810902,15.6530804 90.8073921,15.6460484 90.8073921,15.6390164 C90.8003722,15.5792447 90.7933523,15.526505 90.7863325,15.4737653 C90.7863325,15.4561854 90.7828225,15.4421215 90.7789616,15.4245416 C90.7722927,15.3577379 90.7617629,15.2944502 90.7477232,15.2346785 C90.7407033,15.2065507 90.7371934,15.1784228 90.7301735,15.150295 C90.7196437,15.1045872 90.7091139,15.0588795 90.6950742,15.0202037 C90.6912132,15.0026237 90.6845444,14.9815279 90.6775245,14.9674639 C90.6705046,14.949884 90.6634848,14.9323041 90.6564649,14.9182402 C90.649445,14.9006603 90.6424252,14.8865963 90.6354053,14.8760484 C90.6283854,14.8619845 90.6213656,14.8514365 90.6143457,14.8408886 C90.600306,14.8197927 90.5827563,14.8057288 90.5652066,14.7951808 C90.5511669,14.7881489 90.5371272,14.7811169 90.5230874,14.7705689 C90.4002397,14.6967333 90.0808358,14.4822584 89.698253,14.2255918 C89.5859351,14.1482402 89.4665974,14.0673726 89.3472596,13.986505 C89.1401735,13.8458658 88.9330874,13.7052265 88.7365311,13.5716192 C88.6242132,13.4942676 88.5154053,13.420432 88.4136172,13.3465963 C88.318849,13.2833087 88.2311007,13.223537 88.1538821,13.1707973 C87.6870609,12.8473269 87.153551,12.4640849 86.6060013,12.0456831 C85.1458689,10.9205689 83.5944781,9.53878813 82.9275907,8.3503863 C82.6889152,7.92846849 82.5660675,7.52764658 82.597657,7.1760484 C82.6643457,6.48691598 82.860902,5.9243589 83.229445,5.57276073 C84.4403722,4.4230347 87.1219616,4.78518082 87.1219616,4.78518082 C87.1219616,4.78518082 87.2237497,4.84495251 87.3992464,4.95043196 L87.4027563,4.95043196 C87.5817629,5.05591142 87.8344781,5.20709863 88.1398424,5.3864137 C88.1854715,5.41454155 88.2342596,5.44618539 88.2872596,5.47431324 C88.7821603,5.76613973 89.3928887,6.12828584 90.0316967,6.50449589 C90.6389152,6.86312603 91.2707033,7.23582009 91.8568623,7.57687032 C92.8922927,8.18513516 93.7838159,8.70198447 94.1383192,8.89536347 C94.6297099,9.16257808 95.4615642,10.1224411 96.3109682,11.4057744 C96.5917629,11.8276922 96.8760675,12.2882858 97.1498424,12.7699753 L97.1498424,12.7734913 C98.5081868,15.1573269 99.6313656,18.0896557 99.1259351,19.96719 C98.5046768,22.2916055 95.314147,27.6253498 93.5837497,30.6452265 C93.3766636,31.0108886 93.1906371,31.3413909 93.0326901,31.6332174 L93.0326901,31.6370849 C92.9028225,31.8617562 92.7971735,32.0586511 92.7094252,32.2274183 C92.7971735,32.1817105 92.9098424,32.1324868 93.0291801,32.083263 C93.355604,31.9566877 93.7311669,31.8445279 93.7908358,31.8265963 C93.7943457,31.8230804 93.7978556,31.8230804 93.7978556,31.8230804 C93.7978556,31.8230804 93.8189152,31.7914365 93.8575245,31.7281489 L93.8575245,31.7249845 C93.8680543,31.7176009 93.8715642,31.707053 93.882094,31.6968566 L93.882094,31.692989 C93.885604,31.6894731 93.8891139,31.6859571 93.8926238,31.6789251 C93.9312331,31.623021 93.9768623,31.5491854 94.0330212,31.4612858 C94.2050079,31.1975872 94.4542132,30.8037973 94.7630874,30.3112082 C94.8153854,30.2268247 94.8683854,30.1389251 94.9280543,30.0475096 C94.9807033,29.9669936 95.0333523,29.8790941 95.0860013,29.7911945 C95.1737497,29.6502037 95.261498,29.5060484 95.3527563,29.3583772 C95.422955,29.2423498 95.4966636,29.1263224 95.5668623,29.006779 C95.7353391,28.7325324 95.9073258,28.4445735 96.0863325,28.1453635 C96.1600411,28.0191397 96.2372596,27.8890484 96.3144781,27.7586055 C96.3285179,27.7375096 96.3425576,27.7132493 96.3565974,27.6882858 C96.4478556,27.5335826 96.5391139,27.3757151 96.6303722,27.2171443 C96.6549417,27.1819845 96.6760013,27.1433087 96.6970609,27.1046329 C97.0410344,26.5139479 97.3885179,25.8986511 97.7289815,25.28019 C97.7324914,25.2692904 97.7395113,25.2622584 97.7430212,25.2520621 C97.9255377,24.9176922 98.1045444,24.583674 98.2765311,24.2496557 C98.3642795,24.0844046 98.4520278,23.9156374 98.5327563,23.7503863 C98.708253,23.4061717 98.8767298,23.0686374 99.0346768,22.7377836 C99.0943457,22.6041763 99.1575245,22.4740849 99.2171934,22.3439936 C99.2944119,22.1717105 99.3716305,22.0029434 99.4418291,21.8380438 C99.5085179,21.682989 99.5716967,21.5353178 99.6313656,21.3876466 C99.873551,20.8004776 100.059577,20.2625324 100.178915,19.7913909 C100.277193,19.3976009 100.308783,18.9514228 100.277193,18.4623498" id="Fill-81" fill="#F8BE95"></path>
                        <path d="M84.0430477,24.3732425 C85.0019616,22.5312196 88.9822265,19.9578726 89.9200808,18.0873703 C90.1541934,17.6176352 90.1615642,16.7344205 90.069955,15.912384 C89.9934384,15.23169 89.8495311,14.5914297 89.7129947,14.2602242 C90.122955,14.5313064 90.3261801,15.0238954 90.6231205,15.457416 C90.6978821,15.5678178 90.7789616,15.8114753 90.8498623,16.1212333 C91.0341338,16.9418635 91.1443457,18.2283612 90.8758358,18.768416 C90.8758358,18.768416 90.8765377,18.7698224 90.8744318,18.770174 C89.9523722,20.618174 86.2922132,22.3188543 84.8601603,24.4277402 C83.2462927,26.8091146 83.7573391,31.2037402 85.8148623,33.2268361 C85.7892397,33.2131237 85.7629152,33.1990598 85.7369417,33.1867539 C83.2884119,32.0655073 82.6453921,27.0591009 84.0430477,24.3732425" id="Fill-83" fill="#F8BE95"></path>
                        <path d="M67.1278344,16.1724963 C67.1836424,15.8810215 67.2612119,15.4935603 67.3528212,15.0498434 C67.7592715,13.1121858 68.4665232,10.1228982 69.057245,9.5782726 C72.2298742,6.65016301 73.6257748,7.09704429 74.3305695,8.12722694 C74.8710993,8.91867443 75.3716159,9.91861963 75.8075497,10.9371995 C76.850351,13.3685009 77.5288212,15.8982498 77.5288212,15.8982498 C77.5288212,15.8982498 78.9131391,19.5418616 78.8569801,21.5814826 C78.7794106,21.8050991 78.6604238,21.9773822 78.490894,22.0789941 C78.2543245,22.2178753 78.0339007,22.3381219 77.8278675,22.4372726 C77.7952252,22.4537977 77.7590728,22.4696196 77.7264305,22.4847384 C77.6586887,22.5167338 77.593053,22.54451 77.5277682,22.5708799 C75.4063642,23.4368662 74.6306689,21.8792863 71.8929205,16.9076881 C71.8813377,16.8883502 71.870106,16.8676059 71.8567682,16.8486196 C71.5170066,16.3296607 70.7160397,16.2730534 69.8631258,16.3194644 C68.7220464,16.3838068 67.4886556,16.6323868 67.150649,16.2058982 C67.1422252,16.194647 67.1348543,16.1840991 67.1278344,16.1724963" id="Fill-85" fill="#FBD4AB"></path>
                        <path d="M68.2000139,11.4830909 C68.4706298,10.5882735 68.7672192,9.84640137 69.0571397,9.57848356 C72.2301199,6.65002237 73.6256695,7.09725525 74.3304642,8.1270863 C76.1622987,10.8023968 77.5287159,15.8984607 77.5287159,15.8984607 C77.5287159,15.8984607 79.749451,21.7420224 78.4490205,22.7679858 C78.5237821,20.737858 77.1229675,17.0499447 77.1229675,17.0499447 C77.1229675,17.0499447 75.7554974,11.954584 73.9236629,9.27857032 C73.2188682,8.25014566 71.8229675,7.80256119 68.6510404,10.7310224 C68.5018682,10.8695521 68.3484841,11.1332507 68.2000139,11.4830909" id="Fill-87" fill="#F8BE95"></path>
                        <path d="M67.1172344,16.2212279 C67.1210954,16.2047027 67.1249563,16.189584 67.1277642,16.1723557 C67.1835722,15.8808808 67.3208106,15.2065155 67.4141748,14.762447 C67.6395126,14.492068 68.0305192,14.346858 68.4959364,14.2927119 C69.8135656,14.1390635 71.0146649,15.4413831 71.856698,16.8488306 C71.8700358,16.8678169 71.8812675,16.8882096 71.8928503,16.9075475 C74.7341417,21.815858 75.4315656,23.4209037 77.527698,22.5710909 C77.5929828,22.5443694 77.6586185,22.5165932 77.7267113,22.4845977 C77.7590026,22.469479 77.795155,22.4540087 77.8281483,22.4374836 C78.0341815,22.3383329 78.2542543,22.2180863 78.4908238,22.0788534 C78.6603536,21.9772416 78.7796914,21.80531 78.8569099,21.581342 C78.8397113,22.1716753 78.7021219,22.6266434 78.374294,22.8196708 C75.4677179,24.5428534 74.8931417,23.3059311 71.7787775,17.650826 C71.4744662,17.0984653 70.7131616,16.6171274 69.8630556,16.3196753 C68.8925589,15.9796799 67.8065854,15.8843968 67.1505788,16.2061091 C67.139347,16.2117347 67.1284662,16.2152507 67.1172344,16.2212279" id="Fill-89" fill="#F8BE95"></path>
                        <path d="M93.9743702,31.3701868 C93.983847,31.4151913 93.9940258,31.4570315 94.0038536,31.5020361 C94.1512709,31.2745521 94.3685358,30.9366662 94.6366947,30.5105292 C94.4447013,30.8079813 94.2207675,31.100511 93.9743702,31.3701868" id="Fill-91" fill="#BE1E2D"></path>
                        <path d="M75.0779748,38.0354333 C75.0783258,38.0389493 75.0818358,38.0385977 75.0821868,38.0421137 C75.1881868,38.2713557 75.2983987,38.5076297 75.4117695,38.7432005 C75.4156305,38.7498808 75.4198424,38.7569128 75.4237033,38.7635932 C75.9231669,39.8095977 76.4208755,40.8239584 76.5240675,40.951237 C76.5658358,41.0046799 76.7792397,41.1991137 77.1411139,41.4716023 L77.1446238,41.4716023 C77.8838159,42.0299402 79.2407563,42.8976845 81.006955,43.4496936 C82.8661669,44.0351046 85.1750013,44.2741913 87.6888159,43.4430132 C91.6739947,42.1301457 93.1818623,39.1510543 93.7497695,37.2541822 C94.044955,36.2630269 94.0849682,35.5696753 94.0849682,35.5696753 C94.0140675,35.835132 93.935796,36.0903922 93.8427828,36.3428397 C93.7866238,36.5052781 93.725902,36.6606845 93.6585113,36.8160909 C91.8575642,41.1495384 87.0889682,43.4641091 81.9163788,42.059826 C77.1593656,40.7662963 75.653604,37.131826 75.2976967,36.0235886 C75.2927828,36.0063603 75.2882199,35.985616 75.279796,35.9683877 C75.226445,35.795753 75.2060874,35.6983603 75.2060874,35.6983603 L74.9410874,35.715237 L74.8273656,35.7226205 L74.8477232,35.9223283 L75.0779748,38.0354333 Z" id="Fill-93" fill="#F7CD9D"></path>
                        <path d="M70.7203921,35.0708982 C70.7274119,35.179542 70.7382927,35.2952178 70.7526834,35.407026 C70.776551,35.6165785 70.8144583,35.8254279 70.8527166,36.0381447 C71.3416503,38.7334963 72.5904848,41.0913137 74.3243921,42.9568936 C74.3545775,42.9931082 74.3886238,43.030026 74.4223192,43.0627247 C74.4942728,43.142889 74.5697364,43.2191858 74.644498,43.2919667 L74.644849,43.2954826 C74.8143788,43.4677658 74.9789947,43.6224689 75.1502795,43.7771721 L75.6483391,43.2026607 L75.8543722,42.9639256 L77.1446238,41.4717429 L77.4068159,41.1693685 L77.4099748,41.1655009 C77.3653987,41.1292863 77.3243325,41.0937749 77.2832662,41.0540443 C77.2457099,41.0139621 77.2042927,40.9742315 77.1667364,40.9380169 C76.8789219,40.6715055 76.6142728,40.384953 76.3629616,40.0875009 C76.2688954,39.9848342 76.1881669,39.8839256 76.1148093,39.7798525 C76.0312728,39.6792954 75.9501934,39.5752224 75.8838556,39.4669301 C75.810849,39.3727018 75.7448623,39.2784735 75.6858954,39.1796744 C75.6125377,39.0791174 75.5462,38.9743411 75.4865311,38.8653457 C75.4665245,38.8312406 75.4433589,38.7974872 75.4237033,38.7637338 C75.4198424,38.7567018 75.4156305,38.7500215 75.4117695,38.7429895 C75.388253,38.7022041 75.3643854,38.6617703 75.3405179,38.6174689 C75.3092795,38.5700032 75.2854119,38.5221858 75.2573325,38.4712041 C75.2015245,38.3692406 75.1453656,38.2634096 75.0927166,38.1575785 C75.068849,38.1097612 75.0446305,38.0658114 75.0242728,38.0176425 C74.963902,37.9019667 74.910902,37.7855877 74.857551,37.6653411 C74.8533391,37.6554963 74.8491272,37.6449484 74.8449152,37.6344005 C74.7912132,37.5078251 74.7368093,37.3808982 74.6904781,37.2497521 C74.6697695,37.2054507 74.6525709,37.1604461 74.6392331,37.1157932 C74.6353722,37.1091128 74.6315113,37.1020808 74.6308093,37.0954005 C74.5971139,37.0022269 74.5627166,36.909405 74.5318291,36.8127155 C74.4668954,36.6232041 74.4089815,36.4294735 74.3577364,36.2357429 C74.3215841,36.1074096 74.2921007,35.9755603 74.2626172,35.843711 C74.2289219,35.7048297 74.1987364,35.5659484 74.1755709,35.4228479 C74.169604,35.3845237 74.1604781,35.3535831 74.1583722,35.3184233 C73.4549815,34.7713365 72.8733854,34.0902909 72.5711801,33.4894096 C72.0959351,32.5513457 71.5554053,31.4691265 71.0053987,30.299711 C70.6389616,31.8270534 70.5312066,33.4338571 70.7203921,35.0708982" id="Fill-95" fill="#CFD1D2"></path>
                        <path d="M75.1503146,43.7770667 C75.3300232,43.9416146 75.5083278,44.0956146 75.6947053,44.2531306 L75.6982152,44.256295 C75.7241887,44.2759845 75.7466523,44.295674 75.7719238,44.3146603 C78.2208046,46.299432 81.3151623,47.4431808 84.5980033,47.4083726 C85.3751026,47.4006374 86.1651887,47.3285598 86.9573808,47.1791306 C90.1696722,46.5923132 92.9232152,44.938747 94.9112417,42.6438658 C95.003553,42.5429571 95.0916523,42.4385324 95.1762417,42.331295 C95.4208841,42.0334913 95.6539437,41.7226785 95.8691026,41.4058886 C97.8845066,38.4893817 98.7805927,34.8060393 98.0894868,31.0456968 C97.8325596,29.6143406 97.3636325,28.2775644 96.7195596,27.0610347 C95.9849305,28.3380393 95.268553,29.501126 94.7325861,30.3597288 C94.7041556,30.4107105 94.6722152,30.4623954 94.6367649,30.5105644 C94.4447715,30.8080164 94.2208377,31.1005461 93.9744404,31.3702219 C93.9839172,31.4152265 93.993745,31.4570667 94.0039238,31.5020712 C94.0235795,31.5962995 94.0404272,31.6898247 94.0572748,31.7844046 C94.0832483,31.9236374 94.1064139,32.0593543 94.1260695,32.1954228 C94.1829305,32.589916 94.2148709,32.9822995 94.2218907,33.3694091 C94.2282086,33.5772037 94.2239967,33.7853498 94.2197848,33.9899799 C94.2032881,34.4523315 94.152043,34.9101123 94.0713146,35.3555872 C94.0119967,35.6910119 93.9379371,36.0197562 93.8428179,36.3428749 C92.831606,39.9449982 89.8558841,42.8491991 85.9307252,43.559779 C84.0746722,43.9011808 82.2470497,43.708505 80.5970298,43.096021 C80.4492616,43.0383589 80.3050033,42.9803452 80.160043,42.9198703 C80.0298245,42.8643178 79.896096,42.8063041 79.7686854,42.7405553 C79.6781291,42.7008247 79.5875728,42.6533589 79.4928046,42.6030804 C79.4236589,42.5651078 79.3471424,42.5274868 79.2776457,42.4828338 C79.1502351,42.4174365 79.0301954,42.3509845 78.9091026,42.2775005 C78.3752417,41.9529753 77.8726192,41.5795781 77.4096589,41.1653954 L77.406851,41.169263 L77.1446589,41.4716374 L75.8544073,42.9638201 L75.6483742,43.2025553 L75.1503146,43.7770667 Z" id="Fill-97" fill="#CFD1D2"></path>
                        <path d="M71.8460278,47.8499799 C72.0043258,47.6667973 71.9846702,47.3893863 71.8014517,47.2318703 C71.6192861,47.0729479 71.3416503,47.0926374 71.1844053,47.2761717 L69.0854649,49.7092311 C68.9264649,49.8920621 68.9478755,50.1687699 69.130743,50.3280438 C69.3125576,50.4855598 69.5898424,50.4662219 69.7474384,50.2826877 L71.8460278,47.8499799 Z" id="Fill-99" fill="#CFD1D2"></path>
                        <path d="M77.3015179,41.2836027 L77.1755113,40.9580228 L77.1656834,40.9386849 C76.8796238,40.6704155 76.6135709,40.3863242 76.3626106,40.0881689 C76.2699483,39.9847991 76.1874649,39.884242 76.1158623,39.7815753 C76.0305709,39.6796119 75.9522993,39.5765936 75.8845576,39.4675982 C75.8112,39.3712603 75.7445113,39.277032 75.6844914,39.1799909 C75.6118358,39.0776758 75.547955,38.9732511 75.4861801,38.8649589 C75.4065046,38.736274 75.3299881,38.6061826 75.2566305,38.4697626 C74.9681139,37.9451781 74.7238225,37.3931689 74.5335841,36.8144384 C74.4503987,36.764863 74.3682662,36.7170457 74.2791139,36.6664155 C74.2503325,36.648484 74.2169881,36.6319589 74.1857497,36.6129726 C73.5030675,36.2079315 72.7343921,35.7483927 72.1984252,35.3728858 C71.570498,34.9400685 71.0633126,34.9534292 70.7189881,35.0712146 C70.7277629,35.1812648 70.7393457,35.2948311 70.7533854,35.4059361 C70.777955,35.6179498 70.8144583,35.8246895 70.8513126,36.0388128 C71.3427033,38.7331096 72.5911868,41.0919817 74.3236901,42.9582648 C74.3556305,42.9941279 74.3875709,43.0303425 74.4209152,43.0630411 C74.4935709,43.1417991 74.5711404,43.2191507 74.645902,43.2926347 C74.8101669,43.4631598 74.9789947,43.623137 75.1513325,43.7778402 L75.8550742,42.9645936 L77.3015179,41.2836027 Z" id="Fill-101" fill="#B1B4B5"></path>
                        <path d="M84.3213854,46.3168712 L80.5983987,43.0955288 C80.4499285,43.0392731 80.3060212,42.9791498 80.1614119,42.9186749 C80.0297894,42.863474 79.8971139,42.8044055 79.7679483,42.7411178 C79.677743,42.700684 79.5857828,42.6528667 79.4934715,42.6025881 C79.4225709,42.5663735 79.3474583,42.5284009 79.2769086,42.4844511 C79.151604,42.4187023 79.0315642,42.3490858 78.9111735,42.2773598 C78.3755576,41.9602183 77.8732861,41.5871726 77.4061139,41.1701772 C77.3267894,41.1016155 77.2495709,41.0302411 77.1755113,40.9581635 C76.8855907,40.6877845 76.6104119,40.395958 76.3626106,40.087958 C76.2699483,39.9845881 76.1874649,39.8840311 76.1158623,39.7813644 C76.0305709,39.6794009 75.9522993,39.5763826 75.8845576,39.4677388 C75.8112,39.3710493 75.7445113,39.2771726 75.6844914,39.1797799 C75.6118358,39.0774648 75.547955,38.9730402 75.4861801,38.8650995 C75.4065046,38.736063 75.3299881,38.6059717 75.2566305,38.4699032 L74.3015775,37.6429443 L74.2057563,37.5620767 L71.8551536,35.5228073 C71.5318887,35.2415288 71.0822662,35.2067205 70.7533854,35.4060767 C70.6761669,35.4503781 70.6094781,35.5027662 70.5512132,35.5734374 L67.542147,41.0140676 C67.2178291,41.3885196 67.2841669,41.9658438 67.6825444,42.3118164 L68.9696371,43.4263826 C68.8604781,44.1998986 68.8713589,44.9445836 69.236743,45.2603187 L70.8046305,46.6164329 L70.4736437,46.9961589 C70.3592199,47.1315242 70.3757166,47.3319352 70.5080411,47.4455014 L70.8123523,47.7077936 L71.4750278,48.2826566 L71.8941139,48.6455059 C72.0310013,48.7632913 72.2286106,48.7485242 72.3458424,48.6135105 L72.6705113,48.2334329 L74.4746172,49.7924192 L74.5086636,49.8226566 C74.5293722,49.8391817 74.5476238,49.8560584 74.5683325,49.866958 C74.965306,50.1433142 75.6307894,50.0188484 76.2952199,49.7664009 L77.7423656,51.0194968 C78.1365311,51.3612502 78.7219881,51.3464831 79.042094,50.9744922 L84.4610808,47.6170813 C84.5175907,47.5523872 84.5632199,47.4827708 84.5979682,47.4078804 C84.7520543,47.050305 84.6478093,46.5992046 84.3213854,46.3168712" id="Fill-103" fill="#CFD1D2"></path>
                        <path d="M75.4492205,45.023447 C75.6492868,44.792447 75.7314192,44.4925338 75.6938629,44.2147712 L76.1722669,43.6603009 C76.2849358,43.529858 76.274055,43.3273374 76.1403265,43.2109584 L75.5671543,42.7145018 C75.4362338,42.6009356 75.2302007,42.6164059 75.1175318,42.7461457 L74.6387768,43.3016708 C74.3548232,43.3083511 74.0747305,43.4289493 73.8746642,43.6603009 C73.5008563,44.0945247 73.5475384,44.75131 73.9862801,45.1310361 C74.4201079,45.5054881 75.0750616,45.458374 75.4492205,45.023447" id="Fill-105" fill="#A4A5A5"></path>
                        <path d="M66.7504464,53.3914132 C67.1098636,53.702226 67.6524993,53.6617922 67.9617245,53.3021073 L70.2000093,50.7083676 C70.5102874,50.3493858 70.4706252,49.8054635 70.1112079,49.4946507 L69.8107576,49.2337648 C69.4520424,48.9240068 68.9083536,48.9623311 68.5973735,49.3227192 L66.3611947,51.9171621 C66.0512675,52.275089 66.0912808,52.8200662 66.448943,53.1312306 L66.7504464,53.3914132 Z M70.8258305,51.2519384 L68.5882477,53.8446233 C67.9803272,54.5499292 66.9129563,54.6276324 66.2088636,54.0183128 L65.9087642,53.7577785 C65.2050225,53.1491621 65.126751,52.0792489 65.7339695,51.3742945 L67.9715523,48.7805548 C68.5801748,48.0745457 69.6475457,47.9968425 70.3516384,48.6075685 L70.6527907,48.8677511 C71.3561815,49.4767192 71.434102,50.5448744 70.8258305,51.2519384 L70.8258305,51.2519384 Z" id="Fill-107" fill="#CFD1D2"></path>
                        <path d="M61.0296755,53.1850603 C60.9671987,53.2849142 60.9422781,53.4076219 60.9668477,53.5313845 C61.0191457,53.7880511 61.269053,53.9536539 61.5245762,53.9016174 L66.9579536,52.7926767 C67.2141788,52.739937 67.3784437,52.4906539 67.3261457,52.2346904 C67.2745497,51.9780237 67.0246424,51.812421 66.7691192,51.8644575 L61.3360927,52.9730466 C61.2037682,53.0001196 61.0960132,53.0795808 61.0296755,53.1850603" id="Fill-109" fill="#CFD1D2"></path>
                    </g>
                </g>
            </g>
        </g>
    </g>
</svg>