<?xml version="1.0" encoding="UTF-8"?>
<svg width="177px" height="153px" viewBox="0 0 177 153" version="1.1" xmlns="http://www.w3.org/2000/svg" xmlns:xlink="http://www.w3.org/1999/xlink">
    <!-- Generator: Sketch 47.1 (45422) - http://www.bohemiancoding.com/sketch -->
    <title>ico-begging</title>
    <desc>Created with Sketch.</desc>
    <defs>
        <polygon id="path-1" points="0 135.9996 0 0.90035 154.4052 0.90035 154.4052 135.9996"></polygon>
        <polygon id="path-3" points="0 135.9996 0 0.90035 154.4052 0.90035 154.4052 135.9996"></polygon>
    </defs>
    <g id="Page-1" stroke="none" stroke-width="1" fill="none" fill-rule="evenodd">
        <g id="ico-begging" transform="translate(-65.000000, -1.000000)">
            <g id="hand" transform="translate(208.072740, 101.366969) scale(-1, 1) rotate(-300.000000) translate(-208.072740, -101.366969) translate(130.572740, 32.866969)">
                <g id="Group-3" transform="translate(0.000000, 0.100000)">
                    <mask id="mask-2" fill="white">
                        <use xlink:href="#path-1"></use>
                    </mask>
                    <g id="Clip-2"></g>
                    <path d="M112.535434,112.003818 C107.777248,99.990859 102.700088,87.2191715 101.1502,83.4896 C98.0002,75.9106 101.7412,72.5636 101.7412,72.5636 C93.7682,74.6306 76.4422,64.1956 72.6032,62.7196 C68.7642,61.2436 40.5122,45.3936 37.6572,43.2276 C34.8032,41.0596 29.7822,38.3076 26.8292,36.0426 C23.8762,33.7786 16.4932,30.9246 12.7442,26.3956 C9.0172,21.8936 4.0722,20.2516 4.0142,20.2316 C3.0912,19.1326 2.8602,18.3096 3.7952,17.4376 C6.0102,15.3706 11.9162,16.6996 11.9162,16.6996 C11.9162,16.6996 4.3852,9.1696 2.1702,7.5456 C-0.0448,5.9206 -0.7828,4.0016 0.9892,2.2286 C2.7612,0.4576 7.6342,0.4576 9.4052,2.2286 C9.4052,2.2286 11.0302,0.3096 15.1642,2.0816 C19.2992,3.8536 23.1382,5.7726 26.6822,7.9876 C30.2262,10.2026 36.4272,14.1896 38.9372,14.6326 C41.4472,15.0756 52.2272,20.2436 54.7362,20.6856 C57.2472,21.1296 64.3342,23.1966 67.5832,25.5586 C67.5832,25.5586 67.7382,25.5766 67.9842,25.6056 C70.2152,26.6186 74.3582,28.2876 75.8162,28.3096 C77.9962,28.8026 80.2722,29.0566 82.3492,28.7636 C87.7602,28.0006 87.0572,25.8006 78.8292,24.5986 C78.9302,24.4986 79.0022,24.4276 79.0022,24.4276 C79.0022,24.4276 78.8052,24.4896 78.4462,24.5426 C77.1432,24.3626 75.6572,24.2076 73.9892,24.0856 C73.6972,24.0076 73.4152,23.9376 73.0962,23.8366 C69.0602,22.5576 66.8942,18.4226 66.8942,18.4226 C65.0232,19.2106 61.3812,17.4376 56.6562,13.2056 C53.2962,10.1946 53.1242,7.1926 53.3042,5.7046 C53.9782,5.0796 54.8112,4.6776 55.6222,4.5926 C58.4282,4.2966 63.7432,5.4776 70.0932,11.0886 C76.4422,16.6996 82.3492,18.0286 87.2212,20.9816 C92.0942,23.9346 97.5582,28.6596 100.0672,30.7266 C102.5772,32.7946 111.2892,39.7346 117.1952,56.8626 C120.020307,65.0543111 123.925967,75.2049237 128.104723,85.0370189 L112.535434,112.003818 Z" id="Combined-Shape" fill="#FBD4AB" mask="url(#mask-2)"></path>
                </g>
                <path d="M75.1535,27.2304 C75.2145,27.2724 75.2855,27.3234 75.3235,27.3504 C75.2715,27.3104 75.2225,27.2694 75.1535,27.2304" id="Fill-6" fill="#F7C89D"></path>
                <path d="M112.535169,112.104277 C107.777223,100.091301 102.70029,87.3195776 101.1504,83.59 C98.0004,76.011 101.7414,72.664 101.7414,72.664 C93.7674,74.73 76.4424,64.296 72.6024,62.819 C68.7634,61.344 40.5124,45.494 37.6574,43.328 C34.8034,41.16 29.7824,38.407 26.8294,36.143 C23.8764,33.879 16.4934,31.024 12.7444,26.496 C9.0164,21.994 4.0724,20.351 4.0134,20.332 C5.2794,21.839 7.8544,23.868 10.5874,27.283 C15.3114,33.189 28.0114,41.163 36.2794,46.774 C44.5484,52.386 70.8314,68.037 83.2344,74.238 C95.6374,80.44 89.1404,81.621 94.4564,86.642 C97.9027762,89.8964787 102.962669,109.718191 106.095487,123.258134 L112.535169,112.104277 Z" id="Combined-Shape" fill="#F9BE92"></path>
                <path d="M76.3439,28.1698 C76.4429,26.9878 79.0019,24.5268 79.0019,24.5268 C79.0019,24.5268 77.1309,25.2168 73.0959,23.9368 C69.0599,22.6568 66.8939,18.5228 66.8939,18.5228 C65.0239,19.3108 61.3809,17.5378 56.6569,13.3058 C53.2959,10.2948 53.1239,7.2928 53.3039,5.8048 C51.6459,7.3398 50.9549,10.2558 53.9979,13.4028 C58.2809,17.8328 63.5959,21.0818 68.4689,23.4438 C72.3749,25.3388 74.4679,26.7408 75.1539,27.2308 C75.2229,27.2698 75.2719,27.3108 75.3229,27.3508 C75.3939,27.4018 75.4309,27.4318 75.4309,27.4318 C75.4309,27.4318 75.3939,27.4018 75.3229,27.3508 C75.2719,27.3108 75.2229,27.2698 75.1539,27.2308 C73.7899,26.4458 69.3339,25.8668 67.9849,25.7058 C70.7009,26.9398 76.2619,29.1508 76.3439,28.1698" id="Fill-14" fill="#F9BE92"></path>
                <path d="M2.7121,19.8515 C2.6681,20.2485 3.7821,21.7985 6.0361,23.7835 C4.2001,21.4045 3.6511,20.1765 3.5121,19.5805 C2.7741,19.3925 2.7121,19.8515 2.7121,19.8515" id="Fill-20" fill="#EFA58D"></path>
                <path d="M9.3498,24.5487 C8.9598,23.5837 6.8538,21.6157 4.9758,20.3317 C4.3018,19.8707 3.8448,19.6657 3.5118,19.5807 C3.6518,20.1767 4.2008,21.4037 6.0368,23.7827 C6.2938,24.0107 6.5578,24.2397 6.8458,24.4787 C7.1118,24.6967 7.3398,24.8757 7.5498,25.0357 C7.7298,24.5287 8.1928,24.0677 9.3498,24.5487" id="Fill-22" fill="#F2B9A0"></path>
                <path d="M7.55,25.0361 C9.562,26.5661 9.207,25.5621 9.405,24.9211 C9.435,24.8261 9.409,24.6971 9.35,24.5491 C8.193,24.0671 7.73,24.5291 7.55,25.0361" id="Fill-24" fill="#F6CABB"></path>
                <path d="M78.4465,24.6425 C77.1425,24.4625 75.6575,24.3075 73.9895,24.1855 C76.2625,24.7905 77.7265,24.7485 78.4465,24.6425" id="Fill-26" fill="#F7C89D"></path>
                <path d="M82.3488,28.8632 C87.7598,28.1002 87.0568,25.9002 78.8288,24.6982 C78.2678,25.2592 76.4268,27.1682 76.3438,28.1702 C76.3288,28.3442 76.1338,28.4152 75.8168,28.4102 C77.9958,28.9022 80.2728,29.1562 82.3488,28.8632" id="Fill-28" fill="#F4C398"></path>
                <path d="M11.2502,3.8925 C11.2502,3.8925 17.5262,9.9335 17.6012,13.6995 C17.6012,13.6995 19.2952,13.1085 23.4322,16.2835 C27.5672,19.4575 29.8562,21.0075 30.0042,23.0015 C30.1512,24.9955 29.2642,24.2725 31.4802,23.3715 C33.6972,22.4685 44.4002,30.9015 44.1792,33.7065 C43.9572,36.5115 45.4292,32.1145 45.1732,31.6555 C44.9172,31.1965 35.4672,24.1995 32.4402,22.3085 C29.4132,20.4165 24.3902,15.6925 23.4322,15.1015 C22.4742,14.5105 19.8682,12.7915 16.8892,9.3325 C13.9092,5.8725 11.2502,3.8925 11.2502,3.8925" id="Fill-30" fill="#F9BE92"></path>
                <path d="M18.6564,21.2812 C18.6564,21.2812 20.7014,24.0362 20.1104,26.6562 C20.1104,26.6562 22.2524,25.1882 26.7554,28.4142 C31.2594,31.6392 32.8834,33.4112 32.7354,35.3312 C32.7354,35.3312 36.6734,35.1362 43.0714,38.5792 C43.0714,38.5792 46.0984,36.0692 35.0244,33.8542 C35.0244,33.8542 33.4004,33.4112 31.6284,31.4182 C29.8564,29.4252 22.9794,25.4462 22.4304,25.0362 C21.8834,24.6262 19.4054,22.0102 18.6564,21.2812" id="Fill-32" fill="#F9BE92"></path>
                <path d="M15.3889,6.8036 C15.3889,6.8036 21.1449,6.8036 27.7939,12.7616 C27.7939,12.7616 31.9099,14.0856 36.6419,18.2846 C36.6419,18.2846 45.2929,24.6126 48.0249,26.6446 C48.0249,26.6446 46.2459,28.0066 45.9509,28.8636 C45.6559,29.7196 46.2049,26.7056 43.9009,24.7056 C41.5949,22.7056 36.6489,17.5376 35.1719,18.6456 C35.1719,18.6456 34.8029,16.9476 31.5549,15.1016 C28.3059,13.2556 26.0909,11.6316 25.0579,12.2226 C25.0579,12.2226 25.0579,11.1886 23.2119,10.1556 C21.3669,9.1216 17.9759,6.8476 15.3889,6.8036" id="Fill-34" fill="#F9BE92"></path>
            </g>
            <g id="hand-copy" transform="translate(98.072740, 101.366969) rotate(-300.000000) translate(-98.072740, -101.366969) translate(20.572740, 32.866969)">
                <g id="Group-3" transform="translate(0.000000, 0.100000)">
                    <mask id="mask-4" fill="white">
                        <use xlink:href="#path-3"></use>
                    </mask>
                    <g id="Clip-2"></g>
                    <path d="M112.535434,112.003818 C107.777248,99.990859 102.700088,87.2191715 101.1502,83.4896 C98.0002,75.9106 101.7412,72.5636 101.7412,72.5636 C93.7682,74.6306 76.4422,64.1956 72.6032,62.7196 C68.7642,61.2436 40.5122,45.3936 37.6572,43.2276 C34.8032,41.0596 29.7822,38.3076 26.8292,36.0426 C23.8762,33.7786 16.4932,30.9246 12.7442,26.3956 C9.0172,21.8936 4.0722,20.2516 4.0142,20.2316 C3.0912,19.1326 2.8602,18.3096 3.7952,17.4376 C6.0102,15.3706 11.9162,16.6996 11.9162,16.6996 C11.9162,16.6996 4.3852,9.1696 2.1702,7.5456 C-0.0448,5.9206 -0.7828,4.0016 0.9892,2.2286 C2.7612,0.4576 7.6342,0.4576 9.4052,2.2286 C9.4052,2.2286 11.0302,0.3096 15.1642,2.0816 C19.2992,3.8536 23.1382,5.7726 26.6822,7.9876 C30.2262,10.2026 36.4272,14.1896 38.9372,14.6326 C41.4472,15.0756 52.2272,20.2436 54.7362,20.6856 C57.2472,21.1296 64.3342,23.1966 67.5832,25.5586 C67.5832,25.5586 67.7382,25.5766 67.9842,25.6056 C70.2152,26.6186 74.3582,28.2876 75.8162,28.3096 C77.9962,28.8026 80.2722,29.0566 82.3492,28.7636 C87.7602,28.0006 87.0572,25.8006 78.8292,24.5986 C78.9302,24.4986 79.0022,24.4276 79.0022,24.4276 C79.0022,24.4276 78.8052,24.4896 78.4462,24.5426 C77.1432,24.3626 75.6572,24.2076 73.9892,24.0856 C73.6972,24.0076 73.4152,23.9376 73.0962,23.8366 C69.0602,22.5576 66.8942,18.4226 66.8942,18.4226 C65.0232,19.2106 61.3812,17.4376 56.6562,13.2056 C53.2962,10.1946 53.1242,7.1926 53.3042,5.7046 C53.9782,5.0796 54.8112,4.6776 55.6222,4.5926 C58.4282,4.2966 63.7432,5.4776 70.0932,11.0886 C76.4422,16.6996 82.3492,18.0286 87.2212,20.9816 C92.0942,23.9346 97.5582,28.6596 100.0672,30.7266 C102.5772,32.7946 111.2892,39.7346 117.1952,56.8626 C120.020307,65.0543111 123.925967,75.2049237 128.104723,85.0370189 L112.535434,112.003818 Z" id="Combined-Shape" fill="#FBD4AB" mask="url(#mask-4)"></path>
                </g>
                <path d="M75.1535,27.2304 C75.2145,27.2724 75.2855,27.3234 75.3235,27.3504 C75.2715,27.3104 75.2225,27.2694 75.1535,27.2304" id="Fill-6" fill="#F7C89D"></path>
                <path d="M112.535169,112.104277 C107.777223,100.091301 102.70029,87.3195776 101.1504,83.59 C98.0004,76.011 101.7414,72.664 101.7414,72.664 C93.7674,74.73 76.4424,64.296 72.6024,62.819 C68.7634,61.344 40.5124,45.494 37.6574,43.328 C34.8034,41.16 29.7824,38.407 26.8294,36.143 C23.8764,33.879 16.4934,31.024 12.7444,26.496 C9.0164,21.994 4.0724,20.351 4.0134,20.332 C5.2794,21.839 7.8544,23.868 10.5874,27.283 C15.3114,33.189 28.0114,41.163 36.2794,46.774 C44.5484,52.386 70.8314,68.037 83.2344,74.238 C95.6374,80.44 89.1404,81.621 94.4564,86.642 C97.9027762,89.8964787 102.962669,109.718191 106.095487,123.258134 L112.535169,112.104277 Z" id="Combined-Shape" fill="#F9BE92"></path>
                <path d="M76.3439,28.1698 C76.4429,26.9878 79.0019,24.5268 79.0019,24.5268 C79.0019,24.5268 77.1309,25.2168 73.0959,23.9368 C69.0599,22.6568 66.8939,18.5228 66.8939,18.5228 C65.0239,19.3108 61.3809,17.5378 56.6569,13.3058 C53.2959,10.2948 53.1239,7.2928 53.3039,5.8048 C51.6459,7.3398 50.9549,10.2558 53.9979,13.4028 C58.2809,17.8328 63.5959,21.0818 68.4689,23.4438 C72.3749,25.3388 74.4679,26.7408 75.1539,27.2308 C75.2229,27.2698 75.2719,27.3108 75.3229,27.3508 C75.3939,27.4018 75.4309,27.4318 75.4309,27.4318 C75.4309,27.4318 75.3939,27.4018 75.3229,27.3508 C75.2719,27.3108 75.2229,27.2698 75.1539,27.2308 C73.7899,26.4458 69.3339,25.8668 67.9849,25.7058 C70.7009,26.9398 76.2619,29.1508 76.3439,28.1698" id="Fill-14" fill="#F9BE92"></path>
                <path d="M2.7121,19.8515 C2.6681,20.2485 3.7821,21.7985 6.0361,23.7835 C4.2001,21.4045 3.6511,20.1765 3.5121,19.5805 C2.7741,19.3925 2.7121,19.8515 2.7121,19.8515" id="Fill-20" fill="#EFA58D"></path>
                <path d="M9.3498,24.5487 C8.9598,23.5837 6.8538,21.6157 4.9758,20.3317 C4.3018,19.8707 3.8448,19.6657 3.5118,19.5807 C3.6518,20.1767 4.2008,21.4037 6.0368,23.7827 C6.2938,24.0107 6.5578,24.2397 6.8458,24.4787 C7.1118,24.6967 7.3398,24.8757 7.5498,25.0357 C7.7298,24.5287 8.1928,24.0677 9.3498,24.5487" id="Fill-22" fill="#F2B9A0"></path>
                <path d="M7.55,25.0361 C9.562,26.5661 9.207,25.5621 9.405,24.9211 C9.435,24.8261 9.409,24.6971 9.35,24.5491 C8.193,24.0671 7.73,24.5291 7.55,25.0361" id="Fill-24" fill="#F6CABB"></path>
                <path d="M78.4465,24.6425 C77.1425,24.4625 75.6575,24.3075 73.9895,24.1855 C76.2625,24.7905 77.7265,24.7485 78.4465,24.6425" id="Fill-26" fill="#F7C89D"></path>
                <path d="M82.3488,28.8632 C87.7598,28.1002 87.0568,25.9002 78.8288,24.6982 C78.2678,25.2592 76.4268,27.1682 76.3438,28.1702 C76.3288,28.3442 76.1338,28.4152 75.8168,28.4102 C77.9958,28.9022 80.2728,29.1562 82.3488,28.8632" id="Fill-28" fill="#F4C398"></path>
                <path d="M11.2502,3.8925 C11.2502,3.8925 17.5262,9.9335 17.6012,13.6995 C17.6012,13.6995 19.2952,13.1085 23.4322,16.2835 C27.5672,19.4575 29.8562,21.0075 30.0042,23.0015 C30.1512,24.9955 29.2642,24.2725 31.4802,23.3715 C33.6972,22.4685 44.4002,30.9015 44.1792,33.7065 C43.9572,36.5115 45.4292,32.1145 45.1732,31.6555 C44.9172,31.1965 35.4672,24.1995 32.4402,22.3085 C29.4132,20.4165 24.3902,15.6925 23.4322,15.1015 C22.4742,14.5105 19.8682,12.7915 16.8892,9.3325 C13.9092,5.8725 11.2502,3.8925 11.2502,3.8925" id="Fill-30" fill="#F9BE92"></path>
                <path d="M18.6564,21.2812 C18.6564,21.2812 20.7014,24.0362 20.1104,26.6562 C20.1104,26.6562 22.2524,25.1882 26.7554,28.4142 C31.2594,31.6392 32.8834,33.4112 32.7354,35.3312 C32.7354,35.3312 36.6734,35.1362 43.0714,38.5792 C43.0714,38.5792 46.0984,36.0692 35.0244,33.8542 C35.0244,33.8542 33.4004,33.4112 31.6284,31.4182 C29.8564,29.4252 22.9794,25.4462 22.4304,25.0362 C21.8834,24.6262 19.4054,22.0102 18.6564,21.2812" id="Fill-32" fill="#F9BE92"></path>
                <path d="M15.3889,6.8036 C15.3889,6.8036 21.1449,6.8036 27.7939,12.7616 C27.7939,12.7616 31.9099,14.0856 36.6419,18.2846 C36.6419,18.2846 45.2929,24.6126 48.0249,26.6446 C48.0249,26.6446 46.2459,28.0066 45.9509,28.8636 C45.6559,29.7196 46.2049,26.7056 43.9009,24.7056 C41.5949,22.7056 36.6489,17.5376 35.1719,18.6456 C35.1719,18.6456 34.8029,16.9476 31.5549,15.1016 C28.3059,13.2556 26.0909,11.6316 25.0579,12.2226 C25.0579,12.2226 25.0579,11.1886 23.2119,10.1556 C21.3669,9.1216 17.9759,6.8476 15.3889,6.8036" id="Fill-34" fill="#F9BE92"></path>
            </g>
        </g>
    </g>
</svg>