<?xml version="1.0" encoding="UTF-8"?>
<svg width="49px" height="50px" viewBox="0 0 49 50" version="1.1" xmlns="http://www.w3.org/2000/svg" xmlns:xlink="http://www.w3.org/1999/xlink">
    <!-- Generator: Sketch 43.2 (39069) - http://www.bohemiancoding.com/sketch -->
    <title>ico-ballbusting</title>
    <desc>Created with Sketch.</desc>
    <defs>
        <polygon id="path-1" points="18.3688046 0.0643015563 18.3688046 34.770887 0.10873977 34.770887 0.10873977 0.0643015563 18.3688046 0.0643015563"></polygon>
    </defs>
    <g id="Page-1" stroke="none" stroke-width="1" fill="none" fill-rule="evenodd">
        <g id="board-color" transform="translate(-375.000000, -34.000000)">
            <g id="25.-Ballbusting" transform="translate(361.000000, -2.000000)">
                <g id="ico-ballbusting" transform="translate(13.000000, 33.000000)">
                    <g id="ico-penis" transform="translate(35.320508, 23.392305) rotate(-45.000000) translate(-35.320508, -23.392305) translate(23.320508, 3.392305)">
                        <g id="Group-3" transform="translate(0.000000, 0.128906)" fill="#FBD4AB">
                            <path d="M22.8078892,4.25505436 C22.7445995,5.65298003 21.8711283,6.82938475 21.831526,8.23449283 C21.8278248,8.38418957 21.8226432,8.53577643 21.7682363,8.67413251 C21.6472087,8.97503809 21.3052225,9.13229527 20.9872938,9.13040516 C20.6689949,9.13040516 20.3651306,9.00112161 20.0723697,8.87561828 C19.0001467,10.6481638 18.3002593,12.5356281 17.6999329,14.51911 C17.1340271,16.385783 16.7128363,18.354522 16.7128363,20.3175907 C16.7128363,24.5650468 17.6170271,29.2740679 17.6170271,32.2286885 C17.6170271,35.1833091 15.7183375,35.644874 12.1023145,36.6258413 C10.014126,37.1924964 7.01101333,38.0865187 4.55011908,38.1730857 C2.75284092,38.2377275 1.24314207,37.8683999 0.59025931,36.6258413 C-0.510832644,34.5259287 0.753109885,32.3950182 0.809367356,32.3024028 C0.809367356,32.3005127 0.809367356,32.3005127 0.810847816,32.2990006 C0.810847816,32.2990006 0.219774253,31.5437125 0.0461903448,30.4429122 C-0.0278326437,29.9628241 -0.0245016092,29.4162042 0.142050115,28.8400985 C1.30088,24.8402469 7.0398823,27.1817157 7.0398823,27.1817157 C7.0398823,20.4412039 10.294303,5.17478209 15.8993237,1.38889093 C17.7669237,0.127809266 20.4321214,-0.453966719 21.9888248,1.6107899 C22.3937306,2.14795928 22.6561421,2.79626715 22.759034,3.4665003 C22.8004869,3.72695751 22.816772,3.99270704 22.8078892,4.25505436" id="Fill-1"></path>
                        </g>
                        <path d="M0.811032874,32.4277549 C0.811032874,32.4277549 0.21995931,31.6724668 0.0463754023,30.5716665 C0.375407586,30.8839127 0.765878851,31.127737 1.12192943,31.1591128 C1.82181678,31.2199744 2.55205356,30.6087126 3.19753402,30.4038247 C4.67651333,29.9346993 6.37608115,30.3429631 6.37608115,30.3429631 C6.37608115,30.3429631 2.5975777,30.1581103 0.811032874,32.4277549" id="Fill-4" fill="#F9BE92"></path>
                        <g id="Group-8" transform="translate(4.441379, 3.531104)">
                            <mask id="mask-2" fill="white">
                                <use xlink:href="#path-1"></use>
                            </mask>
                            <g id="Clip-7"></g>
                            <path d="M18.3665099,0.852855621 C18.3032202,2.25078128 17.429749,3.427186 17.3901467,4.83229408 C17.3864455,4.98199083 17.3812639,5.13357768 17.326857,5.27193377 C17.2058294,5.57283934 16.8638432,5.73009653 16.5459145,5.72820642 C16.2276156,5.72820642 15.9237513,5.59892287 15.6309903,5.47341954 C14.5587674,7.24596508 13.85888,9.13342934 13.2585536,11.1169112 C12.6926478,12.9835843 12.271457,14.9523233 12.271457,16.9153919 C12.271457,21.1628481 13.1756478,25.8718691 13.1756478,28.8264897 C13.1756478,31.7811103 11.2769582,32.2426753 7.66093517,33.2236426 C5.57274667,33.7902977 2.56963402,34.6843199 0.10873977,34.770887 C0.242351264,34.7285485 0.376332874,34.6805397 0.508463908,34.6287507 C2.97972138,33.6629043 4.72814437,31.4393784 6.8218846,29.7885559 C7.4114777,29.3232108 8.0332708,28.900204 8.57585931,28.3777775 C11.6548455,25.4099262 10.4145903,20.7307688 10.2861605,16.9006491 C10.2084363,14.6253342 10.5034179,12.3594698 10.9101743,10.1268714 C11.1144777,9.00792601 11.2717766,7.82585096 11.5863743,6.73261109 C11.8376823,5.85938008 12.271457,5.22770518 12.3221628,4.25278623 C12.3291949,4.10119938 12.3310455,3.94432021 12.2840409,3.8002938 C12.1755972,3.46763437 11.8465651,3.27181893 11.5356685,3.12779251 C10.4401283,2.62010886 9.23022253,2.36910219 8.0280892,2.40047803 C9.52853517,2.0182977 11.1000432,2.42807364 12.5916064,2.8382276 C13.2911237,3.02837271 13.9891605,3.22381012 14.6871972,3.41055303 C15.182411,3.5436168 15.9056156,3.80936633 16.4063811,3.65626739 C16.8945628,3.50846075 17.1477214,2.97469357 17.3468432,2.49649564 C17.6866087,1.67278552 18.0374777,0.882341343 18.3176547,0.0643015563 C18.3591076,0.324758771 18.3753926,0.590508295 18.3665099,0.852855621" id="Fill-6" fill="#F9BE92" mask="url(#mask-2)"></path>
                        </g>
                    </g>
                    <g id="ico-foot" transform="translate(20.000000, 31.500000) rotate(-6.000000) translate(-20.000000, -31.500000) translate(3.000000, 8.000000)">
                        <g id="Group-3" transform="translate(0.000000, 0.172051)">
                            <path d="M32.3487562,44.6623606 C32.8346527,43.5106777 32.5433424,41.8956289 31.5692734,41.3918728 C30.8648941,41.0277996 28.4228941,39.776263 28.4228941,39.776263 C28.4228941,39.776263 25.68617,36.5618728 23.9109975,31.0643118 C22.1358251,25.5723606 21.3335838,18.5601655 18.5342734,11.8284581 C16.7249631,7.47753131 15.4937217,3.60118985 14.7102562,0.593799606 L0.996480306,0.593799606 C4.1001872,7.99923863 5.027601,12.8926289 4.77099755,14.3640679 C4.384101,16.6079703 0.833756168,23.4630923 3.53634237,26.391385 C6.23892858,29.3196777 14.6653079,32.7528484 16.8159975,36.7806533 C18.9666872,40.8140679 20.40617,43.7030923 21.7716872,44.6623606 C23.1315148,45.6216289 25.487032,45.7282142 26.3518596,45.5991899 C27.2166872,45.4701655 29.48117,45.1952874 30.3630665,45.481385 C31.2392734,45.7674825 31.8793596,45.7758972 32.3487562,44.6623606" id="Fill-1" fill="#F8BE92"></path>
                            <path d="M33.4899224,44.4576537 C33.975819,43.3059707 33.6845086,41.690922 32.7104397,41.1871659 C32.0060603,40.8230927 29.5640603,39.5715561 29.5640603,39.5715561 C29.5640603,39.5715561 26.8273362,36.3571659 25.0521638,30.8596049 C23.2769914,25.3676537 22.47475,18.3554585 19.6754397,11.6237512 C17.8661293,7.27282439 16.6348879,3.39648293 15.8514224,0.389092683 L2.13764655,0.389092683 C5.24135345,7.79453171 6.16876724,12.687922 5.91216379,14.159361 C5.52526724,16.4032634 1.97492241,23.2583854 4.67750862,26.186678 C7.38009483,29.1149707 15.8064741,32.5481415 17.9571638,36.5759463 C20.1078534,40.609361 21.5473362,43.4983854 22.9128534,44.4576537 C24.272681,45.416922 26.6281983,45.5235073 27.4930259,45.3944829 C28.3578534,45.2654585 30.6223362,44.9905805 31.5042328,45.276678 C32.3804397,45.5627756 33.0205259,45.5711902 33.4899224,44.4576537" id="Fill-1" fill="#FBD4AB"></path>
                        </g>
                        <path d="M29.0292328,45.2334268 C29.0292328,45.2334268 30.0687328,44.3325 29.7131293,43.3507927 C29.3575259,42.3690854 28.6821638,41.5977439 27.7928707,41.5624024 C27.7928707,41.5624024 30.3230603,41.686378 30.3196466,43.5611585 C30.3156638,45.435378 29.9970431,45.3287927 29.9970431,45.3287927 L28.9478707,45.3938659 L29.0292328,45.2334268 Z" id="Fill-4" fill="#F8BE95"></path>
                        <path d="M31.3945362,45.4190537 C31.3945362,45.4190537 32.7896397,44.0693463 31.7046224,42.6848585 C31.7046224,42.6848585 33.0661569,43.6901268 31.9322086,45.5626634 L31.3945362,45.4190537 Z" id="Fill-6" fill="#F8BE95"></path>
                    </g>
                </g>
            </g>
        </g>
    </g>
</svg>