<?xml version="1.0" encoding="UTF-8"?>
<svg width="469px" height="550px" viewBox="0 0 469 550" version="1.1" xmlns="http://www.w3.org/2000/svg" xmlns:xlink="http://www.w3.org/1999/xlink">
    <!-- Generator: Sketch 47.1 (45422) - http://www.bohemiancoding.com/sketch -->
    <title>ico-shower</title>
    <desc>Created with Sketch.</desc>
    <defs>
        <polygon id="path-1" points="1.40008176e-14 271.187 1.40008176e-14 0 234.5003 0 469.0006 0 469.0006 271.187 0 271.187"></polygon>
    </defs>
    <g id="Page-1" stroke="none" stroke-width="1" fill="none" fill-rule="evenodd">
        <g id="ico-shower">
            <g id="Group-3">
                <mask id="mask-2" fill="white">
                    <use xlink:href="#path-1"></use>
                </mask>
                <g id="Clip-2"></g>
                <path d="M459.9106,249.542 L443.6836,249.542 L443.6836,234.762 C443.6836,212.328 425.4986,194.142 403.0646,194.142 L315.3926,194.142 L315.3926,86.579 C315.3926,77.186 307.7796,69.572 298.3876,69.572 L289.1106,69.572 L281.3806,69.572 L41.7436,69.572 L41.7436,0 L-0.0004,0 L-0.0004,183.979 L41.7436,183.979 L41.7436,105.131 L264.3736,105.131 C273.7656,105.131 281.3806,112.745 281.3806,122.138 L281.3806,194.142 L191.7146,194.142 C169.2816,194.142 151.0956,212.328 151.0956,234.762 L151.0956,249.542 L134.8686,249.542 C129.8696,249.542 125.7786,253.633 125.7786,258.633 L125.7786,262.096 C125.7786,267.096 129.8696,271.187 134.8686,271.187 L459.9106,271.187 C464.9096,271.187 469.0006,267.096 469.0006,262.096 L469.0006,258.633 C469.0006,253.633 464.9096,249.542 459.9106,249.542" id="Fill-1" fill="#CFCFCF" mask="url(#mask-2)"></path>
            </g>
            <path d="M274.182,315.0088 C274.182,320.0958 270.058,324.2188 264.972,324.2188 C259.885,324.2188 255.762,320.0958 255.762,315.0088 C255.762,309.9228 264.972,289.5948 264.972,289.5948 C264.972,289.5948 274.182,309.9228 274.182,315.0088" id="Fill-4" fill="#C5EFF7"></path>
            <path d="M234.5004,360.377 C234.5004,365.464 230.3764,369.588 225.2904,369.588 C220.2034,369.588 216.0804,365.464 216.0804,360.377 C216.0804,355.291 225.2904,334.963 225.2904,334.963 C225.2904,334.963 234.5004,355.291 234.5004,360.377" id="Fill-6" fill="#C5EFF7"></path>
            <path d="M423.933,315.0088 C423.933,320.0958 419.809,324.2188 414.723,324.2188 C409.636,324.2188 405.512,320.0958 405.512,315.0088 C405.512,309.9228 414.723,289.5948 414.723,289.5948 C414.723,289.5948 423.933,309.9228 423.933,315.0088" id="Fill-8" fill="#C5EFF7"></path>
            <path d="M386.7504,365.4092 C386.7504,370.4962 382.6264,374.6192 377.5404,374.6192 C372.4534,374.6192 368.3294,370.4962 368.3294,365.4092 C368.3294,360.3232 377.5404,339.9952 377.5404,339.9952 C377.5404,339.9952 386.7504,360.3232 386.7504,365.4092" id="Fill-10" fill="#C5EFF7"></path>
            <path d="M195.7255,311.5977 C195.7255,316.6847 191.6015,320.8077 186.5155,320.8077 C181.4285,320.8077 177.3055,316.6847 177.3055,311.5977 C177.3055,306.5107 186.5155,286.1837 186.5155,286.1837 C186.5155,286.1837 195.7255,306.5107 195.7255,311.5977" id="Fill-12" fill="#C5EFF7"></path>
            <path d="M172.6747,400.2178 C172.6747,405.3048 168.5507,409.4278 163.4647,409.4278 C158.3777,409.4278 154.2547,405.3048 154.2547,400.2178 C154.2547,395.1318 163.4647,374.8038 163.4647,374.8038 C163.4647,374.8038 172.6747,395.1318 172.6747,400.2178" id="Fill-14" fill="#C5EFF7"></path>
            <path d="M351.1039,315.0088 C351.1039,320.0958 346.9799,324.2188 341.8929,324.2188 C336.8069,324.2188 332.6829,320.0958 332.6829,315.0088 C332.6829,309.9228 341.8929,289.5948 341.8929,289.5948 C341.8929,289.5948 351.1039,309.9228 351.1039,315.0088" id="Fill-16" fill="#C5EFF7"></path>
            <path d="M317.5043,365.4092 C317.5043,370.4962 313.3813,374.6192 308.2943,374.6192 C303.2073,374.6192 299.0843,370.4962 299.0843,365.4092 C299.0843,360.3232 308.2943,339.9952 308.2943,339.9952 C308.2943,339.9952 317.5043,360.3232 317.5043,365.4092" id="Fill-18" fill="#C5EFF7"></path>
            <path d="M317.5043,489.4912 C317.5043,494.5772 313.3813,498.7012 308.2943,498.7012 C303.2073,498.7012 299.0843,494.5772 299.0843,489.4912 C299.0843,484.4042 308.2943,464.0762 308.2943,464.0762 C308.2943,464.0762 317.5043,484.4042 317.5043,489.4912" id="Fill-20" fill="#C5EFF7"></path>
            <path d="M354.0033,417.5303 C354.0033,422.6173 349.8793,426.7403 344.7933,426.7403 C339.7063,426.7403 335.5823,422.6173 335.5823,417.5303 C335.5823,412.4433 344.7933,392.1163 344.7933,392.1163 C344.7933,392.1163 354.0033,412.4433 354.0033,417.5303" id="Fill-22" fill="#C5EFF7"></path>
            <path d="M395.9604,466.3779 C395.9604,471.4649 391.8364,475.5889 386.7504,475.5889 C381.6634,475.5889 377.5404,471.4649 377.5404,466.3779 C377.5404,461.2919 386.7504,440.9639 386.7504,440.9639 C386.7504,440.9639 395.9604,461.2919 395.9604,466.3779" id="Fill-24" fill="#C5EFF7"></path>
            <path d="M264.9721,528.8037 C264.9721,533.8907 260.8481,538.0137 255.7621,538.0137 C250.6751,538.0137 246.5511,533.8907 246.5511,528.8037 C246.5511,523.7167 255.7621,503.3897 255.7621,503.3897 C255.7621,503.3897 264.9721,523.7167 264.9721,528.8037" id="Fill-26" fill="#C5EFF7"></path>
            <path d="M225.2905,454.8662 C225.2905,459.9532 221.1665,464.0762 216.0805,464.0762 C210.9935,464.0762 206.8705,459.9532 206.8705,454.8662 C206.8705,449.7792 216.0805,429.4522 216.0805,429.4522 C216.0805,429.4522 225.2905,449.7792 225.2905,454.8662" id="Fill-28" fill="#C5EFF7"></path>
            <path d="M442.3529,400.2178 C442.3529,405.3048 438.2299,409.4278 433.1429,409.4278 C428.0559,409.4278 423.9329,405.3048 423.9329,400.2178 C423.9329,395.1318 433.1429,374.8038 433.1429,374.8038 C433.1429,374.8038 442.3529,395.1318 442.3529,400.2178" id="Fill-30" fill="#C5EFF7"></path>
            <path d="M159.0297,492.7285 C159.0297,497.8155 154.9057,501.9395 149.8197,501.9395 C144.7337,501.9395 140.6097,497.8155 140.6097,492.7285 C140.6097,487.6425 149.8197,467.3145 149.8197,467.3145 C149.8197,467.3145 159.0297,487.6425 159.0297,492.7285" id="Fill-32" fill="#C5EFF7"></path>
            <path d="M274.182,414.4414 C274.182,419.5284 270.058,423.6514 264.972,423.6514 C259.885,423.6514 255.762,419.5284 255.762,414.4414 C255.762,409.3544 264.972,389.0274 264.972,389.0274 C264.972,389.0274 274.182,409.3544 274.182,414.4414" id="Fill-34" fill="#C5EFF7"></path>
            <path d="M442.3529,494.1797 C442.3529,499.2657 438.2299,503.3897 433.1429,503.3897 C428.0559,503.3897 423.9329,499.2657 423.9329,494.1797 C423.9329,489.0927 433.1429,468.7647 433.1429,468.7647 C433.1429,468.7647 442.3529,489.0927 442.3529,494.1797" id="Fill-36" fill="#C5EFF7"></path>
            <path d="M377.5404,540.79 C377.5404,545.877 373.4164,550 368.3294,550 C363.2434,550 359.1194,545.877 359.1194,540.79 C359.1194,535.703 368.3294,515.376 368.3294,515.376 C368.3294,515.376 377.5404,535.703 377.5404,540.79" id="Fill-38" fill="#C5EFF7"></path>
            <path d="M203.2299,540.79 C203.2299,545.877 199.1059,550 194.0199,550 C188.9329,550 184.8099,545.877 184.8099,540.79 C184.8099,535.703 194.0199,515.376 194.0199,515.376 C194.0199,515.376 203.2299,535.703 203.2299,540.79" id="Fill-40" fill="#C5EFF7"></path>
        </g>
    </g>
</svg>