<?xml version="1.0" encoding="UTF-8"?>
<svg width="439px" height="250px" viewBox="0 0 439 250" version="1.1" xmlns="http://www.w3.org/2000/svg" xmlns:xlink="http://www.w3.org/1999/xlink">
    <!-- Generator: Sketch 47.1 (45422) - http://www.bohemiancoding.com/sketch -->
    <title>ico-bowl</title>
    <desc>Created with Sketch.</desc>
    <defs>
        <polygon id="path-1" points="450.444944 165.817125 450.444944 250 2.98155597e-19 250 2.98155597e-19 0.542 450.444944 0.542 450.444944 165.817125 -0.000161365739 165.817125 -0.000161365739 250 450.445861 250 450.445861 165.817125"></polygon>
        <polygon id="path-3" points="225.223989 250 0 250 0 0.542 450.444944 0.542 450.444944 250 225.223989 250 450.44485 250.001518 450.44485 165.813238 225.223989 165.813238"></polygon>
        <polygon id="path-5" points="0.778205128 0.528 194.297872 0.528 194.297872 118.371768 0.778205128 118.371768"></polygon>
    </defs>
    <g id="Page-1" stroke="none" stroke-width="1" fill="none" fill-rule="evenodd">
        <g id="ico-bowl" transform="translate(-6.000000, 0.000000)">
            <path d="M225.002528,62.1242313 C137.398831,62.1242313 66.1275974,89.8805916 66.1275974,123.997468 C66.1275974,158.114344 137.398831,185.86564 225.002528,185.86564 C312.601169,185.86564 383.872403,158.114344 383.872403,123.997468 C383.872403,89.8805916 312.601169,62.1242313 225.002528,62.1242313 M225.002528,187 C136.776882,187 65,158.737229 65,123.997468 C65,89.2577067 136.776882,61 225.002528,61 C313.223118,61 385,89.2577067 385,123.997468 C385,158.737229 313.223118,187 225.002528,187" id="Fill-1" fill="#6EC8F0"></path>
            <path d="M437.939371,172.022432 C437.939371,172.022432 411.884032,49.0151748 411.878979,49 L38.1260733,49 C38.1210209,49.0101166 12.0606291,172.022432 12.0606291,172.022432 L12,172.305696 L12.0757863,172.305696 C15.1072394,205.983726 109.274278,233 225,233 C340.730775,233 434.897813,205.983726 437.924214,172.305696 L438,172.305696 L437.939371,172.022432 Z" id="Fill-3" fill="#4B5055"></path>
            <path d="M225,49 L225,233 C340.728467,233 434.902792,205.983726 437.929264,172.305696 L438,172.305696 L437.944422,172.022432 C437.944422,172.022432 411.883412,49.0151748 411.883412,49 L225,49 Z" id="Fill-5" fill="#32373C"></path>
            <g id="Group-9">
                <mask id="mask-2" fill="white">
                    <use xlink:href="#path-1"></use>
                </mask>
                <g id="Clip-8"></g>
                <path d="M225.225,250 C167.379333,250 112.632722,242.85528 71.0760556,229.87638 C39.9287778,220.15106 2.33061111,202.689 0.0303333333,174.71226 C-0.338722222,170.21898 2.6845,166.257 6.79466667,165.8522 C10.8997778,165.4474 14.5195556,168.75664 14.8936667,173.24992 C17.2394444,201.8288 104.200056,233.66632 225.225,233.66632 C346.244889,233.66632 433.2055,201.8288 435.556333,173.24992 C435.925389,168.75158 439.550222,165.43728 443.660389,165.8522 C447.760444,166.257 450.788722,170.21898 450.414611,174.71226 C448.114333,202.689 410.516167,220.15106 379.373944,229.87638 C337.817278,242.85528 283.070667,250 225.225,250" id="Fill-7" fill="#6EC8F0" mask="url(#mask-2)"></path>
            </g>
            <g id="Group-12">
                <mask id="mask-4" fill="white">
                    <use xlink:href="#path-3"></use>
                </mask>
                <g id="Clip-11"></g>
                <path d="M442.971822,165.813238 C439.149822,165.813238 435.904156,169.006098 435.555322,173.251438 C433.204489,201.830318 346.248933,233.667838 225.223989,233.667838 L225.223989,250.001518 C283.069656,250.001518 337.816267,242.856798 379.372933,229.877898 C410.520211,220.152578 448.118378,202.690518 450.4136,174.713778 C450.787711,170.220498 447.759433,166.253458 443.659378,165.848658 C443.421767,165.823358 443.194267,165.813238 442.971822,165.813238" id="Fill-10" fill="#00AADC" mask="url(#mask-4)"></path>
            </g>
            <path d="M249.673892,160.954642 C249.506991,163.190235 247.463723,164.91889 245.005731,164.91889 L205.996495,164.91889 C203.538504,164.91889 201.500293,163.185165 201.328334,160.954642 C200.696135,152.651014 193.074338,146 183.692498,146 C168.919261,146 161.373328,161.127001 169.040643,171.189701 C170.552864,173.187033 170.552864,175.823106 169.040643,177.810299 C161.398616,187.86793 168.873742,203 183.692498,203 C193.06928,203 200.696135,196.359125 201.328334,188.055496 C201.500293,185.814835 203.538504,184.086179 205.996495,184.086179 L245.005731,184.086179 C247.463723,184.086179 249.506991,185.819904 249.673892,188.055496 C250.295976,196.359125 257.927888,203 267.309728,203 C282.123426,203 289.608668,187.86793 281.961583,177.810299 C280.449362,175.823106 280.449362,173.187033 281.961583,171.189701 C289.623841,161.121932 282.067793,146 267.309728,146 C257.932946,146 250.295976,152.651014 249.673892,160.954642" id="Fill-13" fill="#F0F0F0"></path>
            <path d="M266.460165,146 C257.162095,146 249.589233,152.651014 248.97237,160.954642 C248.801856,163.190235 246.775739,164.91889 244.343396,164.91889 L225,164.91889 L225,184.086179 L244.343396,184.086179 C246.775739,184.086179 248.801856,185.819904 248.97237,188.050427 C249.589233,196.359125 257.157079,203 266.460165,203 C281.14951,203 288.571918,187.86286 280.984011,177.810299 C279.489499,175.823106 279.489499,173.181964 280.984011,171.189701 C288.586963,161.116862 281.094344,146 266.460165,146" id="Fill-15" fill="#D2D2D2"></path>
            <path d="M412,59.5 C412,88.4945023 328.27658,112 224.997472,112 C121.718364,112 38,88.4945023 38,59.5 C38,30.5105613 121.718364,7 224.997472,7 C328.27658,7 412,30.5105613 412,59.5" id="Fill-17" fill="#FA7D69"></path>
            <path d="M225,7 L225,112 C328.277712,112 412,88.4984326 412,59.502532 C412,30.5116952 328.277712,7 225,7" id="Fill-19" fill="#E15046"></path>
            <path d="M225.502525,13.3533487 C176.192514,13.3533487 129.923026,18.712856 95.2044947,28.4326405 C58.4656826,38.7226927 45.374261,50.9657856 45.374261,58.9949534 C45.374261,67.0241211 58.4656826,79.2722607 95.2044947,89.5623129 C129.923026,99.2820973 176.192514,104.641605 225.502525,104.641605 C274.812537,104.641605 321.082025,99.2820973 355.795505,89.5623129 C392.539368,79.2722607 405.63079,67.0241211 405.63079,58.9949534 C405.63079,50.9657856 392.539368,38.7226927 355.795505,28.4326405 C321.082025,18.712856 274.812537,13.3533487 225.502525,13.3533487 M225.502525,118 C131.695822,118 32,97.3240099 32,58.9949534 C32,20.6759901 131.695822,0 225.502525,0 C319.304178,0 419,20.6759901 419,58.9949534 C419,97.3240099 319.304178,118 225.502525,118" id="Fill-21" fill="#F0F0F0"></path>
            <g id="Group-25" transform="translate(224.000000, 0.000000)">
                <mask id="mask-6" fill="white">
                    <use xlink:href="#path-5"></use>
                </mask>
                <g id="Clip-24"></g>
                <path d="M0.778205128,0.526488 L0.778205128,13.862328 C50.0938718,13.862328 96.3686667,19.214808 131.086128,28.926888 C167.834205,39.203448 180.927128,51.430488 180.927128,59.444088 C180.927128,67.462728 167.834205,79.694808 131.086128,89.971368 C96.3686667,99.678408 50.0938718,105.030888 0.778205128,105.030888 L0.778205128,118.371768 C94.5906154,118.371768 194.297872,97.722888 194.297872,59.444088 C194.297872,21.180408 94.5906154,0.526488 0.778205128,0.526488" id="Fill-23" fill="#D2D2D2" mask="url(#mask-6)"></path>
            </g>
        </g>
    </g>
</svg>