<?xml version="1.0" encoding="UTF-8"?>
<svg width="221px" height="248px" viewBox="0 0 221 248" version="1.1" xmlns="http://www.w3.org/2000/svg" xmlns:xlink="http://www.w3.org/1999/xlink">
    <!-- Generator: Sketch 47.1 (45422) - http://www.bohemiancoding.com/sketch -->
    <title>ico-rope</title>
    <desc>Created with Sketch.</desc>
    <defs>
        <polygon id="path-1" points="130.414 0.703628552 130.414 43.1803038 0.0128824056 43.1803038 0.0128824056 0.703628552"></polygon>
        <polygon id="path-3" points="0.745451689 0.505 113.309466 0.505 113.309466 48.494716 0.745451689 48.494716"></polygon>
        <polygon id="path-5" points="7.28411743e-15 76.4227011 7.28411743e-15 0.791999221 143.131885 0.791999221 143.131885 76.4227011 0 76.4227011"></polygon>
    </defs>
    <g id="Page-1" stroke="none" stroke-width="1" fill="none" fill-rule="evenodd">
        <g id="ico-rope" transform="translate(104.000000, 130.500000) rotate(-45.000000) translate(-104.000000, -130.500000) translate(-37.000000, 55.000000)">
            <path d="M158.0439,47.1902 C170.5419,44.2092 183.1399,41.5512 195.8829,39.8522 C211.2399,37.8042 227.8799,36.3642 242.8699,40.3152 C248.7519,41.8652 253.9039,44.2762 257.7089,48.9292 C259.0819,50.6082 260.2319,53.2272 260.8519,55.9312 C261.1789,57.3632 261.3079,58.2492 261.2589,59.9322 C261.2309,60.9302 261.0389,61.5042 260.3569,62.5562 C259.8329,63.3652 260.8249,62.0342 260.1859,62.7592 C259.9879,62.9832 259.7679,63.1862 259.5479,63.3892 C258.8199,64.0592 260.1289,63.0002 259.3089,63.5852 C259.0499,63.7692 258.7759,63.9292 258.5039,64.0912 C258.2229,64.2572 257.9289,64.4022 257.6359,64.5472 C256.6599,65.0292 258.2789,64.3152 257.2369,64.7192 C256.4449,65.0262 255.6249,65.2522 254.8019,65.4572 C251.6019,66.2542 248.2799,66.3152 244.7069,66.2392 C236.9929,66.0772 229.3319,64.7722 221.7789,63.2872 C212.3549,61.4332 203.0149,59.6252 193.4809,58.3672 C186.2969,57.4192 179.0689,56.6792 171.8239,56.4542 C166.3979,56.2862 160.0809,56.0782 154.9709,58.2072 C153.1699,58.9582 151.9009,60.5512 152.4689,62.6132 C152.9379,64.3172 155.0689,65.8682 156.8749,65.1152 C160.0539,63.7912 163.0229,63.7042 166.4509,63.6012 C171.1579,63.4592 175.8789,63.7452 180.5669,64.1272 C189.1419,64.8242 197.6809,66.0112 206.1579,67.4592 C219.5979,69.7542 232.8149,73.4112 246.5579,73.4242 C252.9129,73.4302 260.9449,72.7112 265.4469,67.6022 C270.1479,62.2682 268.5409,54.2362 265.7409,48.3762 C259.5729,35.4602 243.1479,32.1132 230.3079,31.1232 C216.1129,30.0292 201.7269,31.6612 187.7149,33.8662 C177.0999,35.5362 166.5899,37.7892 156.1399,40.2822 C151.6479,41.3542 153.5529,48.2622 158.0439,47.1902" id="Fill-1" fill="#A86512" fill-rule="nonzero"></path>
            <path d="M154.1444,30.9221 C168.5254,26.3411 182.8084,21.5651 197.6484,18.6361 C205.9034,17.0081 214.3634,15.9281 222.7894,16.4401 C226.1944,16.6471 229.4694,17.2311 232.8054,18.4341 C235.3014,19.3341 237.6294,20.8531 239.5404,23.0381 C241.0504,24.7651 242.3804,27.8501 242.4184,30.4491 C242.4494,32.5921 241.1574,34.3241 239.2294,35.6021 C233.7284,39.2491 225.8904,39.8101 219.2654,40.1341 C210.6044,40.5581 201.9164,40.0161 193.2484,40.1671 C180.6024,40.3861 167.7074,41.6361 156.0254,46.7881 C154.2384,47.5761 153.8384,50.1501 154.7404,51.6891 C155.8094,53.5131 157.8544,53.7611 159.6404,52.9731 C179.3874,44.2651 201.5394,48.6671 222.3544,47.1081 C229.9154,46.5411 238.3444,45.3771 244.4984,40.5791 C250.8684,35.6141 250.5374,27.2381 246.6754,20.7741 C238.3734,6.8781 217.9084,8.4331 204.2604,10.2941 C188.0464,12.5051 172.3054,17.4401 156.8044,22.5291 C155.2844,23.0281 153.7644,23.5281 152.2394,24.0141 C147.8554,25.4101 149.7294,32.3281 154.1444,30.9221" id="Fill-3" fill="#B56C10" fill-rule="nonzero"></path>
            <g id="Group-7" transform="translate(151.000000, 16.495000)">
                <g id="Fill-5-Clipped">
                    <mask id="mask-2" fill="white">
                        <use xlink:href="#path-1"></use>
                    </mask>
                    <g id="path-1"></g>
                    <path d="M7.7958,41.4208 C35.0728,34.1088 63.2408,43.4138 90.8178,43.1758 C97.7478,43.1168 104.7208,42.3878 111.4738,40.8168 C117.9848,39.3018 124.0718,36.2748 127.8798,30.6178 C131.5448,25.1728 131.2128,17.9548 127.0268,12.9398 C122.8218,7.8998 116.2608,5.1618 110.0758,3.4728 C101.5718,1.1498 92.4978,1.0028 83.7428,0.7918 C74.5168,0.5688 65.2788,0.7598 56.0758,1.4678 C37.3998,2.9058 19.0088,6.7838 1.7878,14.2548 C0.6918,14.7308 -0.0162,16.2118 0.0138,17.3478 C0.0308,18.0238 0.0498,18.6998 0.0668,19.3768 C0.1878,23.9868 7.3518,23.9988 7.2318,19.3768 C7.2138,18.6998 7.1948,18.0238 7.1778,17.3478 C6.5868,18.3788 5.9948,19.4098 5.4038,20.4408 C31.8688,8.9598 61.2948,7.0488 89.7798,8.1448 C96.5158,8.4038 103.2208,8.9248 109.7208,10.8178 C114.5938,12.2368 122.7028,15.4288 123.2908,21.3938 C123.9318,27.8988 117.1208,31.6798 111.8918,33.2888 C105.3868,35.2898 98.4178,35.8468 91.6498,35.9998 C62.9828,36.6468 34.3038,26.8978 5.8918,34.5128 C1.4338,35.7078 3.3268,42.6188 7.7958,41.4208" id="Fill-5" fill="#C47A1E" fill-rule="nonzero" mask="url(#mask-2)"></path>
                </g>
            </g>
            <g id="Group-10" transform="translate(145.000000, 0.495000)">
                <g id="Fill-8-Clipped">
                    <mask id="mask-4" fill="white">
                        <use xlink:href="#path-3"></use>
                    </mask>
                    <g id="path-3"></g>
                    <path d="M8.8524,25.6849 C23.2404,20.4609 37.7974,15.4319 52.5934,11.4819 C66.4004,7.7969 80.9964,5.8919 94.9204,10.0509 C98.3794,11.0849 108.7824,14.2709 105.5174,19.5569 C104.1764,21.7269 101.1194,22.9619 98.8724,23.8519 C95.4424,25.2079 91.8234,26.0509 88.1944,26.6599 C73.3744,29.1469 58.1794,26.1219 43.2654,27.0619 C28.6214,27.9849 14.3684,33.1299 2.5204,41.7819 C0.9474,42.9319 0.1724,44.8689 1.2354,46.6829 C2.1464,48.2389 4.5564,49.1219 6.1364,47.9679 C17.3084,39.8099 30.3814,35.0389 44.1924,34.1679 C59.2454,33.2189 74.2314,35.8239 89.2544,33.6979 C95.7894,32.7739 103.0104,30.8769 108.3034,26.7679 C113.3594,22.8439 115.2234,16.1859 110.8844,10.9419 C106.8024,6.0099 99.6154,3.7549 93.6234,2.2689 C86.8434,0.5879 79.7294,0.2359 72.7804,0.6799 C61.6804,1.3879 50.8584,4.3409 40.2744,7.5859 C29.0704,11.0209 17.9624,14.7779 6.9484,18.7769 C2.6414,20.3399 4.4994,27.2649 8.8524,25.6849" id="Fill-8" fill="#CA8835" fill-rule="nonzero" mask="url(#mask-4)"></path>
                </g>
            </g>
            <path d="M151.4648,70.3377 C164.1848,69.1557 177.3758,70.5117 189.9668,72.3187 C205.5788,74.5597 221.7218,77.9797 235.9778,84.7327 C241.9398,87.5567 247.1738,90.7207 251.4418,95.4847 C254.7548,99.1827 256.4158,103.4827 255.9718,108.6297 C255.8758,109.7377 256.0968,107.9177 255.9258,109.0337 C255.8728,109.3797 255.8038,109.7227 255.7348,110.0667 C255.5908,110.7787 255.3978,111.4797 255.1908,112.1747 C254.6918,113.8507 254.2728,114.8007 253.4258,116.3367 C252.1358,118.6767 250.0348,120.9327 248.0978,122.3017 C243.0318,125.8837 236.5498,127.1857 230.4328,127.7437 C214.8738,129.1607 199.2568,126.5897 183.6858,126.7497 C170.9038,126.8797 156.0868,129.1207 150.7708,142.4647 C150.3148,143.6087 150.0018,144.8047 149.7528,146.0087 C148.8188,150.5167 155.7238,152.4357 156.6598,147.9137 C156.8138,147.1737 156.9948,146.4457 157.2098,145.7227 C157.3128,145.3777 157.4328,145.0387 157.5538,144.6997 C157.5668,144.6657 158.0118,143.6067 157.7208,144.2657 C157.9918,143.6507 158.3158,143.0607 158.6558,142.4827 C158.8228,142.2007 159.0058,141.9277 159.1878,141.6567 C159.3098,141.4787 159.4358,141.3037 159.5648,141.1297 C159.3318,141.4297 159.3448,141.4207 159.6038,141.1007 C161.4028,138.9207 162.8408,138.0037 165.6108,136.7287 C165.7848,136.6487 166.2518,136.4637 166.9928,136.2017 C167.6648,135.9627 168.3508,135.7617 169.0368,135.5697 C170.6098,135.1297 172.2168,134.8217 173.8288,134.5677 C176.5038,134.1467 180.4488,133.9577 183.6858,133.9127 C199.2738,133.6977 214.8508,136.2407 230.4328,134.9077 C237.3758,134.3127 244.4528,132.9157 250.4958,129.2817 C256.4168,125.7227 260.4438,119.9707 262.3038,113.3707 C266.0318,100.1477 257.5398,89.3287 246.9338,82.5637 C233.7718,74.1687 217.7368,70.0997 202.5698,67.1967 C188.0978,64.4267 173.1948,62.6997 158.4428,62.8447 C156.1138,62.8677 153.7838,62.9587 151.4648,63.1737 C146.9048,63.5977 146.8638,70.7647 151.4648,70.3377" id="Fill-11" fill="#B86F12" fill-rule="nonzero"></path>
            <g id="Group-15" transform="translate(0.000000, 36.495000)">
                <g id="Fill-13-Clipped">
                    <mask id="mask-6" fill="white">
                        <use xlink:href="#path-5"></use>
                    </mask>
                    <g id="path-5"></g>
                    <path d="M139.6845,1.1903 C113.0965,-0.6777 86.9015,4.2773 61.2365,10.7803 C48.2395,14.0733 35.2225,17.3453 23.4775,24.0263 C15.4865,28.5713 7.8795,34.8153 3.3335,42.9353 C-0.2705,49.3723 -1.1775,56.6933 1.7285,63.5413 C5.1435,71.5883 13.5745,75.5913 21.8375,76.2923 C31.8515,77.1433 42.1965,73.6853 51.3865,70.1033 C61.2145,66.2723 70.6255,61.4933 80.0755,56.8313 C88.8455,52.5043 96.9115,46.8013 105.2735,41.7483 C111.1165,38.2193 117.0295,34.7983 123.0885,31.6533 C128.0865,29.0603 133.2485,26.5243 138.7265,25.1183 C143.1985,23.9693 141.2995,17.0603 136.8215,18.2103 C128.3025,20.3983 120.2755,24.8933 112.6485,29.1503 C104.4045,33.7523 96.3915,38.7513 88.3925,43.7623 C82.8245,47.2493 77.2555,50.2493 71.3645,53.1693 C61.8465,57.8873 52.2505,62.5263 42.1365,65.8393 C33.7975,68.5683 24.0475,70.9773 15.5385,67.6343 C12.4195,66.4083 9.9275,63.7883 8.3885,60.9153 C7.1775,58.6523 6.8585,56.2383 7.1815,53.1733 C7.2425,52.5943 7.8445,50.3513 8.2735,49.1743 C8.7505,47.8623 9.7685,46.0403 10.6795,44.6163 C12.9215,41.1093 15.9865,38.1613 19.1845,35.5343 C28.2295,28.1053 39.6055,23.9403 50.7615,20.9353 C79.8255,13.1053 109.3765,6.2243 139.6845,8.3543 C144.2965,8.6783 144.2655,1.5123 139.6845,1.1903" id="Fill-13" fill="#A86512" fill-rule="nonzero" mask="url(#mask-6)"></path>
                </g>
            </g>
            <path d="M135.3207,32.6077 C119.6257,31.7597 103.7847,33.0147 88.2417,35.1687 C72.0547,37.4127 55.4667,40.8487 40.7017,48.0867 C29.9447,53.3587 19.4877,62.3477 21.5117,75.4817 C22.5267,82.0657 27.2447,89.6197 32.7157,93.3397 C40.9457,98.9367 53.2637,95.8877 61.8837,93.0397 C75.0827,88.6767 86.4317,80.6747 98.5647,74.1167 C111.2207,67.2757 124.3457,60.5847 138.0897,56.2007 C142.4727,54.8017 140.5987,47.8837 136.1847,49.2927 C125.2567,52.7787 114.7687,57.7817 104.5407,62.9267 C98.8477,65.7907 93.2317,68.8067 87.6877,71.9487 C82.9187,74.6517 78.3247,77.6687 73.4997,80.2667 C64.5647,85.0797 54.0237,89.3027 43.7217,89.1277 C39.7797,89.0607 36.5137,87.8857 33.9877,84.8217 C32.9847,83.6057 32.0887,82.2797 31.2587,80.9217 C30.4467,79.5937 29.6747,77.9687 29.3427,77.0737 C28.8867,75.8427 28.5717,74.5637 28.3727,73.2677 C28.4947,74.0647 28.3367,72.3817 28.3297,72.0927 C28.3137,71.4057 28.3627,70.7177 28.4387,70.0357 C28.3377,70.9407 28.6177,69.2757 28.6867,68.9977 C28.8267,68.4367 29.0137,67.8877 29.2147,67.3457 C29.5527,66.4327 28.9027,68.0187 29.3067,67.1277 C29.4287,66.8597 29.5637,66.5977 29.6987,66.3367 C30.0207,65.7137 30.3937,65.1197 30.7827,64.5377 C31.3007,63.7607 31.7677,63.1977 32.8287,62.0937 C33.2927,61.6117 33.7817,61.1547 34.2777,60.7057 C34.5317,60.4747 34.7947,60.2527 35.0567,60.0297 C35.1487,59.9517 36.1567,59.1447 35.7097,59.4887 C38.2637,57.5257 41.0737,55.9067 43.9457,54.4577 C58.1287,47.2967 74.9067,44.1897 90.6657,42.0047 C105.3807,39.9647 120.4707,38.9687 135.3207,39.7717 C139.9397,40.0217 139.9147,32.8557 135.3207,32.6077" id="Fill-16" fill="#C47A1E" fill-rule="nonzero"></path>
            <path d="M138.0849,42.9124 C109.8909,43.6234 81.0299,48.5164 54.9699,59.5774 C44.9959,63.8114 35.2709,69.1724 27.1059,76.3594 C20.2489,82.3954 14.7799,90.5534 16.2439,100.0304 C17.6909,109.4104 26.2859,115.5464 35.1059,117.0324 C44.6959,118.6494 54.8029,116.5874 63.8149,113.2514 C72.9699,109.8614 80.6559,104.1774 88.5079,98.4994 C98.2959,91.4214 107.9569,84.1404 118.1779,77.6864 C124.1069,73.9434 130.3499,70.2464 137.1339,68.2994 C141.5659,67.0274 139.6799,60.1144 135.2299,61.3914 C125.1579,64.2814 116.0399,70.3434 107.4549,76.1644 C97.5409,82.8884 88.0359,90.1884 78.2319,97.0674 C70.7089,102.3464 63.2769,106.4174 54.3159,108.7184 C46.2109,110.7984 36.2089,111.9374 28.8249,107.1414 C25.8869,105.2314 23.5669,101.5754 23.1499,98.1444 C22.6879,94.3364 24.1919,90.9204 26.3179,87.7744 C31.8769,79.5484 41.6759,74.0384 50.2939,69.6304 C61.1669,64.0694 72.8369,60.3294 84.6399,57.3044 C99.1899,53.5754 114.0859,51.3604 129.0729,50.4474 C132.0739,50.2654 135.0789,50.1524 138.0849,50.0764 C142.6959,49.9594 142.7069,42.7954 138.0849,42.9124" id="Fill-18" fill="#B86F12" fill-rule="nonzero"></path>
            <path d="M133.7299,25.8547 C118.9119,26.1937 104.1259,27.3517 89.4279,29.2637 C75.0569,31.1327 60.3409,33.2907 46.4209,37.4207 C35.3639,40.7027 24.1699,46.0397 15.9719,54.3247 C9.6939,60.6687 6.0729,69.3967 10.1539,77.9077 C14.0509,86.0337 22.1969,88.5247 30.5819,87.9387 C40.8559,87.2217 50.9129,83.6697 60.4429,79.9857 C70.0659,76.2647 79.3439,71.8067 88.7479,67.5857 C99.4599,62.7787 110.4579,58.5457 121.5859,54.8067 C125.5479,53.4757 129.5429,52.2257 133.5879,51.1707 C135.0679,50.7847 136.5599,50.4407 138.0629,50.1627 C138.3949,50.1017 138.7279,50.0497 139.0599,49.9987 C138.2049,50.1297 139.1259,50.0017 139.2719,49.9877 C139.7269,49.9447 140.1839,49.9347 140.6399,49.9597 C145.2579,50.2177 145.2319,43.0517 140.6399,42.7957 C137.6749,42.6307 134.5289,43.5357 131.6839,44.2627 C126.9989,45.4607 122.3899,46.9707 117.8139,48.5307 C106.5199,52.3797 95.3949,56.7937 84.5099,61.6797 C75.2709,65.8257 66.1639,70.1857 56.6879,73.7867 C47.6489,77.2217 37.8689,80.7247 28.0939,80.8837 C26.3019,80.9137 24.9319,80.8037 23.3249,80.4257 C21.8519,80.0807 20.6719,79.4947 19.9519,78.8697 C17.1019,76.3937 15.3359,73.2167 15.4629,69.6767 C15.7619,61.3127 25.9899,54.5827 32.6229,50.8637 C44.3889,44.2667 57.7789,41.7337 70.9029,39.3367 C85.5769,36.6557 100.4069,34.8827 115.2849,33.8527 C121.4259,33.4277 127.5769,33.1597 133.7299,33.0187 C138.3419,32.9137 138.3529,25.7487 133.7299,25.8547" id="Fill-20" fill="#CA8835" fill-rule="nonzero"></path>
            <path d="M143.289,22.7258 C150.89,27.3078 152.815,38.2358 153.127,46.4678 C153.307,51.2388 152.883,56.0198 151.74,60.6568 C150.838,64.3238 149.415,67.9888 147.021,70.2728 C143.674,73.4668 149.558,75.3558 152.897,72.1688 C160.277,65.1258 161.617,55.4608 161.256,45.9008 C160.851,35.2088 158.163,23.3928 148.36,17.4838 C144.393,15.0918 139.339,20.3448 143.289,22.7258" id="Fill-22" fill="#BD7211" fill-rule="nonzero"></path>
            <path d="M134.5102,20.3494 C143.4042,26.5484 146.9882,39.2574 147.0282,49.4054 C147.0492,54.6954 146.3262,59.9694 144.7182,65.0134 C144.0762,67.0274 143.4612,68.4524 142.3242,70.3334 C141.5492,71.6174 138.4912,75.1564 143.1072,75.5114 C146.2122,75.7504 149.6112,72.4454 151.2042,68.1444 C153.3362,62.3904 154.9642,56.5424 155.0472,50.4374 C155.2242,37.3724 152.8822,25.0564 141.6752,17.2454 C137.8732,14.5964 131.8872,18.1944 135.6472,20.8154 L134.5102,20.3494 Z" id="Fill-24" fill="#AD680F" fill-rule="nonzero"></path>
            <path d="M130.1352,23.405 C140.0462,24.921 141.9912,36.808 142.5482,45.098 C142.9682,51.363 142.3742,57.595 140.2282,63.518 C138.9912,66.931 136.3702,71.332 133.1602,72.565 C128.8932,74.203 131.8622,78.842 136.1822,77.183 C149.0232,72.251 150.3842,56.967 149.7122,45.098 C149.0722,33.789 144.9922,20.635 131.8842,17.722 C127.5852,16.767 123.6942,21.011 127.8242,22.737 L130.1352,23.405 Z" id="Fill-26" fill="#BD7211" fill-rule="nonzero"></path>
            <path d="M122.0927,26.3191 C127.1077,26.0801 132.1547,30.6391 133.5147,34.3421 C135.2587,39.0921 135.9577,44.3521 136.0017,49.3911 C136.0657,56.5071 134.0327,71.2131 124.4807,73.6011 C123.7647,76.7061 128.3717,78.7691 132.3617,76.4671 C138.5697,72.8851 143.2547,59.3331 143.1597,48.7351 C143.1037,42.3811 142.9517,37.6651 140.4807,31.8121 C138.0147,25.9711 133.5547,22.1111 127.3457,21.5431 C122.7447,21.1221 120.4217,24.1701 122.0927,26.3191" id="Fill-28" fill="#CF7D15" fill-rule="nonzero"></path>
        </g>
    </g>
</svg>