<?xml version="1.0" encoding="UTF-8"?>
<svg width="189px" height="300px" viewBox="0 0 189 300" version="1.1" xmlns="http://www.w3.org/2000/svg" xmlns:xlink="http://www.w3.org/1999/xlink">
    <!-- Generator: Sketch 47.1 (45422) - http://www.bohemiancoding.com/sketch -->
    <title>ico-hotsauce</title>
    <desc>Created with Sketch.</desc>
    <defs>
        <polygon id="path-1" points="188.883916 254.995092 188.883916 0.121226943 0 0.121226943 0 254.995092 188.883916 254.995092"></polygon>
        <polygon id="path-3" points="94.88 254.999602 94.88 0.121757513 0.108133333 0.121757513 0.108133333 254.999602"></polygon>
    </defs>
    <g id="Page-1" stroke="none" stroke-width="1" fill="none" fill-rule="evenodd">
        <g id="ico-hotsauce">
            <path d="M185,33.1507049 C185,39.6946788 180.105398,45 174.063893,45 L13.9307912,45 C7.88928644,45 3,39.6946788 3,33.1507049 L3,11.8519221 C3,5.30794828 7.88928644,0 13.9307912,0 L174.063893,0 C180.105398,0 185,5.30794828 185,11.8519221 L185,33.1507049 Z" id="Fill-1" fill="#4B5055"></path>
            <path d="M94,0 L94,45 L174.064212,45 C180.105541,45 185,39.6948336 185,33.1497373 L185,11.8515762 C185,5.30779335 180.105541,0 174.064212,0 L94,0 Z" id="Fill-3" fill="#32373C"></path>
            <g id="Group-7" transform="translate(0.000000, 45.000000)">
                <mask id="mask-2" fill="white">
                    <use xlink:href="#path-1"></use>
                </mask>
                <g id="Clip-6"></g>
                <path d="M171.695825,20.9275275 C163.932399,20.9275275 157.639811,14.6455793 157.639811,6.89527876 L157.639811,0.121226943 L31.2446364,0.121226943 L31.2446364,6.89527876 C31.2446364,14.6455793 24.952049,20.9275275 17.1886224,20.9275275 L14.0556154,20.9275275 C6.29351748,20.9275275 -0.000398601399,27.2094756 -0.000398601399,34.9597762 L-0.000398601399,194.862947 C-0.000398601399,228.072647 26.9676434,254.995092 60.2335874,254.995092 L128.65086,254.995092 C161.916804,254.995092 188.884846,228.072647 188.884846,194.862947 L188.884846,34.9597762 C188.884846,27.2094756 182.59093,20.9275275 174.827503,20.9275275 L171.695825,20.9275275 Z" id="Fill-5" fill="#FA7D69" mask="url(#mask-2)"></path>
            </g>
            <g id="Group-10" transform="translate(94.000000, 45.000000)">
                <mask id="mask-4" fill="white">
                    <use xlink:href="#path-3"></use>
                </mask>
                <g id="Clip-9"></g>
                <path d="M0.108133333,0.121757513 L0.108133333,254.999602 L34.4334667,254.999602 C67.8201333,254.999602 94.8801333,228.079809 94.8801333,194.864804 L94.8801333,34.9616332 C94.8801333,27.2126591 88.5694667,20.928058 80.7734667,20.928058 L77.6308,20.928058 C69.8454667,20.928058 63.5254667,14.6474363 63.5254667,6.89846218 L63.5254667,0.121757513 L0.108133333,0.121757513 Z" id="Fill-8" fill="#E15046" mask="url(#mask-4)"></path>
            </g>
            <path d="M138.819577,94.3481696 C138.528027,92.4184233 136.870586,91 134.914938,91 L54.0823991,91 C52.1294142,91 50.4679793,92.4237357 50.1777607,94.3481696 C48.7213425,104.02612 41.0558436,111.676043 31.3561519,113.128997 C29.4218049,113.418525 28,115.072025 28,117.024349 L28,220.98362 C28,222.930632 29.4257988,224.589443 31.3561519,224.878972 C41.0545123,226.331926 48.7213425,233.979193 50.1777607,243.65183 C50.4693105,245.581577 52.1267517,247 54.0823991,247 L134.914938,247 C136.867923,247 138.529358,245.576264 138.819577,243.65183 C140.275995,233.979193 147.944156,226.331926 157.643848,224.878972 C159.578195,224.588115 161,222.935944 161,220.98362 L161,117.024349 C161,115.076009 159.57287,113.417197 157.643848,113.128997 C147.944156,111.676043 140.275995,104.02612 138.819577,94.3481696" id="Fill-11" fill="#F0F0F0"></path>
            <path d="M94,91 L94,247 L134.113658,247 C136.054407,247 137.701864,245.578933 137.985908,243.653187 C139.436515,233.975319 147.043618,226.328117 156.668095,224.87916 C158.585063,224.590962 160,222.930837 160,220.987826 L160,117.020143 C160,115.077132 158.585063,113.417006 156.668095,113.128809 C147.043618,111.675867 139.436515,104.029993 137.985908,94.3507973 C137.695258,92.4210674 136.054407,91 134.113658,91 L94,91 Z" id="Fill-13" fill="#D2D2D2"></path>
            <polygon id="Fill-15" fill="#FFC855" points="64.4976677 218 34 165.499338 64.4976677 113 125.501 113 156 165.499338 125.501 218"></polygon>
            <polygon id="Fill-17" fill="#FFA032" points="94 113 94 218 124.503998 218 155 165.500662 124.503998 113"></polygon>
            <path d="M97.6483971,152 C95.0610641,167.288638 78.0490493,185.181731 62.0428484,193.381284 C61.2427388,193.790192 60.8353373,194.701551 61.0624135,195.570147 C61.2908255,196.44008 62.0922709,197.032062 62.9898898,196.998655 C98.1332716,195.646317 120.087533,172.65523 127,155.815144 L97.6483971,152 Z" id="Fill-19" fill="#FA7D69"></path>
            <path d="M94,162.227998 L94,189 C111.221341,180.581315 122.423494,166.863452 127,155.789868 L97.6467778,152 C97.0843993,155.329243 95.7899935,158.78194 94,162.227998" id="Fill-21" fill="#E15046"></path>
            <path d="M127.620969,134.064609 C127.186081,133.305856 126.217891,133.046704 125.46249,133.478178 C122.628407,135.114574 127.483986,139.381223 130.735668,136.229994 C131.777004,135.217433 132.205242,133.563672 131.907337,131.678812 C130.812804,124.795266 120.539085,123.920295 118.219685,130.427136 C117.195638,133.276468 117.764849,137.664678 117.54275,140.970864 C117.496202,141.652139 117.14776,142.277309 116.594509,142.674051 C116.041258,143.070793 115.339054,143.199033 114.682068,143.021368 C110.512734,141.896596 106.866062,142.067583 103.086398,144.835428 C96.020473,149.994415 93.3552908,157.687475 94.1293108,162.867835 C94.1519196,163.022791 94.2676236,163.147024 94.4192358,163.181755 C94.5708479,163.216487 94.7291097,163.153703 94.8168852,163.025463 C99.1777297,156.582742 105.396488,151.875267 106.207746,156.079133 L107.185246,165.829376 C107.199875,165.976318 107.29563,166.099214 107.431283,166.151312 C107.568266,166.200737 107.719878,166.166006 107.824943,166.064483 L116.320543,157.747588 C117.219577,156.801818 118.763627,157.066313 119.322198,158.219137 C120.810391,161.312925 121.03249,164.929025 120.954024,167.608705 C120.950034,167.756983 121.03249,167.893238 121.164153,167.960029 C121.294486,168.026821 121.452748,168.008119 121.568452,167.917283 C126.761833,163.748149 131.644011,152.083657 121.467377,145.813258 C120.62819,145.296291 120.214582,144.291745 120.44599,143.331281 C121.452748,139.144781 119.895398,135.103887 121.192081,131.495803 C122.418278,128.074735 128.207469,128.532926 128.781999,132.181085 C128.922972,133.050712 128.772689,133.719964 128.545271,133.940377 C128.331152,134.148766 127.747312,134.182162 127.620969,134.064609" id="Fill-23" fill="#32373C"></path>
        </g>
    </g>
</svg>