<?xml version="1.0" encoding="UTF-8"?>
<svg width="426px" height="599px" viewBox="0 0 426 599" version="1.1" xmlns="http://www.w3.org/2000/svg" xmlns:xlink="http://www.w3.org/1999/xlink">
    <!-- Generator: Sketch 47.1 (45422) - http://www.bohemiancoding.com/sketch -->
    <title>ico-toiletroll</title>
    <desc>Created with Sketch.</desc>
    <defs>
        <polygon id="path-1" points="338.945998 477 0.0413 477 0.0413 0.4514 338.945998 0.4514"></polygon>
    </defs>
    <g id="Page-1" stroke="none" stroke-width="1" fill="none" fill-rule="evenodd">
        <g id="ico-toiletroll">
            <path d="M122.9998,22.7272 C122.9998,35.2792 129.6218,45.4552 137.7908,45.4552 C145.9588,45.4552 152.5818,35.2792 152.5818,22.7272 C152.5818,10.1752 145.9588,0.0002 137.7908,0.0002" id="Fill-1" fill="#6D6E71"></path>
            <path d="M142.857,271.1037 C142.857,353.2887 113.785,419.9127 77.922,419.9127 C42.059,419.9127 12.987,353.2887 12.987,271.1037 C12.987,188.9187 42.059,122.2937 77.922,122.2937 C113.785,122.2937 142.857,188.9187 142.857,271.1037" id="Fill-1" fill="#DBDCDD"></path>
            <path d="M95.2379,271.1037 C95.2379,293.0197 87.4859,310.7857 77.9219,310.7857 C68.3589,310.7857 60.6059,293.0197 60.6059,271.1037 C60.6059,249.1877 68.3589,231.4207 77.9219,231.4207 C87.4859,231.4207 95.2379,249.1877 95.2379,271.1037" id="Fill-3" fill="#C5C7C9"></path>
            <path d="M350.7657,122.2941 L77.9217,122.2941 C113.7847,122.2941 142.8567,188.9191 142.8567,271.1041 C142.8567,353.2891 113.7847,419.9131 77.9217,419.9131 L350.7657,419.9131 C386.6277,419.9131 415.7007,353.2891 415.7007,271.1041 C415.7007,188.9191 386.6277,122.2941 350.7657,122.2941" id="Fill-5" fill="#C5C7C9"></path>
            <g id="Group-9" transform="translate(77.000000, 121.845000)">
                <mask id="mask-2" fill="white">
                    <use xlink:href="#path-1"></use>
                </mask>
                <g id="Clip-8"></g>
                <path d="M38.1373,27.3114 C38.1373,27.3114 69.7153,73.3384 65.3513,167.8464 L65.3513,471.8394 L71.3543,477.0004 L81.4333,468.3424 L91.5063,477.0004 L101.5763,468.3424 L111.6513,477.0004 L121.7283,468.3424 L131.8013,477.0004 L141.8763,468.3424 L151.9523,477.0004 L162.0123,468.3424 L172.0683,477.0004 L182.1283,468.3424 L192.2043,477.0004 L202.2783,468.3424 L212.3443,477.0004 L222.4163,468.3424 L232.5003,477.0004 L242.5723,468.3424 L252.6573,477.0004 L262.7353,468.3424 L272.8243,477.0004 L282.9053,468.3424 L292.9933,477.0004 L303.0803,468.3424 L313.1503,477.0004 L323.2343,468.3424 L333.3303,477.0004 L338.7003,472.3944 L338.7003,162.7874 C338.7003,162.7874 343.6433,77.3364 309.1873,24.5534 C309.1873,24.5534 293.3463,1.3664 278.6283,0.9084 L0.0413,0.4514 C4.9703,0.6094 23.5293,2.8784 38.1373,27.3114" id="Fill-7" fill="#E6E7E8" mask="url(#mask-2)"></path>
            </g>
            <path d="M138.4459,0.0002 C130.2769,0.0002 123.6549,10.1752 123.6549,22.7272" id="Fill-10" fill="#6D6E71"></path>
            <path d="M293.2901,0.0002 L137.4461,0.0002 C145.6141,0.0002 152.2371,10.1752 152.2371,22.7272 C152.2371,35.2792 145.6141,45.4552 137.4461,45.4552 L293.2901,45.4552 C301.4581,45.4552 308.0801,35.2792 308.0801,22.7272 C308.0801,10.1752 301.4581,0.0002 293.2901,0.0002" id="Fill-12" fill="#808285"></path>
            <path d="M25.9742,137.446 L25.9742,66.017 C25.9742,48.712 40.0542,34.632 57.3592,34.632 L141.9932,34.632 C144.6572,32.224 146.4642,27.82 146.4642,22.727 C146.4642,15.073 142.4262,8.869 137.4462,8.869 L137.5562,8.658 L57.3592,8.658 C25.7312,8.658 0.0002,34.389 0.0002,66.017 L0.0002,137.446 C0.0002,274.133 86.9082,291.467 92.5072,292.438 C94.2272,286.273 95.2382,278.965 95.2382,271.104 C95.2382,269.517 95.1862,267.961 95.1072,266.423 C83.6172,263.485 25.9742,243.45 25.9742,137.446" id="Fill-14" fill="#BCBEC0"></path>
            <path d="M367.9649,8.6579 L304.8949,8.6579 C304.8949,8.6579 310.8089,20.9689 305.8819,34.6319 L367.9649,34.6319 C385.2709,34.6319 399.3509,48.7119 399.3509,66.0169 L399.3509,172.4139 C419.2399,223.2639 415.6999,284.6319 415.6999,284.6319 L415.6999,287.3829 C421.2319,285.8939 425.3239,280.8929 425.3239,274.8919 L425.3239,66.0169 C425.3239,34.3889 399.5939,8.6579 367.9649,8.6579" id="Fill-16" fill="#BCBEC0"></path>
        </g>
    </g>
</svg>