<?xml version="1.0" encoding="UTF-8"?>
<svg width="54px" height="47px" viewBox="0 0 54 47" version="1.1" xmlns="http://www.w3.org/2000/svg" xmlns:xlink="http://www.w3.org/1999/xlink">
    <!-- Generator: Sketch 43.2 (39069) - http://www.bohemiancoding.com/sketch -->
    <title>ico-pushups</title>
    <desc>Created with Sketch.</desc>
    <defs></defs>
    <g id="Page-1" stroke="none" stroke-width="1" fill="none" fill-rule="evenodd">
        <g id="board-color" transform="translate(-212.000000, -880.000000)">
            <g id="9.-Pony-Pushups" transform="translate(200.000000, 841.000000)">
                <g id="ico-pushups" transform="translate(12.000000, 39.000000)">
                    <path d="M43.7977881,7.03671034 C43.0063254,7.48158966 42.5823851,7.52696897 38.1688925,7.38921034 C33.7554,7.25064138 31.9822657,8.1476931 28.1966239,10.9693138 C24.4117881,13.7909345 19.5534,15.8362448 16.5366537,15.5202103 C14.152594,15.2706241 12.0272507,14.7949517 9.2934,17.4431586 C7.83217612,18.8580207 5.67942985,20.4746586 3.67659403,21.9049172 L3.67659403,31.5139862 C4.50110149,31.3875724 5.55369851,31.2465724 6.96898209,31.0958483 C12.2521164,30.5359 21.2096687,25.3059345 21.2096687,25.3059345 C21.2096687,25.3059345 22.6886239,25.2905379 24.2626836,24.8002793 C27.6292209,23.7516931 27.8556985,23.1625724 30.1809224,21.5710552 C32.5988328,19.916331 34.1994896,19.7866759 36.9542955,18.8320897 C39.7099075,17.8775034 39.721191,17.1684517 40.4973403,15.9464517 C41.2726836,14.7244517 41.9738776,12.067331 44.3555194,11.0779 C44.3555194,11.0779 44.5884448,6.59183103 43.7977881,7.03671034" id="Fill-1" fill="#FBD0A4"></path>
                    <path d="M34.0978567,41.4023 C34.3090209,42.339869 33.7875582,42.4508862 33.5530209,42.6396966 C33.5352896,42.6534724 33.5135284,42.6648172 33.4853194,42.6713 C33.4675881,42.6794034 33.4458269,42.6810241 33.4224537,42.6850759 L33.4168119,42.6850759 C33.3313791,42.6931793 33.2225731,42.6794034 33.1024836,42.6510414 L33.1008716,42.6510414 C32.7269015,42.5659552 32.2376776,42.3455414 31.9765433,42.2029207 C31.580006,41.9816966 31.1931403,41.7896448 30.418603,41.1762138 C29.6424537,40.5603517 29.0476478,37.1787828 28.5149015,35.8084897 C27.9813493,34.4406276 26.9408418,34.0751621 26.9464836,32.845869 C26.9489015,32.6473345 26.9980657,32.4488 27.0826925,32.2462138 C27.5195284,31.2041103 28.8977373,30.0979897 29.4586925,28.5672483 C30.1284537,26.7423517 28.9154687,22.693869 28.5519761,18.6664552 C28.1884836,14.6414724 29.4586925,13.1625931 29.4586925,13.1625931 C30.7901552,10.779369 33.4579164,8.85966207 34.2284239,10.4819724 C34.9981254,12.1042828 33.5530209,24.5284897 33.5530209,24.5284897 C33.5530209,24.5284897 33.6158866,24.6889379 33.4401851,25.866369 C33.2644836,27.0438 33.1621254,29.7422483 33.1637373,30.6992655 C33.1637373,31.6570931 33.1911403,33.127869 33.1637373,33.8968862 C33.1339164,34.6626621 32.8002448,38.0482828 32.7921851,38.8108172 C32.7849313,39.5733517 33.3273493,40.3999034 33.4401851,40.5368517 C33.5546328,40.6738 33.8866925,40.464731 34.0978567,41.4023" id="Fill-3" fill="#F8BB9A"></path>
                    <path d="M50.3077701,11.6568103 C50.5471433,11.0255517 50.8300388,10.3918621 51.0500687,9.92348276 C51.2700985,9.45510345 51.6513224,9.61312069 51.8697403,9.33274138 C52.0881582,9.05236207 52.6386358,7.57267241 53.0714418,6.2202069 C53.6976806,4.26646552 50.8211731,1.15393103 48.7135612,0.974844828 C46.6051433,0.795758621 44.9891731,1.99587931 44.2033522,2.75598276 C43.4183373,3.51527586 42.347203,6.80041379 42.0562478,7.18775862 C41.7660985,7.57591379 40.6514418,8.60018966 40.6514418,8.60018966 L42.6792627,11.7905172 C42.6792627,11.7905172 45.3470239,12.1956897 45.8692925,12.4679655 L45.8692925,12.4679655 C46.0635313,12.7272759 46.2497104,12.9557931 46.4197701,13.0562759 C46.9347851,13.3593448 47.0653522,12.9736207 47.3329343,12.7053966 C47.6013224,12.4371724 47.8447254,12.408 48.0309045,12.4687759 C48.2170836,12.5287414 48.3275015,12.1657069 48.4717701,12.2297241 C48.6152328,12.2937414 48.6184567,12.3366897 48.8441284,12.0717069 C49.068994,11.8075345 49.0673821,11.7856552 49.4631134,12.0668448 C49.8588448,12.3472241 50.068397,12.288069 50.3077701,11.6568103" id="Fill-5" fill="#FBD0A4"></path>
                    <g id="Group-9" transform="translate(0.000000, 13.504234)" fill="#FBD0A4">
                        <path d="M2.49625075,18.2049638 C4.32338507,18.7422224 4.76908657,17.8257224 6.9685791,17.5915328 C12.2517134,17.0315845 21.2100716,11.801619 21.2100716,11.801619 C21.2100716,11.801619 18.6108179,5.05873966 18.7043104,1.85706724 C17.9563701,1.92594655 16.8747582,1.7857569 16.2170866,1.51753276 C13.5751164,0.441394828 11.7173552,0.268791379 8.98350448,2.91618793 C6.51078806,5.3107569 0.134758209,8.49703276 0.0122507463,10.9685845 C-0.109450746,13.4393259 0.669116418,17.6677052 2.49625075,18.2049638" id="Fill-7"></path>
                    </g>
                    <path d="M38.1642985,8.15984828 C42.904209,10.041469 42.9864179,13.3411931 42.5987463,16.8200034 C42.2110746,20.2988138 41.6404478,24.4777621 42.5382985,26.9979345 C43.4369552,29.5181069 43.2161194,34.481469 42.3231045,38.5672276 C41.4308955,42.6529862 41.9193134,44.2307276 42.9904478,44.5062448 C44.0615821,44.7817621 47.6151045,45.1561414 47.6868358,45.8465552 C47.7698507,46.6512276 46.0176716,45.9794517 44.0212836,46.3813828 C42.0240896,46.7841241 39.4409552,47.1034 39.013791,45.7363483 C38.5866269,44.3684862 39.0790746,43.4430724 38.2166866,39.2163138 C37.3551045,34.9903655 36.666806,32.4086069 37.0294925,29.6234517 C37.3921791,26.8374862 35.830209,22.3668138 36.0784478,16.6571241 C36.2194925,13.4206069 34.1489552,14.9740379 33.670209,12.3298828 C33.1906567,9.68653793 35.8592239,7.24496897 38.1642985,8.15984828" id="Fill-10" fill="#F0C79D"></path>
                    <path d="M38.7362955,8.15984828 C43.476206,10.041469 43.5584149,13.3411931 43.1707433,16.8200034 C42.7830716,20.2988138 42.2124448,24.4777621 43.1102955,26.9979345 C44.0089522,29.5181069 43.7881164,34.481469 42.8951015,38.5672276 C42.0028925,42.6529862 42.4913104,44.2307276 43.5624448,44.5062448 C44.6335791,44.7817621 48.1871015,45.1561414 48.2588328,45.8465552 C48.3418478,46.6512276 46.5896687,45.9794517 44.5932806,46.3813828 C42.5960866,46.7841241 40.0129522,47.1034 39.5857881,45.7363483 C39.1586239,44.3684862 39.6510716,43.4430724 38.7886836,39.2163138 C37.9271015,34.9903655 37.238803,32.4086069 37.6014896,29.6234517 C37.9641761,26.8374862 36.402206,22.3668138 36.6504448,16.6571241 C36.7914896,13.4206069 34.7209522,14.9740379 34.242206,12.3298828 C33.7626537,9.68653793 36.4312209,7.24496897 38.7362955,8.15984828" id="Fill-12" fill="#FBD0A4"></path>
                    <path d="M29.2429343,13.498481 C29.2429343,13.498481 28.7633821,15.1977741 29.6338299,17.2827914 C30.5042776,19.3678086 33.5129642,25.3303259 33.5129642,25.3303259 C33.5129642,25.3303259 34.2407552,25.17555 34.2238299,24.7533603 C34.2077104,24.331981 33.6395015,19.6652052 32.8746358,18.10205 C32.1089642,16.5380845 29.4508746,12.8647914 29.4508746,12.8647914 C29.4508746,12.8647914 29.3146657,12.9660845 29.2429343,13.498481" id="Fill-14" fill="#EBB293"></path>
                    <path d="M44.122594,38.866569 C43.8517881,38.8106552 43.0305045,38.2944655 43.0305045,38.2944655 C43.0305045,38.2944655 42.0802657,37.1567414 41.4645045,35.2111034 C40.8479373,33.2670862 40.5698776,30.785 39.5978776,28.4025862 C38.6266836,26.0193621 38.1326239,24.0340172 37.9569224,22.9773276 C37.7812209,21.9190172 37.0389224,14.5003103 36.9873403,13.3115345 C36.9357582,12.1219483 37.0719672,10.0353103 36.9123851,8.99239655 C36.7503851,7.9502931 36.0846537,5.15622414 33.998803,4.59222414 C31.9113403,4.02822414 25.2838478,4.67568966 23.737191,4.75105172 C21.8891015,5.07113793 19.9733104,5.17243103 17.0798776,5.19593103 L15.0045045,5.35475862 C15.0045045,5.35475862 13.6432209,6.14727586 13.5448925,9.91943103 C13.5231313,10.7395 13.5368328,11.4947414 13.6101761,12.1697586 C13.8648627,14.6016034 14.8578179,16.0278103 17.5618478,15.9597414 C21.0162358,15.8770862 25.7182657,13.9427931 27.4325642,13.2215862 C28.6568328,12.7078276 29.4136388,12.198931 29.7432806,11.9533966 L29.7448925,11.9509655 C29.8617582,11.8634483 29.9246239,11.8099655 29.9383254,11.7978103 C29.8794896,11.8812759 28.1531015,14.3536379 31.1174597,19.5698276 C34.1334,24.8775862 34.9571015,28.503069 34.8208925,29.2996379 C34.6862955,30.0937759 33.4539672,32.5207586 34.3921164,33.5571897 C35.3302657,34.5936207 38.2551313,35.8083276 39.0014597,37.2345345 C39.7477881,38.6623621 40.2474896,39.6850172 40.7214,40.0245517 C41.1936985,40.3640862 42.0117582,40.4013621 42.3115791,40.3559828 C42.6114,40.3097931 43.3980269,40.2125517 43.7042955,40.3138448 C44.0081463,40.4151379 44.4506239,40.4475517 44.3934,40.0245517 C44.3361761,39.5991207 44.3934,38.9241034 44.122594,38.866569" id="Fill-16" fill="#F8BB9A"></path>
                    <path d="M53.3180687,3.97992759 C53.8653224,5.18734138 53.6114418,6.82342759 53.5131134,7.2521 C53.4139791,7.68158276 53.4486358,7.88254828 53.4486358,7.88254828 C53.4486358,7.88254828 50.2779493,4.77325517 48.6410239,7.47818621 C48.4709642,7.75937586 48.1558299,6.96766897 48.636994,6.31047931 C49.1181582,5.65328966 48.0857104,5.3558931 47.4917104,5.87775517 C46.8977104,6.40042759 47.0097403,6.78534138 46.0804567,6.49604828 C45.1511731,6.20756552 43.4868448,6.03091034 43.0048746,6.08520345 C42.5220985,6.13868621 42.3842776,5.87208276 42.3842776,5.87208276 C42.3842776,5.87208276 42.5422478,5.35508276 42.8058,4.87941034 C42.9178299,4.67682414 44.1453224,1.87384138 45.9216806,0.728013793 C47.6988448,-0.417813793 50.6793224,-0.456710345 52.5878597,2.42244483" id="Fill-18" fill="#3D311E"></path>
                    <path d="M33.4856418,42.6710569 C33.4896716,42.6832121 33.4775821,42.6888845 33.4405075,42.6872638 C33.4364776,42.6872638 33.4300299,42.6872638 33.4227761,42.6848328 L33.4163284,42.6848328 C33.3687761,42.6832121 33.2583582,42.6710569 33.102806,42.6507983 L33.1003881,42.6507983 C32.7272239,42.5657121 32.237194,42.3452983 31.9768657,42.2026776 C31.5795224,41.9822638 31.1926567,41.7894017 30.4189254,41.1759707 C29.6427761,40.5601086 29.0479701,37.1785397 28.5144179,35.8090569 C27.9816716,34.4403845 26.9403582,34.074919 26.946806,32.8464362 C26.9484179,32.6479017 26.9983881,32.4485569 27.0830149,32.246781 C27.1168657,32.6154879 27.1587761,33.3318328 27.4182985,33.7086431 C27.6004478,33.9711948 27.9236418,34.3658328 28.3548358,34.4865741 C28.6885075,34.5797638 28.943194,34.8463672 28.9842985,35.1923845 C29.0447463,35.69885 29.1978806,36.523781 29.565403,37.8341086 C30.0602687,39.5990397 30.5124179,41.0609017 31.7374925,41.529281 C32.4419104,41.7991259 32.9585373,42.2261776 33.1640597,42.4125569 C33.3155821,42.5519362 33.4759701,42.6394534 33.4856418,42.6710569" id="Fill-20" fill="#EBB293"></path>
                    <path d="M30.7167313,10.2454328 L29.7447313,11.9512086 L29.7431194,11.9528293 C29.4134776,12.1991741 28.6566716,12.7072603 27.432403,13.2218293 C25.7181045,13.9430362 21.0160746,15.876519 17.5616866,15.9599845 C14.8584627,16.0272431 13.8647015,14.6018466 13.6100149,12.1691914 C13.6100149,12.1691914 17.0249104,14.1350879 21.8333284,13.1027086 C26.6441642,12.0703293 30.7167313,10.2454328 30.7167313,10.2454328" id="Fill-22" fill="#EBB293"></path>
                    <path d="M32.7446,42.4408379 C32.7446,42.4408379 32.6768985,41.5413552 32.1151373,41.4003552 C32.1151373,41.4003552 32.4842716,41.3525448 32.608391,41.6564241 C32.7325104,41.9603034 32.825197,42.4578552 32.825197,42.4578552 L32.7615254,42.5016138 L32.7446,42.4408379 Z" id="Fill-24" fill="#E39251"></path>
                    <path d="M42.844809,40.2379155 C42.844809,40.2379155 43.2058836,39.9186397 43.0825701,39.5718121 C42.9592567,39.2241741 42.7247194,38.9510879 42.4160328,38.9389328 C42.4160328,38.9389328 43.2937343,38.9826914 43.2929284,39.6463638 C43.2913164,40.3092259 43.1808985,40.27195 43.1808985,40.27195 L42.8166,40.2946397 L42.844809,40.2379155 Z" id="Fill-26" fill="#E39251"></path>
                    <path d="M43.6657701,40.3036345 C43.6657701,40.3036345 44.1501582,39.8263414 43.7737701,39.3360828 C43.7737701,39.3360828 44.2460687,39.6918241 43.8527552,40.3546862 L43.6657701,40.3036345 Z" id="Fill-28" fill="#E39251"></path>
                </g>
            </g>
        </g>
    </g>
</svg>