<?xml version="1.0" encoding="UTF-8"?>
<svg width="30px" height="51px" viewBox="0 0 30 51" version="1.1" xmlns="http://www.w3.org/2000/svg" xmlns:xlink="http://www.w3.org/1999/xlink">
    <!-- Generator: Sketch 43.2 (39069) - http://www.bohemiancoding.com/sketch -->
    <title>ico-penis</title>
    <desc>Created with Sketch.</desc>
    <defs>
        <polygon id="path-1" points="23.9593103 0.0840866505 23.9593103 45.4696214 0.141834483 45.4696214 0.141834483 0.0840866505 23.9593103 0.0840866505"></polygon>
    </defs>
    <g id="Page-1" stroke="none" stroke-width="1" fill="none" fill-rule="evenodd">
        <g id="board-color" transform="translate(-466.000000, -873.000000)">
            <g id="6.-Reward" transform="translate(440.000000, 841.000000)">
                <g id="ico-penis" transform="translate(26.000000, 32.000000)">
                    <g id="Group-3" transform="translate(0.000000, 0.168569)" fill="#FBD4AB">
                        <path d="M29.7494207,5.56430186 C29.666869,7.3923585 28.5275586,8.9307339 28.4759034,10.7681829 C28.4710759,10.9639402 28.4643172,11.1621692 28.3933517,11.3430964 C28.2354897,11.7365883 27.7894207,11.9422323 27.374731,11.9397606 C26.9595586,11.9397606 26.5632138,11.7706975 26.1813517,11.6065778 C24.7828,13.9245219 23.8699034,16.3927444 23.086869,18.9865284 C22.348731,21.4275624 21.7993517,24.0020672 21.7993517,26.569157 C21.7993517,32.1235227 22.978731,38.2814734 22.978731,42.145208 C22.978731,46.0089426 20.5021793,46.6125276 15.7856276,47.895331 C13.0619034,48.6363415 9.1448,49.8054475 5.93493793,49.9186506 C3.59066207,50.0031821 1.62148966,49.5202153 0.769903448,47.895331 C-0.666303448,45.1492913 0.982317241,42.3627161 1.05569655,42.2416036 C1.05569655,42.239132 1.05569655,42.239132 1.05762759,42.2371546 C1.05762759,42.2371546 0.286662069,41.2494701 0.0602482759,39.8099621 C-0.0363034483,39.1821546 -0.0319586207,38.4673439 0.185282759,37.713975 C1.6968,32.4833998 9.18245517,35.5453205 9.18245517,35.5453205 C9.18245517,26.7308051 13.4273517,6.76702273 20.7382483,1.81624199 C23.1742483,0.167135194 26.6505931,-0.593648786 28.6810759,2.10641756 C29.2092138,2.80886982 29.5514897,3.65665704 29.6856966,4.53311578 C29.7397655,4.87371367 29.7610069,5.22123228 29.7494207,5.56430186" id="Fill-1"></path>
                    </g>
                    <path d="M1.05786897,42.4055256 C1.05786897,42.4055256 0.286903448,41.4178412 0.0604896552,39.9783331 C0.489662069,40.3866551 0.998972414,40.7055022 1.46338621,40.7465321 C2.37628276,40.8261203 3.32876552,40.0267781 4.17069655,39.7588477 C6.0998,39.145376 8.31662759,39.6792595 8.31662759,39.6792595 C8.31662759,39.6792595 3.38814483,39.4375289 1.05786897,42.4055256" id="Fill-4" fill="#F9BE92"></path>
                    <g id="Group-8" transform="translate(5.793103, 4.617598)">
                        <mask id="mask-2" fill="white">
                            <use xlink:href="#path-1"></use>
                        </mask>
                        <g id="Clip-7"></g>
                        <path d="M23.9563172,1.11527273 C23.8737655,2.94332937 22.7344552,4.48170477 22.6828,6.3191538 C22.6779724,6.51491108 22.6712138,6.71314005 22.6002483,6.89406723 C22.4423862,7.28755914 21.9963172,7.49320316 21.5816276,7.49073147 C21.1664552,7.49073147 20.7701103,7.32166837 20.3882483,7.15754862 C18.9896966,9.4754928 18.0768,11.9437153 17.2937655,14.5374993 C16.5556276,16.9785333 16.0062483,19.5530381 16.0062483,22.1201279 C16.0062483,27.6744936 17.1856276,33.8324443 17.1856276,37.6961789 C17.1856276,41.5599135 14.7090759,42.1634985 9.99252414,43.4463019 C7.2688,44.1873124 3.35169655,45.3564184 0.141834483,45.4696214 C0.316110345,45.4142557 0.490868966,45.351475 0.663213793,45.2837509 C3.8865931,44.020721 6.16714483,41.1130333 8.89811034,38.9542655 C9.66714483,38.3457371 10.4781793,37.7925745 11.1859034,37.1094014 C15.2019724,33.228365 13.5842483,27.1094669 13.416731,22.1008488 C13.3153517,19.125437 13.7001103,16.1623836 14.2306621,13.2428318 C14.4971448,11.7795956 14.7023172,10.2338051 15.1126621,8.80418374 C15.4404552,7.66226626 16.0062483,6.83622985 16.0723862,5.56133584 C16.0815586,5.36310688 16.0839724,5.1579572 16.0226621,4.96961497 C15.8812138,4.53459879 15.4520414,4.27853244 15.0465241,4.09019021 C13.6175586,3.4262962 12.0394207,3.09805672 10.4714207,3.13908665 C12.4285241,2.63931238 14.4783172,3.17517322 16.4238345,3.7115284 C17.3362483,3.96017969 18.246731,4.2157517 19.1572138,4.45995396 C19.8031448,4.63396044 20.7464552,4.98147905 21.3996276,4.78127273 C22.0363862,4.58798714 22.3665931,3.8899839 22.6263172,3.26464814 C23.0694897,2.18748875 23.5271448,1.15383099 23.8925931,0.0840866505 C23.9466621,0.424684547 23.9679034,0.772203155 23.9563172,1.11527273" id="Fill-6" fill="#F9BE92" mask="url(#mask-2)"></path>
                    </g>
                </g>
            </g>
        </g>
    </g>
</svg>