<?xml version="1.0" encoding="UTF-8"?>
<svg width="59px" height="22px" viewBox="0 0 59 22" version="1.1" xmlns="http://www.w3.org/2000/svg" xmlns:xlink="http://www.w3.org/1999/xlink">
    <!-- Generator: Sketch 43.2 (39069) - http://www.bohemiancoding.com/sketch -->
    <title>ico-blindfold</title>
    <desc>Created with Sketch.</desc>
    <defs>
        <polygon id="path-1" points="8.79348725 6.56783448 8.79348725 0.0012137931 0.00220687636 0.0012137931 0.00220687636 6.56783448 8.79348725 6.56783448"></polygon>
    </defs>
    <g id="Page-1" stroke="none" stroke-width="1" fill="none" fill-rule="evenodd">
        <g id="board-color" transform="translate(-610.000000, -890.000000)">
            <g id="4.-Blindfold" transform="translate(600.000000, 841.000000)">
                <g id="ico-blindfold" transform="translate(10.000000, 49.000000)">
                    <path d="M57.2259727,14.2927823 C57.0640633,14.8660828 56.4657307,15.201935 55.8961413,15.0389399 L49.5107329,13.2119645 C48.9412512,13.0490778 48.607636,12.4466246 48.7695454,11.8732158 L49.9641653,7.64173793 C50.125967,7.06843744 50.7244073,6.73258522 51.2939967,6.8955803 L57.679405,8.72255567 C58.2488868,8.88544236 58.5825019,9.48789557 58.4205925,10.0613044 L57.2259727,14.2927823 Z" id="Fill-1" fill="#737373"></path>
                    <g id="Group-5" transform="translate(49.735458, 8.712867)">
                        <mask id="mask-2" fill="white">
                            <use xlink:href="#path-1"></use>
                        </mask>
                        <g id="Clip-4"></g>
                        <path d="M8.79354108,5.48409064 C8.79354108,6.08014975 8.30910481,6.56783448 7.71701603,6.56783448 L1.07873193,6.56783448 C0.486643151,6.56783448 0.00220687636,6.08014975 0.00220687636,5.48409064 L0.00220687636,1.08495764 C0.00220687636,0.488898522 0.486643151,0.0012137931 1.07873193,0.0012137931 L7.71701603,0.0012137931 C8.30910481,0.0012137931 8.79354108,0.488898522 8.79354108,1.08495764 L8.79354108,5.48409064 Z" id="Fill-3" fill="#4D4D4D" mask="url(#mask-2)"></path>
                    </g>
                    <path d="M1.30302593,14.2927823 C1.46493529,14.8660828 2.06326792,15.201935 2.63285733,15.0389399 L9.01826569,13.2119645 C9.58774744,13.0490778 9.92136255,12.4466246 9.75945319,11.8732158 L8.56483333,7.64173793 C8.40303162,7.06843744 7.80459134,6.73258522 7.23500193,6.8955803 L0.849593573,8.72255567 C0.280111819,8.88544236 -0.0535032952,9.48789557 0.108406073,10.0613044 L1.30302593,14.2927823 Z" id="Fill-6" fill="#737373"></path>
                    <path d="M0,14.1969576 C0,14.7930167 0.484436275,15.2807015 1.07652505,15.2807015 L7.71480915,15.2807015 C8.30689793,15.2807015 8.7913342,14.7930167 8.7913342,14.1969576 L8.7913342,9.79782463 C8.7913342,9.20176552 8.30689793,8.71408079 7.71480915,8.71408079 L1.07652505,8.71408079 C0.484436275,8.71408079 0,9.20176552 0,9.79782463 L0,14.1969576 Z" id="Fill-8" fill="#4D4D4D"></path>
                    <path d="M45.2280579,21.9345419 C43.1261427,21.9345419 41.4452565,20.8237044 39.6656529,19.6476256 C39.1376174,19.2986601 38.5916039,18.9378818 38.0325644,18.6065813 C35.570121,17.1475369 32.4664993,16.3439409 29.2934417,16.3439409 C26.0973464,16.3439409 22.9653044,17.1566404 20.4743331,18.632266 C19.9248747,18.9577143 19.3873658,19.3114483 18.8676195,19.6536946 C17.0857552,20.8266305 15.4026083,21.9345419 13.3008008,21.9345419 C8.13821722,21.9345419 3.93815472,17.7063153 3.93815472,12.5091133 C3.93815472,10.7728473 4.41128748,9.07581281 5.30631041,7.60159606 L5.32762561,7.56648276 L5.34549592,7.52952709 C6.23395205,5.68987192 8.19990211,4.08224631 10.6042132,3.22923153 C16.6250025,1.08634483 22.9182603,-2.84217094e-14 29.3098049,-2.84217094e-14 C35.7013494,-2.84217094e-14 41.9946072,1.08634483 48.0145353,3.22901478 C51.214829,4.36434483 52.9487879,6.48208867 53.5048131,8.08537931 L53.5245135,8.14216749 L53.5519649,8.19570443 C54.2412639,9.54084729 54.5908116,10.9919803 54.5908116,12.5091133 C54.5908116,17.7063153 50.3907491,21.9345419 45.2280579,21.9345419" id="Fill-10" fill="#606060"></path>
                    <path d="M45.2280363,20.850798 C43.4481098,20.850798 41.9692874,19.8734778 40.2567513,18.7419409 C39.7180582,18.3858227 39.1613871,18.018 38.5785564,17.6726108 C35.9532347,16.1170049 32.6557308,15.260197 29.2934201,15.260197 C25.9082871,15.260197 22.582363,16.126 19.9284057,17.6981872 C19.3572015,18.036532 18.809035,18.3973103 18.278954,18.7462759 C16.5632961,19.8757537 15.0819976,20.850798 13.3007792,20.850798 C8.7317916,20.850798 5.01465824,17.1087389 5.01465824,12.5091133 C5.01465824,10.9723645 5.43310353,9.47083744 6.22488771,8.1666601 L6.27311603,8.08722167 L6.31305511,8.00464039 C7.08104809,6.41435468 8.81877483,5.0117734 10.9620286,4.25141872 C16.8680603,2.14938916 23.0407473,1.08374384 29.3097833,1.08374384 C35.5788193,1.08374384 41.751291,2.14928079 47.6558157,4.25087685 C50.4969806,5.25875862 52.0148809,7.07695567 52.4883366,8.44247291 L52.5333354,8.5719803 L52.5955585,8.69292611 C53.205087,9.8826601 53.5143726,11.1666798 53.5143726,12.5091133 C53.5143726,17.1087389 49.7971316,20.850798 45.2280363,20.850798" id="Fill-12" fill="#606060"></path>
                    <path d="M45.2280363,20.850798 C43.4481098,20.850798 41.9692874,19.8734778 40.2567513,18.7419409 C39.7180582,18.3858227 39.1613871,18.018 38.5785564,17.6726108 C35.9532347,16.1170049 32.6557308,15.260197 29.2934201,15.260197 C25.9082871,15.260197 22.582363,16.126 19.9284057,17.6981872 C19.3572015,18.036532 18.809035,18.3973103 18.278954,18.7462759 C16.5632961,19.8757537 15.0819976,20.850798 13.3007792,20.850798 C8.7317916,20.850798 5.01465824,17.1087389 5.01465824,12.5091133 C5.01465824,10.9723645 5.43310353,9.47083744 6.22488771,8.1666601 L6.27311603,8.08722167 L6.31305511,8.00464039 C7.08104809,6.41435468 8.81877483,5.0117734 10.9620286,4.25141872 C16.8680603,2.14938916 23.0407473,1.08374384 29.3097833,1.08374384 C35.5788193,1.08374384 41.751291,2.14928079 47.6558157,4.25087685 C50.4969806,5.25875862 52.0148809,7.07695567 52.4883366,8.44247291 L52.5333354,8.5719803 L52.5955585,8.69292611 C53.205087,9.8826601 53.5143726,11.1666798 53.5143726,12.5091133 C53.5143726,17.1087389 49.7971316,20.850798 45.2280363,20.850798 Z" id="Stroke-14" stroke="#545454" stroke-dasharray="1"></path>
                </g>
            </g>
        </g>
    </g>
</svg>