<?xml version="1.0" encoding="UTF-8"?>
<svg width="99px" height="123px" viewBox="0 0 99 123" version="1.1" xmlns="http://www.w3.org/2000/svg" xmlns:xlink="http://www.w3.org/1999/xlink">
    <!-- Generator: Sketch 47.1 (45422) - http://www.bohemiancoding.com/sketch -->
    <title>ico-makeup</title>
    <desc>Created with Sketch.</desc>
    <defs>
        <polygon id="path-1" points="0.1676 0.073 15.1916 0.073 15.1916 33.9227 0.1676 33.9227"></polygon>
        <polygon id="path-3" points="0 113 58.027 113 58.027 0.073 0 0.073"></polygon>
        <polygon id="path-5" points="0.9116 53 13.2336 53 13.2336 0.6935 0.9116 0.6935"></polygon>
        <polygon id="path-7" points="20.0725806 0.829 40.145 0.829 40.145 41.05 0.000161251884 41.05 0.000161251884 0.829"></polygon>
        <polygon id="path-9" points="10.08605 0.829 20.145 0.829 20.145 123 10.08605 123 0.0271 123 0.0271 0.829"></polygon>
    </defs>
    <g id="Page-1" stroke="none" stroke-width="1" fill="none" fill-rule="evenodd">
        <g id="ico-makeup" transform="translate(0.000000, -1.000000)">
            <g id="Page-1" transform="translate(40.000000, 8.000000)">
                <polygon id="Fill-1" fill="#FFD6A0" points="3.171 54.038 24.189 54.038 24.189 34.85 3.171 34.85"></polygon>
                <g id="Group-13" transform="translate(0.000000, 0.927000)">
                    <g id="Group-4" transform="translate(6.000000, 0.000000)">
                        <mask id="mask-2" fill="white">
                            <use xlink:href="#path-1"></use>
                        </mask>
                        <g id="Clip-3"></g>
                        <path d="M14.5886,9.5057 L1.5076,0.2217 C0.9896,-0.1453 0.2556,0.2067 0.2546,0.8237 L0.1676,33.9227 L15.1916,33.9227 L15.1916,10.6517 C15.1916,10.2007 14.9676,9.7747 14.5886,9.5057" id="Fill-2" fill="#FF302C" mask="url(#mask-2)"></path>
                    </g>
                    <mask id="mask-4" fill="white">
                        <use xlink:href="#path-3"></use>
                    </mask>
                    <g id="Clip-6"></g>
                    <polygon id="Fill-5" fill="#FFD6A0" mask="url(#mask-4)" points="1.256 61.983 26.103 61.983 26.103 52.233 1.256 52.233"></polygon>
                    <path d="M27.1794,60.6654 L13.6794,60.6654 L0.1794,60.6654 C0.1794,60.6654 -0.2986,72.2644 0.3044,79.7384 C1.6754,96.7384 5.6794,112.9994 5.6794,112.9994 L13.6794,112.9994 L21.6794,112.9994 C21.6794,112.9994 25.6844,96.7384 27.0544,79.7384 C27.6574,72.2644 27.1794,60.6654 27.1794,60.6654" id="Fill-7" fill="#202020" mask="url(#mask-4)"></path>
                    <path d="M58.0271,102.8202 L58.0271,103.8202 C58.0271,104.8002 58.0171,105.7602 58.0071,106.6502 C57.9971,107.3602 57.9871,108.0302 57.9671,108.6502 C57.9171,111.2402 57.8471,113.0002 57.8471,113.0002 L30.8471,113.0002 C30.8471,113.0002 30.7771,111.2402 30.7171,108.6502 C30.7071,108.0302 30.6971,107.3602 30.6871,106.6502 C30.6771,105.7502 30.6671,104.8002 30.6671,103.8202 L30.6671,102.8202 C30.6771,99.8102 30.7571,96.6002 30.9671,93.9302 C32.3371,76.9302 36.3471,60.6702 36.3471,60.6702 L52.3471,60.6702 C52.3471,60.6702 56.3471,76.9302 57.7171,93.9302 C57.9371,96.6002 58.0171,99.8102 58.0271,102.8202" id="Fill-9" fill="#202020" mask="url(#mask-4)"></path>
                    <path d="M57.717,93.93 C56.347,76.93 52.347,60.67 52.347,60.67 L44.307,60.67 L44.307,113 L57.847,113 C57.847,113 57.917,111.24 57.967,108.65 C57.987,108.03 57.997,107.36 58.007,106.65 C58.017,105.76 58.027,104.8 58.027,103.82 L58.027,102.82 C58.017,99.81 57.937,96.6 57.717,93.93" id="Fill-12" fill="#202020" mask="url(#mask-4)"></path>
                </g>
            </g>
            <g id="Page-1">
                <g id="Group-3" transform="translate(13.000000, 70.171000)">
                    <mask id="mask-6" fill="white">
                        <use xlink:href="#path-5"></use>
                    </mask>
                    <g id="Clip-2"></g>
                    <path d="M0.9116,0.6935 L0.9116,36.5645 C0.9116,40.5195 0.9536,52.5185 6.8656,52.9785 L6.8656,53.0005 L6.9306,53.0005 C6.9786,53.0005 7.0246,52.9925 7.0726,52.9905 C7.1206,52.9925 7.1656,53.0005 7.2146,53.0005 L7.2796,53.0005 L7.2796,52.9785 C13.1916,52.5185 13.2336,40.5195 13.2336,36.5645 L13.2336,0.6935 L0.9116,0.6935 Z" id="Fill-1" fill="#202020" mask="url(#mask-6)"></path>
                </g>
                <g id="Group-6" transform="translate(0.000000, 0.171000)">
                    <mask id="mask-8" fill="white">
                        <use xlink:href="#path-7"></use>
                    </mask>
                    <g id="Clip-5"></g>
                    <path d="M36.3091,8.425 C32.5961,3.538 26.6411,0.829 20.0731,0.829 C13.5041,0.829 7.5491,3.538 3.8361,8.425 C-4.2929,19.125 1.8681,31.804 9.6221,41.05 L30.5231,41.05 C38.2781,31.804 44.4381,19.125 36.3091,8.425" id="Fill-4" fill="#363636" mask="url(#mask-8)"></path>
                </g>
                <polygon id="Fill-7" fill="#FFD6A0" points="26.2334 70.8645 30.5234 41.2205 9.6224 41.2205 13.9114 70.8645"></polygon>
                <g id="Group-11" transform="translate(20.000000, 0.171000)">
                    <mask id="mask-10" fill="white">
                        <use xlink:href="#path-9"></use>
                    </mask>
                    <g id="Clip-10"></g>
                </g>
            </g>
        </g>
    </g>
</svg>