<?xml version="1.0" encoding="UTF-8"?>
<svg width="32px" height="55px" viewBox="0 0 32 55" version="1.1" xmlns="http://www.w3.org/2000/svg" xmlns:xlink="http://www.w3.org/1999/xlink">
    <!-- Generator: Sketch 43.2 (39069) - http://www.bohemiancoding.com/sketch -->
    <title>ico-tribute</title>
    <desc>Created with Sketch.</desc>
    <defs></defs>
    <g id="Page-1" stroke="none" stroke-width="1" fill="none" fill-rule="evenodd">
        <g id="board-color" transform="translate(-544.000000, -877.000000)">
            <g id="5.-Tribute" transform="translate(520.000000, 841.000000)">
                <g id="ico-tribute" transform="translate(24.000000, 36.000000)">
                    <path d="M18.479,42.403 C20.5283436,42.132332 22.0798281,41.4411722 23.1335,40.3295 C24.1871719,39.2178278 24.714,37.763009 24.714,35.965 C24.714,35.2303297 24.5835013,34.5875028 24.3225,34.0365 C24.0614987,33.4854972 23.694169,32.9973355 23.2205,32.572 C22.746831,32.1466645 22.1910032,31.7793349 21.553,31.47 C20.9149968,31.1606651 20.2190038,30.870668 19.465,30.6 L18.479,42.403 Z M16.623,11.75 C15.5403279,11.885334 14.6220038,12.1124984 13.868,12.4315 C13.1139962,12.7505016 12.4953358,13.1419977 12.012,13.606 C11.5286643,14.0700023 11.1758344,14.5919971 10.9535,15.172 C10.7311656,15.7520029 10.62,16.3609968 10.62,16.999 C10.62,17.7336703 10.7504987,18.3764972 11.0115,18.9275 C11.2725013,19.4785028 11.6301644,19.9714978 12.0845,20.4065 C12.5388356,20.8415022 13.0753302,21.228165 13.694,21.5665 C14.3126698,21.904835 14.9893297,22.2189985 15.724,22.509 L16.623,11.75 Z M20.016,23.901 C21.408007,24.3263355 22.7903265,24.7951641 24.163,25.3075 C25.5356735,25.8198359 26.7681612,26.4819959 27.8605,27.294 C28.9528388,28.1060041 29.83733,29.1161606 30.514,30.3245 C31.1906701,31.5328394 31.529,33.0456576 31.529,34.863 C31.529,36.661009 31.2293363,38.3478255 30.63,39.9235 C30.0306637,41.4991745 29.1510058,42.8911606 27.991,44.0995 C26.8309942,45.3078394 25.4100084,46.2938295 23.728,47.0575 C22.0459916,47.8211705 20.1223442,48.270666 17.957,48.406 L17.609,52.669 C17.5896666,53.1136689 17.4011685,53.5244981 17.0435,53.9015 C16.6858315,54.2785019 16.236336,54.467 15.695,54.467 L13.056,54.467 L13.578,48.261 C11.3159887,47.9516651 9.18934329,47.3330046 7.198,46.405 C5.20665671,45.4769954 3.51500696,44.3266735 2.123,42.954 L4.327,39.677 C4.5203343,39.3869985 4.77649841,39.1501676 5.0955,38.9665 C5.4145016,38.7828324 5.75766483,38.691 6.125,38.691 C6.55033546,38.691 7.00466425,38.8408318 7.488,39.1405 C7.97133575,39.4401682 8.52233024,39.7881647 9.141,40.1845 C9.75966976,40.5808353 10.4653294,40.981998 11.258,41.388 C12.0506706,41.794002 12.9883279,42.0936657 14.071,42.287 L15.144,29.324 C13.7713265,28.9373314 12.4131734,28.4830026 11.0695,27.961 C9.72582662,27.4389974 8.51750537,26.7478376 7.4445,25.8875 C6.37149464,25.0271624 5.50633662,23.9396732 4.849,22.625 C4.19166338,21.3103268 3.863,19.6670099 3.863,17.695 C3.863,16.2256593 4.1529971,14.7901737 4.733,13.3885 C5.3130029,11.9868263 6.16849435,10.7350055 7.2995,9.633 C8.43050566,8.53099449 9.81765845,7.62233691 11.461,6.907 C13.1043416,6.19166309 14.9893227,5.78566715 17.116,5.689 L17.435,2.035 C17.4736669,1.57099768 17.6669983,1.15533517 18.015,0.788 C18.3630017,0.42066483 18.8173305,0.237 19.378,0.237 L22.017,0.237 L21.553,5.921 C23.6023436,6.24966831 25.3713259,6.83449579 26.86,7.6755 C28.3486741,8.5165042 29.6343279,9.45899478 30.717,10.503 L28.977,13.142 C28.7256654,13.5286686 28.464668,13.8186657 28.194,14.012 C27.923332,14.2053343 27.5946686,14.302 27.208,14.302 C26.9179986,14.302 26.570002,14.2101676 26.164,14.0265 C25.757998,13.8428324 25.3036692,13.6205013 24.801,13.3595 C24.2983308,13.0984987 23.7328365,12.832668 23.1045,12.562 C22.4761635,12.291332 21.7850038,12.0690009 21.031,11.895 L20.016,23.901 Z" id="shadow" fill="#5C5C5C"></path>
                    <path d="M16.479,42.403 C18.5283436,42.132332 20.0798281,41.4411722 21.1335,40.3295 C22.1871719,39.2178278 22.714,37.763009 22.714,35.965 C22.714,35.2303297 22.5835013,34.5875028 22.3225,34.0365 C22.0614987,33.4854972 21.694169,32.9973355 21.2205,32.572 C20.746831,32.1466645 20.1910032,31.7793349 19.553,31.47 C18.9149968,31.1606651 18.2190038,30.870668 17.465,30.6 L16.479,42.403 Z M14.623,11.75 C13.5403279,11.885334 12.6220038,12.1124984 11.868,12.4315 C11.1139962,12.7505016 10.4953358,13.1419977 10.012,13.606 C9.52866425,14.0700023 9.17583445,14.5919971 8.9535,15.172 C8.73116556,15.7520029 8.62,16.3609968 8.62,16.999 C8.62,17.7336703 8.7504987,18.3764972 9.0115,18.9275 C9.27250131,19.4785028 9.6301644,19.9714978 10.0845,20.4065 C10.5388356,20.8415022 11.0753302,21.228165 11.694,21.5665 C12.3126698,21.904835 12.9893297,22.2189985 13.724,22.509 L14.623,11.75 Z M18.016,23.901 C19.408007,24.3263355 20.7903265,24.7951641 22.163,25.3075 C23.5356735,25.8198359 24.7681612,26.4819959 25.8605,27.294 C26.9528388,28.1060041 27.83733,29.1161606 28.514,30.3245 C29.1906701,31.5328394 29.529,33.0456576 29.529,34.863 C29.529,36.661009 29.2293363,38.3478255 28.63,39.9235 C28.0306637,41.4991745 27.1510058,42.8911606 25.991,44.0995 C24.8309942,45.3078394 23.4100084,46.2938295 21.728,47.0575 C20.0459916,47.8211705 18.1223442,48.270666 15.957,48.406 L15.609,52.669 C15.5896666,53.1136689 15.4011685,53.5244981 15.0435,53.9015 C14.6858315,54.2785019 14.236336,54.467 13.695,54.467 L11.056,54.467 L11.578,48.261 C9.31598869,47.9516651 7.18934329,47.3330046 5.198,46.405 C3.20665671,45.4769954 1.51500696,44.3266735 0.123,42.954 L2.327,39.677 C2.5203343,39.3869985 2.77649841,39.1501676 3.0955,38.9665 C3.4145016,38.7828324 3.75766483,38.691 4.125,38.691 C4.55033546,38.691 5.00466425,38.8408318 5.488,39.1405 C5.97133575,39.4401682 6.52233024,39.7881647 7.141,40.1845 C7.75966976,40.5808353 8.46532937,40.981998 9.258,41.388 C10.0506706,41.794002 10.9883279,42.0936657 12.071,42.287 L13.144,29.324 C11.7713265,28.9373314 10.4131734,28.4830026 9.0695,27.961 C7.72582662,27.4389974 6.51750537,26.7478376 5.4445,25.8875 C4.37149464,25.0271624 3.50633662,23.9396732 2.849,22.625 C2.19166338,21.3103268 1.863,19.6670099 1.863,17.695 C1.863,16.2256593 2.1529971,14.7901737 2.733,13.3885 C3.3130029,11.9868263 4.16849435,10.7350055 5.2995,9.633 C6.43050566,8.53099449 7.81765845,7.62233691 9.461,6.907 C11.1043416,6.19166309 12.9893227,5.78566715 15.116,5.689 L15.435,2.035 C15.4736669,1.57099768 15.6669983,1.15533517 16.015,0.788 C16.3630017,0.42066483 16.8173305,0.237 17.378,0.237 L20.017,0.237 L19.553,5.921 C21.6023436,6.24966831 23.3713259,6.83449579 24.86,7.6755 C26.3486741,8.5165042 27.6343279,9.45899478 28.717,10.503 L26.977,13.142 C26.7256654,13.5286686 26.464668,13.8186657 26.194,14.012 C25.923332,14.2053343 25.5946686,14.302 25.208,14.302 C24.9179986,14.302 24.570002,14.2101676 24.164,14.0265 C23.757998,13.8428324 23.3036692,13.6205013 22.801,13.3595 C22.2983308,13.0984987 21.7328365,12.832668 21.1045,12.562 C20.4761635,12.291332 19.7850038,12.0690009 19.031,11.895 L18.016,23.901 Z" id="$" fill="#6B6B6B"></path>
                </g>
            </g>
        </g>
    </g>
</svg>