<?xml version="1.0" encoding="UTF-8"?>
<svg width="90px" height="115px" viewBox="0 0 90 115" version="1.1" xmlns="http://www.w3.org/2000/svg" xmlns:xlink="http://www.w3.org/1999/xlink">
    <!-- Generator: Sketch 46.1 (44463) - http://www.bohemiancoding.com/sketch -->
    <title>ico-razor</title>
    <desc>Created with Sketch.</desc>
    <defs>
        <polygon id="path-1" points="54.9210288 0.0968113662 54.9210288 83 0.11567945 83 0.11567945 0.0968113662"></polygon>
        <polygon id="path-3" points="0 2.95894447e-05 60.9262746 2.95894447e-05 60.9262746 46.9679668 3.67158292e-15 46.9679668"></polygon>
    </defs>
    <g id="Page-1" stroke="none" stroke-width="1" fill="none" fill-rule="evenodd">
        <g id="ico-razor">
            <g id="Group-3" transform="translate(35.000000, 32.000000)">
                <mask id="mask-2" fill="white">
                    <use xlink:href="#path-1"></use>
                </mask>
                <g id="Clip-2"></g>
                <path d="M34.1481493,36.4551752 C50.757906,57.5151226 59.1686471,78.3223139 52.7820763,82.4048234 C46.3352732,86.3947606 31.0815343,69.8915737 19.1173308,45.9096628 C7.18306084,21.8300905 -2.28837721,2.08808613 0.657894912,0.235186861 C3.60282854,-1.61747007 17.4386139,15.3792336 34.1481493,36.4551752" id="Fill-1" fill="#6B6B6B" mask="url(#mask-2)"></path>
            </g>
            <path d="M46.358646,47.8979359 C42.0963664,50.5451587 35.7941698,48.2598445 32.2823381,42.7933422 C28.7706286,37.3269602 29.3789842,30.7493626 33.6412638,28.1021399 C37.9035433,25.4547969 44.2057399,27.7401111 47.7175716,33.2066134 C51.2294034,38.6731157 50.6210478,45.2504728 46.358646,47.8979359 Z" id="Fill-4" fill="#5C5C5C"></path>
            <path d="M26.2683644,46.3746618 C24.3671822,47.569945 21.8291933,46.9997674 20.6282824,45.1074944 C19.4273716,43.2152214 20.0002337,40.6890064 21.9014159,39.4937232 L48.7316356,22.6253039 C50.6328178,21.4300207 53.1708067,22.0003176 54.3717176,23.8925907 C55.5726284,25.7847443 54.9997663,28.3109592 53.0985841,29.5062424 L26.2683644,46.3746618 Z" id="Fill-6" fill="#5C5C5C"></path>
            <g id="Group-10">
                <mask id="mask-4" fill="white">
                    <use xlink:href="#path-3"></use>
                </mask>
                <g id="Clip-9"></g>
                <path d="M16.212485,45.6379616 C12.1355908,48.180289 6.69307585,46.9673043 4.11780439,42.9424936 L1.34723553,38.6123632 C-1.22803593,34.5874322 0.000608782435,29.2141662 4.07750299,26.6717187 L44.7138523,1.33006394 C48.7907465,-1.21226343 54.2332615,0.000601023018 56.8084112,4.02553197 L59.57898,8.3556624 C62.1542515,12.3804731 60.9257285,17.7537391 56.8488343,20.2961867 L16.212485,45.6379616 Z" id="Fill-8" fill="#CED9DA" mask="url(#mask-4)"></path>
            </g>
            <path d="M54.6567228,6.2957002 L55,6.8295676 L4.77839515,38 L4.43523939,37.4661326 C3.601462,36.1691201 4.00255946,34.4357518 5.32258553,33.6163913 L50.7375803,5.4291951 C52.0574849,4.60995391 53.8229454,4.99868767 54.6567228,6.2957002" id="Fill-11" fill="#89A1A1"></path>
            <polygon id="Fill-13" fill="#89A1A1" points="6 40.3637099 56.3125078 9 58 11.6362901 7.68749225 43"></polygon>
            <path d="M8,43.1961588 L58.2396434,12 L58.5640884,12.5048034 C59.3980458,13.802767 58.9988691,15.54103 57.6786087,16.3609473 L12.2471919,44.5714077 C10.9266885,45.391325 9.1584024,44.9989258 8.32444502,43.7009622 L8,43.1961588 Z" id="Fill-15" fill="#89A1A1"></path>
            <path d="M49.4226367,4.62388791 L5.77810174,31.811825 C5.20071791,32.1714737 4.43010697,31.9999966 4.06529712,31.4304734 L3.19081756,30.0652155 C2.82612863,29.4958115 3.00000883,28.7357318 3.57739267,28.3760831 L47.2219277,1.18814603 C47.7991906,0.828497356 48.5700433,1.00009366 48.9347323,1.56949764 L49.8092118,2.93475548 C50.1739008,3.50404021 49.9998997,4.26423924 49.4226367,4.62388791" id="Fill-17" fill="#3DBBCC"></path>
        </g>
    </g>
</svg>