<?xml version="1.0" encoding="UTF-8"?>
<svg width="567px" height="413px" viewBox="0 0 567 413" version="1.1" xmlns="http://www.w3.org/2000/svg" xmlns:xlink="http://www.w3.org/1999/xlink">
    <!-- Generator: Sketch 47.1 (45422) - http://www.bohemiancoding.com/sketch -->
    <title>ico-icecubes</title>
    <desc>Created with Sketch.</desc>
    <defs>
        <polygon id="path-1" points="222.613379 0.920321495 222.613379 282 0.0281059172 282 0.0281059172 0.920321495 222.613379 0.920321495"></polygon>
        <polygon id="path-3" points="0 0.123512653 0 322 174.802561 322 174.802561 0.123512653"></polygon>
        <polygon id="path-5" points="0.259033784 0.139473684 389.613953 0.139473684 389.613953 73.9689333 0.259033784 73.9689333 0.259033784 0.139473684"></polygon>
        <polygon id="path-7" points="222.613379 0.920321495 222.613379 282 0.0281059172 282 0.0281059172 0.920321495 222.613379 0.920321495"></polygon>
        <polygon id="path-9" points="0 0.123512653 0 322 174.802561 322 174.802561 0.123512653"></polygon>
        <polygon id="path-11" points="0.259033784 0.139473684 389.613953 0.139473684 389.613953 73.9689333 0.259033784 73.9689333 0.259033784 0.139473684"></polygon>
    </defs>
    <g id="Page-1" stroke="none" stroke-width="1" fill="none" fill-rule="evenodd">
        <g id="ico-icecubes" transform="translate(0.000000, -10.000000)">
            <g id="Page-1-Copy" opacity="0.890568388" transform="translate(348.578317, 211.779327) rotate(-345.000000) translate(-348.578317, -211.779327) translate(153.578317, 44.779327)">
                <g id="Group-3" transform="translate(167.000000, 51.000000)">
                    <mask id="mask-2" fill="white">
                        <use xlink:href="#path-1"></use>
                    </mask>
                    <g id="Clip-2"></g>
                    <path d="M0.0281059172,23.239172 L0.0281059172,282.000527 C74.1617509,272.744602 148.298035,263.491312 222.613775,254.418555 C212.437585,169.132004 212.25681,84.5728542 222.613775,0.920321495 C148.298035,8.35905981 93.6049757,25.2355738 0.0281059172,23.239172" id="Fill-1" fill="#73C9D1" mask="url(#mask-2)"></path>
                </g>
                <path d="M363.898104,308 L376,306.374774 C371.123038,298.787761 361.369114,296.439775 351.975912,289.75654 C344.931995,284.698531 339.694311,282.531563 330.120092,274.22179 C314.407041,260.493284 306.639055,249.655819 295.440932,232.857879 C286.770486,219.672427 303.929049,256.339054 304.653117,257.244144 C307.722533,261.216044 308.265584,263.204618 312.41979,268.080297 C320.909219,278.557038 333.373149,283.254323 344.209239,290.659006 C349.808957,294.452512 361.008392,301.496471 363.898104,308" id="Fill-4" fill="#80D7DE"></path>
                <path d="M269.805287,68 C252.956436,70.193618 235.384006,72.0234035 216,72.9369683 C222.884519,74.2170215 230.855721,73.8518611 241.180527,73.8518611 C259.116061,73.8518611 261.110506,71.1085107 275.240018,79.3372339 C288.827504,87.3813851 304.406804,100 320.530761,100 C325.602387,100 339.371425,97.0734055 323.79081,97.0734055 C316.182712,97.0734055 300.783649,91.9531931 296.617154,87.1994689 C288.284162,77.6906926 288.464399,80.0675547 277.594937,72.2053197 C275.42157,70.7420225 272.703547,69.2800531 269.805287,68" id="Fill-6" fill="#ABE5EC"></path>
                <path d="M167,241.628782 L167,257 C170.238587,254.255614 173.656152,251.876704 173.475867,251.144424 C185.16953,242.543134 180.312303,244.923374 191.105851,247.118882 C199.201665,248.765514 210.17419,245.105447 211.973115,237.785312 C214.49187,227.353988 223.127231,215.82491 224.386609,211.06576 C227.264627,201.00124 219.17012,218.752698 217.551479,220.948207 C209.455665,232.11181 203.519345,247.667759 188.767379,241.812184 C177.613263,237.418508 170.957112,238.699665 167,241.628782" id="Fill-8" fill="#80D7DE"></path>
                <g id="Group-12" transform="translate(0.000000, 11.000000)">
                    <mask id="mask-4" fill="white">
                        <use xlink:href="#path-3"></use>
                    </mask>
                    <g id="Clip-11"></g>
                    <path d="M167.133289,322.000264 C120.204342,301.485149 73.0964474,280.971353 26.1688158,260.275623 C7.8675,249.383272 -1.73381579,233.769847 0.258289474,212.529631 C9.68065789,123.572794 0.258289474,70.9251127 0.258289474,0.123512653 C55.8832895,21.1831127 111.508289,42.060778 167.133289,63.1190596 C179.091184,145.721366 175.4675,233.043427 167.133289,322.000264" id="Fill-10" fill="#80D7DE" mask="url(#mask-4)"></path>
                </g>
                <path d="M2.54222824,88.2835705 L2,80.4791542 C9.59250826,77.0297103 26.4068353,93.003654 30.3836134,102.80366 C36.7117976,118.594389 50.2714423,121.68004 66,121.68004 C44.3056188,121.68004 43.943258,130.212042 23.152153,103.892403 C11.7627341,89.7361066 7.4235953,87.7391989 2.54222824,88.2835705" id="Fill-13" fill="#73C9D1"></path>
                <g id="Group-17">
                    <mask id="mask-6" fill="white">
                        <use xlink:href="#path-5"></use>
                    </mask>
                    <g id="Clip-16"></g>
                    <path d="M0.259033784,10.6476316 C87.8917703,13.0028947 166.995892,11.9160526 218.523324,0.138421053 C274.404,18.0765789 331.554811,34.9265789 389.614743,51.2344737 C316.134,59.7502632 250.274068,76.9621053 167.359541,73.52 C111.659372,52.5028947 55.9592027,31.6660526 0.259033784,10.6476316" id="Fill-15" fill="#ABE5EC" mask="url(#mask-6)"></path>
                </g>
                <path d="M237.874555,7 C246.189762,9.67580935 254.503656,12.1740953 263,14.6723812 L262.094318,14.8512004 C261.553535,14.8512004 245.466529,14.4948578 252.154135,17.5283056 C271.674855,26.4498297 253.419464,25.379506 248.358147,26.9849916 C222.873055,35.3713539 211.305269,27.6989727 186,29.6608009 C206.786049,23.7727246 210.582036,24.4867057 232.452278,24.4867057 C247.636227,24.4867057 246.731858,17.5283056 240.586349,16.6355053 C233.536471,15.5638857 236.971498,7.35634265 236.971498,7.35634265 C237.151322,7.17881922 237.514907,7.17881922 237.874555,7" id="Fill-18" fill="#80D7DE"></path>
                <polygon id="Fill-20" fill="#73C9D1" points="27 230.25901 158 221 157.457137 231"></polygon>
                <polygon id="Fill-22" fill="#63AFB7" points="299.493084 264.41825 230 242 308 274"></polygon>
            </g>
            <g id="Page-1" transform="translate(0.000000, 90.000000)">
                <g id="Group-3" transform="translate(167.000000, 51.000000)">
                    <mask id="mask-8" fill="white">
                        <use xlink:href="#path-7"></use>
                    </mask>
                    <g id="Clip-2"></g>
                    <path d="M0.0281059172,23.239172 L0.0281059172,282.000527 C74.1617509,272.744602 148.298035,263.491312 222.613775,254.418555 C212.437585,169.132004 212.25681,84.5728542 222.613775,0.920321495 C148.298035,8.35905981 93.6049757,25.2355738 0.0281059172,23.239172" id="Fill-1" fill="#73C9D1" mask="url(#mask-8)"></path>
                </g>
                <path d="M363.898104,308 L376,306.374774 C371.123038,298.787761 361.369114,296.439775 351.975912,289.75654 C344.931995,284.698531 339.694311,282.531563 330.120092,274.22179 C314.407041,260.493284 306.639055,249.655819 295.440932,232.857879 C286.770486,219.672427 303.929049,256.339054 304.653117,257.244144 C307.722533,261.216044 308.265584,263.204618 312.41979,268.080297 C320.909219,278.557038 333.373149,283.254323 344.209239,290.659006 C349.808957,294.452512 361.008392,301.496471 363.898104,308" id="Fill-4" fill="#80D7DE"></path>
                <path d="M269.805287,68 C252.956436,70.193618 235.384006,72.0234035 216,72.9369683 C222.884519,74.2170215 230.855721,73.8518611 241.180527,73.8518611 C259.116061,73.8518611 261.110506,71.1085107 275.240018,79.3372339 C288.827504,87.3813851 304.406804,100 320.530761,100 C325.602387,100 339.371425,97.0734055 323.79081,97.0734055 C316.182712,97.0734055 300.783649,91.9531931 296.617154,87.1994689 C288.284162,77.6906926 288.464399,80.0675547 277.594937,72.2053197 C275.42157,70.7420225 272.703547,69.2800531 269.805287,68" id="Fill-6" fill="#ABE5EC"></path>
                <path d="M167,241.628782 L167,257 C170.238587,254.255614 173.656152,251.876704 173.475867,251.144424 C185.16953,242.543134 180.312303,244.923374 191.105851,247.118882 C199.201665,248.765514 210.17419,245.105447 211.973115,237.785312 C214.49187,227.353988 223.127231,215.82491 224.386609,211.06576 C227.264627,201.00124 219.17012,218.752698 217.551479,220.948207 C209.455665,232.11181 203.519345,247.667759 188.767379,241.812184 C177.613263,237.418508 170.957112,238.699665 167,241.628782" id="Fill-8" fill="#80D7DE"></path>
                <g id="Group-12" transform="translate(0.000000, 11.000000)">
                    <mask id="mask-10" fill="white">
                        <use xlink:href="#path-9"></use>
                    </mask>
                    <g id="Clip-11"></g>
                    <path d="M167.133289,322.000264 C120.204342,301.485149 73.0964474,280.971353 26.1688158,260.275623 C7.8675,249.383272 -1.73381579,233.769847 0.258289474,212.529631 C9.68065789,123.572794 0.258289474,70.9251127 0.258289474,0.123512653 C55.8832895,21.1831127 111.508289,42.060778 167.133289,63.1190596 C179.091184,145.721366 175.4675,233.043427 167.133289,322.000264" id="Fill-10" fill="#80D7DE" mask="url(#mask-10)"></path>
                </g>
                <path d="M2.54222824,88.2835705 L2,80.4791542 C9.59250826,77.0297103 26.4068353,93.003654 30.3836134,102.80366 C36.7117976,118.594389 50.2714423,121.68004 66,121.68004 C44.3056188,121.68004 43.943258,130.212042 23.152153,103.892403 C11.7627341,89.7361066 7.4235953,87.7391989 2.54222824,88.2835705" id="Fill-13" fill="#73C9D1"></path>
                <g id="Group-17">
                    <mask id="mask-12" fill="white">
                        <use xlink:href="#path-11"></use>
                    </mask>
                    <g id="Clip-16"></g>
                    <path d="M0.259033784,10.6476316 C87.8917703,13.0028947 166.995892,11.9160526 218.523324,0.138421053 C274.404,18.0765789 331.554811,34.9265789 389.614743,51.2344737 C316.134,59.7502632 250.274068,76.9621053 167.359541,73.52 C111.659372,52.5028947 55.9592027,31.6660526 0.259033784,10.6476316" id="Fill-15" fill="#ABE5EC" mask="url(#mask-12)"></path>
                </g>
                <path d="M237.874555,7 C246.189762,9.67580935 254.503656,12.1740953 263,14.6723812 L262.094318,14.8512004 C261.553535,14.8512004 245.466529,14.4948578 252.154135,17.5283056 C271.674855,26.4498297 253.419464,25.379506 248.358147,26.9849916 C222.873055,35.3713539 211.305269,27.6989727 186,29.6608009 C206.786049,23.7727246 210.582036,24.4867057 232.452278,24.4867057 C247.636227,24.4867057 246.731858,17.5283056 240.586349,16.6355053 C233.536471,15.5638857 236.971498,7.35634265 236.971498,7.35634265 C237.151322,7.17881922 237.514907,7.17881922 237.874555,7" id="Fill-18" fill="#80D7DE"></path>
                <polygon id="Fill-20" fill="#73C9D1" points="27 230.25901 158 221 157.457137 231"></polygon>
                <polygon id="Fill-22" fill="#63AFB7" points="299.493084 264.41825 230 242 308 274"></polygon>
            </g>
        </g>
    </g>
</svg>