<?xml version="1.0" encoding="UTF-8"?>
<svg width="43px" height="90px" viewBox="0 0 43 90" version="1.1" xmlns="http://www.w3.org/2000/svg" xmlns:xlink="http://www.w3.org/1999/xlink">
    <!-- Generator: Sketch 47.1 (45422) - http://www.bohemiancoding.com/sketch -->
    <title>ico-finger</title>
    <desc>Created with Sketch.</desc>
    <defs></defs>
    <g id="Page-1" stroke="none" stroke-width="1" fill="none" fill-rule="evenodd">
        <g id="ico-finger" transform="translate(23.683013, 49.816987) rotate(-210.000000) translate(-23.683013, -49.816987) translate(-11.316987, 10.816987)">
            <path d="M67.2917207,11.2876558 C65.8751941,13.3969911 64.7598236,15.0891422 64.35,15.79 C62.81,18.43 60.99,17.83 60.88,18.71 C60.5597189,21.2881116 60.5798918,23.8971492 60.94,26.47 C61.3276183,29.7782137 61.0141486,33.1309759 60.02,36.31 C59.31,39.09 58.37,44.49 57.17,47.41 C56.56,48.17 55.73,49.16 54.61,50.53 C53.9111242,51.4446214 52.9974852,52.1727848 51.95,52.65 C50.1438901,53.3206562 48.1148948,52.9356476 46.68,51.65 C46.576937,52.0311607 46.4327573,52.3999925 46.25,52.75 C47.1,47.4 48.93,36.33 49.1,34.59 C49.32,32.28 48.02,32.08 48.02,32.08 C48.43,32.93 46.57,44.06 45.36,50.01 C44.9956351,52.3341888 43.7356976,54.423316 41.85,55.83 C41.6436142,55.8452384 41.4363858,55.8452384 41.23,55.83 C38.48,55.5 36.96,52.66 36.96,52.66 C36.89,52.84 36.81,53 36.73,53.17 C37.4218314,49.9349329 38.3544277,46.7560832 39.52,43.66 C40.8357396,41.0357552 41.9392651,38.3103817 42.82,35.51 C43.6,32.76 42.6,31.66 42.6,31.66 C43.15,32.55 41.83,34.86 40.29,37.28 C38.75,39.7 35.28,50.88 33.85,53.52 C32.9576711,55.1225789 31.5472268,56.3743482 29.85,57.07 C28.9307273,56.8514951 28.087642,56.3884893 27.41,55.73 C26.0645152,54.3660485 25.6701732,52.3273 26.41,50.56 L26.28,50.68 L27.17,48.9 C24.3726182,50.5621931 21.9404864,52.773222 20.02,55.4 C18.02,58.3 16.42,57.39 16.02,57.08 C18.34,58.84 15.2,61.45 12.97,64.28 C10.74,67.11 9.21,66.02 9.21,66.02 C10.81,67.61 7.07,71.47 4.59,74.61 C3.79568668,75.8014641 2.52864952,76.5951827 1.11,76.79 C0.399520286,76.0847088 0.00610078611,75.1210115 0.02,74.12 C-0.1,70.7 6.62,61.78 11.02,55.62 C15.42,49.46 23.13,40.21 23.13,40.21 C20.49,39.33 20.47,36.9 21.26,30.63 C22.05,24.36 22.03,19.3 32.05,16.1 C42.07,12.9 42.29,12.02 44.71,7.84 C45.4025882,6.64200964 46.9886606,3.9286 48.9107247,0.675382813 L67.2917207,11.2876558 Z" id="Combined-Shape" fill="#FCD1A6" fill-rule="nonzero"></path>
            <polygon id="Shape" fill="#FAC49B" fill-rule="nonzero" points="29.98 43.41 27.86 47.59 28.84 42.78"></polygon>
            <path d="M16.01,57.09 L15.91,57.01 L16.01,57.09 Z" id="Shape" stroke="#FBCAA1"></path>
            <path d="M33.8,53.54 C35.23,50.9 38.7,39.72 40.24,37.3 C41.78,34.88 43.1,32.57 42.55,31.68 C42.55,31.68 43.55,32.78 42.77,35.53 C41.8892651,38.3303817 40.7857396,41.0557552 39.47,43.68 C38.3044277,46.7760832 37.3718314,49.9549329 36.68,53.19 C35.06,56.75 32.18,57.66 29.85,57.08 C31.5270749,56.3774273 32.9185687,55.1303671 33.8,53.54 Z" id="Shape" fill="#FAC49B" fill-rule="nonzero"></path>
            <path d="M45.36,50.01 C46.57,44.06 48.43,32.93 48.02,32.08 C48.02,32.08 49.32,32.28 49.1,34.59 C48.93,36.33 47.1,47.4 46.25,52.75 C45.4235439,54.5071902 43.7245526,55.6919128 41.79,55.86 C43.7049243,54.4571152 44.9880586,52.3545 45.36,50.01 L45.36,50.01 Z" id="Shape" fill="#FAC49B" fill-rule="nonzero"></path>
            <path d="M4.57,74.62 C7.05,71.48 10.79,67.62 9.19,66.03 C9.19,66.03 10.72,67.12 12.95,64.29 C15.18,61.46 18.32,58.85 16,57.09 C16.4,57.4 18,58.31 20,55.41 C21.9204864,52.783222 24.3526182,50.5721931 27.15,48.91 L26.26,50.69 C23.01,53.6 7.97,72.09 5.69,75.46 C4.18,77.69 2.24,77.89 1.06,76.81 C2.49130662,76.620986 3.77104843,75.8225146 4.57,74.62 L4.57,74.62 Z" id="Shape" fill="#FAC49B" fill-rule="nonzero"></path>
            <path d="M51.36,34.87 C52.0745719,36.456403 52.5432828,38.1424134 52.75,39.87 C53.29,43.25 53.56,46.64 53.88,46.87 C54.2,47.1 54.82,46.87 54.74,45.16 C54.66,43.45 58,39.27 58.29,37.74 C58.2183818,39.9634629 58.0146894,42.1807048 57.68,44.38 C57.17,47.38 52.39,53.63 52.17,50.88 C51.95,48.13 52.36,36.46 51.36,34.87 Z" id="Shape" fill="#FAC49B" fill-rule="nonzero"></path>
            <path d="M27.03,32.01 C27.03,32.01 30.22,27.5 32.59,27.33 C34.68,27.18 43.23,26.17 46.82,22.33 L46.82,22.49 C45.82,27.89 36.36,29.21 33.94,29.43 C32.3168897,29.7132385 30.865916,30.6124839 29.89,31.94 C29.89,31.94 30.64,31.41 32.97,35.02 C35.3,38.63 36.69,40.33 36.34,42.89 C36.2920002,43.2737572 36.1769156,43.6460895 36,43.99 C35.8055244,41.9756091 34.9715179,40.0763169 33.62,38.57 C31.05,35.81 29.89,32.89 27.03,32.01 Z" id="Shape" fill="#FAC49B" fill-rule="nonzero"></path>
            <path d="M29.62,41.09 C29.38,42.17 28.89,42.42 28.48,42.43 C28.03,41.82 27.72,40.76 28.74,39.2 L29.62,39.45 C29.7487487,39.9890861 29.7487487,40.5509139 29.62,41.09 Z" id="Shape" fill="#FBD5CC" fill-rule="nonzero"></path>
            <path d="M29.18,43.09 C28.9065764,42.9251411 28.6686359,42.7075955 28.48,42.45 C28.88,42.45 29.38,42.18 29.62,41.11 C29.7471616,40.5741069 29.7471616,40.0158931 29.62,39.48 C31.11,39.95 33.24,40.87 34.24,42.48 C34.8752433,43.3797754 35.3770984,44.3666447 35.73,45.41 C35.612579,45.7354549 35.4127365,46.024882 35.15,46.25 C34.24,46.93 29.18,43.09 29.18,43.09 Z" id="Shape" fill="#F8C5AF" fill-rule="nonzero"></path>
            <path d="M28.74,39.21 C28.8910658,38.9843522 29.0546555,38.7673455 29.23,38.56 C29.416352,38.8371525 29.5518042,39.1453063 29.63,39.47 L28.74,39.21 Z" id="Shape" fill="#FBD5CC" fill-rule="nonzero"></path>
            <path d="M29.62,39.46 C29.5418042,39.1353063 29.406352,38.8271525 29.22,38.55 L29.44,38.28 C29.44,38.28 34.44,39.71 35.96,43.97 C35.9712058,44.4338845 35.893122,44.8955975 35.73,45.33 C35.3770984,44.2866447 34.8752433,43.2997754 34.24,42.4 C33.24,40.85 31.12,39.94 29.62,39.46 Z" id="Shape" fill="#F6B19A" fill-rule="nonzero"></path>
            <polygon id="Shape" fill="#F8C5AF" fill-rule="nonzero" points="36.58 35.88 36.58 35.82 36.66 35.82"></polygon>
            <path d="M36.58,35.88 L36.58,35.78 C37.1593327,35.4516919 37.8592572,35.4146588 38.47,35.68 C39.1332715,36.0573363 39.6640529,36.6300215 39.99,37.32" id="Shape" fill="#FBD5CC" fill-rule="nonzero"></path>
            <path d="M39.14,30.91 C38.36,31.68 37.24,34.27 36.62,35.78 L36.54,35.78 C36.4382195,35.6304019 36.3479594,35.4732825 36.27,35.31 C36.27,35.31 38.08,29.99 39.52,29.74 C40.1525717,29.6498395 40.7952702,29.8114118 41.31,30.19 C40.5085317,29.996125 39.6666069,30.2754734 39.14,30.91 L39.14,30.91 Z" id="Shape" fill="#F6B19A" fill-rule="nonzero"></path>
            <path d="M40.24,37.3 L40.04,37.3 C39.7140529,36.6100215 39.1832715,36.0373363 38.52,35.66 C37.9092572,35.3946588 37.2093327,35.4316919 36.63,35.76 C37.25,34.25 38.37,31.66 39.15,30.89 C39.6862159,30.2774741 40.5212706,30.0184525 41.31,30.22 C42.2,30.87 42.78,32.22 42.01,34.28 C40.74,37.68 40.24,37.3 40.24,37.3 Z" id="Shape" fill="#F8C5AF" fill-rule="nonzero"></path>
            <path d="M45.36,34.77 C45.9903061,34.9832986 46.5227664,35.4163663 46.86,35.99 C46.1511039,36.0201926 45.4409609,35.9799958 44.74,35.87 C44.3919451,35.8057504 44.0550856,35.6912182 43.74,35.53 L43.74,35.53 C44.1387615,35.0466192 44.7333723,34.767666 45.36,34.77 L45.36,34.77 Z" id="Shape" fill="#FBD5CC" fill-rule="nonzero"></path>
            <path d="M43.76,35.48 L43.76,35.48 C43.6048233,35.4337807 43.48644,35.3077598 43.45,35.15 C43.6632379,33.7960045 43.9740474,32.4591894 44.38,31.15 C44.8730333,30.5214822 45.6424977,30.1741026 46.44,30.22 C46.6031441,30.2519731 46.7612341,30.305791 46.91,30.38 C44.64,30.36 43.96,33.77 43.76,35.48 Z" id="Shape" fill="#F6B19A" fill-rule="nonzero"></path>
            <path d="M45.36,34.77 C44.7538428,34.7695227 44.1773374,35.032234 43.78,35.49 C43.98,33.78 44.66,30.36 46.91,30.41 C47.6967657,30.7832525 48.1734133,31.6014976 48.11,32.47 C48.075549,33.6415399 47.8281858,34.7970309 47.38,35.88 C47.2195444,35.9508212 47.0453192,35.984983 46.87,35.98 C46.5284875,35.408262 45.9924233,34.9787006 45.36,34.77 Z" id="Shape" fill="#F8C5AF" fill-rule="nonzero"></path>
            <path d="M50.49,37.46 L50.24,37.57 C50.24,37.43 50.24,37.31 50.24,37.18 C50.331927,37.2652895 50.4156289,37.3590356 50.49,37.46 L50.49,37.46 Z" id="Shape" fill="#F8C5AF" fill-rule="nonzero"></path>
            <path d="M50.28,37.18 C50.28,37.31 50.28,37.43 50.28,37.57 C49.7677465,37.7060091 49.2221502,37.6265182 48.77,37.35 C48.77,37.15 48.86,36.96 48.9,36.77 C49.4005889,36.6269831 49.9387047,36.7868581 50.28,37.18 L50.28,37.18 Z" id="Shape" fill="#FBD5CC" fill-rule="nonzero"></path>
            <path d="M50.28,37.18 C49.9299298,36.7669987 49.365724,36.6052334 48.85,36.77 C49.0556807,35.7198737 49.136242,34.6490797 49.09,33.58 C49.2590174,33.3875045 49.5218723,33.3063288 49.77,33.37 C50.14,33.72 50.55,34.68 50.28,37.18 Z" id="Shape" fill="#F8C5AF" fill-rule="nonzero"></path>
            <path d="M50.28,37.18 C50.55,34.68 50.14,33.72 49.77,33.36 C50.1591887,33.4644636 50.5077452,33.6840542 50.77,33.99 C50.7905312,35.1381537 50.7102229,36.2858932 50.53,37.42 L50.44,37.42 C50.3925126,37.3362533 50.3390402,37.2560448 50.28,37.18 Z" id="Shape" fill="#F6B19A" fill-rule="nonzero"></path>
            <path d="M23.12,40.21 L28.83,42.78 C28.83,42.78 22.83,40.57 21.48,42.2 L23.12,40.21 Z" id="Shape" fill="#FAC49B" fill-rule="nonzero"></path>
            <path d="M69.874112,12.7866642 C66.4961273,17.4112137 63.3729045,21.7044841 62.77,22.59 C61.34,24.68 62.66,27.1 62.55,30.3 C62.44,33.5 59.69,40.88 59.25,43.3 C58.93,45.04 58.73,45.53 57.18,47.45 C58.38,44.53 59.32,39.13 60.03,36.35 C61.0241486,33.1709759 61.3376183,29.8182137 60.95,26.51 C60.5900075,23.9371407 60.5698347,21.3281183 60.89,18.75 C61,17.83 62.82,18.47 64.36,15.83 C64.764606,15.0981391 65.8808234,13.406842 67.3020895,11.3017031 L69.8741111,12.7866605 Z" id="Combined-Shape" fill="#FAC397" fill-rule="nonzero"></path>
        </g>
    </g>
</svg>