<?xml version="1.0" encoding="UTF-8"?>
<svg width="63px" height="42px" viewBox="0 0 63 42" version="1.1" xmlns="http://www.w3.org/2000/svg" xmlns:xlink="http://www.w3.org/1999/xlink">
    <!-- Generator: Sketch 43.2 (39069) - http://www.bohemiancoding.com/sketch -->
    <title>ico-piggy</title>
    <desc>Created with Sketch.</desc>
    <defs>
        <polygon id="path-1" points="2.59431092e-05 0.0386527778 62.9305361 0.0386527778 62.9305361 41.0971917 2.59431092e-05 41.0971917"></polygon>
    </defs>
    <g id="Page-1" stroke="none" stroke-width="1" fill="none" fill-rule="evenodd">
        <g id="board-color" transform="translate(-290.000000, -45.000000)">
            <g id="24.-Piggy" transform="translate(281.000000, 0.000000)">
                <g id="ico-piggy" transform="translate(9.000000, 45.000000)">
                    <path d="M41.5887219,14.2806583 C40.5471526,14.2806583 39.7030139,15.1733389 39.7030139,16.2748667 C39.7030139,16.6352694 39.794065,16.9730611 39.9527146,17.2659361 C41.257627,17.7491722 42.2197949,17.8064639 42.9071234,17.6958528 C43.2556927,17.33545 43.4724372,16.8318944 43.4724372,16.2748667 C43.4724372,15.1733389 42.6282985,14.2806583 41.5887219,14.2806583" id="Fill-1" fill="#3A1B09"></path>
                    <path d="M21.3418248,14.2806583 C20.3022482,14.2806583 19.4581095,15.1733389 19.4581095,16.2748667 C19.4581095,16.8318944 19.674854,17.33545 20.0234234,17.6958528 C20.7105985,17.8064639 21.6729197,17.7491722 22.9776788,17.2637972 C23.1364818,16.9730611 23.2275328,16.6332833 23.2275328,16.2748667 C23.2275328,15.1733389 22.3833942,14.2806583 21.3418248,14.2806583" id="Fill-3" fill="#3A1B09"></path>
                    <path d="M28.4257073,22.0754722 C28.3927511,21.8973333 28.3076781,21.7518889 28.1760066,21.6660278 C27.8410796,21.4530556 27.3222109,21.7089583 27.0182474,22.2412361 C26.7142839,22.7736667 26.7394226,23.3797361 27.0743496,23.5946944 C27.4092766,23.8076667 27.9281453,23.5517639 28.2321088,23.0193333 C28.3714445,22.7756528 28.4431818,22.5177639 28.4450212,22.2884444 C28.4450212,22.2412361 28.4411891,22.1963194 28.4373569,22.15125 C28.4353642,22.1246667 28.4315321,22.1000694 28.4257073,22.0754722" id="Fill-5" fill="#3A1B09"></path>
                    <path d="M34.7545555,21.6659667 C34.6228839,21.7519806 34.5376577,21.8972722 34.5048547,22.0754111 C34.4990299,22.1000083 34.4951978,22.1246056 34.4932051,22.1511889 C34.489373,22.1962583 34.4855409,22.2413278 34.4855409,22.2883833 C34.4873803,22.5177028 34.5591175,22.7757444 34.6984533,23.019425 C35.0024168,23.5517028 35.5212854,23.8076056 35.8562124,23.5946333 C36.1911394,23.379675 36.2162781,22.7736056 35.9123146,22.2413278 C35.6083511,21.7088972 35.0894825,21.4529944 34.7545555,21.6659667" id="Fill-7" fill="#3A1B09"></path>
                    <path d="M41.1453613,13.4678042 C41.1453613,13.4678042 39.486208,13.8199569 39.1842372,16.9485403 C39.4532518,17.0713736 39.7087774,17.1758736 39.9528066,17.2658597 C39.7940036,16.9731375 39.7031058,16.6351931 39.7031058,16.2749431 C39.7031058,15.1734153 40.5470912,14.2807347 41.5886606,14.2807347 C42.6283905,14.2807347 43.4725292,15.1734153 43.4725292,16.2749431 C43.4725292,16.8318181 43.2556314,17.3355264 42.9072153,17.6959292 C43.9815876,17.5280264 44.3882518,16.9485403 44.3882518,16.9485403 C44.3882518,16.9485403 43.3466825,13.2119014 41.1453613,13.4678042" id="Fill-9" fill="#C16B57"></path>
                    <path d="M21.7851701,13.4678042 C19.5820095,13.2119014 18.5422796,16.9485403 18.5422796,16.9485403 C18.5422796,16.9485403 18.9489438,17.5280264 20.0234693,17.6959292 C19.6749,17.3355264 19.4581555,16.8318181 19.4581555,16.2749431 C19.4581555,15.1734153 20.3021409,14.2807347 21.3418708,14.2807347 C22.3834401,14.2807347 23.2275788,15.1734153 23.2275788,16.2749431 C23.2275788,16.6332069 23.1365277,16.9731375 22.9777248,17.2638736 C23.221754,17.1758736 23.4772796,17.0693875 23.7444547,16.9485403 C23.4443234,13.8199569 21.7851701,13.4678042 21.7851701,13.4678042" id="Fill-11" fill="#C16B57"></path>
                    <path d="M35.9123146,20.7957903 C35.1978547,20.7957903 34.6074022,21.3506792 34.5048547,22.0754569 C34.5378109,21.8973181 34.6228839,21.7520264 34.7545555,21.6660125 C35.0894825,21.4530403 35.6083511,21.7089431 35.9123146,22.2413736 C36.2162781,22.7736514 36.1911394,23.3797208 35.8562124,23.5946792 C35.5212854,23.8076514 35.0024168,23.5517486 34.6984533,23.0193181 C34.5591175,22.7756375 34.4873803,22.5177486 34.4855409,22.2884292 L34.4855409,22.3047764 C34.4855409,23.1381792 35.1244314,23.8159014 35.9123146,23.8159014 C36.7021905,23.8159014 37.341081,23.1381792 37.341081,22.3047764 C37.341081,21.4715264 36.7021905,20.7957903 35.9123146,20.7957903" id="Fill-13" fill="#C16B57"></path>
                    <path d="M27.0743803,23.5947097 C26.7394533,23.3797514 26.7143146,22.7736819 27.0182781,22.2412514 C27.3222416,21.7089736 27.8411102,21.4530708 28.1760372,21.6660431 C28.3075555,21.7519042 28.3927818,21.8973486 28.425738,22.0754875 C28.3230372,21.3507097 27.7325847,20.7958208 27.0182781,20.7958208 C26.2284022,20.7958208 25.5895117,21.4714042 25.5895117,22.3048069 C25.5895117,23.1380569 26.2284022,23.8157792 27.0182781,23.8157792 C27.8061613,23.8157792 28.4450518,23.1380569 28.4450518,22.3048069 L28.4450518,22.2884597 C28.4432124,22.5177792 28.3714752,22.7756681 28.2321394,23.0193486 C27.9281759,23.5517792 27.4093073,23.8076819 27.0743803,23.5947097" id="Fill-15" fill="#C16B57"></path>
                    <path d="M38.4097664,29.5672514 C38.4097664,29.5672514 36.9345547,30.3083764 35.1668759,29.7207931 C34.7197445,29.5713764 34.3267226,29.4627514 33.9743212,29.3830014 C32.9424088,29.1475708 32.2435839,29.1639181 31.4923358,29.1639181 L31.4652044,29.1639181 C30.7024599,29.1639181 29.9958175,29.1454319 28.9445912,29.3830014 C28.5941825,29.4627514 28.2049927,29.5713764 27.7635328,29.7188069 C25.9960073,30.3083764 24.5188029,29.5672514 24.5188029,29.5672514 C22.8015547,28.8751681 22.3659197,26.9300014 22.3659197,26.9300014 C21.7909489,27.6242236 22.428,28.7196403 22.8558175,29.3072236 C23.9651387,30.8244597 26.0444453,30.9492792 27.6261898,30.2736958 C29.6260949,29.4218069 31.4652044,29.4546542 31.4652044,29.4546542 L31.4923358,29.4546542 C31.7285474,29.4546542 33.4477883,29.4833764 35.3043723,30.2736958 C36.8861168,30.9492792 38.9654234,30.8244597 40.0747445,29.3072236 C40.502562,28.7196403 41.1396131,27.6242236 40.5644891,26.9300014 C40.5644891,26.9300014 40.1290073,28.8751681 38.4097664,29.5672514" id="Fill-17" fill="#EDA391"></path>
                    <path d="M44.7231328,17.2044889 C44.7231328,17.2044889 43.9294248,20.2757806 39.2829066,17.5115722 C39.3448336,17.5485444 39.4280672,17.8188083 39.4630161,17.8822111 C39.6391401,18.2119056 39.8289066,18.5353361 40.0496365,18.8343222 C40.6362569,19.6328917 41.530673,20.3883778 42.4502277,20.6954611 C43.0330161,20.8899472 43.6777314,20.8858222 44.2468774,20.6381694 C44.9438628,20.3350583 45.1915708,19.4362667 45.1181474,18.6827667 C45.0697095,18.1873083 44.9109066,17.6590028 44.7231328,17.2044889" id="Fill-19" fill="#EDA391"></path>
                    <path d="M41.1453613,13.4678042 C43.3466825,13.2119014 44.3882518,16.9485403 44.3882518,16.9485403 C44.3882518,16.9485403 44.515938,16.8298319 44.7231788,16.6351931 C44.7231788,16.6351931 44.1462153,12.0611792 41.8946168,11.8564569 C41.8946168,11.8564569 38.8201861,11.6824431 38.8414927,16.8011097 C39.1357993,16.9465542 39.1802518,16.9485403 39.1842372,16.9485403 C39.486208,13.8199569 41.1453613,13.4678042 41.1453613,13.4678042" id="Fill-21" fill="#EDA391"></path>
                    <path d="M22.8809562,18.8342917 C23.1016861,18.5353056 23.2914526,18.211875 23.4675766,17.8821806 C23.5023723,17.8187778 23.5856058,17.5485139 23.6476861,17.5115417 C19.0011679,20.27575 18.2074599,17.2044583 18.2074599,17.2044583 C18.0195328,17.6589722 17.8608832,18.1872778 17.8124453,18.6827361 C17.7388686,19.4362361 17.9867299,20.3351806 18.6837153,20.6381389 C19.2528613,20.8857917 19.8975766,20.8899167 20.4802117,20.6954306 C21.3999197,20.3883472 22.2943358,19.6328611 22.8809562,18.8342917" id="Fill-23" fill="#EDA391"></path>
                    <path d="M21.7851701,13.4678042 C21.7851701,13.4678042 23.4443234,13.8199569 23.7444547,16.9485403 C23.7482869,16.9485403 23.7928927,16.9465542 24.0890387,16.8011097 C24.1083526,11.6824431 21.0340752,11.8564569 21.0340752,11.8564569 C18.7843161,12.0611792 18.2073526,16.6351931 18.2073526,16.6351931 C18.4126007,16.8298319 18.5422796,16.9485403 18.5422796,16.9485403 C18.5422796,16.9485403 19.5820095,13.2119014 21.7851701,13.4678042" id="Fill-25" fill="#EDA391"></path>
                    <path d="M26.8013956,32.3559347 C26.8013956,32.3559347 29.0395051,33.1237958 31.465235,33.1401431 C33.8911182,33.1237958 36.1290745,32.3559347 36.1290745,32.3559347 C33.275527,31.5022125 31.465235,31.5124486 31.465235,31.5124486 C31.465235,31.5124486 29.6550964,31.5022125 26.8013956,32.3559347" id="Fill-27" fill="#EDA391"></path>
                    <path d="M27.0182321,20.7957903 C27.732692,20.7957903 28.3231445,21.3506792 28.425692,22.0754569 C28.4315168,22.1000542 28.4353489,22.1246514 28.4373416,22.1512347 C28.4451591,22.1941653 28.4469985,22.2413736 28.4451591,22.2884292 L28.4451591,22.3047764 C28.4451591,23.1381792 27.8062686,23.8159014 27.0182321,23.8159014 C26.2283562,23.8159014 25.5894657,23.1381792 25.5894657,22.3047764 C25.5894657,21.4715264 26.2283562,20.7957903 27.0182321,20.7957903 L27.0182321,20.7957903 Z M34.4854949,22.2884292 C34.4835022,22.2413736 34.4854949,22.1941653 34.4931591,22.1512347 C34.4951518,22.1246514 34.4989839,22.1000542 34.5048088,22.0754569 C34.6075095,21.3506792 35.197962,20.7957903 35.9122686,20.7957903 C36.7021445,20.7957903 37.341035,21.4715264 37.341035,22.3047764 C37.341035,23.1381792 36.7021445,23.8159014 35.9122686,23.8159014 C35.1243854,23.8159014 34.4854949,23.1381792 34.4854949,22.3047764 L34.4854949,22.2884292 Z M23.7656847,26.4386375 C24.0290277,26.9874153 24.4355387,27.6078458 24.8769985,28.0131653 C25.9360423,28.9796375 27.4868234,29.3788458 28.8729766,29.0532764 C29.2853124,28.9570264 29.6821664,28.7953875 30.0462175,28.5680542 C30.0462175,28.5680542 30.981254,27.8862069 31.465327,27.8678736 C31.9492467,27.8862069 32.8844365,28.5680542 32.8844365,28.5680542 C33.2463416,28.7953875 33.6413562,28.9550403 34.0498599,29.0512903 C35.4380058,29.3809847 36.992619,28.9816236 38.0535022,28.0131653 C38.494962,27.6078458 38.901473,26.9874153 39.1648161,26.4386375 C40.1153343,24.4668875 39.7069839,21.6516514 38.7369985,19.7781375 C37.7650204,17.8965264 35.9084365,16.2790681 33.9955971,15.5582625 C33.2348453,15.2696653 32.3655679,15.1303319 31.465327,15.1222347 C30.5650861,15.1303319 29.6958088,15.2696653 28.9349036,15.5582625 C27.0220642,16.2790681 25.1654803,17.8965264 24.1936555,19.7781375 C23.2236701,21.6516514 22.8151664,24.4668875 23.7656847,26.4386375 L23.7656847,26.4386375 Z" id="Fill-29" fill="#EDA391"></path>
                    <path d="M61.5084175,1.24631528 L61.5045854,1.24631528 C60.9915416,1.25242639 60.4029285,1.38763472 59.8609139,1.81342639 C58.4727679,2.90685694 57.3439796,2.83719028 55.6325562,3.14442639 C53.9231255,3.45150972 50.9222715,4.64714861 49.600038,8.50264861 C48.2758117,12.3581486 48.3454029,12.9396208 47.1973007,14.7822736 C46.0493518,16.6250792 45.6311912,16.3855236 46.0821547,17.8187319 C46.5332715,19.2519403 47.4703007,23.0397597 48.6958117,24.2683986 C49.9213226,25.4968847 55.2453591,26.0905792 56.7941474,20.7957597 C58.3430891,15.4989542 57.8919723,14.2356347 57.7622934,11.7786625 C57.634454,9.32169028 57.6654175,5.90848194 59.7950015,4.34006528 C61.922746,2.77164861 62.8907387,1.42032917 61.5084175,1.24631528" id="Fill-31" fill="#EDA391"></path>
                    <path d="M13.3305701,8.50263333 C12.0083365,4.64713333 9.00748248,3.45149444 7.29789854,3.14441111 C5.58647518,2.837175 4.45784015,2.90684167 3.06969416,1.81341111 C2.52752628,1.38761944 1.93906642,1.25241111 1.42602263,1.2463 L1.42203723,1.2463 C0.0398693431,1.42031389 1.00786204,2.77178611 3.13545328,4.34005 C5.26503723,5.90846667 5.29615401,9.321675 5.1683146,11.7786472 C5.03863577,14.2356194 4.58751898,15.4989389 6.1363073,20.7957444 C7.68509562,26.0905639 13.0091321,25.4968694 14.2346431,24.2683833 C15.460154,23.0398972 16.3971832,19.251925 16.8483,17.8187167 C17.2994168,16.3855083 16.8812562,16.6250639 15.733154,14.7822583 C14.5850518,12.9396056 14.6547964,12.3581333 13.3305701,8.50263333" id="Fill-33" fill="#EDA391"></path>
                    <g id="Group-37" transform="translate(0.000000, 0.114125)">
                        <mask id="mask-2" fill="white">
                            <use xlink:href="#path-1"></use>
                        </mask>
                        <g id="Clip-36"></g>
                        <path d="M59.7950474,4.22595556 C57.6654635,5.79437222 57.6345,9.20742778 57.7621861,11.6645528 C57.891865,14.121525 58.3429818,15.3848444 56.7941934,20.68165 C55.2454051,25.9764694 49.9213686,25.382775 48.6958577,24.1541361 C47.4703467,22.92565 46.5333175,19.1378306 46.0822007,17.7046222 C45.6310839,16.2714139 46.0492445,16.5109694 47.1973467,14.6681639 C48.3454489,12.8253583 48.2757044,12.2438861 49.5999307,8.38853889 C50.9223175,4.53303889 53.9231715,3.3374 55.6326022,3.03016389 C57.3440255,2.72308056 58.4728139,2.79274722 59.8608066,1.69931667 C60.4029745,1.273525 60.9914343,1.13831667 61.5046314,1.13220556 L61.5084635,1.13220556 C62.8907847,1.30621944 61.922792,2.65753889 59.7950474,4.22595556 M44.2469234,20.5239833 C43.6776241,20.7717889 43.033062,20.7759139 42.4502737,20.581275 C41.5305657,20.2741917 40.6361496,19.5187056 40.0495292,18.7201361 C39.8289526,18.42115 39.6391861,18.0977194 39.4629088,17.768025 C39.4281131,17.7046222 39.3448796,17.4343583 39.2829526,17.3975389 C43.9293175,20.1615944 44.7231788,17.0903028 44.7231788,17.0903028 C44.9109526,17.5448167 45.0697555,18.0731222 45.1180401,18.5685806 C45.1916168,19.3220806 44.9439088,20.221025 44.2469234,20.5239833 M40.0748212,29.1930528 C38.9653467,30.7102889 36.8861934,30.8351083 35.3044489,30.159525 C33.4477117,29.3692056 31.7286241,29.3404833 31.4924124,29.3404833 L31.465281,29.3404833 C31.465281,29.3404833 29.6260182,29.3077889 27.6261131,30.159525 C26.0443686,30.8351083 23.965062,30.7102889 22.8557409,29.1930528 C22.4279234,28.6054694 21.7910255,27.5100528 22.3659964,26.8159833 C22.3659964,26.8159833 22.8016314,28.7609972 24.5188796,29.4530806 C24.5188796,29.4530806 25.9960839,30.1943583 27.7636095,29.6046361 C28.2050693,29.4572056 28.5941058,29.3487333 28.9445146,29.2688306 C29.9958942,29.0312611 30.7025365,29.0497472 31.465281,29.0497472 L31.4924124,29.0497472 C32.2435073,29.0497472 32.9424854,29.0334 33.9743978,29.2688306 C34.326646,29.3487333 34.7196679,29.4572056 35.1669526,29.6066222 C36.9344781,30.1943583 38.4098431,29.4530806 38.4098431,29.4530806 C40.1289307,28.7609972 40.5645657,26.8159833 40.5645657,26.8159833 C41.1395365,27.5100528 40.5026387,28.6054694 40.0748212,29.1930528 M31.465281,33.0259417 C29.0393978,33.0095944 26.8014416,32.2417333 26.8014416,32.2417333 C29.6551423,31.3880111 31.465281,31.3982472 31.465281,31.3982472 C31.465281,31.3982472 33.2754197,31.3880111 36.1291204,32.2417333 C36.1291204,32.2417333 33.8911642,33.0095944 31.465281,33.0259417 M18.6836387,20.5239833 C17.9866533,20.221025 17.7389453,19.3220806 17.8125219,18.5685806 C17.8608066,18.0731222 18.0196095,17.5448167 18.2073832,17.0903028 C18.2073832,17.0903028 19.0012445,20.1615944 23.6476095,17.3975389 C23.5856825,17.4343583 23.5024489,17.7046222 23.4676533,17.768025 C23.2913759,18.0977194 23.1016095,18.42115 22.8810328,18.7201361 C22.2944124,19.5187056 21.3998431,20.2741917 20.4802883,20.581275 C19.8975,20.7759139 19.2527847,20.7717889 18.6836387,20.5239833 M16.8483613,17.7046222 C16.3972445,19.1378306 15.4602153,22.92565 14.2347044,24.1541361 C13.0091934,25.382775 7.68515693,25.9764694 6.13636861,20.68165 C4.58758029,15.3848444 5.0385438,14.121525 5.16837591,11.6645528 C5.29606204,9.20742778 5.26509854,5.79437222 3.1355146,4.22595556 C1.00777007,2.65753889 0.0397773723,1.30621944 1.42209854,1.13220556 L1.42593066,1.13220556 C1.93897445,1.13831667 2.52758759,1.273525 3.06960219,1.69931667 C4.45774818,2.79274722 5.5865365,2.72308056 7.29795985,3.03016389 C9.00739051,3.3374 12.0082445,4.53303889 13.3306314,8.38853889 C14.6548577,12.2438861 14.5851131,12.8253583 15.7332153,14.6681639 C16.8813175,16.5109694 17.2994781,16.2714139 16.8483613,17.7046222 M21.0339526,11.7423167 C21.0339526,11.7423167 24.1083832,11.5683028 24.0890693,16.6869694 C23.7927701,16.8324139 23.7483175,16.8344 23.7444854,16.8344 C23.4773102,16.9552472 23.2217847,17.0617333 22.9777555,17.1497333 C21.6728431,17.6349556 20.7106752,17.6922472 20.0233467,17.5817889 C18.9489745,17.4138861 18.5423102,16.8344 18.5423102,16.8344 C18.5423102,16.8344 18.4126314,16.7156917 18.2073832,16.5212056 C18.2073832,16.5212056 18.7843467,11.9470389 21.0339526,11.7423167 M28.9348577,15.4441222 C29.6957628,15.155525 30.5650401,15.0161917 31.465281,15.0080944 C32.3655219,15.0161917 33.2347993,15.155525 33.9957044,15.4441222 C35.9083905,16.1649278 37.7651277,17.7823861 38.7369526,19.6639972 C39.706938,21.5375111 40.1154416,24.3527472 39.1647701,26.3244972 C38.9015803,26.873275 38.4949161,27.4937056 38.0536095,27.899025 C36.992573,28.8674833 35.4379599,29.2668444 34.0498139,28.93715 C33.6413102,28.8409 33.2464489,28.6812472 32.8843905,28.4539139 C32.8843905,28.4539139 31.949354,27.7720667 31.465281,27.7537333 C30.981208,27.7720667 30.0461715,28.4539139 30.0461715,28.4539139 C29.6822737,28.6812472 29.2852664,28.8430389 28.8729307,28.9391361 C27.4867774,29.2647056 25.9359964,28.8654972 24.8769526,27.899025 C24.435646,27.4937056 24.0289818,26.873275 23.765792,26.3244972 C22.8151204,24.3527472 23.2236241,21.5375111 24.1936095,19.6639972 C25.1654343,17.7823861 27.0221715,16.1649278 28.9348577,15.4441222 M41.8946168,11.7423167 C44.1462153,11.9470389 44.7231788,16.5212056 44.7231788,16.5212056 C44.515938,16.7156917 44.3882518,16.8344 44.3882518,16.8344 C44.3882518,16.8344 43.9815876,17.4138861 42.9072153,17.5817889 C42.2198869,17.6922472 41.257719,17.6349556 39.9528066,17.1517194 C39.7087774,17.0617333 39.4532518,16.9572333 39.1842372,16.8344 C39.1802518,16.8344 39.1357993,16.8324139 38.8414927,16.6869694 C38.8201861,11.5683028 41.8946168,11.7423167 41.8946168,11.7423167 M62.9255803,1.42706667 C62.9255803,1.42706667 62.4416606,-1.23478056 57.7951423,0.812747222 C57.7951423,0.812747222 56.5366752,1.52942778 52.2775073,1.42706667 C48.0181861,1.32470556 44.3398139,2.55319167 42.8877482,5.112525 C41.4358358,7.67185833 41.2422372,6.54573333 39.8868942,5.93156667 C38.5317044,5.31724722 37.3701131,3.37620556 31.465281,3.37620556 C25.5604489,3.37620556 24.3988577,5.31724722 23.0435146,5.93156667 C21.6883248,6.54573333 21.4947263,7.67185833 20.0428139,5.112525 C18.5907482,2.55319167 14.9123759,1.32470556 10.6530547,1.42706667 C6.39388686,1.52942778 5.13541971,0.812747222 5.13541971,0.812747222 C0.48890146,-1.23478056 0.00498175182,1.42706667 0.00498175182,1.42706667 C0.00498175182,1.42706667 -0.188616788,3.06499722 1.84424453,4.60056667 C1.84424453,4.60056667 4.74822263,6.44337222 4.07055109,11.4596778 C3.39303285,16.4761361 4.16160219,29.5800389 15.7332153,25.8945806 C15.7332153,25.8945806 15.3962956,41.0971917 31.465281,41.0971917 C47.5342664,41.0971917 47.1973467,25.8945806 47.1973467,25.8945806 C58.7689599,29.5800389 59.5375292,16.4761361 58.8600109,11.4596778 C58.1823394,6.44337222 61.0863175,4.60056667 61.0863175,4.60056667 C63.1191788,3.06499722 62.9255803,1.42706667 62.9255803,1.42706667" id="Fill-35" fill="#FFDCC3" mask="url(#mask-2)"></path>
                    </g>
                    <path d="M20.875027,15.5755569 C20.875027,15.8166403 20.6901657,16.0121958 20.4622314,16.0121958 C20.2342971,16.0121958 20.0494358,15.8166403 20.0494358,15.5755569 C20.0494358,15.3344736 20.2342971,15.1390708 20.4622314,15.1390708 C20.6901657,15.1390708 20.875027,15.3344736 20.875027,15.5755569" id="Fill-38" fill="#FFDCC3"></path>
                    <path d="M42.0555044,15.5755569 C42.0555044,15.8166403 42.2403657,16.0121958 42.4683,16.0121958 C42.6962343,16.0121958 42.8810956,15.8166403 42.8810956,15.5755569 C42.8810956,15.3344736 42.6962343,15.1390708 42.4683,15.1390708 C42.2403657,15.1390708 42.0555044,15.3344736 42.0555044,15.5755569" id="Fill-40" fill="#FFDCC3"></path>
                </g>
            </g>
        </g>
    </g>
</svg>