<?xml version="1.0" encoding="UTF-8"?>
<svg width="53px" height="35px" viewBox="0 0 53 35" version="1.1" xmlns="http://www.w3.org/2000/svg" xmlns:xlink="http://www.w3.org/1999/xlink">
    <!-- Generator: Sketch 43.2 (39069) - http://www.bohemiancoding.com/sketch -->
    <title>ico-dildo</title>
    <desc>Created with Sketch.</desc>
    <defs>
        <polygon id="path-1" points="0 10.8593807 0 0.0810653178 13.0674755 0.0810653178 13.0674755 10.8593807 9.52115655e-16 10.8593807"></polygon>
    </defs>
    <g id="Page-1" stroke="none" stroke-width="1" fill="none" fill-rule="evenodd">
        <g id="board-color" transform="translate(-876.000000, -782.000000)">
            <g id="40.-Pegging" transform="translate(901.000000, 798.500000) rotate(-90.000000) translate(-901.000000, -798.500000) translate(861.000000, 739.000000)">
                <g id="ico-dildo" transform="translate(39.000000, 61.000000) rotate(83.000000) translate(-39.000000, -61.000000) translate(12.000000, 43.000000)">
                    <path d="M28.3474059,34.7132943 C32.5784647,34.1742615 33.7352294,32.6217839 34.4832882,28.773951 C35.2318765,24.9261182 35.8438765,18.5801361 35.8438765,18.5801361 C35.8438765,18.5801361 29.5624059,19.3944645 28.3474059,21.4833481 C27.1324059,23.5717063 28.3474059,34.7132943 28.3474059,34.7132943" id="Fill-1" fill="#4D4D4D"></path>
                    <path d="M47.3374059,11.2005875 C43.7432294,11.6135307 38.6084647,11.449089 32.9898176,10.6174233 C26.5982294,9.67227701 21.0605824,8.0845994 17.8227,6.43177552 C21.4062882,5.78924418 27.1694647,5.87277851 33.5584059,6.81792478 C39.1474059,7.64433672 44.0804647,8.95934567 47.3972294,10.3825815 C47.8737,10.587477 48.3168176,10.7928979 48.7249941,11.0009457 C48.2924647,11.0792263 47.8297588,11.146474 47.3374059,11.2005875 L47.3374059,11.2005875 Z M52.4938765,9.09436657 L47.3591118,8.33572776 L14.7780529,3.51858149 L13.3714059,3.31053373 C13.3714059,3.31053373 13.3714059,3.3131606 13.3687588,3.32104119 C13.3142294,3.58057552 12.2527588,8.79175164 12.7837588,11.3571487 C13.3274647,13.9897934 17.9534647,15.8128382 17.9534647,16.89248 C17.9534647,17.3921099 17.8962882,19.4526233 18.0159353,21.917674 C18.1519941,24.7799069 18.5305235,28.1848501 19.5178765,30.326271 C19.6459941,30.6047188 19.7873471,30.8716084 19.9371706,31.1285158 C20.9192294,32.7729337 22.3777588,33.9366352 24.1163471,34.4956322 C25.4007,34.9112024 26.8375235,35.0005158 28.3474059,34.7141875 C28.3532294,34.7141875 28.3585235,34.7115606 28.3638176,34.7115606 C29.0303471,34.5844203 29.7138176,34.3847785 30.4020529,34.1068561 C31.0797,33.8341875 31.6292294,33.3776382 32.0755235,32.7997278 C34.7284059,29.3653636 33.8061706,21.5803845 34.8237,21.7532322 C35.0439353,21.7910591 35.2673471,21.8262591 35.4902294,21.8530531 C36.5977588,22.0043606 37.7243471,22.0689815 38.8398176,22.0637278 C44.4669353,22.0395606 49.8028765,20.2732561 50.8092882,19.2745218 C52.0502294,18.045674 52.9099941,14.5004561 53.8841118,9.38594866 C53.8894059,9.35915463 53.8952294,9.32920836 53.9005235,9.30241433 L52.4938765,9.09436657 Z" id="Fill-3" fill="#666666"></path>
                    <path d="M29.9883706,29.3488669 C29.4986647,30.4962818 28.6113706,31.3768072 27.4413706,31.7251296 C26.2713706,32.0708251 9.12901765,29.8994579 8.13054706,29.143446 C7.15907647,28.4063475 8.23695882,27.6098818 7.97807647,26.2465385 C7.97278235,26.2139654 7.96748824,26.1787654 7.95901765,26.1461922 C7.62707647,24.7208549 8.24225294,23.9863833 8.80554706,22.873643 C8.89766471,22.6902878 9.36037059,22.544234 10.0761353,22.4281266 C10.5743118,22.3445922 11.1916059,22.2741922 11.8909588,22.2148251 C15.7768412,21.888043 22.1329588,21.8743833 23.8551353,21.6610818 C24.3421941,21.5990878 24.8350765,21.5638878 25.3247824,21.5638878 C26.3121353,21.5665146 27.0199588,21.6316609 27.8278412,22.1691176 C28.6711941,22.7281146 29.3954294,23.5755415 29.8660765,24.6236609 C29.9746059,24.8690101 30.0699,25.1259176 30.1487824,25.3901803 C30.5707235,26.7918758 30.4780765,28.2040788 29.9883706,29.3488669" id="Fill-8" fill="#FAD1A9"></path>
                    <path d="M52.5263824,8.94857552 C52.5184412,8.99690985 52.5073235,9.04576955 52.4935588,9.09410388 C52.2378529,9.97200239 50.8719706,10.6171606 48.7252059,11.000683 C45.4873235,9.34838448 39.9502059,7.76333373 33.5580882,6.81818746 C27.1696765,5.87304119 21.4065,5.78950687 17.8229118,6.43203821 C15.8826176,5.44381134 14.7671471,4.43089194 14.7777353,3.51831881 C14.7777353,3.46998448 14.7809118,3.41849791 14.7888529,3.36963821 C15.1589118,0.909841194 23.9069118,0.161709851 34.3257353,1.70368 C44.7472059,3.24302328 52.8937941,6.48877851 52.5263824,8.94857552" id="Fill-13" fill="#4D4D4D"></path>
                    <path d="M29.9883706,29.3488669 C29.4986647,30.4962818 28.6113706,31.3768072 27.4413706,31.7251296 C26.2713706,32.0708251 9.12901765,29.8994579 8.13054706,29.143446 C7.15907647,28.4063475 8.23695882,27.6098818 7.97807647,26.2465385 C9.15919412,24.2375116 10.0623706,22.7438758 10.0623706,22.7438758 C10.0623706,22.6309206 10.0681941,22.5253206 10.0761353,22.4281266 C10.5743118,22.3445922 11.1916059,22.2741922 11.8909588,22.2148251 L11.8936059,22.2174519 C13.2160765,23.3301922 13.4966647,26.3437325 13.3574294,27.6934161 C13.3574294,27.6934161 30.4891941,30.0754579 29.8660765,24.6315415 L29.8660765,24.6236609 C29.9746059,24.8690101 30.0699,25.1259176 30.1487824,25.3901803 C30.5707235,26.7918758 30.4780765,28.2040788 29.9883706,29.3488669" id="Fill-15" fill="#F8BE95"></path>
                    <g id="Group-19" transform="translate(0.000000, 20.695656)">
                        <mask id="mask-2" fill="white">
                            <use xlink:href="#path-1"></use>
                        </mask>
                        <g id="Clip-18"></g>
                        <path d="M9.83668235,10.7945266 C7.59991765,11.072449 5.4288,10.4299176 3.69550588,9.38757731 L3.69285882,9.38757731 C1.23003529,7.91075343 -0.339670588,5.62380418 0.0626823529,4.02246687 C0.762035294,1.21960119 5.68185882,-0.146894328 7.7958,0.112114627 C9.92668235,0.374275821 11.7928588,1.59734448 12.6367412,3.8496191 C12.7399765,4.12491463 12.8299765,4.41649672 12.9003882,4.72436537 C13.5563294,7.53826388 12.2285647,10.4976907 9.83668235,10.7945266" id="Fill-17" fill="#FAD1A9" mask="url(#mask-2)"></path>
                    </g>
                    <path d="M9.83668235,31.4901827 C7.59991765,31.7681051 5.4288,31.1255737 3.69550588,30.0832334 C7.18644706,31.4119021 13.0285059,30.7667439 12.6367412,24.5452752 C12.7399765,24.8205707 12.8299765,25.1121528 12.9003882,25.4200215 C13.5563294,28.23392 12.2285647,31.1933469 9.83668235,31.4901827" id="Fill-20" fill="#F8BE95"></path>
                    <path d="M53.8841647,9.38600119 C52.9100471,14.4999833 52.0502824,18.0457266 50.8093412,19.2745743 C49.8024,20.2733087 44.4669882,22.0396131 38.8398706,22.0637803 L38.8372235,22.0611534 C42.8041059,22.0611534 46.4559882,17.3517087 47.2448118,11.9377385 C48.1755176,11.856831 49.0273412,11.7433504 49.7891647,11.600449 C52.1672824,11.1517803 53.6612824,10.4015475 53.8841647,9.38600119" id="Fill-22" fill="#4D4D4D"></path>
                </g>
            </g>
        </g>
    </g>
</svg>