<?xml version="1.0" encoding="UTF-8"?>
<svg width="32px" height="52px" viewBox="0 0 32 52" version="1.1" xmlns="http://www.w3.org/2000/svg" xmlns:xlink="http://www.w3.org/1999/xlink">
    <!-- Generator: Sketch 43.2 (39069) - http://www.bohemiancoding.com/sketch -->
    <title>ico-boot</title>
    <desc>Created with Sketch.</desc>
    <defs>
        <polygon id="path-1" points="29.0924242 25.0463054 0.0494355018 25.0463054 0.0494355018 0.0315242311 29.0924242 0.0315242311 29.0924242 25.0463054"></polygon>
    </defs>
    <g id="Page-1" stroke="none" stroke-width="1" fill="none" fill-rule="evenodd">
        <g id="board-color" transform="translate(-624.000000, -39.000000)">
            <g id="28.-Lick-Boots" transform="translate(601.000000, -2.000000)">
                <g id="ico-boot" transform="translate(23.000000, 41.000000)">
                    <g id="Group-3" transform="translate(2.400024, 26.023336)">
                        <mask id="mask-2" fill="white">
                            <use xlink:href="#path-1"></use>
                        </mask>
                        <g id="Clip-2"></g>
                        <path d="M0.177460627,24.3199963 C1.64912613,24.6226859 4.12672892,24.9414367 6.33405993,25.007815 C9.14024808,25.0922761 11.9128753,25.0849756 14.0055861,24.4857736 C17.0461436,23.6153302 18.6724571,21.3221894 19.5342272,18.6029243 C20.0525826,16.9668278 20.6518857,15.2555923 21.5039554,13.4509105 C22.2918021,11.7822426 22.6624223,11.1068908 23.5626592,9.85592335 C24.0432167,9.23976177 24.2648753,9.47708394 24.3123735,9.69441399 C24.5008056,10.556546 24.6561226,11.4058741 24.759816,12.5635076 C24.9442341,14.6225834 25.0337672,17.015348 25.1628822,19.0791411 C25.1952167,19.6638544 25.114715,19.6477933 25.6952864,19.6477933 C26.1306871,19.6477933 26.5823666,19.6317322 27.0825477,19.6317322 C27.9537951,19.6477933 27.9213491,19.6803647 27.8082899,18.8353046 C27.4048892,15.9428495 26.8890983,13.4244041 26.937154,10.8082445 C27.0178787,7.11981103 27.6030216,5.74013025 28.5293491,2.37426621 C28.7795512,1.46529872 28.9428962,0.624506601 29.0917463,0.0413657143 C29.1015582,0.00272926108 29.0044432,0.0588868966 28.827161,0.557903645 C27.8815443,3.21865241 25.944262,5.19506424 24.5379345,7.35522384 C23.131607,9.51538345 21.4826592,11.7101362 20.1473561,15.1081224 C19.0187707,17.97935 19.1594815,18.722877 17.9643317,20.7767864 C17.497823,21.5786051 15.9954955,23.3980002 13.9563038,23.9291391 C12.5653631,24.2916928 11.0738509,24.4196199 10.4059763,24.4601657 C9.25163484,24.4927371 7.77762787,24.5554091 6.78328641,24.5554091 C3.50389965,24.5554091 1.85428293,24.2717007 0.829725436,24.174211 C0.639955401,24.1562406 -0.285034146,24.2248652 0.177460627,24.3199963" id="Fill-1" fill="#2D2C36" mask="url(#mask-2)"></path>
                    </g>
                    <path d="M27.54783,44.013749 L30.1535443,44.013749 C30.1907847,44.3182357 30.2466453,44.6224977 30.2837742,44.9264229 C30.4140042,45.731948 30.4327359,45.6958948 29.5763178,45.6785982 C29.0556209,45.6785982 28.6088474,45.6958948 28.1619624,45.6958948 C27.5847359,45.6958948 27.6594397,45.7139775 27.6223108,45.1595894 L27.54783,44.013749 Z" id="Fill-4" fill="#2E2B33"></path>
                    <path d="M30.1161254,19.2342709 C29.212878,17.9181606 28.1643484,16.6666315 27.5352753,15.2205724 C26.1157909,11.9383833 26.4705784,9.27370345 26.6318049,3.9278335 C26.6704948,2.61756355 26.7244599,1.30852906 26.7949268,5.61576355e-05 L11.7174634,5.61576355e-05 C11.7206969,0.280058128 11.7239303,0.560060099 11.7272753,0.839949754 C11.8401115,12.0194749 12.5982997,22.5325212 11.5012683,33.7281074 C11.1946481,36.9943478 11.4367108,38.8141921 9.01697561,41.1702296 C8.3072892,41.8525448 7.48476655,42.4374828 6.30712195,43.233798 C4.66185366,44.3389803 2.62957491,45.3298256 1.09680836,46.5648443 C0.499958188,47.0360069 0,47.6372305 0,48.2712502 C0,48.9533409 0.274285714,49.5545645 1.29070383,50.0095537 C1.56108711,50.1219813 1.83749129,50.2205941 2.71531707,50.3645823 C3.59314286,50.5085704 5.5741324,50.6637901 9.46073868,50.6637901 C10.4550801,50.6637901 11.7046411,50.5160956 12.8588711,50.4835241 C13.5268571,50.4429783 15.0182578,50.3150512 16.4093101,49.9524975 C18.4483902,49.4213586 19.9508293,47.6019635 20.4172265,46.8001448 C21.6123763,44.7461232 21.471777,44.0027084 22.6002509,41.1313685 C23.9356655,37.7334946 25.5846132,35.5387419 26.9908293,33.3785823 C28.3971568,31.2183103 30.7399582,29.259532 31.5383972,26.5503754 C31.7975192,25.6710591 31.9244042,25.1767596 31.9354425,24.656403 C31.9465923,24.1360463 31.8914007,23.2419044 31.7613937,22.6626946 C31.455108,21.36287 30.8258118,20.274198 30.1161254,19.2342709" id="Fill-6" fill="#474651"></path>
                </g>
            </g>
        </g>
    </g>
</svg>