<?xml version="1.0" encoding="UTF-8"?>
<svg width="454px" height="454px" viewBox="0 0 454 454" version="1.1" xmlns="http://www.w3.org/2000/svg" xmlns:xlink="http://www.w3.org/1999/xlink">
    <!-- Generator: Sketch 47.1 (45422) - http://www.bohemiancoding.com/sketch -->
    <title>ico-clothespeg</title>
    <desc>Created with Sketch.</desc>
    <defs>
        <polygon id="path-1" points="215.925763 0.198123457 0.762686145 0.198123457 0.762686145 211.490363 215.925763 211.490363 215.925763 0.198123457"></polygon>
    </defs>
    <g id="Page-1" stroke="none" stroke-width="1" fill="none" fill-rule="evenodd">
        <g id="ico-clothespeg">
            <path d="M240.722222,319.704015 C240.899471,319.524109 241,319.280706 241,319.026721 C241,318.772736 240.899471,318.53198 240.722222,318.352074 L237.367725,315 L231,321.3655 L234.354497,324.72022 C234.724868,325.09326 235.330688,325.09326 235.703704,324.72022 L240.722222,319.704015 Z" id="Fill-1" fill="#FFFFFF"></path>
            <path d="M227.916576,325.978446 C227.544808,325.606955 227.544808,325.006245 227.916576,324.632119 L241.381942,311.179393 C241.75371,310.807902 242.357502,310.807902 242.72927,311.179393 L245.866882,314.312039 C247.037554,315.484476 248.938578,315.484476 250.109251,314.312039 L452.073928,112.500069 C454.642024,109.933881 454.642024,105.773706 452.073928,103.207518 C449.645574,100.780968 445.896259,100.30409 442.932666,102.029811 L291.341168,190.46054 C289.927924,184.000281 286.742852,177.845646 281.722672,172.834466 C267.740522,158.862705 244.996788,158.862705 231.017275,172.834466 C220.758074,183.083409 218.058145,198.040543 222.851573,210.80298 L142.689533,210.80298 C142.436415,210.80298 142.193843,210.702862 142.014551,210.523703 L140.812239,209.32492 C140.440472,208.950794 139.839316,208.950794 139.467548,209.32492 L126.002182,222.777646 C125.82289,222.95417 125.722697,223.196561 125.722697,223.449492 C125.722697,223.702422 125.82289,223.942179 126.002182,224.123972 L133.339976,231.453679 C133.516631,231.630203 133.759203,231.732956 134.012321,231.732956 L225.079541,231.732956 L163.300219,293.463739 C161.776235,294.98659 161.449291,297.328829 162.498677,299.207363 C165.224972,304.078904 164.515714,310.354735 160.368265,314.499102 C156.223453,318.640835 149.945591,319.349566 145.070427,316.627932 C143.190497,315.579325 140.849152,315.900757 139.325169,317.423608 L127.974395,328.763313 C126.273757,330.462688 126.097101,333.16061 127.555168,335.07076 C136.76762,347.150813 135.850066,364.476533 124.80778,375.515884 C113.588838,386.726489 96.4875327,388.478558 84.3879504,378.469371 C82.4816532,376.885922 79.6788953,377.025561 77.9281604,378.774995 C71.2838049,385.414413 65.5174535,425.567086 88.2005449,448.228053 C95.9021966,455.923982 108.392003,455.923982 116.096291,448.228053 L231.041005,333.368751 C232.219587,332.18841 232.219587,330.280894 231.041005,329.103188 L227.916576,325.978446 Z" id="Fill-3" fill="#EBEBEB"></path>
            <path d="M269.632523,185.367577 C262.390524,178.125363 250.608491,178.125363 243.366492,185.367577 C236.124494,192.609792 236.124494,204.392177 243.366492,211.634392 C250.608491,218.879233 262.390524,218.879233 269.632523,211.634392 C276.874522,204.392177 276.874522,192.612418 269.632523,185.367577 M237.043529,217.954918 C226.317073,207.228142 226.319699,189.773827 237.046155,179.047051 C247.775236,168.31765 265.226405,168.31765 275.952861,179.047051 C286.681942,189.773827 286.681942,207.228142 275.955486,217.954918 C265.226405,228.681694 247.77261,228.681694 237.043529,217.954918" id="Fill-5" fill="#FFFFFF"></path>
            <path d="M263.778287,206.780048 C259.482671,211.073317 252.516661,211.073317 248.223717,206.780048 C243.925428,202.484105 243.925428,195.517566 248.223717,191.224296 C252.519334,186.92568 259.482671,186.92568 263.778287,191.221623 C268.073904,195.517566 268.073904,202.484105 263.778287,206.780048" id="Fill-7" fill="#FFFFFF"></path>
            <path d="M136.675363,227 C136.421508,227 136.180875,226.897093 136.001061,226.712945 L128.279637,218.80538 C127.906788,218.423542 127.906788,217.803394 128.279637,217.421556 L133.293274,212.284347 C133.666123,211.905218 134.271673,211.905218 134.644523,212.284347 L139.729556,217.491966 C139.90937,217.678823 140.150004,217.78173 140.403859,217.78173 L257,217.78173 L257,226.997292 L136.675363,227 Z" id="Fill-9" fill="#FFFFFF"></path>
            <g id="Group-13" transform="translate(138.000000, 0.000000)">
                <mask id="mask-2" fill="white">
                    <use xlink:href="#path-1"></use>
                </mask>
                <g id="Clip-12"></g>
                <path d="M1.69871325,209.175993 C0.450677108,207.923696 0.450677108,205.899943 1.69871325,204.650289 L203.872653,2.21157284 C206.556063,-0.472674074 210.920231,-0.475316049 213.601002,2.21157284 C216.149846,4.76372099 216.645894,8.61836296 214.875424,11.6539926 L126.156677,163.81856 L125.945593,163.771005 C113.990304,161.150165 101.726304,164.7274 93.1325325,173.329672 C83.3039181,183.173672 80.1244602,197.992511 85.0321711,211.086141 L85.1825687,211.490363 L4.52988193,211.490363 C4.20006265,211.490363 3.87552048,211.355622 3.64332771,211.123128 L1.69871325,209.175993 Z" id="Fill-11" fill="#FFFFFF" mask="url(#mask-2)"></path>
            </g>
            <path d="M5.8515519,367.798988 C-1.9505173,359.972087 -1.9505173,347.233878 5.8515519,339.406977 L121.053939,223.840579 C122.171155,222.719807 123.981362,222.719807 125.098578,223.840579 L133.406556,232.172356 C133.527764,232.296592 133.6964,232.365319 133.867672,232.365319 L221,232.365319 L161.049754,292.509012 C159.442438,294.121444 156.933971,294.470363 154.952494,293.360165 C150.096292,290.640178 143.956872,291.496617 140.017631,295.448395 C136.07839,299.397531 135.224668,305.55649 137.93339,310.428148 C139.042702,312.415932 138.697524,314.932383 137.090208,316.542171 L125.749409,327.921708 C123.952377,329.724459 121.072383,329.917422 119.048746,328.36843 C106.970163,319.137921 89.750804,320.308916 78.9949626,331.096347 C67.5698454,342.56047 66.3340567,359.432847 76.059635,371.21417 C77.7459991,373.257465 77.6089821,376.217994 75.7329019,378.097402 C69.5038943,384.348878 28.8756926,390.896407 5.8515519,367.798988" id="Fill-14" fill="#FFFFFF"></path>
        </g>
    </g>
</svg>