<?xml version="1.0" encoding="UTF-8"?>
<svg width="40px" height="55px" viewBox="0 0 40 55" version="1.1" xmlns="http://www.w3.org/2000/svg" xmlns:xlink="http://www.w3.org/1999/xlink">
    <!-- Generator: Sketch 43.2 (39069) - http://www.bohemiancoding.com/sketch -->
    <title>ico-cane</title>
    <desc>Created with Sketch.</desc>
    <defs>
        <polygon id="path-1" points="11.6745038 60.7194519 0.158829166 60.7194519 0.158829166 0.0311844503 11.6745038 0.0311844503 11.6745038 60.7194519"></polygon>
    </defs>
    <g id="Page-1" stroke="none" stroke-width="1" fill="none" fill-rule="evenodd">
        <g id="board-color" transform="translate(-31.000000, -134.000000)">
            <g id="20.-Cane" transform="translate(59.000000, 160.500000) rotate(-270.000000) translate(-59.000000, -160.500000) translate(19.000000, 101.000000)">
                <g id="ico-cane" transform="translate(42.688989, 66.236717) rotate(-65.000000) translate(-42.688989, -66.236717) translate(33.688989, 34.736717)">
                    <path d="M11.7722879,0.0399326125 C7.73827346,-0.39257952 4.98060487,2.74550387 4.54152847,6.68570398 C3.18322921,19.6331698 0.373476293,53.721216 0.00141878428,61.4054176 C-0.0284503584,61.9907313 0.433027896,62.4887037 1.03601121,62.5176959 L1.08809553,62.5176959 C1.66475667,62.5176959 2.14490313,62.0742433 2.17103863,61.5071637 C2.51714732,54.4772005 4.75733302,27.1756927 6.20505303,12.0616547 C6.39845573,10.0188919 6.57711054,8.20150219 6.73709714,6.68570398 C6.94935473,4.06492115 8.68717879,1.82468335 11.5378151,2.12992168 C14.3363671,2.42804871 15.0657342,4.72408276 14.8499296,7.44296489 C14.7069311,8.78116326 16.8468685,8.99924273 16.9896804,7.66104436 C17.3283218,3.78995138 15.7504843,0.461504303 11.7722879,0.0399326125" id="Fill-1" fill="#FFC9A1"></path>
                    <g id="Group-5" transform="translate(0.186682, 1.798244)">
                        <mask id="mask-2" fill="white">
                            <use xlink:href="#path-1"></use>
                        </mask>
                        <g id="Clip-4"></g>
                        <path d="M10.4207465,0.0591513219 C7.57011019,-0.246269345 5.83228613,1.99415079 5.62021522,4.61493362 C5.46004194,6.13054949 5.28157381,7.94793921 5.08798443,9.99088438 C3.64026443,25.10474 1.39989204,52.4064302 1.05397004,59.4363934 C1.03082145,59.9402007 0.648496424,60.3446324 0.158829166,60.4288738 C0.340844254,60.5958979 0.579237349,60.7063963 0.849179726,60.7195249 L0.901264043,60.7195249 C1.47811186,60.7195249 1.95825833,60.2760723 1.98420715,59.7089927 C2.33031584,52.6790295 4.57068822,25.3773394 6.01840823,10.2634837 C6.21181093,8.2207209 6.39046574,6.40333117 6.55045233,4.88753296 C6.76270993,2.26675013 8.50053398,0.0263299966 11.3511703,0.331750663 C11.464113,0.343785149 11.5682816,0.364207307 11.6745038,0.382623717 C11.3117804,0.223257949 10.8986528,0.110024376 10.4207465,0.0591513219" id="Fill-3" fill="#F0B183" mask="url(#mask-2)"></path>
                    </g>
                    <path d="M12.4487679,0.145981962 C15.239666,1.19517033 16.3478111,4.09146995 16.0593872,7.38837209 C16.000209,7.94159376 15.5994024,8.2249512 15.1601394,8.27710064 C15.7308267,8.78072564 16.8858291,8.63339436 16.989811,7.66115377 C17.3084774,4.01798665 15.9281497,0.857293019 12.4487679,0.145981962" id="Fill-6" fill="#F0B183"></path>
                </g>
            </g>
        </g>
    </g>
</svg>