<?xml version="1.0" encoding="UTF-8"?>
<svg width="250px" height="152px" viewBox="0 0 250 152" version="1.1" xmlns="http://www.w3.org/2000/svg" xmlns:xlink="http://www.w3.org/1999/xlink">
    <!-- Generator: Sketch 49.3 (51167) - http://www.bohemiancoding.com/sketch -->
    <title>ico-car</title>
    <desc>Created with Sketch.</desc>
    <defs>
        <polygon id="path-1" points="0 0.155023394 40.7716 0.155023394 40.7716 19.213659 0 19.213659"></polygon>
        <polygon id="path-3" points="0.826664212 0.043 215.167299 0.043 215.167299 136.348116 0.826664212 136.348116"></polygon>
    </defs>
    <g id="Page-1" stroke="none" stroke-width="1" fill="none" fill-rule="evenodd">
        <g id="ico-car" transform="translate(0.000000, -1.000000)">
            <path d="M66.9454,77.998 L24.5094,77.998 C20.8304,87.682 18.7404,98.766 18.7404,110.546 C18.7404,123.298 21.1884,135.235 25.4524,145.462 C27.3444,149.999 31.7824,152.957 36.6984,152.957 L60.1284,152.957 C63.8934,152.957 66.9454,149.905 66.9454,146.141 L66.9454,77.998 Z" id="Fill-1" fill="#595757"></path>
            <path d="M183.049,77.998 L225.486,77.998 C229.164,87.682 231.255,98.767 231.255,110.547 C231.255,123.298 228.807,135.236 224.543,145.462 C222.652,149.999 218.213,152.957 213.297,152.957 L189.866,152.957 C186.101,152.957 183.049,149.905 183.049,146.141 L183.049,77.998 Z" id="Fill-3" fill="#595757"></path>
            <g id="Group-7" transform="translate(0.000000, 27.957000)">
                <mask id="mask-2" fill="white">
                    <use xlink:href="#path-1"></use>
                </mask>
                <g id="Clip-6"></g>
                <path d="M40.7716,9.6846 L38.2316,9.6846 C34.8086,9.6846 31.9106,7.1446 31.4736,3.7486 C31.4736,3.7466 31.4736,3.7446 31.4726,3.7426 C31.1826,1.4906 29.6366,-0.0604 27.9556,0.2086 C28.4176,0.1346 9.5876,-1.0394 0.6386,12.9166 C-0.0314,13.9596 -0.1894,15.4336 0.2366,16.6886 C1.1246,19.3096 19.4296,20.3346 27.0496,17.5846 C28.8476,16.9366 30.7696,16.5956 32.6796,16.5956 L40.7716,16.5956 L40.7716,9.6846 Z" id="Fill-5" fill="#595757" mask="url(#mask-2)"></path>
            </g>
            <path d="M209.2228,37.6416 L211.7628,37.6416 C215.1868,37.6416 218.0838,35.1026 218.5218,31.7076 C218.5228,31.7046 218.5228,31.7006 218.5238,31.6976 C218.8128,29.4476 220.3598,27.8966 222.0408,28.1646 C221.5778,28.0906 240.4098,26.9156 249.3618,40.8746 C250.0308,41.9176 250.1888,43.3906 249.7638,44.6466 C248.8758,47.2686 230.5678,48.2936 222.9458,45.5426 C221.1478,44.8946 219.2258,44.5536 217.3158,44.5536 L209.2228,44.5536 L209.2228,37.6416 Z" id="Fill-8" fill="#595757"></path>
            <g id="Group-12" transform="translate(17.000000, 0.957000)">
                <mask id="mask-4" fill="white">
                    <use xlink:href="#path-3"></use>
                </mask>
                <g id="Clip-11"></g>
                <path d="M205.9786,54.7398 C203.0996,50.8798 200.8556,46.6648 199.2406,42.1288 C194.4586,28.7138 188.9746,16.8988 183.3966,7.6368 C180.5576,2.9228 175.4506,0.0428 169.9476,0.0428 L46.0476,0.0428 C40.5526,0.0428 35.4346,2.9288 32.5986,7.6368 C27.0206,16.8978 21.5356,28.7128 16.7556,42.1278 C15.1566,46.6158 12.8646,50.9208 10.0166,54.7398 C2.5246,64.7858 -0.5744,77.4288 1.4156,89.8008 C3.1626,100.6648 6.4606,115.7918 12.2476,125.9728 C15.1446,131.0698 20.4396,134.3388 26.2926,134.6568 L56.9886,136.3228 C61.2486,136.5538 65.4436,135.1958 68.7566,132.5088 C69.1736,132.1708 69.5946,131.8168 70.0146,131.4458 C73.1606,128.6698 77.2006,127.1448 81.3966,127.1448 L134.5976,127.1448 C138.7896,127.1448 142.8376,128.6728 145.9806,131.4468 C146.3996,131.8158 146.8206,132.1698 147.2376,132.5078 C150.5536,135.1978 154.7426,136.5538 159.0046,136.3228 L189.7016,134.6568 C195.5456,134.3388 200.8556,131.0618 203.7476,125.9728 C209.5346,115.7918 212.8326,100.6638 214.5796,89.7998 C216.5676,77.4328 213.4656,64.7808 205.9786,54.7398" id="Fill-10" fill="#F05064" mask="url(#mask-4)"></path>
            </g>
            <path d="M34.4166,54.2129 C33.6726,54.2129 33.0396,54.7509 32.9176,55.4839 C32.7956,56.2169 33.2226,56.9309 33.9266,57.1709 C33.9936,57.1929 34.0616,57.2149 34.1296,57.2349 L45.8546,60.7199 C60.7876,65.1579 72.7496,76.3799 78.1326,90.9979 L89.5136,121.9059 C90.8846,125.6289 94.4306,128.1019 98.3976,128.1019 L151.5976,128.1019 L151.5986,128.1019 C155.5666,128.1029 159.1116,125.6279 160.4826,121.9029 L171.8616,90.9979 C177.2446,76.3799 189.2076,65.1579 204.1396,60.7199 L215.8596,57.2369 C215.8626,57.2359 215.8646,57.2359 215.8676,57.2349 C216.6006,57.0159 217.0626,56.2909 216.9526,55.5329 C216.8406,54.7749 216.1906,54.2129 215.4246,54.2129 L34.4166,54.2129 Z" id="Fill-13" fill="#E63246"></path>
            <path d="M41.4225,52.1797 C40.0195,52.1797 38.7055,51.4957 37.8995,50.3467 C37.0945,49.1987 36.8985,47.7287 37.3775,46.4097 C41.9975,33.6787 47.3775,22.1277 52.9035,13.0767 C54.9125,9.7847 58.4945,7.7797 62.3515,7.7797 L187.6455,7.7797 C191.4965,7.7797 195.0885,9.7897 197.0935,13.0767 C202.6195,22.1287 207.9995,33.6787 212.6195,46.4097 C213.0975,47.7287 212.9035,49.1987 212.0975,50.3467 C211.2925,51.4957 209.9765,52.1797 208.5745,52.1797 L41.4225,52.1797 Z" id="Fill-15" fill="#2EA7E0"></path>
            <path d="M91.0255,75.9043 C88.0865,75.9043 85.3335,77.3413 83.6505,79.7523 C81.9695,82.1623 81.5695,85.2443 82.5865,88.0033 L91.7395,112.8643 C93.7605,118.3533 98.9895,122.0003 104.8385,122.0003 L145.1555,122.0003 C151.0045,122.0003 156.2335,118.3533 158.2545,112.8643 L167.4085,88.0033 C168.4245,85.2433 168.0275,82.1623 166.3455,79.7513 C164.6635,77.3403 161.9085,75.9043 158.9685,75.9043 L91.0255,75.9043 Z" id="Fill-17" fill="#F05064"></path>
            <path d="M191.7032,110.3984 C183.2362,112.2884 176.4122,117.9314 171.7192,125.1834 L171.7172,125.1854 C171.1782,126.0194 171.1452,127.0844 171.6362,127.9484 C172.1252,128.8114 173.0542,129.3304 174.0462,129.2964 C184.8462,128.9384 210.3212,128.0854 210.7932,128.0174 C214.7252,127.4494 218.1682,124.9194 219.8492,121.2124 C219.8492,121.2124 221.9172,115.0124 223.0432,109.2234 C223.3052,107.8794 222.8712,106.4944 221.8892,105.5404 C220.9072,104.5854 219.5112,104.1924 218.1752,104.4904 L191.7032,110.3984 Z" id="Fill-19" fill="#F05064"></path>
            <path d="M58.2931,110.3984 C66.7591,112.2884 73.5841,117.9314 78.2771,125.1834 C78.2781,125.1844 78.2791,125.1854 78.2801,125.1874 C78.8181,126.0204 78.8501,127.0854 78.3601,127.9484 C77.8711,128.8124 76.9421,129.3304 75.9501,129.2964 C65.1511,128.9384 39.6751,128.0854 39.2031,128.0164 C35.2721,127.4494 31.8281,124.9194 30.1471,121.2124 C30.1471,121.2124 28.0801,115.0124 26.9541,109.2244 C26.6921,107.8804 27.1261,106.4954 28.1081,105.5414 C29.0901,104.5864 30.4861,104.1934 31.8221,104.4914 L58.2931,110.3984 Z" id="Fill-23" fill="#F05064"></path>
            <path d="M62.4069,91.1562 C63.7479,91.1562 64.9659,90.3742 65.5239,89.1532 C66.0809,87.9332 65.8739,86.5012 64.9959,85.4872 C53.2509,71.9202 28.5449,73.0622 29.1529,73.1352 C26.9479,72.8732 24.9179,74.3812 24.5389,76.5682 C24.2499,78.2322 24.0729,79.7902 23.9899,81.2902 C23.8489,83.8572 24.7719,86.3692 26.5399,88.2352 C28.3079,90.1012 30.7659,91.1562 33.3379,91.1562 L62.4069,91.1562 Z" id="Fill-27" fill="#FFFFFF"></path>
            <path d="M187.588,91.1562 C186.246,91.1562 185.028,90.3742 184.471,89.1532 C183.914,87.9332 184.121,86.5012 184.999,85.4872 C196.743,71.9212 221.448,73.0632 220.84,73.1352 C223.046,72.8732 225.074,74.3812 225.454,76.5682 C225.743,78.2322 225.92,79.7902 226.003,81.2902 C226.144,83.8572 225.221,86.3692 223.453,88.2352 C221.685,90.1022 219.227,91.1562 216.655,91.1562 L187.588,91.1562 Z" id="Fill-29" fill="#FFFFFF"></path>
            <path d="M89.9611,52.1797 L132.6901,52.1797 L88.2891,7.7797 L62.3501,7.7797 C58.4941,7.7797 54.9121,9.7847 52.9021,13.0757 C52.6471,13.4947 52.3911,13.9247 52.1371,14.3547 L89.9611,52.1797 Z" id="Fill-43" fill="#FFFFFF" opacity="0.2"></path>
            <polygon id="Fill-45" fill="#FFFFFF" opacity="0.2" points="94.6818 7.7793 139.0838 52.1793 149.5708 52.1793 105.1698 7.7793"></polygon>
        </g>
    </g>
</svg>