<?xml version="1.0" encoding="UTF-8"?>
<svg width="54px" height="41px" viewBox="0 0 54 41" version="1.1" xmlns="http://www.w3.org/2000/svg" xmlns:xlink="http://www.w3.org/1999/xlink">
    <!-- Generator: Sketch 43.2 (39069) - http://www.bohemiancoding.com/sketch -->
    <title>ico-lips</title>
    <desc>Created with Sketch.</desc>
    <defs>
        <polygon id="path-1" points="2.8365643e-15 39.3186515 2.8365643e-15 0.0628759713 53.9999707 0.0628759713 53.9999707 39.3186515 0 39.3186515"></polygon>
    </defs>
    <g id="Page-1" stroke="none" stroke-width="1" fill="none" fill-rule="evenodd">
        <g id="board-color" transform="translate(-535.000000, -45.000000)">
            <g id="27.-Verbal-Humiliation" transform="translate(521.000000, -2.000000)">
                <g id="ico-lips" transform="translate(14.000000, 47.789916)">
                    <g transform="translate(0.000000, 0.005991)">
                        <mask id="mask-2" fill="white">
                            <use xlink:href="#path-1"></use>
                        </mask>
                        <g id="Clip-2"></g>
                        <path d="M3.1320945,16.4606367 C3.1320945,16.4606367 -0.7696755,13.4143013 0.136512,8.45491675 C1.0429695,3.49525678 3.5446545,1.66600946 6.0987195,1.91796564 C8.653257,2.17033498 10.960542,3.85187909 12.1963995,3.59937204 C13.432527,3.34686498 14.7508695,-0.099129849 20.848482,0.0688179849 C26.9464995,0.237041256 33.0440445,2.84309034 39.2244795,4.77590205 C45.4046445,6.70995322 52.0794495,8.72684213 53.479872,10.660549 C54.881037,12.5940493 53.1502695,15.1994098 51.831927,17.6377176 C50.513247,20.0756812 44.366427,34.7509753 35.2199745,37.4409639 C26.0735895,40.1308147 17.8484445,40.3364286 10.9229445,35.356042 C4.777542,30.936652 4.4507745,26.3796813 4.285737,23.269651 C4.1211045,20.1596206 4.392117,17.6138923 3.1320945,16.4606367" id="Fill-1" fill="#D8516F" mask="url(#mask-2)"></path>
                    </g>
                    <path d="M8.40572775,10.834825 C8.40572775,10.834825 8.57069775,12.6000332 7.91176275,14.1970181 C7.25242275,15.7943473 4.03895025,17.1390317 5.10977025,17.391401 C6.18126525,17.6437015 12.1138402,18.5682753 13.2674827,20.5017756 C14.4211927,22.4350693 17.2829227,24.9571789 19.4780227,25.4612979 C21.6724477,25.9655545 27.6151477,25.2091351 31.9729477,23.1076181 C36.3306127,21.0060323 41.7005077,18.3471681 43.7172052,17.6589883 C45.7343077,16.9710839 48.7827427,15.5420468 50.5957253,14.1130097 L52.4087077,12.6839727 C52.4087077,12.6839727 45.9709627,11.9338194 43.1552677,11.3215914 C40.3387627,10.7086059 29.0065927,7.51608216 22.9089802,8.46090063 C16.8109627,9.40565023 15.6519877,9.06927255 13.4325202,9.40565023 C11.2127827,9.74175247 8.50819275,8.87550247 8.40572775,10.834825" id="Fill-4" fill="#B45058"></path>
                    <path d="M27.1939275,8.48086982 C22.0849875,8.22870706 18.8707725,10.4143701 16.9760475,10.3302241 C15.0805125,10.2462157 9.6419025,9.23749582 8.9003475,9.99370865 C8.9003475,9.99370865 9.111015,10.5743991 9.445815,11.3390817 C9.599175,10.9424521 9.893745,10.6530365 10.38447,10.6172296 C12.24774,10.4054873 14.180535,10.3353885 15.9056325,11.3215914 C16.2508275,11.532232 16.73433,11.4620644 17.079525,11.3215914 C17.4243825,11.250322 17.8384275,11.250322 18.2527425,10.9688252 C18.4596975,10.7580469 18.873675,10.898933 19.2189375,10.7580469 C21.7727325,9.63116444 24.5334825,9.70188294 27.294165,9.34932332 C27.3633525,9.34932332 27.294165,9.20885035 27.15633,9.20885035 C28.053405,9.13833842 29.08872,9.13833842 29.8478925,9.49089804 C29.9862,9.56065251 30.331125,9.63116444 30.331125,9.70188294 C33.8510475,10.2650832 37.0261125,10.898933 40.1317875,12.5182283 C40.4364825,12.6801165 40.72815,12.8605968 41.0129325,13.0509239 C43.9343325,12.5582356 46.5583275,12.0957077 46.5583275,12.0957077 C46.5583275,12.0957077 32.3025975,8.732826 27.1939275,8.48086982" id="Fill-6" fill="#EBE4E5"></path>
                    <path d="M30.3310913,9.70187605 C30.3310913,9.63122641 29.9862338,9.56064563 29.8479263,9.49089116 C29.0887538,9.13833154 28.0534388,9.13833154 27.1563638,9.20884346 C27.2941988,9.20884346 27.3633188,9.34931643 27.2941988,9.34931643 C24.5334488,9.70187605 21.7726988,9.63122641 19.2189038,10.75804 C18.8737088,10.8989261 18.4597313,10.75804 18.2527763,10.9688183 C17.8383938,11.2503151 17.4243488,11.2503151 17.0795588,11.3215845 C16.7342963,11.4620575 16.2507938,11.5322251 15.9055988,11.3215845 C14.1805013,10.3353816 12.2477738,10.4054804 10.3844363,10.6172227 C9.89377875,10.6530296 9.59914125,10.9424452 9.44578125,11.3390748 C10.0475438,12.7135064 11.0492438,14.6837776 11.9496263,14.9536372 C13.3500488,15.3738855 14.8333613,15.4581004 14.8333613,15.4581004 C14.8333613,15.4581004 16.0691513,17.0554296 18.5415413,16.971077 L21.0138638,16.8870686 C21.0138638,16.8870686 22.6614713,16.2988725 22.6614713,15.8777979 L22.6614713,15.4581004 C22.6614713,15.4581004 22.9089938,16.3829497 23.2386638,16.4666137 C23.5679963,16.551173 28.4297513,16.6347681 29.9127263,15.8777979 C31.3964438,15.1217227 31.3964438,13.4843174 31.3964438,13.4843174 C31.3964438,13.4843174 31.4785913,14.3653722 33.5387588,14.1970112 C34.5907463,14.1107993 37.9637213,13.5650205 41.0128988,13.050917 C40.7281163,12.8605899 40.4364488,12.6801097 40.1317538,12.5182214 C37.0261463,10.8989261 33.8510813,10.2650763 30.3310913,9.70187605" id="Fill-8" fill="#FFFFFF"></path>
                    <path d="M18.3905843,21.459939 C20.4612818,21.8825974 22.5315743,22.1643008 24.6713243,21.8825974 C24.7922168,21.8574638 24.9141893,21.8237227 25.0350143,21.784404 C24.0720593,21.7866075 23.1300968,21.6406258 22.2558368,21.2585256 C18.7886318,19.7453424 16.4817518,18.0637983 16.0691243,18.4002449 C16.0365893,18.4272377 16.0011518,18.4635954 15.9646343,18.5073211 C16.2247793,19.9145986 17.1367043,21.2681659 18.3905843,21.459939" id="Fill-10" fill="#EBE4E5"></path>
                    <path d="M32.961546,20.1656321 C30.9285135,20.4792173 27.888786,21.7808647 25.0349535,21.7843765 C24.9141285,21.823764 24.7922235,21.8575051 24.671331,21.8826387 C22.531581,22.1642733 20.4612885,21.8826387 18.390591,21.4599115 C17.136711,21.2681383 16.224786,19.9145711 15.9645735,18.5072935 C15.5476935,19.0083138 14.975226,20.5661866 15.657381,22.2672868 C15.657381,22.2672868 17.305326,25.5452649 21.672441,25.9655132 C26.039961,26.3856927 29.830221,26.0497281 31.396491,24.621242 C32.961546,23.191654 36.4228785,20.5017343 39.059496,19.8293232 C41.6965185,19.1569122 45.734301,16.3829841 45.734301,16.3829841 C45.734301,16.3829841 35.680986,19.7453149 32.961546,20.1656321" id="Fill-12" fill="#FFFFFF"></path>
                </g>
            </g>
        </g>
    </g>
</svg>