<?xml version="1.0" encoding="UTF-8"?>
<svg width="120px" height="90px" viewBox="0 0 42 63" version="1.1" xmlns="http://www.w3.org/2000/svg" xmlns:xlink="http://www.w3.org/1999/xlink">
    <!-- Generator: Sketch 43.2 (39069) - http://www.bohemiancoding.com/sketch -->
    <title>ico-chance</title>
    <desc>Created with Sketch.</desc>
    <defs>
        <polygon id="path-1" points="26.3811579 0.629916279 26.3811579 42.3061953 0.206831579 42.3061953 0.206831579 0.629916279 26.3811579 0.629916279"></polygon>
    </defs>
    <g id="Page-1" stroke="none" stroke-width="1" fill="none" fill-rule="evenodd">
        <g id="board-color" transform="translate(-699.000000, -879.000000)">
            <g id="3.-Chance" transform="translate(680.000000, 841.000000)">
                <g id="ico-chance" transform="translate(19.000000, 38.000000)">
                    <path d="M20.4252632,50.4750678 C16.8530526,50.4750678 14.0633684,53.1342755 14.0633684,56.6652587 C14.0633684,60.7630422 17.1816842,62.8964055 20.4252632,62.8964055 C23.6150526,62.8964055 26.6618947,60.6599211 26.6618947,56.6652587 C26.6618947,53.1525594 23.9591579,50.4750678 20.4252632,50.4750678" id="Fill-1" fill="#6B6B6B"></path>
                    <g id="Group-5" transform="translate(14.736842, 51.194868)" fill="#5C5C5C">
                        <path d="M9.32797895,0.395736327 C10.0368211,1.4013498 10.4509263,2.63953424 10.4509263,4.00716856 C10.4509263,8.00256231 7.40482105,10.2390467 4.21503158,10.2390467 C2.84008421,10.2390467 1.49092632,9.85215974 0.389347368,9.09886383 C1.5764,10.816086 3.60418947,11.7017572 5.68871579,11.7017572 C8.87850526,11.7017572 11.9246105,9.46527281 11.9246105,5.46987907 C11.9246105,3.32700818 10.9151368,1.49862005 9.32797895,0.395736327" id="Fill-3"></path>
                    </g>
                    <g id="Group-8" fill="#6B6B6B">
                        <path d="M21.4297263,0 C7.87109474,0 0.000147368421,9.45276664 0.000147368421,17.3652991 C0.000147368421,19.7977867 2.2792,22.5579214 5.56698947,22.5579214 C13.7754105,22.5579214 8.85477895,8.7652927 21.4297263,8.7652927 C26.9641474,8.7652927 30.3447789,12.444741 30.3447789,16.6588099 C30.3447789,21.8389992 24.4537263,24.4791917 18.7925684,30.5552911 C15.8488842,33.7154771 14.8165684,37.2384154 14.8165684,41.0860754 C14.8165684,44.8737642 17.1390947,46.6948388 19.9648842,46.6948388 C25.6444632,46.6948388 24.4323579,41.4941716 26.2847789,37.9083368 C29.3500421,31.9763144 41.8549895,27.5399134 41.8549895,16.5754354 C41.8549895,7.99956375 34.4637263,0 21.4297263,0" id="Fill-6"></path>
                    </g>
                    <path d="M21.4297263,8.76565838 C23.8229895,8.76565838 25.8102526,9.45532638 27.2994105,10.5772253 C25.7918316,8.62085004 23.2622526,7.30294787 19.9560421,7.30294787 C7.38109474,7.30294787 12.3017263,21.0955766 4.09330526,21.0955766 C2.87677895,21.0955766 1.80025263,20.7160032 0.924147368,20.1170233 C1.88572632,21.500016 3.53183158,22.5582871 5.56698947,22.5582871 C13.7754105,22.5582871 8.85477895,8.76565838 21.4297263,8.76565838" id="Fill-9" fill="#5C5C5C"></path>
                    <g id="Group-13" transform="translate(15.473684, 4.388132)">
                        <mask id="mask-2" fill="white">
                            <use xlink:href="#path-1"></use>
                        </mask>
                        <g id="Clip-12"></g>
                        <path d="M20.9924105,0.629916279 C23.5544105,3.50487378 24.9079895,7.06072302 24.9079895,10.7248128 C24.9079895,21.6892908 12.4023053,26.1256917 9.33777895,32.0577142 C7.48535789,35.6428176 8.69746316,40.8434848 3.01714737,40.8434848 C1.98262105,40.8434848 1.01735789,40.5970181 0.206831579,40.1018906 C1.13304211,41.582885 2.71135789,42.3061953 4.49083158,42.3061953 C10.1711474,42.3061953 8.95904211,37.1055281 10.8114632,33.5204247 C13.8759895,27.5884022 26.3816737,23.1520013 26.3816737,12.1875233 C26.3816737,7.87399006 24.5093579,3.70745918 20.9924105,0.629916279" id="Fill-11" fill="#5C5C5C" mask="url(#mask-2)"></path>
                    </g>
                </g>
            </g>
        </g>
    </g>
</svg>
