<?xml version="1.0" encoding="UTF-8"?>
<svg width="29px" height="92px" viewBox="0 0 29 92" version="1.1" xmlns="http://www.w3.org/2000/svg" xmlns:xlink="http://www.w3.org/1999/xlink">
    <!-- Generator: Sketch 46.1 (44463) - http://www.bohemiancoding.com/sketch -->
    <title>ico-vibrator</title>
    <desc>Created with Sketch.</desc>
    <defs>
        <polygon id="path-1" points="0.2172 25 26.385 25 26.385 0.2833 0.2172 0.2833"></polygon>
        <polygon id="path-3" points="26.385 0.849 26.385 8.057 0.2172 8.057 0.2172 0.849 26.385 0.849"></polygon>
    </defs>
    <g id="Page-1" stroke="none" stroke-width="1" fill="none" fill-rule="evenodd">
        <g id="ico-vibrator" transform="translate(0.000000, -1.000000)">
            <g id="Group-3" transform="translate(2.000000, 67.467100)">
                <mask id="mask-2" fill="white">
                    <use xlink:href="#path-1"></use>
                </mask>
                <g id="Clip-2"></g>
                <path d="M26.3852,18.9143 C26.3852,20.5943 24.9202,22.1163 22.5532,23.2173 C20.1852,24.3183 16.9142,25.0003 13.3012,25.0003 C9.6882,25.0003 6.4172,24.3183 4.0492,23.2173 C1.6812,22.1163 0.2172,20.5943 0.2172,18.9143 L0.2172,0.4533 L13.3012,0.2833 L26.3852,0.4533 L26.3852,18.9143 Z" id="Fill-1" fill="#CCCCCC" mask="url(#mask-2)"></path>
            </g>
            <g id="Group-6" transform="translate(2.000000, 63.467100)">
                <mask id="mask-4" fill="white">
                    <use xlink:href="#path-3"></use>
                </mask>
                <g id="Clip-5"></g>
                <path d="M26.3852,4.453 C26.3852,6.444 20.5272,8.057 13.3012,8.057 C6.0752,8.057 0.2172,6.444 0.2172,4.453 C0.2172,2.462 6.0752,0.849 13.3012,0.849 C20.5272,0.849 26.3852,2.462 26.3852,4.453" id="Fill-4" fill="#E6E6E6" mask="url(#mask-4)"></path>
            </g>
            <g id="Group-9" transform="translate(0.000000, 0.467100)" fill="#616161">
                <path d="M25.1248,67.451 C25.1248,68.946 20.7268,70.159 15.2998,70.159 C9.8768,70.159 5.4788,68.946 5.4788,67.451 C5.4788,66.761 0.1478,52.357 0.0038,37.111 C-0.1652,19.468 5.7548,-1.511 17.1738,0.693 C18.9048,1.026 20.3308,1.514 21.4958,2.138 C21.4998,2.142 21.5038,2.142 21.5078,2.146 C30.6758,7.051 23.8188,20.46 22.9098,35.794 C21.9808,51.466 25.1248,66.742 25.1248,67.451" id="Fill-7"></path>
            </g>
            <path d="M22.044,81.7542 C21.989,85.3722 19.134,89.4682 15.301,89.4682 C11.468,89.4682 8.613,85.3722 8.558,81.7542 C8.504,78.2052 11.515,76.4232 15.301,76.4232 C19.087,76.4232 22.098,78.2052 22.044,81.7542" id="Fill-10" fill="#B3B3B3"></path>
            <path d="M21.5087,82.7534 C21.4587,86.0844 18.8297,89.8544 15.3017,89.8544 C11.7727,89.8544 9.1437,86.0844 9.0937,82.7534 C9.0437,79.4864 11.8157,77.8454 15.3017,77.8454 C18.7867,77.8454 21.5577,79.4864 21.5087,82.7534" id="Fill-12" fill="#E6E6E6"></path>
            <path d="M16.0689,80.2961 L16.0689,80.7921 C17.4959,81.1261 18.5569,82.3671 18.5569,83.8501 C18.5569,85.5891 17.0999,86.9991 15.3009,86.9991 C13.5029,86.9991 12.0449,85.5891 12.0449,83.8501 C12.0449,82.3671 13.1059,81.1261 14.5329,80.7921 L14.5329,80.2961 C12.8289,80.6391 11.5479,82.0991 11.5479,83.8501 C11.5479,85.8551 13.2279,87.4801 15.3009,87.4801 C17.3739,87.4801 19.0549,85.8551 19.0549,83.8501 C19.0549,82.0991 17.7729,80.6391 16.0689,80.2961" id="Fill-14" fill="#A9A9A9"></path>
        </g>
    </g>
</svg>