<?xml version="1.0" encoding="UTF-8"?>
<svg width="43px" height="62px" viewBox="0 0 43 62" version="1.1" xmlns="http://www.w3.org/2000/svg" xmlns:xlink="http://www.w3.org/1999/xlink">
    <!-- Generator: Sketch 43.2 (39069) - http://www.bohemiancoding.com/sketch -->
    <title>ico-goldenshower</title>
    <desc>Created with Sketch.</desc>
    <defs>
        <polygon id="path-1" points="3.04777547 0.0159997325 3.04777547 5.54082376 0.03976045 5.54082376 0.03976045 0.0159997325 3.04777547 0.0159997325"></polygon>
        <polygon id="path-3" points="2.80864047 0.0159997325 2.80864047 5.39349551 0.0240333348 5.39349551 0.0240333348 0.0159997325 2.80864047 0.0159997325"></polygon>
    </defs>
    <g id="Page-1" stroke="none" stroke-width="1" fill="none" fill-rule="evenodd">
        <g id="board-color" transform="translate(-700.000000, -27.000000)">
            <g id="29.-Golden-Shower" transform="translate(681.000000, 0.000000)">
                <g id="ico-goldenshower" transform="translate(19.000000, 27.000000)">
                    <path d="M26.2617928,1.88773944 C26.2617928,1.88773944 26.2793692,2.79794644 26.3100981,4.39074843 C26.324207,5.1871193 26.3413052,6.15421424 26.360974,7.26346876 C26.3793277,8.37278355 26.4000128,9.62425792 26.4226111,10.9895082 C26.4451496,12.3548187 26.4696011,13.8338448 26.4954875,15.3982028 C26.5185042,16.9625608 26.5427764,18.6122508 26.5678856,20.3188286 C26.5906632,22.0254668 26.6140984,23.7889326 26.6379521,25.5808424 C26.6588167,27.3727521 26.6800399,29.1931059 26.7012034,31.0134596 C26.7226657,32.8338134 26.7537533,34.6541671 26.7871126,36.4460769 C26.8220263,38.2379867 26.847554,40.0014525 26.8529345,41.7080303 C26.8494073,42.5613494 26.8539508,43.4003862 26.8415158,44.2217058 C26.837032,44.6323355 26.832608,45.038566 26.8282438,45.439855 C26.821548,45.8412042 26.8149718,46.2376119 26.8085152,46.6287164 C26.7965584,47.4108653 26.7770091,48.1717415 26.7617643,48.9077292 C26.7417965,49.6436566 26.7255353,50.3547558 26.7030566,51.0374111 C26.6622841,52.4026613 26.6154735,53.6541357 26.5660323,54.7634505 C26.5406242,55.3180476 26.5168303,55.83715 26.4948299,56.317142 C26.4691228,56.7970737 26.4454485,57.2379552 26.4241057,57.6361708 C26.403839,58.0343864 26.3799255,58.389936 26.3609143,58.6992641 C26.341903,59.008532 26.3253429,59.2716388 26.30956,59.4849685 C26.2784127,59.9116281 26.2617928,60.1391798 26.2617928,60.1391798 L26.1362469,60.1391798 C26.1362469,60.1391798 26.1196271,59.9116281 26.0884797,59.4849685 C26.0726968,59.2716388 26.0561367,59.008532 26.0371255,58.6992641 C26.0181143,58.389936 25.9942008,58.0343864 25.9739341,57.6361708 C25.9525913,57.2379552 25.9289169,56.7970737 25.9032099,56.317142 C25.8812095,55.83715 25.8574155,55.3180476 25.8320074,54.7634505 C25.7825663,53.6541357 25.7357556,52.4026613 25.6949831,51.0374111 C25.6725044,50.3547558 25.6562432,49.6436566 25.6362755,48.9077292 C25.6210306,48.1717415 25.6014813,47.4108653 25.5895246,46.6287164 C25.5830679,46.2376119 25.5764917,45.8412042 25.5697959,45.439855 C25.5654317,45.038566 25.5610077,44.6323355 25.5565239,44.2217058 C25.5440889,43.4003862 25.5486325,42.5613494 25.5451052,41.7080303 C25.5505456,40.0014525 25.5760134,38.2379867 25.6109271,36.4460769 C25.6442865,34.6541671 25.675374,32.8338134 25.6968364,31.0134596 C25.7179998,29.1931059 25.7392231,27.3727521 25.7600876,25.5808424 C25.7839413,23.7889326 25.8074363,22.0254668 25.8301541,20.3188286 C25.8552633,18.6122508 25.8795355,16.9625608 25.9025523,15.3982028 C25.9284386,13.8338448 25.9528902,12.3548187 25.9754287,10.9895082 C25.9980269,9.62425792 26.0187121,8.37278355 26.0370657,7.26346876 C26.0567346,6.15421424 26.0738327,5.1871193 26.0879417,4.39074843 C26.1186705,2.79794644 26.1362469,1.88773944 26.1362469,1.88773944 L26.2617928,1.88773944 Z" id="Fill-59" fill="#F6EFA8"></path>
                    <path d="M31.5614905,56.8821043 C30.991871,58.144426 30.0669566,59.4849685 30.1193272,60.3764338 C30.224427,62.1477941 31.5815779,62.0041882 33.2838603,61.8073101 C34.2783032,61.6928111 33.9616884,60.6419511 34.6707237,59.7864625 C35.2066252,59.1397841 35.6652263,58.9980463 35.6652263,58.9980463 C35.6652263,58.9980463 36.246145,58.1328555 37.6572208,58.1816683 C37.9947001,58.1933592 38.3102387,58.1990842 38.6098748,58.1997471 C36.096028,57.4837666 34.2272478,56.6573849 31.5614905,56.8821043" id="Fill-1" fill="#EFA676"></path>
                    <path d="M39.0527349,34.0761037 C39.0527349,34.0761037 40.3767058,37.0205968 40.9679073,39.5350557 C41.3242184,41.0504202 40.6150636,41.3810814 41.3644529,44.2460278 C42.1874957,47.3930035 42.5291598,54.6287996 42.5555843,55.7890966 C42.5992862,57.7108724 43.5384291,58.3862961 37.6572029,58.1817044 C36.2461869,58.1328314 35.6652084,58.9980825 35.6652084,58.9980825 C35.6652084,58.9980825 34.5096483,59.1466299 33.973986,59.7928263 C33.2644724,60.6483148 34.0506287,61.5368272 33.0566641,61.6517481 C31.3543219,61.8481441 30.4487177,62.0493611 30.3436179,60.2780008 C30.2599804,58.8518251 32.8698997,55.1700787 33.2882664,51.5305765 C33.7243888,47.73638 34.0399872,40.2195189 34.067428,39.4010316 C34.1899249,35.7472471 39.0527349,34.0761037 39.0527349,34.0761037" id="Fill-3" fill="#F8D3A0"></path>
                    <path d="M40.5751161,42.5195814 C40.0370624,43.604309 41.3302446,45.1214814 41.5693796,46.5075222 C41.777427,47.7061463 41.9708275,48.8600554 42.1934621,49.9989591 C42.0031705,47.869217 41.731812,45.6504669 41.3644409,44.2459856 C41.1452139,43.407913 41.0509349,42.7869065 41.0181137,42.2894986 C40.7376681,42.4691415 40.6402804,42.3225225 40.5751161,42.5195814" id="Fill-5" fill="#F6C38B"></path>
                    <path d="M41.8065238,39.86644 C41.5620083,40.786048 41.5162139,41.9920843 40.6647738,42.5145012 C40.4854225,42.6350265 39.9971687,42.7806813 39.8178174,42.5998934 C40.1455519,43.3622159 40.2492767,43.5190795 40.7032745,44.2239114 C41.3344713,42.9633374 41.6964619,41.3431159 41.7928333,40.2747797 C41.805627,40.1328009 41.8093336,39.997451 41.8065238,39.86644" id="Fill-7" fill="#F6C38B"></path>
                    <path d="M37.196862,56.69755 C37.196862,56.69755 37.0668922,59.3157811 36.760919,60.3565773 C36.4548262,61.3973132 35.1168659,62.1298659 34.1478311,61.8250575 C33.1781387,61.5200682 33.8576408,60.6259513 34.3678951,59.9477555 C34.8777907,59.2688365 35.4211652,58.9466724 35.5354717,58.568223 C35.6491206,58.1897133 37.196862,56.69755 37.196862,56.69755" id="Fill-9" fill="#EFA676"></path>
                    <path d="M37.196862,56.69755 C37.196862,56.69755 37.7205079,58.670549 36.760919,60.3565773 C36.2247185,61.2982414 35.376148,62.0150053 34.4074719,61.7103174 C33.4378991,61.404846 34.0447639,60.6994115 34.5547791,60.0212157 C35.0649138,59.3428391 34.9587379,58.9211211 35.0726259,58.5430935 C35.1866933,58.1642222 37.196862,56.69755 37.196862,56.69755" id="Fill-11" fill="#F8D3A0"></path>
                    <path d="M38.9609549,57.9869536 C38.9609549,57.9869536 39.0262985,59.258857 38.7205644,60.2996532 C38.4149499,61.3404494 37.0762722,62.0729418 36.1069983,61.7686155 C35.1379636,61.4634454 35.8173461,60.5690272 36.3274808,59.8908314 C36.8375557,59.2119124 37.2984884,58.9187949 37.412795,58.5405866 C37.5264439,58.1620769 38.9609549,57.9869536 38.9609549,57.9869536" id="Fill-13" fill="#EFA676"></path>
                    <path d="M39.8975869,56.8821043 C39.8975869,56.8821043 39.3553483,58.9001195 38.7205644,60.2996592 C38.2724853,61.2873037 37.3360924,61.9585693 36.3665794,61.6533993 C35.3975446,61.348169 36.0039312,60.6424934 36.5146039,59.9642976 C37.0247387,59.285921 36.9183236,58.8646851 37.0326301,58.4861754 C37.146279,58.1072439 39.8975869,56.8821043 39.8975869,56.8821043" id="Fill-15" fill="#F8D3A0"></path>
                    <path d="M40.8142511,57.5048525 C40.8142511,57.5048525 40.9523515,58.8677525 40.7926691,59.9413315 C40.6338237,61.0144887 39.4093928,61.9281909 38.4072976,61.7616853 C37.4053818,61.5954206 37.9550336,60.6148268 38.3666447,59.8711255 C38.7783155,59.1282679 39.1660729,58.9539281 39.226873,58.5630645 C39.2876133,58.1725626 40.8142511,57.5048525 40.8142511,57.5048525" id="Fill-17" fill="#EFA676"></path>
                    <path d="M41.2395048,56.3701671 C41.2395048,56.3701671 40.9523037,58.8677525 40.7926213,59.9413315 C40.6337759,61.0144887 39.6506322,61.7775343 38.6487163,61.6116915 C37.6468603,61.4450051 38.1501199,60.6614701 38.5618506,59.9177688 C38.9734617,59.1747304 38.8100727,58.7722964 38.8710521,58.3816137 C38.9317326,57.9905091 41.2395048,56.3701671 41.2395048,56.3701671" id="Fill-19" fill="#F8D3A0"></path>
                    <g id="Group-23" transform="translate(39.636625, 55.773079)">
                        <mask id="mask-2" fill="white">
                            <use xlink:href="#path-1"></use>
                        </mask>
                        <g id="Clip-22"></g>
                        <path d="M2.91894747,0.0159997325 C2.91894747,0.0159997325 3.15150625,2.62693913 2.99182386,3.70100027 C2.83291865,4.77433825 1.6081888,5.68743786 0.606093614,5.52117322 C-0.395523298,5.35442648 0.153949129,4.37425455 0.565679801,3.63049297 C0.977231121,2.88727376 1.1119239,2.85394852 1.17260441,2.46326578 C1.23358383,2.07258305 2.91894747,0.0159997325 2.91894747,0.0159997325" id="Fill-21" fill="#EFA676" mask="url(#mask-2)"></path>
                    </g>
                    <g id="Group-26" transform="translate(39.875760, 55.773079)">
                        <mask id="mask-4" fill="white">
                            <use xlink:href="#path-3"></use>
                        </mask>
                        <g id="Clip-25"></g>
                        <path d="M2.67981248,0.0159997325 C2.67981248,0.0159997325 2.91237126,2.62693913 2.75268887,3.70100027 C2.59378366,4.77433825 1.61016166,5.5370223 0.608484964,5.3706974 C-0.393311299,5.20467381 0.109828723,4.4209581 0.521619179,3.67749784 C0.933230283,2.93421836 0.769901083,2.53130231 0.830521804,2.14061958 C0.891680578,1.75017789 2.67981248,0.0159997325 2.67981248,0.0159997325" id="Fill-24" fill="#F8D3A0" mask="url(#mask-4)"></path>
                    </g>
                    <path d="M11.2716218,56.8641521 C11.9984727,57.9869657 13.2924919,58.4607506 13.2539314,59.3529391 C13.1763321,61.1256853 12.2887825,61.1699784 10.5836305,60.9999172 C9.58751367,60.9010865 9.65016703,59.8229275 8.92791958,58.9787081 C8.38209396,58.3405266 7.92134061,58.2060807 7.92134061,58.2060807 C7.92134061,58.2060807 7.32709016,57.3501101 5.9169709,57.4210995 C5.57961121,57.4380935 5.26431172,57.44876 4.96467558,57.4541836 C7.46716348,56.6986709 8.6026362,56.681496 11.2716218,56.8641521" id="Fill-27" fill="#EFA676"></path>
                    <path d="M6.27941585,55.7028005 C6.27941585,55.7028005 6.4499191,58.3186212 6.77203393,59.3544758 C7.09414877,60.3902701 8.4432886,61.1016104 9.40754067,60.7816158 C10.3723308,60.4615006 9.67907846,59.5781105 9.1584218,58.9079898 C8.63806405,58.2372666 8.08972752,57.9236598 7.96956219,57.5470182 C7.85011426,57.1703767 6.27941585,55.7028005 6.27941585,55.7028005" id="Fill-29" fill="#EFA676"></path>
                    <path d="M6.27941585,55.7028005 C6.27941585,55.7028005 5.78637928,57.6838145 6.77203393,59.3544758 C7.32270203,60.2875826 8.18227276,60.9909682 9.14610634,60.6709736 C10.1108367,60.3503763 9.493151,59.6545235 8.97267369,58.9844631 C8.45207681,58.3141617 8.55173632,57.8908769 8.43198947,57.5146572 C8.31206328,57.1375938 6.27941585,55.7028005 6.27941585,55.7028005" id="Fill-31" fill="#F8D3A0"></path>
                    <path d="M4.12848628,55.5426706 C4.12848628,55.5426706 4.29928844,58.1583105 4.62116414,59.1941651 C4.94280071,60.2299595 6.29271773,60.9412997 7.25708937,60.6217269 C8.22128166,60.3013707 7.52814888,59.4177998 7.00755201,58.7476792 C6.48701491,58.0769559 6.02159844,57.7911302 5.90149289,57.4146694 C5.78192539,57.0380279 4.12848628,55.5426706 4.12848628,55.5426706" id="Fill-33" fill="#EFA676"></path>
                    <path d="M3.39129288,55.7955507 C3.39129288,55.7955507 3.96473859,57.8047676 4.62116414,59.1941832 C5.08436862,60.1745962 6.03116384,60.8310974 6.99577461,60.5106809 C7.96002668,60.1902645 7.34275948,59.4942309 6.82162455,58.8241705 C6.30102767,58.1538691 6.40092632,57.7310061 6.28082077,57.3543646 C6.16125327,56.977241 3.39129288,55.7955507 3.39129288,55.7955507" id="Fill-35" fill="#F8D3A0"></path>
                    <path d="M2.19789568,55.0120761 C2.19789568,55.0120761 2.00587029,57.626812 2.18217256,58.6977395 C2.35763786,59.7683054 3.5960582,60.6626031 4.59546311,60.4803086 C5.59462889,60.2983154 5.02991161,59.3264597 4.60682202,58.589327 C4.18367265,57.8530983 3.79328478,57.6848449 3.72644655,57.2949456 C3.6596681,56.9055284 2.19789568,55.0120761 2.19789568,55.0120761" id="Fill-37" fill="#EFA676"></path>
                    <path d="M1.6800369,55.1340115 C1.6800369,55.1340115 2.00585833,57.6267759 2.18222039,58.6977636 C2.35768569,59.7682692 3.35254703,60.5158274 4.35171281,60.3341958 C5.35087859,60.1517807 4.83554268,59.3762005 4.41239332,58.6390678 C3.98930373,57.902598 4.14635564,57.4976933 4.07939784,57.1079747 C4.01273896,56.7178946 1.6800369,55.1340115 1.6800369,55.1340115" id="Fill-39" fill="#F8D3A0"></path>
                    <path d="M2.66340782,41.489054 C2.66340782,41.489054 0.100418761,52.3872522 0.0864293643,54.3099319 C0.072499751,56.2321898 0.0396186897,57.7183269 5.91695894,57.4211115 C7.3270782,57.3500618 8.43200143,57.5146994 8.43200143,57.5146994 C8.43200143,57.5146994 8.76828501,58.3636795 9.3138715,59.0013789 C10.0365972,59.845538 9.57506669,60.7190451 10.570765,60.8182976 C12.2758573,60.9878767 12.947707,61.2117525 13.0253661,59.4389459 C13.0869434,58.0116252 12.1815185,58.9917368 10.6441795,55.6717472 C9.10624254,52.3514562 9.45125455,42.8256795 8.99193601,42.1501955 C8.53261748,41.4746512 2.66340782,41.489054 2.66340782,41.489054" id="Fill-41" fill="#F8D3A0"></path>
                    <g id="Group-45" transform="translate(0.000000, 54.688351)" fill="#EFA676">
                        <path d="M0.0901957404,0.00670120623 C0.0901957404,0.00670120623 -0.101829658,2.62107557 0.0744726147,3.69242489 C0.249937915,4.76317159 1.48871695,5.65686662 2.4880023,5.47475291 C3.48698873,5.29233788 2.92239101,4.32090403 2.49918186,3.58377134 C2.07615206,2.84712076 1.94092122,2.81590471 1.87426234,2.42618618 C1.80730455,2.03658817 0.0901957404,0.00670120623 0.0901957404,0.00670120623" id="Fill-43"></path>
                    </g>
                    <g id="Group-48" transform="translate(0.000000, 54.688351)" fill="#F8D3A0">
                        <path d="M0.0901957404,0.00670120623 C0.0901957404,0.00670120623 -0.101829658,2.62107557 0.0744726147,3.69242489 C0.249937915,4.76317159 1.24527753,5.51024761 2.24420418,5.32819415 C3.24336995,5.14638175 2.72815362,4.37068097 2.3048249,3.63378934 C1.8817951,2.89707849 2.038847,2.49163141 1.97218812,2.1020334 C1.90493141,1.71255592 0.0901957404,0.00670120623 0.0901957404,0.00670120623" id="Fill-46"></path>
                    </g>
                    <path d="M9.66691246,50.182941 C9.65268393,51.760135 9.76441976,53.0761506 10.1231222,54.6429794 C10.2426897,55.1250806 10.422041,55.5469191 10.661176,56.0290203 C10.6721762,56.0474004 10.6841329,56.0648163 10.6953125,56.0830156 C10.5072926,54.3681215 9.85176381,51.8964491 10.2061619,49.6905349 C10.4053613,48.4518362 10.6296699,45.7329664 10.9089796,43.0790598 C10.0967576,45.3152258 9.68897267,47.7417012 9.66691246,50.182941" id="Fill-49" fill="#F6C38B"></path>
                    <path d="M2.02327334,40.1186693 C1.85187333,41.4509559 2.60490942,42.6239081 1.68005484,45.9998215 C1.3472985,47.2142343 0.917214217,48.7517152 0.818929735,50.1226904 C1.52174747,47.1513201 2.80548389,45.0340523 3.62876588,42.1077585 C2.7201127,42.2385887 2.22384781,41.2038188 2.02327334,40.1186693" id="Fill-51" fill="#F6C38B"></path>
                    <g id="Group-55" transform="translate(24.870039, 0.030131)" fill="#F8D3A0">
                        <path d="M16.0577293,0.0301252967 L0.044712265,0.0301252967 C1.05571523,3.13106027 2.1715191,6.25911343 2.41477917,7.34281659 C4.7655957,17.8173081 9.62200889,36.5957512 9.49347383,42.3901252 C9.46178845,43.8186512 12.970676,46.4962411 14.2759345,45.9391732 C15.887525,45.2513956 16.7643135,42.0016119 16.9228002,40.2446544 C17.0719008,38.5923732 16.0537836,37.7863603 16.4220515,35.4199667 C17.2837147,24.9674711 18.809934,10.9959984 16.0577293,0.0301252967" id="Fill-53"></path>
                    </g>
                    <g id="Group-58" transform="translate(0.956540, 0.030131)" fill="#F8D3A0">
                        <path d="M10.5358274,0.0301252967 C9.94928904,1.19843721 9.48973137,2.30142442 9.00446669,3.4009164 C4.44762986,13.7263784 4.54597412,33.6845833 3.31759746,35.8348148 C2.08922079,37.9849257 1.46023598,38.5644716 1.151154,39.6717375 C0.723520852,41.2037947 1.74307289,42.2481464 0.723520852,45.9696661 C-0.486442421,50.3860141 0.00246906879,56.950183 1.10745208,57.5690804 C2.5449523,58.3734059 8.25991989,56.6127725 9.74865478,57.3292953 C10.0164262,55.7948276 8.79241373,52.5059334 9.24963984,49.6603915 C9.59608666,47.5061225 10.0183393,40.8745799 10.6742865,37.8945318 C13.3152336,25.8970826 18.9139816,21.0494349 22.9454389,10.8070148 C24.3250684,7.30171747 25.2640319,3.30015725 25.8403473,0.0301252967 L10.5358274,0.0301252967 Z" id="Fill-56"></path>
                    </g>
                </g>
            </g>
        </g>
    </g>
</svg>